%
M48
M72
T01C0.0157
T02C0.0197
T03C0.0236
T04C0.0354
T05C0.0400
T06C0.0433
T07C0.0472
T08C0.0709
T09C0.1260
%
T01
X10590Y7440
X10590Y9930
X14940Y10920
X15300Y11280
X16140Y12990
X16200Y13650
X16140Y14370
X17760Y14220
X19170Y15570
X15300Y16050
X14940Y16410
X10590Y17370
X10590Y19830
X19170Y11850
X24300Y12090
X24780Y12300
X25530Y12150
X26010Y12150
X24810Y12810
X24390Y14040
X25890Y16110
X25080Y16170
X30960Y17670
X29220Y21390
X28590Y21390
T02
X27270Y20190
X23910Y21570
X31140Y21000
X32040Y17970
X28260Y17100
X29550Y14520
X30660Y14520
X27900Y13770
X26130Y13290
X26130Y12630
X24360Y13290
X22680Y13020
X22620Y13860
X22680Y14610
X23280Y14670
X22650Y15240
X21900Y15540
X20490Y15480
X22260Y11940
X22770Y11940
X21000Y10920
X19920Y9990
X16710Y11730
X16260Y10500
X14160Y9990
X13200Y9990
X23460Y6630
X23460Y4980
X29280Y5670
X24060Y10140
X25560Y10320
X26850Y10650
X26850Y11340
T03
X29520Y11250
X29520Y10140
X29520Y8970
X29550Y7830
X32370Y5640
X34290Y6960
X34620Y10110
X35130Y11250
X35610Y12360
X30270Y13541
X29520Y12360
X24030Y9540
X23490Y9060
X24810Y15660
X26430Y17550
X30660Y15930
X34950Y19350
X27900Y22230
X26460Y22080
X25200Y23040
X18510Y21360
T04
X36375Y18577
X36375Y17593
X36375Y16609
X36375Y15625
X36375Y14640
X36375Y13656
X36375Y12672
X36375Y10651
X36375Y9666
X36375Y8682
X36375Y7698
X36375Y6714
X36375Y5729
X36375Y4745
T05
X26140Y4720
X25140Y4720
X24140Y4720
X24140Y5720
X25140Y5720
X26140Y5720
X18310Y4980
X17310Y4980
X16310Y4980
X15310Y4980
X14310Y4980
X13310Y4980
X19980Y17080
X19980Y18080
X19980Y19390
X19980Y20390
X29220Y22710
X30220Y22710
X31220Y22710
X32220Y22710
T06
X34030Y22396
X36590Y22396
X36590Y20624
X34030Y20624
X30560Y6556
X28000Y6556
X28000Y4784
X30560Y4784
T07
X18252Y18109
X17252Y18109
X16252Y18109
X15252Y18109
X13252Y18109
X13252Y20109
X15252Y20109
X16252Y20109
X17252Y20109
X18252Y20109
T08
X11675Y19437
X9510Y19437
X9510Y17784
X11675Y17784
X11675Y16130
X9510Y16130
X9510Y14477
X11675Y14477
X11675Y12823
X9510Y12823
X9510Y11170
X11675Y11170
X11675Y9516
X9510Y9516
X9510Y7863
X11675Y7863
T09
X7856Y6091
X7856Y21209
M30
