G75*
G70*
%OFA0B0*%
%FSLAX24Y24*%
%IPPOS*%
%LPD*%
%AMOC8*
5,1,8,0,0,1.08239X$1,22.5*
%
%ADD10R,0.0787X0.0787*%
%ADD11R,0.0650X0.0650*%
%ADD12C,0.0600*%
%ADD13R,0.0531X0.0531*%
%ADD14OC8,0.0600*%
%ADD15R,0.1063X0.1063*%
%ADD16C,0.1660*%
%ADD17R,0.2799X0.1409*%
%ADD18R,0.0210X0.0768*%
%ADD19C,0.0240*%
%ADD20R,0.0376X0.0376*%
%ADD21R,0.0337X0.0337*%
%ADD22R,0.0297X0.0297*%
%ADD23C,0.0160*%
%ADD24C,0.0320*%
%ADD25C,0.0100*%
%ADD26C,0.0400*%
%ADD27C,0.1000*%
%ADD28C,0.1500*%
%ADD29C,0.0120*%
D10*
X013252Y018109D03*
X015252Y018109D03*
X016252Y018109D03*
X017252Y018109D03*
X018252Y018109D03*
X018252Y020109D03*
X017252Y020109D03*
X016252Y020109D03*
X015252Y020109D03*
X013252Y020109D03*
D11*
X034030Y020624D03*
X036590Y020624D03*
X036590Y022396D03*
X034030Y022396D03*
X030560Y006556D03*
X028000Y006556D03*
X028000Y004784D03*
X030560Y004784D03*
D12*
X018310Y004680D02*
X018310Y005280D01*
X017310Y005280D02*
X017310Y004680D01*
X016310Y004680D02*
X016310Y005280D01*
X015310Y005280D02*
X015310Y004680D01*
X014310Y004680D02*
X014310Y005280D01*
X013310Y005280D02*
X013310Y004680D01*
X019680Y017080D02*
X020280Y017080D01*
X020280Y018080D02*
X019680Y018080D01*
X019680Y019390D02*
X020280Y019390D01*
X020280Y020390D02*
X019680Y020390D01*
X029220Y022410D02*
X029220Y023010D01*
X030220Y023010D02*
X030220Y022410D01*
X031220Y022410D02*
X031220Y023010D01*
X032220Y023010D02*
X032220Y022410D01*
D13*
X036375Y018577D03*
X036375Y017593D03*
X036375Y016609D03*
X036375Y015625D03*
X036375Y014640D03*
X036375Y013656D03*
X036375Y012672D03*
X036375Y010651D03*
X036375Y009666D03*
X036375Y008682D03*
X036375Y007698D03*
X036375Y006714D03*
X036375Y005729D03*
X036375Y004745D03*
D14*
X026140Y004720D03*
X025140Y004720D03*
X024140Y004720D03*
X024140Y005720D03*
X025140Y005720D03*
X026140Y005720D03*
D15*
X011675Y007863D03*
X009510Y007863D03*
X009510Y009516D03*
X011675Y009516D03*
X011675Y011170D03*
X009510Y011170D03*
X009510Y012823D03*
X011675Y012823D03*
X011675Y014477D03*
X009510Y014477D03*
X009510Y016130D03*
X011675Y016130D03*
X011675Y017784D03*
X009510Y017784D03*
X009510Y019437D03*
X011675Y019437D03*
D16*
X007856Y021209D03*
X007856Y006091D03*
D17*
X014130Y012341D03*
X014130Y015019D03*
D18*
X024960Y019101D03*
X025460Y019101D03*
X025960Y019101D03*
X026460Y019101D03*
X026460Y021219D03*
X025960Y021219D03*
X025460Y021219D03*
X024960Y021219D03*
D19*
X024960Y022800D01*
X025200Y023040D01*
X025800Y022710D02*
X029220Y022710D01*
X027900Y022230D02*
X026970Y021300D01*
X026970Y020790D01*
X026280Y020100D01*
X024660Y020100D01*
X024510Y019950D01*
X024510Y017910D01*
X025890Y016530D01*
X025890Y016110D01*
X025080Y016170D02*
X025080Y016710D01*
X024060Y017730D01*
X024060Y020370D01*
X024240Y020550D01*
X025260Y020550D01*
X025460Y020750D01*
X025460Y021219D01*
X025460Y022370D01*
X025800Y022710D01*
X026460Y022080D02*
X026460Y021219D01*
X027900Y020940D02*
X028140Y020700D01*
X029100Y020700D01*
X029220Y020820D01*
X029220Y021390D01*
X027900Y020940D02*
X027900Y022230D01*
X032220Y022710D02*
X032760Y023250D01*
X034860Y023250D01*
X035280Y022830D01*
X035280Y019860D01*
X034950Y019530D01*
X034950Y019350D01*
X034950Y019230D01*
X034950Y019350D01*
X034950Y019230D02*
X034950Y018870D01*
X034530Y018450D01*
X031260Y018450D01*
X030960Y018150D01*
X030960Y017670D01*
X030450Y018450D02*
X030000Y018000D01*
X030000Y015060D01*
X027780Y015060D01*
X027540Y014820D01*
X027300Y014580D01*
X026130Y013410D01*
X026130Y013290D01*
X026010Y013290D01*
X024360Y013290D01*
X026130Y012630D02*
X026640Y012630D01*
X027150Y013140D01*
X027150Y013770D01*
X027540Y014160D01*
X027780Y014400D01*
X027810Y014430D01*
X027840Y014460D01*
X027900Y014520D01*
X029550Y014520D01*
X030000Y014580D02*
X030000Y013811D01*
X030270Y013541D01*
X029520Y012791D01*
X029520Y012360D01*
X029520Y011250D01*
X029520Y010230D01*
X029520Y010140D01*
X029520Y010050D01*
X029520Y010110D01*
X029520Y010140D02*
X029520Y010230D01*
X029520Y010050D02*
X029520Y008970D01*
X030660Y008970D01*
X031290Y008340D01*
X031290Y006976D01*
X030870Y006556D01*
X030560Y006556D01*
X032370Y005640D02*
X032370Y015570D01*
X032040Y015900D01*
X032010Y015930D01*
X030660Y015930D01*
X030660Y014520D01*
X030000Y014580D02*
X030000Y014820D01*
X030000Y015060D01*
X030660Y015930D02*
X030870Y015930D01*
X031175Y016235D01*
X031800Y016860D01*
X032700Y017760D01*
X034980Y017760D01*
X035610Y018390D01*
X035610Y019200D01*
X036120Y019710D01*
X037170Y019710D01*
X037410Y019950D01*
X037410Y022020D01*
X037020Y022410D01*
X036604Y022410D01*
X036590Y022396D01*
X036375Y018577D02*
X036382Y018570D01*
X036810Y018570D01*
X037410Y017970D01*
X037410Y005580D01*
X037320Y005490D01*
X036575Y004745D01*
X036375Y004745D01*
X035770Y004140D01*
X011460Y004140D01*
X011430Y004170D01*
X010590Y005010D01*
X010590Y007440D01*
X014280Y012720D02*
X014370Y012810D01*
X014370Y012990D01*
X014730Y013350D01*
X015780Y013350D01*
X015810Y013320D01*
X016140Y012990D01*
X015780Y014010D02*
X014730Y014010D01*
X014130Y014610D01*
X014130Y015019D01*
X015780Y014010D02*
X016140Y014370D01*
X024960Y018120D02*
X026130Y016950D01*
X028110Y016950D01*
X028260Y017100D01*
X026430Y017550D02*
X025960Y018020D01*
X025960Y019101D01*
X026460Y019101D01*
X025960Y019101D02*
X025460Y019101D01*
X024960Y019101D02*
X024960Y018120D01*
X030450Y018450D02*
X031260Y018450D01*
X034110Y016080D02*
X034110Y009300D01*
X034110Y008910D01*
X034110Y007140D01*
X034290Y006960D01*
X034545Y006705D01*
X035490Y005760D01*
X036344Y005760D01*
X036375Y005729D01*
X036375Y006714D02*
X036279Y006810D01*
X035520Y006810D01*
X034620Y007710D01*
X034620Y009750D01*
X034620Y009930D01*
X034620Y009990D01*
X034620Y010110D01*
X034620Y015420D01*
X034680Y015480D01*
X035809Y016609D01*
X036375Y016609D01*
X036375Y015625D02*
X035965Y015625D01*
X035130Y014790D01*
X035130Y011250D01*
X035130Y011040D01*
X035130Y010830D01*
X035130Y010740D01*
X035130Y008280D01*
X035670Y007740D01*
X036333Y007740D01*
X036375Y007698D01*
X036375Y008682D02*
X036357Y008700D01*
X036060Y008700D01*
X035610Y009150D01*
X035610Y011550D01*
X035610Y011670D01*
X035610Y012150D01*
X035610Y012360D01*
X035610Y014130D01*
X036120Y014640D01*
X036375Y014640D01*
X034170Y016140D02*
X034110Y016080D01*
X034170Y016140D02*
X035623Y017593D01*
X036375Y017593D01*
D20*
X034950Y019350D03*
X030660Y015930D03*
X030270Y013541D03*
X029520Y012360D03*
X029520Y011250D03*
X029520Y010140D03*
X029520Y008970D03*
X029550Y007830D03*
X032370Y005640D03*
X034290Y006960D03*
X034620Y010110D03*
X035130Y011250D03*
X035610Y012360D03*
X026430Y017550D03*
X024810Y015660D03*
X018510Y021360D03*
X025200Y023040D03*
X026460Y022080D03*
X027900Y022230D03*
X024030Y009540D03*
X023490Y009060D03*
D21*
X024060Y010140D03*
X025560Y010320D03*
X026850Y010650D03*
X026850Y011340D03*
X026130Y012630D03*
X026130Y013290D03*
X024360Y013290D03*
X022680Y013020D03*
X022620Y013860D03*
X022680Y014610D03*
X023280Y014670D03*
X022650Y015240D03*
X021900Y015540D03*
X020490Y015480D03*
X022260Y011940D03*
X022770Y011940D03*
X021000Y010920D03*
X019920Y009990D03*
X016710Y011730D03*
X016260Y010500D03*
X014160Y009990D03*
X013200Y009990D03*
X023460Y006630D03*
X023460Y004980D03*
X029280Y005670D03*
X027900Y013770D03*
X029550Y014520D03*
X030660Y014520D03*
X028260Y017100D03*
X032040Y017970D03*
X027270Y020190D03*
X023910Y021570D03*
X031140Y021000D03*
D22*
X029220Y021390D03*
X028590Y021390D03*
X030960Y017670D03*
X025890Y016110D03*
X025080Y016170D03*
X024390Y014040D03*
X024810Y012810D03*
X024780Y012300D03*
X024300Y012090D03*
X025530Y012150D03*
X026010Y012150D03*
X019170Y011850D03*
X016140Y012990D03*
X016200Y013650D03*
X016140Y014370D03*
X017760Y014220D03*
X019170Y015570D03*
X015300Y016050D03*
X014940Y016410D03*
X010590Y017370D03*
X010590Y019830D03*
X015300Y011280D03*
X014940Y010920D03*
X010590Y009930D03*
X010590Y007440D03*
D23*
X004010Y003920D02*
X004010Y023444D01*
X029066Y023444D01*
X028959Y023400D01*
X028830Y023271D01*
X028760Y023101D01*
X028760Y022990D01*
X025744Y022990D01*
X025641Y022947D01*
X025563Y022869D01*
X025548Y022854D01*
X025548Y023294D01*
X025454Y023388D01*
X024946Y023388D01*
X024852Y023294D01*
X024852Y023088D01*
X024723Y022959D01*
X024680Y022856D01*
X024680Y021164D01*
X024695Y021127D01*
X024695Y020830D01*
X024184Y020830D01*
X024081Y020787D01*
X023901Y020607D01*
X023823Y020529D01*
X023780Y020426D01*
X023780Y017674D01*
X023823Y017571D01*
X024800Y016594D01*
X024800Y016414D01*
X024771Y016385D01*
X024771Y016008D01*
X024556Y016008D01*
X024462Y015914D01*
X024462Y015900D01*
X022092Y015900D01*
X022016Y015868D01*
X021665Y015868D01*
X021572Y015775D01*
X021572Y015305D01*
X021665Y015212D01*
X022135Y015212D01*
X022228Y015305D01*
X022228Y015409D01*
X022239Y015420D01*
X022322Y015420D01*
X022322Y015005D01*
X022415Y014912D01*
X022418Y014912D01*
X022352Y014845D01*
X022352Y014500D01*
X022169Y014500D01*
X022040Y014371D01*
X021650Y013981D01*
X021650Y013501D01*
X020810Y012661D01*
X020710Y012561D01*
X020710Y015152D01*
X020725Y015152D01*
X020818Y015245D01*
X020818Y015715D01*
X020725Y015808D01*
X020255Y015808D01*
X020162Y015715D01*
X020162Y015245D01*
X020255Y015152D01*
X020270Y015152D01*
X020270Y012511D01*
X019469Y011710D01*
X017041Y011710D01*
X017038Y011713D01*
X017038Y011965D01*
X016945Y012058D01*
X016475Y012058D01*
X016382Y011965D01*
X016382Y011495D01*
X016437Y011440D01*
X016079Y011440D01*
X015809Y011170D01*
X015715Y011076D01*
X015720Y011089D01*
X015720Y012671D01*
X015690Y012745D01*
X015690Y013044D01*
X015831Y012903D01*
X015831Y012775D01*
X015925Y012681D01*
X016355Y012681D01*
X016449Y012775D01*
X016449Y013205D01*
X016355Y013299D01*
X016227Y013299D01*
X016185Y013341D01*
X016415Y013341D01*
X016509Y013435D01*
X016509Y013740D01*
X017568Y013740D01*
X017656Y013777D01*
X017791Y013911D01*
X017975Y013911D01*
X018069Y014005D01*
X018069Y014435D01*
X017975Y014529D01*
X017545Y014529D01*
X017451Y014435D01*
X017451Y014251D01*
X017421Y014220D01*
X016449Y014220D01*
X016449Y014585D01*
X016355Y014679D01*
X015925Y014679D01*
X015831Y014585D01*
X015831Y014457D01*
X015690Y014316D01*
X015690Y014585D01*
X015692Y014588D01*
X015701Y014648D01*
X015723Y014704D01*
X015721Y014776D01*
X015732Y014847D01*
X015718Y014906D01*
X015717Y014967D01*
X015690Y015028D01*
X015690Y015185D01*
X015720Y015259D01*
X015720Y016301D01*
X015620Y016544D01*
X015434Y016730D01*
X015191Y016830D01*
X009611Y016830D01*
X009349Y016830D01*
X009329Y016822D01*
X008912Y016822D01*
X008819Y016728D01*
X008819Y015533D01*
X008820Y015531D01*
X008820Y015076D01*
X008819Y015075D01*
X008819Y013879D01*
X008912Y013785D01*
X010108Y013785D01*
X010122Y013800D01*
X011063Y013800D01*
X011078Y013785D01*
X012273Y013785D01*
X012288Y013800D01*
X013781Y013800D01*
X014024Y013900D01*
X014234Y014110D01*
X014493Y013851D01*
X014571Y013773D01*
X014674Y013730D01*
X015836Y013730D01*
X015891Y013753D01*
X015891Y013607D01*
X015836Y013630D01*
X014674Y013630D01*
X014571Y013587D01*
X014234Y013250D01*
X014101Y013383D01*
X013858Y013483D01*
X012305Y013483D01*
X012273Y013515D01*
X011078Y013515D01*
X011046Y013483D01*
X010139Y013483D01*
X010108Y013515D01*
X008912Y013515D01*
X008819Y013421D01*
X008819Y012225D01*
X008820Y012224D01*
X008820Y011769D01*
X008819Y011767D01*
X008819Y010572D01*
X008912Y010478D01*
X010108Y010478D01*
X010130Y010500D01*
X011056Y010500D01*
X011078Y010478D01*
X012273Y010478D01*
X012295Y010500D01*
X015161Y010500D01*
X015404Y010600D01*
X015590Y010786D01*
X015611Y010837D01*
X015620Y010846D01*
X015680Y010992D01*
X015680Y010561D01*
X015329Y010210D01*
X014488Y010210D01*
X014488Y010225D01*
X014395Y010318D01*
X013925Y010318D01*
X013832Y010225D01*
X013832Y009755D01*
X013920Y009667D01*
X013920Y008922D01*
X013957Y008834D01*
X014024Y008767D01*
X017070Y005721D01*
X017070Y005678D01*
X017049Y005670D01*
X016920Y005541D01*
X016850Y005371D01*
X016850Y004588D01*
X016920Y004420D01*
X016700Y004420D01*
X016770Y004588D01*
X016770Y005371D01*
X016700Y005541D01*
X016571Y005670D01*
X016560Y005674D01*
X016560Y005838D01*
X016523Y005926D01*
X013440Y009009D01*
X013440Y009667D01*
X013528Y009755D01*
X013528Y010225D01*
X013435Y010318D01*
X012965Y010318D01*
X012872Y010225D01*
X012872Y009755D01*
X012960Y009667D01*
X012960Y008862D01*
X012997Y008774D01*
X013064Y008707D01*
X016080Y005691D01*
X016080Y005683D01*
X016049Y005670D01*
X015920Y005541D01*
X015850Y005371D01*
X015850Y004588D01*
X015920Y004420D01*
X015700Y004420D01*
X015770Y004588D01*
X015770Y005371D01*
X015700Y005541D01*
X015571Y005670D01*
X015401Y005740D01*
X015218Y005740D01*
X015049Y005670D01*
X014920Y005541D01*
X014850Y005371D01*
X014850Y004588D01*
X014920Y004420D01*
X014714Y004420D01*
X014721Y004428D01*
X014755Y004496D01*
X014778Y004568D01*
X014790Y004642D01*
X014790Y004960D01*
X014330Y004960D01*
X014330Y005000D01*
X014290Y005000D01*
X014290Y005760D01*
X014272Y005760D01*
X014198Y005748D01*
X014126Y005725D01*
X014058Y005691D01*
X013997Y005646D01*
X013944Y005593D01*
X013899Y005532D01*
X013865Y005464D01*
X013842Y005392D01*
X013830Y005318D01*
X013830Y005000D01*
X014290Y005000D01*
X014290Y004960D01*
X013830Y004960D01*
X013830Y004642D01*
X013842Y004568D01*
X013865Y004496D01*
X013899Y004428D01*
X013906Y004420D01*
X013714Y004420D01*
X013721Y004428D01*
X013755Y004496D01*
X013778Y004568D01*
X013790Y004642D01*
X013790Y004960D01*
X013330Y004960D01*
X013330Y005000D01*
X013290Y005000D01*
X013290Y005760D01*
X013272Y005760D01*
X013198Y005748D01*
X013126Y005725D01*
X013058Y005691D01*
X012997Y005646D01*
X012944Y005593D01*
X012899Y005532D01*
X012865Y005464D01*
X012842Y005392D01*
X012830Y005318D01*
X012830Y005000D01*
X013290Y005000D01*
X013290Y004960D01*
X012830Y004960D01*
X012830Y004642D01*
X012842Y004568D01*
X012865Y004496D01*
X012899Y004428D01*
X012906Y004420D01*
X011576Y004420D01*
X010870Y005126D01*
X010870Y006950D01*
X011851Y006950D01*
X012185Y007089D01*
X012268Y007171D01*
X012273Y007171D01*
X012367Y007265D01*
X012367Y007270D01*
X012441Y007345D01*
X012580Y007679D01*
X012580Y009721D01*
X012441Y010055D01*
X012185Y010311D01*
X011851Y010450D01*
X008567Y010450D01*
X007630Y011387D01*
X007630Y015883D01*
X008525Y016779D01*
X008621Y016874D01*
X011856Y016874D01*
X012191Y017012D01*
X012271Y017092D01*
X012273Y017092D01*
X012367Y017186D01*
X012367Y017188D01*
X012447Y017268D01*
X012585Y017603D01*
X012585Y017965D01*
X012580Y017978D01*
X012580Y019651D01*
X012441Y019985D01*
X012185Y020241D01*
X011851Y020380D01*
X011489Y020380D01*
X011417Y020350D01*
X008369Y020350D01*
X008417Y020370D01*
X008696Y020648D01*
X008846Y021012D01*
X008846Y021406D01*
X008696Y021770D01*
X008417Y022048D01*
X008053Y022199D01*
X007660Y022199D01*
X007296Y022048D01*
X007017Y021770D01*
X006867Y021406D01*
X006867Y021012D01*
X007017Y020648D01*
X007296Y020370D01*
X007344Y020350D01*
X006809Y020350D01*
X006475Y020211D01*
X004599Y018335D01*
X004509Y018245D01*
X004370Y017911D01*
X004370Y009749D01*
X004509Y009415D01*
X006189Y007735D01*
X006579Y007345D01*
X006835Y007089D01*
X007169Y006950D01*
X007344Y006950D01*
X007296Y006930D01*
X007017Y006652D01*
X006867Y006288D01*
X006867Y005894D01*
X007017Y005530D01*
X007296Y005252D01*
X007660Y005101D01*
X008053Y005101D01*
X008417Y005252D01*
X008696Y005530D01*
X008846Y005894D01*
X008846Y006288D01*
X008696Y006652D01*
X008417Y006930D01*
X008369Y006950D01*
X010310Y006950D01*
X010310Y004954D01*
X010353Y004851D01*
X011193Y004011D01*
X011223Y003981D01*
X011277Y003927D01*
X004010Y003920D01*
X004010Y003977D02*
X011227Y003977D01*
X011069Y004136D02*
X004010Y004136D01*
X004010Y004294D02*
X010910Y004294D01*
X010752Y004453D02*
X004010Y004453D01*
X004010Y004611D02*
X010593Y004611D01*
X010435Y004770D02*
X004010Y004770D01*
X004010Y004928D02*
X010321Y004928D01*
X010310Y005087D02*
X004010Y005087D01*
X004010Y005245D02*
X007312Y005245D01*
X007144Y005404D02*
X004010Y005404D01*
X004010Y005562D02*
X007004Y005562D01*
X006938Y005721D02*
X004010Y005721D01*
X004010Y005879D02*
X006873Y005879D01*
X006867Y006038D02*
X004010Y006038D01*
X004010Y006196D02*
X006867Y006196D01*
X006894Y006355D02*
X004010Y006355D01*
X004010Y006513D02*
X006960Y006513D01*
X007037Y006672D02*
X004010Y006672D01*
X004010Y006830D02*
X007196Y006830D01*
X007076Y006989D02*
X004010Y006989D01*
X004010Y007147D02*
X006776Y007147D01*
X006618Y007306D02*
X004010Y007306D01*
X004010Y007464D02*
X006459Y007464D01*
X006301Y007623D02*
X004010Y007623D01*
X004010Y007781D02*
X006142Y007781D01*
X006189Y007735D02*
X006189Y007735D01*
X005984Y007940D02*
X004010Y007940D01*
X004010Y008098D02*
X005825Y008098D01*
X005667Y008257D02*
X004010Y008257D01*
X004010Y008415D02*
X005508Y008415D01*
X005350Y008574D02*
X004010Y008574D01*
X004010Y008732D02*
X005191Y008732D01*
X005033Y008891D02*
X004010Y008891D01*
X004010Y009049D02*
X004874Y009049D01*
X004716Y009208D02*
X004010Y009208D01*
X004010Y009366D02*
X004557Y009366D01*
X004463Y009525D02*
X004010Y009525D01*
X004010Y009683D02*
X004397Y009683D01*
X004370Y009842D02*
X004010Y009842D01*
X004010Y010000D02*
X004370Y010000D01*
X004370Y010159D02*
X004010Y010159D01*
X004010Y010317D02*
X004370Y010317D01*
X004370Y010476D02*
X004010Y010476D01*
X004010Y010634D02*
X004370Y010634D01*
X004370Y010793D02*
X004010Y010793D01*
X004010Y010951D02*
X004370Y010951D01*
X004370Y011110D02*
X004010Y011110D01*
X004010Y011268D02*
X004370Y011268D01*
X004370Y011427D02*
X004010Y011427D01*
X004010Y011585D02*
X004370Y011585D01*
X004370Y011744D02*
X004010Y011744D01*
X004010Y011902D02*
X004370Y011902D01*
X004370Y012061D02*
X004010Y012061D01*
X004010Y012219D02*
X004370Y012219D01*
X004370Y012378D02*
X004010Y012378D01*
X004010Y012536D02*
X004370Y012536D01*
X004370Y012695D02*
X004010Y012695D01*
X004010Y012853D02*
X004370Y012853D01*
X004370Y013012D02*
X004010Y013012D01*
X004010Y013170D02*
X004370Y013170D01*
X004370Y013329D02*
X004010Y013329D01*
X004010Y013487D02*
X004370Y013487D01*
X004370Y013646D02*
X004010Y013646D01*
X004010Y013804D02*
X004370Y013804D01*
X004370Y013963D02*
X004010Y013963D01*
X004010Y014121D02*
X004370Y014121D01*
X004370Y014280D02*
X004010Y014280D01*
X004010Y014438D02*
X004370Y014438D01*
X004370Y014597D02*
X004010Y014597D01*
X004010Y014755D02*
X004370Y014755D01*
X004370Y014914D02*
X004010Y014914D01*
X004010Y015072D02*
X004370Y015072D01*
X004370Y015231D02*
X004010Y015231D01*
X004010Y015389D02*
X004370Y015389D01*
X004370Y015548D02*
X004010Y015548D01*
X004010Y015706D02*
X004370Y015706D01*
X004370Y015865D02*
X004010Y015865D01*
X004010Y016023D02*
X004370Y016023D01*
X004370Y016182D02*
X004010Y016182D01*
X004010Y016340D02*
X004370Y016340D01*
X004370Y016499D02*
X004010Y016499D01*
X004010Y016657D02*
X004370Y016657D01*
X004370Y016816D02*
X004010Y016816D01*
X004010Y016974D02*
X004370Y016974D01*
X004370Y017133D02*
X004010Y017133D01*
X004010Y017291D02*
X004370Y017291D01*
X004370Y017450D02*
X004010Y017450D01*
X004010Y017608D02*
X004370Y017608D01*
X004370Y017767D02*
X004010Y017767D01*
X004010Y017925D02*
X004376Y017925D01*
X004441Y018084D02*
X004010Y018084D01*
X004010Y018242D02*
X004507Y018242D01*
X004599Y018335D02*
X004599Y018335D01*
X004664Y018401D02*
X004010Y018401D01*
X004010Y018559D02*
X004822Y018559D01*
X004981Y018718D02*
X004010Y018718D01*
X004010Y018876D02*
X005139Y018876D01*
X005298Y019035D02*
X004010Y019035D01*
X004010Y019193D02*
X005456Y019193D01*
X005615Y019352D02*
X004010Y019352D01*
X004010Y019510D02*
X005773Y019510D01*
X005932Y019669D02*
X004010Y019669D01*
X004010Y019827D02*
X006090Y019827D01*
X006249Y019986D02*
X004010Y019986D01*
X004010Y020144D02*
X006407Y020144D01*
X006694Y020303D02*
X004010Y020303D01*
X004010Y020461D02*
X007205Y020461D01*
X007046Y020620D02*
X004010Y020620D01*
X004010Y020778D02*
X006964Y020778D01*
X006898Y020937D02*
X004010Y020937D01*
X004010Y021095D02*
X006867Y021095D01*
X006867Y021254D02*
X004010Y021254D01*
X004010Y021412D02*
X006869Y021412D01*
X006935Y021571D02*
X004010Y021571D01*
X004010Y021729D02*
X007000Y021729D01*
X007135Y021888D02*
X004010Y021888D01*
X004010Y022046D02*
X007293Y022046D01*
X008419Y022046D02*
X024680Y022046D01*
X024680Y021888D02*
X008578Y021888D01*
X008713Y021729D02*
X024680Y021729D01*
X024680Y021571D02*
X018858Y021571D01*
X018858Y021614D02*
X018764Y021708D01*
X018610Y021708D01*
X018582Y021720D01*
X018438Y021720D01*
X018410Y021708D01*
X018256Y021708D01*
X018162Y021614D01*
X018162Y021460D01*
X018150Y021432D01*
X018150Y021288D01*
X018162Y021260D01*
X018162Y021106D01*
X018256Y021012D01*
X018349Y021012D01*
X018630Y020731D01*
X018630Y020663D01*
X017792Y020663D01*
X017766Y020637D01*
X017757Y020647D01*
X017715Y020670D01*
X017670Y020683D01*
X017290Y020683D01*
X017290Y020147D01*
X017214Y020147D01*
X017214Y020683D01*
X016835Y020683D01*
X016789Y020670D01*
X016748Y020647D01*
X016738Y020637D01*
X016712Y020663D01*
X015792Y020663D01*
X015752Y020623D01*
X015712Y020663D01*
X014792Y020663D01*
X014699Y020569D01*
X014699Y019649D01*
X014792Y019555D01*
X015712Y019555D01*
X015752Y019595D01*
X015792Y019555D01*
X016712Y019555D01*
X016738Y019581D01*
X016748Y019571D01*
X016789Y019547D01*
X016835Y019535D01*
X017214Y019535D01*
X017214Y020071D01*
X017290Y020071D01*
X017290Y019535D01*
X017670Y019535D01*
X017715Y019547D01*
X017757Y019571D01*
X017766Y019581D01*
X017792Y019555D01*
X018630Y019555D01*
X018630Y019470D01*
X017658Y019470D01*
X017526Y019415D01*
X017425Y019314D01*
X016947Y018836D01*
X016892Y018704D01*
X016892Y018663D01*
X016792Y018663D01*
X016752Y018623D01*
X016712Y018663D01*
X015792Y018663D01*
X015752Y018623D01*
X015712Y018663D01*
X014792Y018663D01*
X014699Y018569D01*
X014699Y017649D01*
X014792Y017555D01*
X015712Y017555D01*
X015752Y017595D01*
X015792Y017555D01*
X016712Y017555D01*
X016752Y017595D01*
X016792Y017555D01*
X017712Y017555D01*
X017752Y017595D01*
X017792Y017555D01*
X018712Y017555D01*
X018806Y017649D01*
X018806Y018569D01*
X018712Y018663D01*
X017792Y018663D01*
X017752Y018623D01*
X017879Y018750D01*
X018912Y018750D01*
X019044Y018805D01*
X019194Y018955D01*
X019295Y019056D01*
X019315Y019104D01*
X019419Y019000D01*
X019588Y018930D01*
X020371Y018930D01*
X020541Y019000D01*
X020670Y019129D01*
X020740Y019298D01*
X020740Y019481D01*
X020670Y019651D01*
X020541Y019780D01*
X020371Y019850D01*
X019588Y019850D01*
X019419Y019780D01*
X019350Y019711D01*
X019350Y020069D01*
X019419Y020000D01*
X019588Y019930D01*
X020371Y019930D01*
X020541Y020000D01*
X020670Y020129D01*
X020740Y020298D01*
X020740Y020481D01*
X020670Y020651D01*
X020541Y020780D01*
X020371Y020850D01*
X019588Y020850D01*
X019419Y020780D01*
X019350Y020711D01*
X019350Y020952D01*
X019295Y021084D01*
X018858Y021521D01*
X018858Y021614D01*
X018967Y021412D02*
X024680Y021412D01*
X024680Y021254D02*
X019126Y021254D01*
X019284Y021095D02*
X024695Y021095D01*
X024695Y020937D02*
X019350Y020937D01*
X019350Y020778D02*
X019417Y020778D01*
X018583Y020778D02*
X008749Y020778D01*
X008815Y020937D02*
X018424Y020937D01*
X018172Y021095D02*
X008846Y021095D01*
X008846Y021254D02*
X018162Y021254D01*
X018150Y021412D02*
X008844Y021412D01*
X008778Y021571D02*
X018162Y021571D01*
X017290Y020620D02*
X017214Y020620D01*
X017214Y020461D02*
X017290Y020461D01*
X017290Y020303D02*
X017214Y020303D01*
X017214Y019986D02*
X017290Y019986D01*
X017290Y019827D02*
X017214Y019827D01*
X017214Y019669D02*
X017290Y019669D01*
X017462Y019352D02*
X012580Y019352D01*
X012580Y019510D02*
X018630Y019510D01*
X019350Y019827D02*
X019533Y019827D01*
X019454Y019986D02*
X019350Y019986D01*
X020427Y019827D02*
X023780Y019827D01*
X023780Y019669D02*
X020652Y019669D01*
X020728Y019510D02*
X023780Y019510D01*
X023780Y019352D02*
X020740Y019352D01*
X020696Y019193D02*
X023780Y019193D01*
X023780Y019035D02*
X020575Y019035D01*
X020371Y018540D02*
X019588Y018540D01*
X019419Y018470D01*
X019290Y018341D01*
X019220Y018171D01*
X019220Y017988D01*
X019290Y017819D01*
X019419Y017690D01*
X019588Y017620D01*
X020371Y017620D01*
X020541Y017690D01*
X020670Y017819D01*
X020740Y017988D01*
X020740Y018171D01*
X020670Y018341D01*
X020541Y018470D01*
X020371Y018540D01*
X020610Y018401D02*
X023780Y018401D01*
X023780Y018559D02*
X018806Y018559D01*
X018806Y018401D02*
X019350Y018401D01*
X019249Y018242D02*
X018806Y018242D01*
X018806Y018084D02*
X019220Y018084D01*
X019246Y017925D02*
X018806Y017925D01*
X018806Y017767D02*
X019343Y017767D01*
X019419Y017470D02*
X019588Y017540D01*
X020371Y017540D01*
X020541Y017470D01*
X020670Y017341D01*
X020740Y017171D01*
X020740Y016988D01*
X020670Y016819D01*
X020541Y016690D01*
X020371Y016620D01*
X019588Y016620D01*
X019419Y016690D01*
X019290Y016819D01*
X019220Y016988D01*
X019220Y017171D01*
X019290Y017341D01*
X019419Y017470D01*
X019399Y017450D02*
X012522Y017450D01*
X012585Y017608D02*
X012739Y017608D01*
X012699Y017649D02*
X012792Y017555D01*
X013712Y017555D01*
X013806Y017649D01*
X013806Y018569D01*
X013712Y018663D01*
X012792Y018663D01*
X012699Y018569D01*
X012699Y017649D01*
X012699Y017767D02*
X012585Y017767D01*
X012585Y017925D02*
X012699Y017925D01*
X012699Y018084D02*
X012580Y018084D01*
X012580Y018242D02*
X012699Y018242D01*
X012699Y018401D02*
X012580Y018401D01*
X012580Y018559D02*
X012699Y018559D01*
X012580Y018718D02*
X016898Y018718D01*
X016987Y018876D02*
X012580Y018876D01*
X012580Y019035D02*
X017145Y019035D01*
X017304Y019193D02*
X012580Y019193D01*
X012792Y019555D02*
X013712Y019555D01*
X013806Y019649D01*
X013806Y020569D01*
X013712Y020663D01*
X012792Y020663D01*
X012699Y020569D01*
X012699Y019649D01*
X012792Y019555D01*
X012699Y019669D02*
X012573Y019669D01*
X012507Y019827D02*
X012699Y019827D01*
X012699Y019986D02*
X012441Y019986D01*
X012283Y020144D02*
X012699Y020144D01*
X012699Y020303D02*
X012038Y020303D01*
X012699Y020461D02*
X008508Y020461D01*
X008667Y020620D02*
X012749Y020620D01*
X013755Y020620D02*
X014749Y020620D01*
X014699Y020461D02*
X013806Y020461D01*
X013806Y020303D02*
X014699Y020303D01*
X014699Y020144D02*
X013806Y020144D01*
X013806Y019986D02*
X014699Y019986D01*
X014699Y019827D02*
X013806Y019827D01*
X013806Y019669D02*
X014699Y019669D01*
X014699Y018559D02*
X013806Y018559D01*
X013806Y018401D02*
X014699Y018401D01*
X014699Y018242D02*
X013806Y018242D01*
X013806Y018084D02*
X014699Y018084D01*
X014699Y017925D02*
X013806Y017925D01*
X013806Y017767D02*
X014699Y017767D01*
X014739Y017608D02*
X013765Y017608D01*
X012456Y017291D02*
X019270Y017291D01*
X019220Y017133D02*
X012313Y017133D01*
X012098Y016974D02*
X019226Y016974D01*
X019294Y016816D02*
X015226Y016816D01*
X015506Y016657D02*
X019499Y016657D01*
X020461Y016657D02*
X024737Y016657D01*
X024800Y016499D02*
X015638Y016499D01*
X015704Y016340D02*
X024771Y016340D01*
X024771Y016182D02*
X015720Y016182D01*
X015720Y016023D02*
X024771Y016023D01*
X025080Y016170D02*
X025140Y016110D01*
X024810Y015660D02*
X024150Y015660D01*
X022140Y015660D01*
X022020Y015540D01*
X021900Y015540D01*
X021572Y015548D02*
X020818Y015548D01*
X020818Y015706D02*
X021572Y015706D01*
X021661Y015865D02*
X015720Y015865D01*
X015720Y015706D02*
X020162Y015706D01*
X020162Y015548D02*
X015720Y015548D01*
X015720Y015389D02*
X020162Y015389D01*
X020176Y015231D02*
X015708Y015231D01*
X015690Y015072D02*
X020270Y015072D01*
X020270Y014914D02*
X015718Y014914D01*
X015722Y014755D02*
X020270Y014755D01*
X020270Y014597D02*
X016437Y014597D01*
X016449Y014438D02*
X017454Y014438D01*
X017451Y014280D02*
X016449Y014280D01*
X015812Y014438D02*
X015690Y014438D01*
X015693Y014597D02*
X015843Y014597D01*
X016380Y013980D02*
X017520Y013980D01*
X017760Y014220D01*
X018069Y014280D02*
X020270Y014280D01*
X020270Y014438D02*
X018066Y014438D01*
X018069Y014121D02*
X020270Y014121D01*
X020270Y013963D02*
X018026Y013963D01*
X017683Y013804D02*
X020270Y013804D01*
X020270Y013646D02*
X016509Y013646D01*
X016509Y013487D02*
X020270Y013487D01*
X020270Y013329D02*
X016197Y013329D01*
X016449Y013170D02*
X020270Y013170D01*
X020270Y013012D02*
X016449Y013012D01*
X016449Y012853D02*
X020270Y012853D01*
X020270Y012695D02*
X016368Y012695D01*
X015912Y012695D02*
X015710Y012695D01*
X015720Y012536D02*
X020270Y012536D01*
X020136Y012378D02*
X015720Y012378D01*
X015720Y012219D02*
X019978Y012219D01*
X019819Y012061D02*
X015720Y012061D01*
X015720Y011902D02*
X016382Y011902D01*
X016382Y011744D02*
X015720Y011744D01*
X015720Y011585D02*
X016382Y011585D01*
X016065Y011427D02*
X015720Y011427D01*
X015720Y011268D02*
X015907Y011268D01*
X015748Y011110D02*
X015720Y011110D01*
X015680Y010951D02*
X015663Y010951D01*
X015680Y010793D02*
X015592Y010793D01*
X015680Y010634D02*
X015437Y010634D01*
X015594Y010476D02*
X008541Y010476D01*
X008383Y010634D02*
X008819Y010634D01*
X008819Y010793D02*
X008224Y010793D01*
X008066Y010951D02*
X008819Y010951D01*
X008819Y011110D02*
X007907Y011110D01*
X007749Y011268D02*
X008819Y011268D01*
X008819Y011427D02*
X007630Y011427D01*
X007630Y011585D02*
X008819Y011585D01*
X008819Y011744D02*
X007630Y011744D01*
X007630Y011902D02*
X008820Y011902D01*
X008820Y012061D02*
X007630Y012061D01*
X007630Y012219D02*
X008820Y012219D01*
X008819Y012378D02*
X007630Y012378D01*
X007630Y012536D02*
X008819Y012536D01*
X008819Y012695D02*
X007630Y012695D01*
X007630Y012853D02*
X008819Y012853D01*
X008819Y013012D02*
X007630Y013012D01*
X007630Y013170D02*
X008819Y013170D01*
X008819Y013329D02*
X007630Y013329D01*
X007630Y013487D02*
X008885Y013487D01*
X008893Y013804D02*
X007630Y013804D01*
X007630Y013646D02*
X015891Y013646D01*
X016200Y013650D02*
X016200Y013800D01*
X016380Y013980D01*
X015723Y013012D02*
X015690Y013012D01*
X015690Y012853D02*
X015831Y012853D01*
X014471Y013487D02*
X012301Y013487D01*
X011050Y013487D02*
X010135Y013487D01*
X008819Y013963D02*
X007630Y013963D01*
X007630Y014121D02*
X008819Y014121D01*
X008819Y014280D02*
X007630Y014280D01*
X007630Y014438D02*
X008819Y014438D01*
X008819Y014597D02*
X007630Y014597D01*
X007630Y014755D02*
X008819Y014755D01*
X008819Y014914D02*
X007630Y014914D01*
X007630Y015072D02*
X008819Y015072D01*
X008820Y015231D02*
X007630Y015231D01*
X007630Y015389D02*
X008820Y015389D01*
X008819Y015548D02*
X007630Y015548D01*
X007630Y015706D02*
X008819Y015706D01*
X008819Y015865D02*
X007630Y015865D01*
X007770Y016023D02*
X008819Y016023D01*
X008819Y016182D02*
X007928Y016182D01*
X008087Y016340D02*
X008819Y016340D01*
X008819Y016499D02*
X008245Y016499D01*
X008404Y016657D02*
X008819Y016657D01*
X008906Y016816D02*
X008562Y016816D01*
X013791Y013804D02*
X014540Y013804D01*
X014382Y013963D02*
X014086Y013963D01*
X014155Y013329D02*
X014313Y013329D01*
X017038Y011902D02*
X019661Y011902D01*
X019502Y011744D02*
X017038Y011744D01*
X016588Y010700D02*
X019719Y010700D01*
X019700Y010681D01*
X019700Y010318D01*
X019685Y010318D01*
X019592Y010225D01*
X019592Y009755D01*
X019685Y009662D01*
X020155Y009662D01*
X020248Y009755D01*
X020248Y010225D01*
X020155Y010318D01*
X020140Y010318D01*
X020140Y010499D01*
X020672Y011030D01*
X020672Y010685D01*
X020765Y010592D01*
X021235Y010592D01*
X021328Y010685D01*
X021328Y010817D01*
X021961Y011450D01*
X022020Y011509D01*
X022020Y010662D01*
X022057Y010574D01*
X023229Y009402D01*
X023142Y009314D01*
X023142Y008806D01*
X023236Y008712D01*
X023744Y008712D01*
X023838Y008806D01*
X023838Y009192D01*
X024284Y009192D01*
X024378Y009286D01*
X024378Y009300D01*
X025218Y009300D01*
X025306Y009337D01*
X025583Y009614D01*
X025696Y009727D01*
X025763Y009794D01*
X025800Y009882D01*
X025800Y009997D01*
X025830Y010027D01*
X025830Y009732D01*
X025867Y009644D01*
X025934Y009577D01*
X026022Y009540D01*
X026541Y009540D01*
X026610Y009471D01*
X026610Y008769D01*
X024607Y006766D01*
X024570Y006678D01*
X024570Y006489D01*
X024261Y006180D01*
X023949Y006180D01*
X023680Y005911D01*
X023680Y005529D01*
X023949Y005260D01*
X024101Y005260D01*
X024161Y005200D01*
X024160Y005200D01*
X024160Y004740D01*
X024620Y004740D01*
X024620Y004919D01*
X024559Y004980D01*
X024749Y004980D01*
X024680Y004911D01*
X024680Y004529D01*
X024789Y004420D01*
X024519Y004420D01*
X024620Y004521D01*
X024620Y004700D01*
X024160Y004700D01*
X024160Y004740D01*
X024120Y004740D01*
X024120Y005200D01*
X023941Y005200D01*
X023660Y004919D01*
X023660Y004740D01*
X024120Y004740D01*
X024120Y004700D01*
X023660Y004700D01*
X023660Y004521D01*
X023761Y004420D01*
X018700Y004420D01*
X018770Y004588D01*
X018770Y005371D01*
X018700Y005541D01*
X018571Y005670D01*
X018401Y005740D01*
X018218Y005740D01*
X018049Y005670D01*
X017920Y005541D01*
X017850Y005371D01*
X017850Y004588D01*
X017920Y004420D01*
X017700Y004420D01*
X017770Y004588D01*
X017770Y005371D01*
X017700Y005541D01*
X017571Y005670D01*
X017550Y005678D01*
X017550Y005868D01*
X017513Y005956D01*
X014400Y009069D01*
X014400Y009667D01*
X014488Y009755D01*
X014488Y009770D01*
X015511Y009770D01*
X015640Y009899D01*
X015969Y010228D01*
X016025Y010172D01*
X016495Y010172D01*
X016588Y010265D01*
X016588Y010700D01*
X016588Y010634D02*
X019700Y010634D01*
X019700Y010476D02*
X016588Y010476D01*
X016588Y010317D02*
X019684Y010317D01*
X019592Y010159D02*
X015900Y010159D01*
X015741Y010000D02*
X019592Y010000D01*
X019592Y009842D02*
X015583Y009842D01*
X015436Y010317D02*
X014396Y010317D01*
X014160Y009990D02*
X014160Y009351D01*
X014160Y008970D01*
X017310Y005820D01*
X017310Y004980D01*
X017770Y004928D02*
X017850Y004928D01*
X017850Y004770D02*
X017770Y004770D01*
X017770Y004611D02*
X017850Y004611D01*
X017906Y004453D02*
X017714Y004453D01*
X017770Y005087D02*
X017850Y005087D01*
X017850Y005245D02*
X017770Y005245D01*
X017757Y005404D02*
X017863Y005404D01*
X017941Y005562D02*
X017679Y005562D01*
X017550Y005721D02*
X018171Y005721D01*
X018449Y005721D02*
X023680Y005721D01*
X023680Y005879D02*
X017545Y005879D01*
X017432Y006038D02*
X023807Y006038D01*
X024140Y005720D02*
X024810Y006390D01*
X024810Y006630D01*
X026820Y008640D01*
X026850Y008640D01*
X026850Y009570D01*
X026640Y009780D01*
X026070Y009780D01*
X026070Y010560D01*
X026070Y010740D01*
X025980Y010830D01*
X025710Y010830D01*
X025530Y011010D01*
X025530Y012150D01*
X026010Y012150D02*
X026100Y012150D01*
X026250Y012000D01*
X026610Y012000D01*
X026850Y012000D01*
X028170Y010680D01*
X028170Y007890D01*
X029280Y006780D01*
X029280Y005670D01*
X029608Y005721D02*
X032022Y005721D01*
X032022Y005879D02*
X029608Y005879D01*
X029608Y005905D02*
X029520Y005993D01*
X029520Y006828D01*
X029483Y006916D01*
X028410Y007989D01*
X028410Y008460D01*
X028417Y008444D01*
X029167Y007694D01*
X029202Y007659D01*
X029202Y007576D01*
X029296Y007482D01*
X029804Y007482D01*
X029898Y007576D01*
X029898Y008084D01*
X029804Y008178D01*
X029361Y008178D01*
X028860Y008679D01*
X028860Y013548D01*
X028823Y013636D01*
X028756Y013703D01*
X028486Y013973D01*
X028398Y014010D01*
X028223Y014010D01*
X028135Y014098D01*
X027874Y014098D01*
X027939Y014163D01*
X027969Y014193D01*
X027999Y014223D01*
X028016Y014240D01*
X029267Y014240D01*
X029315Y014192D01*
X029785Y014192D01*
X029878Y014285D01*
X029878Y014755D01*
X030332Y014755D01*
X030332Y014285D01*
X030425Y014192D01*
X030895Y014192D01*
X030988Y014285D01*
X030988Y014755D01*
X032090Y014755D01*
X032090Y014597D02*
X030988Y014597D01*
X030988Y014755D02*
X030940Y014803D01*
X030940Y015608D01*
X030982Y015650D01*
X031894Y015650D01*
X032090Y015454D01*
X032090Y005962D01*
X032022Y005894D01*
X032022Y005386D01*
X032116Y005292D01*
X032624Y005292D01*
X032718Y005386D01*
X032718Y005894D01*
X032650Y005962D01*
X032650Y015626D01*
X032607Y015729D01*
X032529Y015807D01*
X032277Y016059D01*
X032247Y016089D01*
X032169Y016167D01*
X032066Y016210D01*
X031546Y016210D01*
X032037Y016701D01*
X032037Y016701D01*
X032816Y017480D01*
X035036Y017480D01*
X035139Y017523D01*
X035769Y018153D01*
X035847Y018231D01*
X035890Y018334D01*
X035890Y019084D01*
X036236Y019430D01*
X037226Y019430D01*
X037329Y019473D01*
X037569Y019713D01*
X037647Y019791D01*
X037690Y019894D01*
X037690Y022076D01*
X037647Y022179D01*
X037257Y022569D01*
X037179Y022647D01*
X037076Y022690D01*
X037074Y022690D01*
X037074Y022787D01*
X036981Y022881D01*
X036198Y022881D01*
X036105Y022787D01*
X036105Y022005D01*
X036198Y021911D01*
X036981Y021911D01*
X037052Y021982D01*
X037130Y021904D01*
X037130Y020066D01*
X037054Y019990D01*
X036064Y019990D01*
X035961Y019947D01*
X035883Y019869D01*
X035373Y019359D01*
X035330Y019256D01*
X035330Y018506D01*
X034864Y018040D01*
X032644Y018040D01*
X032541Y017997D01*
X032463Y017919D01*
X032368Y017824D01*
X032368Y018205D01*
X032275Y018298D01*
X031805Y018298D01*
X031712Y018205D01*
X031712Y017735D01*
X031720Y017727D01*
X031720Y017443D01*
X030556Y016278D01*
X030406Y016278D01*
X030312Y016184D01*
X030312Y015676D01*
X030380Y015608D01*
X030380Y014803D01*
X030332Y014755D01*
X030332Y014597D02*
X029878Y014597D01*
X029878Y014755D02*
X029785Y014848D01*
X029315Y014848D01*
X029267Y014800D01*
X027844Y014800D01*
X027741Y014757D01*
X027663Y014679D01*
X027603Y014619D01*
X027573Y014589D01*
X027543Y014559D01*
X027303Y014319D01*
X026913Y013929D01*
X026870Y013826D01*
X026870Y013256D01*
X026524Y012910D01*
X026413Y012910D01*
X026365Y012958D01*
X026141Y012958D01*
X026086Y013013D01*
X025998Y013050D01*
X025094Y013050D01*
X025025Y013119D01*
X024595Y013119D01*
X024501Y013025D01*
X024501Y012640D01*
X023761Y012640D01*
X023680Y012721D01*
X023551Y012850D01*
X023008Y012850D01*
X023008Y013111D01*
X023757Y013860D01*
X023880Y013983D01*
X023880Y014997D01*
X023847Y015030D01*
X023883Y015030D01*
X024093Y014820D01*
X024093Y014820D01*
X024120Y014793D01*
X024243Y014670D01*
X025370Y014670D01*
X025760Y015060D01*
X025883Y015183D01*
X025883Y015801D01*
X026105Y015801D01*
X026199Y015895D01*
X026199Y016325D01*
X026170Y016354D01*
X026170Y016586D01*
X026135Y016670D01*
X027997Y016670D01*
X028079Y016589D01*
X028196Y016540D01*
X028354Y016540D01*
X028471Y016589D01*
X028605Y016722D01*
X028649Y016765D01*
X028650Y016767D01*
X028651Y016769D01*
X028675Y016826D01*
X028699Y016882D01*
X028699Y016884D01*
X028700Y016886D01*
X028700Y016948D01*
X028701Y017009D01*
X028700Y017011D01*
X028700Y017044D01*
X028651Y017161D01*
X028588Y017224D01*
X028588Y017335D01*
X028495Y017428D01*
X028384Y017428D01*
X027710Y018103D01*
X027710Y020374D01*
X027661Y020491D01*
X027571Y020581D01*
X027454Y020630D01*
X027206Y020630D01*
X027207Y020631D01*
X027250Y020734D01*
X027250Y021184D01*
X027620Y021554D01*
X027620Y020884D01*
X027663Y020781D01*
X027903Y020541D01*
X027981Y020463D01*
X028084Y020420D01*
X029156Y020420D01*
X029259Y020463D01*
X029379Y020583D01*
X029457Y020661D01*
X029500Y020764D01*
X029500Y021146D01*
X029529Y021175D01*
X029529Y021552D01*
X029534Y021547D01*
X030284Y020797D01*
X030372Y020760D01*
X030817Y020760D01*
X030905Y020672D01*
X031375Y020672D01*
X031468Y020765D01*
X031468Y021235D01*
X031375Y021328D01*
X030905Y021328D01*
X030817Y021240D01*
X030519Y021240D01*
X029873Y021886D01*
X029813Y021946D01*
X029746Y022013D01*
X029658Y022050D01*
X029511Y022050D01*
X029610Y022149D01*
X029680Y022318D01*
X029680Y023101D01*
X029610Y023271D01*
X029481Y023400D01*
X029374Y023444D01*
X030066Y023444D01*
X029959Y023400D01*
X029830Y023271D01*
X029760Y023101D01*
X029760Y022318D01*
X029830Y022149D01*
X029959Y022020D01*
X030128Y021950D01*
X030311Y021950D01*
X030481Y022020D01*
X030610Y022149D01*
X030680Y022318D01*
X030680Y023101D01*
X030610Y023271D01*
X030481Y023400D01*
X030374Y023444D01*
X031066Y023444D01*
X030959Y023400D01*
X030830Y023271D01*
X030760Y023101D01*
X030760Y022318D01*
X030830Y022149D01*
X030959Y022020D01*
X031128Y021950D01*
X031311Y021950D01*
X031481Y022020D01*
X031610Y022149D01*
X031680Y022318D01*
X031680Y023101D01*
X031610Y023271D01*
X031481Y023400D01*
X031374Y023444D01*
X032014Y023444D01*
X031968Y023421D01*
X031907Y023376D01*
X031854Y023323D01*
X031809Y023262D01*
X031775Y023194D01*
X031752Y023122D01*
X031740Y023048D01*
X031740Y022730D01*
X032200Y022730D01*
X032200Y022690D01*
X032240Y022690D01*
X032240Y022730D01*
X032700Y022730D01*
X032700Y023048D01*
X032688Y023122D01*
X032665Y023194D01*
X032631Y023262D01*
X032586Y023323D01*
X032533Y023376D01*
X032472Y023421D01*
X032426Y023444D01*
X037905Y023444D01*
X037905Y003950D01*
X035974Y003948D01*
X036345Y004319D01*
X036707Y004319D01*
X036801Y004413D01*
X036801Y004575D01*
X037479Y005253D01*
X037569Y005343D01*
X037647Y005421D01*
X037690Y005524D01*
X037690Y018026D01*
X037647Y018129D01*
X037047Y018729D01*
X036969Y018807D01*
X036866Y018850D01*
X036801Y018850D01*
X036801Y018909D01*
X036707Y019003D01*
X036043Y019003D01*
X035949Y018909D01*
X035949Y018245D01*
X036043Y018152D01*
X036707Y018152D01*
X036770Y018214D01*
X037130Y017854D01*
X037130Y005696D01*
X037083Y005649D01*
X036605Y005171D01*
X036043Y005171D01*
X035949Y005077D01*
X035949Y004715D01*
X035654Y004420D01*
X031044Y004420D01*
X031044Y005175D01*
X030951Y005269D01*
X030168Y005269D01*
X030075Y005175D01*
X030075Y004420D01*
X028485Y004420D01*
X028485Y005175D01*
X028392Y005269D01*
X027855Y005269D01*
X027701Y005423D01*
X027612Y005460D01*
X026531Y005460D01*
X026600Y005529D01*
X026600Y005841D01*
X027346Y006587D01*
X027413Y006654D01*
X027450Y006742D01*
X027450Y007761D01*
X027526Y007837D01*
X027616Y007927D01*
X027803Y008114D01*
X027840Y008202D01*
X027840Y010308D01*
X027803Y010396D01*
X027736Y010463D01*
X027616Y010583D01*
X027526Y010673D01*
X027413Y010786D01*
X027346Y010853D01*
X027258Y010890D01*
X027173Y010890D01*
X027085Y010978D01*
X026828Y010978D01*
X026861Y011012D01*
X027085Y011012D01*
X027178Y011105D01*
X027178Y011332D01*
X027930Y010581D01*
X027930Y007842D01*
X027967Y007754D01*
X028034Y007687D01*
X029040Y006681D01*
X029040Y005993D01*
X028952Y005905D01*
X028952Y005435D01*
X029045Y005342D01*
X029515Y005342D01*
X029608Y005435D01*
X029608Y005905D01*
X029520Y006038D02*
X032090Y006038D01*
X032090Y006196D02*
X031061Y006196D01*
X031064Y006207D02*
X031064Y006528D01*
X030588Y006528D01*
X030588Y006584D01*
X031064Y006584D01*
X031064Y006904D01*
X031052Y006950D01*
X031028Y006991D01*
X030995Y007025D01*
X030954Y007048D01*
X030908Y007061D01*
X030588Y007061D01*
X030588Y006584D01*
X030531Y006584D01*
X030531Y006528D01*
X030055Y006528D01*
X030055Y006207D01*
X030067Y006162D01*
X030091Y006121D01*
X030124Y006087D01*
X030165Y006063D01*
X030211Y006051D01*
X030531Y006051D01*
X030531Y006528D01*
X030588Y006528D01*
X030588Y006051D01*
X030908Y006051D01*
X030954Y006063D01*
X030995Y006087D01*
X031028Y006121D01*
X031052Y006162D01*
X031064Y006207D01*
X031064Y006355D02*
X032090Y006355D01*
X032090Y006513D02*
X031064Y006513D01*
X031064Y006672D02*
X032090Y006672D01*
X032090Y006830D02*
X031064Y006830D01*
X031030Y006989D02*
X032090Y006989D01*
X032090Y007147D02*
X029252Y007147D01*
X029094Y007306D02*
X032090Y007306D01*
X032090Y007464D02*
X028935Y007464D01*
X028777Y007623D02*
X029202Y007623D01*
X029080Y007781D02*
X028618Y007781D01*
X028460Y007940D02*
X028921Y007940D01*
X028763Y008098D02*
X028410Y008098D01*
X028410Y008257D02*
X028604Y008257D01*
X028446Y008415D02*
X028410Y008415D01*
X028620Y008580D02*
X029370Y007830D01*
X029550Y007830D01*
X029898Y007781D02*
X032090Y007781D01*
X032090Y007623D02*
X029898Y007623D01*
X029898Y007940D02*
X032090Y007940D01*
X032090Y008098D02*
X029884Y008098D01*
X029283Y008257D02*
X032090Y008257D01*
X032090Y008415D02*
X029124Y008415D01*
X028966Y008574D02*
X032090Y008574D01*
X032090Y008732D02*
X028860Y008732D01*
X028860Y008891D02*
X032090Y008891D01*
X032090Y009049D02*
X028860Y009049D01*
X028860Y009208D02*
X032090Y009208D01*
X032090Y009366D02*
X028860Y009366D01*
X028860Y009525D02*
X032090Y009525D01*
X032090Y009683D02*
X028860Y009683D01*
X028860Y009842D02*
X032090Y009842D01*
X032090Y010000D02*
X028860Y010000D01*
X028860Y010159D02*
X032090Y010159D01*
X032090Y010317D02*
X028860Y010317D01*
X028860Y010476D02*
X032090Y010476D01*
X032090Y010634D02*
X028860Y010634D01*
X028860Y010793D02*
X032090Y010793D01*
X032090Y010951D02*
X028860Y010951D01*
X028860Y011110D02*
X032090Y011110D01*
X032090Y011268D02*
X028860Y011268D01*
X028860Y011427D02*
X032090Y011427D01*
X032090Y011585D02*
X028860Y011585D01*
X028860Y011744D02*
X032090Y011744D01*
X032090Y011902D02*
X028860Y011902D01*
X028860Y012061D02*
X032090Y012061D01*
X032090Y012219D02*
X028860Y012219D01*
X028860Y012378D02*
X032090Y012378D01*
X032090Y012536D02*
X028860Y012536D01*
X028860Y012695D02*
X032090Y012695D01*
X032090Y012853D02*
X028860Y012853D01*
X028860Y013012D02*
X032090Y013012D01*
X032090Y013170D02*
X028860Y013170D01*
X028860Y013329D02*
X032090Y013329D01*
X032090Y013487D02*
X028860Y013487D01*
X028814Y013646D02*
X032090Y013646D01*
X032090Y013804D02*
X028655Y013804D01*
X028497Y013963D02*
X032090Y013963D01*
X032090Y014121D02*
X027897Y014121D01*
X027900Y013770D02*
X028350Y013770D01*
X028620Y013500D01*
X028620Y008580D01*
X027930Y008574D02*
X027840Y008574D01*
X027840Y008732D02*
X027930Y008732D01*
X027930Y008891D02*
X027840Y008891D01*
X027840Y009049D02*
X027930Y009049D01*
X027930Y009208D02*
X027840Y009208D01*
X027840Y009366D02*
X027930Y009366D01*
X027930Y009525D02*
X027840Y009525D01*
X027840Y009683D02*
X027930Y009683D01*
X027930Y009842D02*
X027840Y009842D01*
X027840Y010000D02*
X027930Y010000D01*
X027930Y010159D02*
X027840Y010159D01*
X027836Y010317D02*
X027930Y010317D01*
X027930Y010476D02*
X027724Y010476D01*
X027877Y010634D02*
X027565Y010634D01*
X027526Y010673D02*
X027526Y010673D01*
X027407Y010793D02*
X027718Y010793D01*
X027560Y010951D02*
X027112Y010951D01*
X027178Y011110D02*
X027401Y011110D01*
X027243Y011268D02*
X027178Y011268D01*
X026850Y011340D02*
X026460Y010950D01*
X026460Y010260D01*
X026610Y010110D01*
X027120Y010110D01*
X027240Y009990D01*
X027240Y008490D01*
X026880Y008130D01*
X025140Y006390D01*
X025140Y005720D01*
X024480Y005220D02*
X027565Y005220D01*
X028000Y004784D01*
X028485Y004770D02*
X030075Y004770D01*
X030075Y004928D02*
X028485Y004928D01*
X028485Y005087D02*
X030075Y005087D01*
X030144Y005245D02*
X028416Y005245D01*
X028983Y005404D02*
X027721Y005404D01*
X027652Y006051D02*
X027972Y006051D01*
X027972Y006528D01*
X027496Y006528D01*
X027496Y006207D01*
X027508Y006162D01*
X027532Y006121D01*
X027565Y006087D01*
X027606Y006063D01*
X027652Y006051D01*
X027499Y006196D02*
X026955Y006196D01*
X026797Y006038D02*
X029040Y006038D01*
X029040Y006196D02*
X028502Y006196D01*
X028505Y006207D02*
X028505Y006528D01*
X028029Y006528D01*
X028029Y006584D01*
X028505Y006584D01*
X028505Y006904D01*
X028493Y006950D01*
X028469Y006991D01*
X028436Y007025D01*
X028395Y007048D01*
X028349Y007061D01*
X028029Y007061D01*
X028029Y006584D01*
X027972Y006584D01*
X027972Y006528D01*
X028029Y006528D01*
X028029Y006051D01*
X028349Y006051D01*
X028395Y006063D01*
X028436Y006087D01*
X028469Y006121D01*
X028493Y006162D01*
X028505Y006207D01*
X028505Y006355D02*
X029040Y006355D01*
X029040Y006513D02*
X028505Y006513D01*
X028505Y006672D02*
X029040Y006672D01*
X028891Y006830D02*
X028505Y006830D01*
X028471Y006989D02*
X028732Y006989D01*
X028574Y007147D02*
X027450Y007147D01*
X027450Y006989D02*
X027530Y006989D01*
X027532Y006991D02*
X027508Y006950D01*
X027496Y006904D01*
X027496Y006584D01*
X027972Y006584D01*
X027972Y007061D01*
X027652Y007061D01*
X027606Y007048D01*
X027565Y007025D01*
X027532Y006991D01*
X027496Y006830D02*
X027450Y006830D01*
X027421Y006672D02*
X027496Y006672D01*
X027496Y006513D02*
X027272Y006513D01*
X027114Y006355D02*
X027496Y006355D01*
X027972Y006355D02*
X028029Y006355D01*
X028029Y006513D02*
X027972Y006513D01*
X027972Y006672D02*
X028029Y006672D01*
X028029Y006830D02*
X027972Y006830D01*
X027972Y006989D02*
X028029Y006989D01*
X027210Y006790D02*
X027210Y007860D01*
X027390Y008040D01*
X027480Y008130D01*
X027600Y008250D01*
X027600Y010260D01*
X027480Y010380D01*
X027390Y010470D01*
X027210Y010650D01*
X026850Y010650D01*
X025830Y010000D02*
X025803Y010000D01*
X025783Y009842D02*
X025830Y009842D01*
X025850Y009683D02*
X025652Y009683D01*
X025583Y009614D02*
X025583Y009614D01*
X025494Y009525D02*
X026556Y009525D01*
X026610Y009366D02*
X025335Y009366D01*
X025170Y009540D02*
X024030Y009540D01*
X023880Y009540D01*
X024030Y009540D01*
X023880Y009540D02*
X023580Y009840D01*
X023580Y010050D01*
X022770Y010860D01*
X022770Y010950D01*
X022770Y011940D01*
X022260Y011940D02*
X022260Y010860D01*
X022260Y010710D01*
X023490Y009480D01*
X023490Y009060D01*
X023838Y009049D02*
X026610Y009049D01*
X026610Y008891D02*
X023838Y008891D01*
X023765Y008732D02*
X026573Y008732D01*
X026414Y008574D02*
X014896Y008574D01*
X014737Y008732D02*
X023215Y008732D01*
X023142Y008891D02*
X014579Y008891D01*
X014420Y009049D02*
X023142Y009049D01*
X023142Y009208D02*
X014400Y009208D01*
X014400Y009366D02*
X023194Y009366D01*
X023106Y009525D02*
X014400Y009525D01*
X014416Y009683D02*
X019664Y009683D01*
X020176Y009683D02*
X022948Y009683D01*
X022789Y009842D02*
X020248Y009842D01*
X020248Y010000D02*
X022631Y010000D01*
X022472Y010159D02*
X020248Y010159D01*
X020156Y010317D02*
X022314Y010317D01*
X022155Y010476D02*
X020140Y010476D01*
X020275Y010634D02*
X020723Y010634D01*
X020672Y010793D02*
X020434Y010793D01*
X020592Y010951D02*
X020672Y010951D01*
X021277Y010634D02*
X022032Y010634D01*
X022020Y010793D02*
X021328Y010793D01*
X021462Y010951D02*
X022020Y010951D01*
X022020Y011110D02*
X021621Y011110D01*
X021779Y011268D02*
X022020Y011268D01*
X022020Y011427D02*
X021938Y011427D01*
X020810Y012661D02*
X020810Y012661D01*
X020843Y012695D02*
X020710Y012695D01*
X020710Y012853D02*
X021002Y012853D01*
X021160Y013012D02*
X020710Y013012D01*
X020710Y013170D02*
X021319Y013170D01*
X021477Y013329D02*
X020710Y013329D01*
X020710Y013487D02*
X021636Y013487D01*
X021650Y013646D02*
X020710Y013646D01*
X020710Y013804D02*
X021650Y013804D01*
X021650Y013963D02*
X020710Y013963D01*
X020710Y014121D02*
X021790Y014121D01*
X021948Y014280D02*
X020710Y014280D01*
X020710Y014438D02*
X022107Y014438D01*
X022352Y014597D02*
X020710Y014597D01*
X020710Y014755D02*
X022352Y014755D01*
X022413Y014914D02*
X020710Y014914D01*
X020710Y015072D02*
X022322Y015072D01*
X022322Y015231D02*
X022154Y015231D01*
X022228Y015389D02*
X022322Y015389D01*
X021646Y015231D02*
X020804Y015231D01*
X020818Y015389D02*
X021572Y015389D01*
X020666Y016816D02*
X024578Y016816D01*
X024420Y016974D02*
X020734Y016974D01*
X020740Y017133D02*
X024261Y017133D01*
X024103Y017291D02*
X020690Y017291D01*
X020561Y017450D02*
X023944Y017450D01*
X023807Y017608D02*
X018765Y017608D01*
X017752Y018623D02*
X017752Y018623D01*
X017847Y018718D02*
X023780Y018718D01*
X023780Y018876D02*
X019115Y018876D01*
X019274Y019035D02*
X019385Y019035D01*
X020711Y018242D02*
X023780Y018242D01*
X023780Y018084D02*
X020740Y018084D01*
X020714Y017925D02*
X023780Y017925D01*
X023780Y017767D02*
X020617Y017767D01*
X020506Y019986D02*
X023780Y019986D01*
X023780Y020144D02*
X020676Y020144D01*
X020740Y020303D02*
X023780Y020303D01*
X023795Y020461D02*
X020740Y020461D01*
X020683Y020620D02*
X023914Y020620D01*
X024072Y020778D02*
X020543Y020778D01*
X024680Y022205D02*
X004010Y022205D01*
X004010Y022363D02*
X024680Y022363D01*
X024680Y022522D02*
X004010Y022522D01*
X004010Y022680D02*
X024680Y022680D01*
X024680Y022839D02*
X004010Y022839D01*
X004010Y022997D02*
X024761Y022997D01*
X024852Y023156D02*
X004010Y023156D01*
X004010Y023314D02*
X024872Y023314D01*
X025528Y023314D02*
X028873Y023314D01*
X028782Y023156D02*
X025548Y023156D01*
X025548Y022997D02*
X028760Y022997D01*
X029567Y023314D02*
X029873Y023314D01*
X029782Y023156D02*
X029658Y023156D01*
X029680Y022997D02*
X029760Y022997D01*
X029760Y022839D02*
X029680Y022839D01*
X029680Y022680D02*
X029760Y022680D01*
X029760Y022522D02*
X029680Y022522D01*
X029680Y022363D02*
X029760Y022363D01*
X029807Y022205D02*
X029633Y022205D01*
X029667Y022046D02*
X029933Y022046D01*
X029872Y021888D02*
X037130Y021888D01*
X037130Y021729D02*
X030030Y021729D01*
X030189Y021571D02*
X037130Y021571D01*
X037130Y021412D02*
X030347Y021412D01*
X030506Y021254D02*
X030830Y021254D01*
X031140Y021000D02*
X030420Y021000D01*
X029670Y021750D01*
X029610Y021810D01*
X028740Y021810D01*
X028590Y021660D01*
X028590Y021390D01*
X029529Y021412D02*
X029669Y021412D01*
X029529Y021254D02*
X029827Y021254D01*
X029986Y021095D02*
X029500Y021095D01*
X029500Y020937D02*
X030144Y020937D01*
X030329Y020778D02*
X029500Y020778D01*
X029416Y020620D02*
X033546Y020620D01*
X033546Y020778D02*
X031468Y020778D01*
X031468Y020937D02*
X033546Y020937D01*
X033546Y021015D02*
X033546Y020233D01*
X033639Y020139D01*
X033840Y020139D01*
X033840Y019419D01*
X033621Y019200D01*
X030312Y019200D01*
X030224Y019163D01*
X030157Y019096D01*
X029317Y018256D01*
X029280Y018168D01*
X029280Y015750D01*
X027612Y015750D01*
X027524Y015713D01*
X027097Y015286D01*
X026091Y014280D01*
X024674Y014280D01*
X024605Y014349D01*
X024175Y014349D01*
X024081Y014255D01*
X024081Y013825D01*
X024175Y013731D01*
X024605Y013731D01*
X024674Y013800D01*
X026238Y013800D01*
X026326Y013837D01*
X027436Y014947D01*
X027759Y015270D01*
X029568Y015270D01*
X029656Y015307D01*
X029723Y015374D01*
X029760Y015462D01*
X029760Y018021D01*
X030459Y018720D01*
X033768Y018720D01*
X033856Y018757D01*
X034216Y019117D01*
X034283Y019184D01*
X034320Y019272D01*
X034320Y020139D01*
X034422Y020139D01*
X034515Y020233D01*
X034515Y021015D01*
X034422Y021109D01*
X033639Y021109D01*
X033546Y021015D01*
X033625Y021095D02*
X031468Y021095D01*
X031450Y021254D02*
X037130Y021254D01*
X037130Y021095D02*
X036995Y021095D01*
X036981Y021109D02*
X036198Y021109D01*
X036105Y021015D01*
X036105Y020233D01*
X036198Y020139D01*
X036981Y020139D01*
X037074Y020233D01*
X037074Y021015D01*
X036981Y021109D01*
X037074Y020937D02*
X037130Y020937D01*
X037130Y020778D02*
X037074Y020778D01*
X037074Y020620D02*
X037130Y020620D01*
X037130Y020461D02*
X037074Y020461D01*
X037074Y020303D02*
X037130Y020303D01*
X037130Y020144D02*
X036985Y020144D01*
X037690Y020144D02*
X037905Y020144D01*
X037905Y019986D02*
X037690Y019986D01*
X037662Y019827D02*
X037905Y019827D01*
X037905Y019669D02*
X037525Y019669D01*
X037366Y019510D02*
X037905Y019510D01*
X037905Y019352D02*
X036158Y019352D01*
X035999Y019193D02*
X037905Y019193D01*
X037905Y019035D02*
X035890Y019035D01*
X035890Y018876D02*
X035949Y018876D01*
X035949Y018718D02*
X035890Y018718D01*
X035890Y018559D02*
X035949Y018559D01*
X035949Y018401D02*
X035890Y018401D01*
X035852Y018242D02*
X035952Y018242D01*
X036043Y018019D02*
X035949Y017925D01*
X035541Y017925D01*
X035567Y017873D02*
X035464Y017830D01*
X034011Y016377D01*
X033951Y016317D01*
X033873Y016239D01*
X033830Y016136D01*
X033830Y007084D01*
X033873Y006981D01*
X033942Y006912D01*
X033942Y006706D01*
X034036Y006612D01*
X034242Y006612D01*
X034386Y006468D01*
X034386Y006468D01*
X035253Y005601D01*
X035331Y005523D01*
X035434Y005480D01*
X035949Y005480D01*
X035949Y005397D01*
X036043Y005304D01*
X036707Y005304D01*
X036801Y005397D01*
X036801Y006061D01*
X036707Y006155D01*
X036043Y006155D01*
X035949Y006061D01*
X035949Y006040D01*
X035606Y006040D01*
X034782Y006864D01*
X034638Y007008D01*
X034638Y007214D01*
X034544Y007308D01*
X034390Y007308D01*
X034390Y007544D01*
X035283Y006651D01*
X035361Y006573D01*
X035464Y006530D01*
X035949Y006530D01*
X035949Y006382D01*
X036043Y006288D01*
X036707Y006288D01*
X036801Y006382D01*
X036801Y007046D01*
X036707Y007139D01*
X036043Y007139D01*
X035994Y007090D01*
X035636Y007090D01*
X034900Y007826D01*
X034900Y008114D01*
X035433Y007581D01*
X035511Y007503D01*
X035614Y007460D01*
X035949Y007460D01*
X035949Y007366D01*
X036043Y007272D01*
X036707Y007272D01*
X036801Y007366D01*
X036801Y008030D01*
X036707Y008124D01*
X036043Y008124D01*
X035949Y008030D01*
X035949Y008020D01*
X035786Y008020D01*
X035410Y008396D01*
X035410Y008954D01*
X035823Y008541D01*
X035901Y008463D01*
X035949Y008443D01*
X035949Y008350D01*
X036043Y008256D01*
X036707Y008256D01*
X036801Y008350D01*
X036801Y009014D01*
X036707Y009108D01*
X036048Y009108D01*
X035890Y009266D01*
X035890Y012038D01*
X035958Y012106D01*
X035958Y012331D01*
X036043Y012246D01*
X036707Y012246D01*
X036801Y012340D01*
X036801Y013004D01*
X036707Y013098D01*
X036043Y013098D01*
X035949Y013004D01*
X035949Y012623D01*
X035890Y012682D01*
X035890Y014014D01*
X036091Y014215D01*
X036707Y014215D01*
X036801Y014308D01*
X036801Y014972D01*
X036707Y015066D01*
X036043Y015066D01*
X035949Y014972D01*
X035949Y014865D01*
X035451Y014367D01*
X035410Y014326D01*
X035410Y014674D01*
X035989Y015253D01*
X036043Y015199D01*
X036707Y015199D01*
X036801Y015293D01*
X036801Y015957D01*
X036707Y016050D01*
X036043Y016050D01*
X035949Y015957D01*
X035949Y015905D01*
X035909Y015905D01*
X035806Y015862D01*
X034971Y015027D01*
X034900Y014956D01*
X034900Y015304D01*
X034917Y015321D01*
X035925Y016329D01*
X035949Y016329D01*
X035949Y016277D01*
X036043Y016183D01*
X036707Y016183D01*
X036801Y016277D01*
X036801Y016941D01*
X036707Y017035D01*
X036043Y017035D01*
X035949Y016941D01*
X035949Y016889D01*
X035753Y016889D01*
X035650Y016846D01*
X034521Y015717D01*
X034461Y015657D01*
X034390Y015586D01*
X034390Y015964D01*
X034407Y015981D01*
X035739Y017313D01*
X035949Y017313D01*
X035949Y017261D01*
X036043Y017167D01*
X036707Y017167D01*
X036801Y017261D01*
X036801Y017925D01*
X037059Y017925D01*
X037130Y017767D02*
X036801Y017767D01*
X036801Y017925D02*
X036707Y018019D01*
X036043Y018019D01*
X035949Y017925D02*
X035949Y017873D01*
X035567Y017873D01*
X035401Y017767D02*
X035383Y017767D01*
X035242Y017608D02*
X035224Y017608D01*
X035084Y017450D02*
X032785Y017450D01*
X032627Y017291D02*
X034925Y017291D01*
X034767Y017133D02*
X032468Y017133D01*
X032310Y016974D02*
X034608Y016974D01*
X034450Y016816D02*
X032151Y016816D01*
X031993Y016657D02*
X034291Y016657D01*
X034133Y016499D02*
X031834Y016499D01*
X031676Y016340D02*
X033974Y016340D01*
X033849Y016182D02*
X032134Y016182D01*
X032247Y016089D02*
X032247Y016089D01*
X032277Y016059D02*
X032277Y016059D01*
X032313Y016023D02*
X033830Y016023D01*
X033830Y015865D02*
X032471Y015865D01*
X032529Y015807D02*
X032529Y015807D01*
X032617Y015706D02*
X033830Y015706D01*
X033830Y015548D02*
X032650Y015548D01*
X032650Y015389D02*
X033830Y015389D01*
X033830Y015231D02*
X032650Y015231D01*
X032650Y015072D02*
X033830Y015072D01*
X033830Y014914D02*
X032650Y014914D01*
X032650Y014755D02*
X033830Y014755D01*
X033830Y014597D02*
X032650Y014597D01*
X032650Y014438D02*
X033830Y014438D01*
X033830Y014280D02*
X032650Y014280D01*
X032650Y014121D02*
X033830Y014121D01*
X033830Y013963D02*
X032650Y013963D01*
X032650Y013804D02*
X033830Y013804D01*
X033830Y013646D02*
X032650Y013646D01*
X032650Y013487D02*
X033830Y013487D01*
X033830Y013329D02*
X032650Y013329D01*
X032650Y013170D02*
X033830Y013170D01*
X033830Y013012D02*
X032650Y013012D01*
X032650Y012853D02*
X033830Y012853D01*
X033830Y012695D02*
X032650Y012695D01*
X032650Y012536D02*
X033830Y012536D01*
X033830Y012378D02*
X032650Y012378D01*
X032650Y012219D02*
X033830Y012219D01*
X033830Y012061D02*
X032650Y012061D01*
X032650Y011902D02*
X033830Y011902D01*
X033830Y011744D02*
X032650Y011744D01*
X032650Y011585D02*
X033830Y011585D01*
X033830Y011427D02*
X032650Y011427D01*
X032650Y011268D02*
X033830Y011268D01*
X033830Y011110D02*
X032650Y011110D01*
X032650Y010951D02*
X033830Y010951D01*
X033830Y010793D02*
X032650Y010793D01*
X032650Y010634D02*
X033830Y010634D01*
X033830Y010476D02*
X032650Y010476D01*
X032650Y010317D02*
X033830Y010317D01*
X033830Y010159D02*
X032650Y010159D01*
X032650Y010000D02*
X033830Y010000D01*
X033830Y009842D02*
X032650Y009842D01*
X032650Y009683D02*
X033830Y009683D01*
X033830Y009525D02*
X032650Y009525D01*
X032650Y009366D02*
X033830Y009366D01*
X033830Y009208D02*
X032650Y009208D01*
X032650Y009049D02*
X033830Y009049D01*
X033830Y008891D02*
X032650Y008891D01*
X032650Y008732D02*
X033830Y008732D01*
X033830Y008574D02*
X032650Y008574D01*
X032650Y008415D02*
X033830Y008415D01*
X033830Y008257D02*
X032650Y008257D01*
X032650Y008098D02*
X033830Y008098D01*
X033830Y007940D02*
X032650Y007940D01*
X032650Y007781D02*
X033830Y007781D01*
X033830Y007623D02*
X032650Y007623D01*
X032650Y007464D02*
X033830Y007464D01*
X033830Y007306D02*
X032650Y007306D01*
X032650Y007147D02*
X033830Y007147D01*
X033870Y006989D02*
X032650Y006989D01*
X032650Y006830D02*
X033942Y006830D01*
X033976Y006672D02*
X032650Y006672D01*
X032650Y006513D02*
X034341Y006513D01*
X034500Y006355D02*
X032650Y006355D01*
X032650Y006196D02*
X034658Y006196D01*
X034817Y006038D02*
X032650Y006038D01*
X032718Y005879D02*
X034975Y005879D01*
X035134Y005721D02*
X032718Y005721D01*
X032718Y005562D02*
X035292Y005562D01*
X035253Y005601D02*
X035253Y005601D01*
X035949Y005404D02*
X032718Y005404D01*
X032022Y005404D02*
X029577Y005404D01*
X029608Y005562D02*
X032022Y005562D01*
X031044Y005087D02*
X035959Y005087D01*
X035949Y004928D02*
X031044Y004928D01*
X031044Y004770D02*
X035949Y004770D01*
X035845Y004611D02*
X031044Y004611D01*
X031044Y004453D02*
X035686Y004453D01*
X036161Y004136D02*
X037905Y004136D01*
X037905Y004294D02*
X036320Y004294D01*
X036003Y003977D02*
X037905Y003977D01*
X037905Y004453D02*
X036801Y004453D01*
X036837Y004611D02*
X037905Y004611D01*
X037905Y004770D02*
X036995Y004770D01*
X037154Y004928D02*
X037905Y004928D01*
X037905Y005087D02*
X037312Y005087D01*
X037471Y005245D02*
X037905Y005245D01*
X037905Y005404D02*
X037629Y005404D01*
X037690Y005562D02*
X037905Y005562D01*
X037905Y005721D02*
X037690Y005721D01*
X037690Y005879D02*
X037905Y005879D01*
X037905Y006038D02*
X037690Y006038D01*
X037690Y006196D02*
X037905Y006196D01*
X037905Y006355D02*
X037690Y006355D01*
X037690Y006513D02*
X037905Y006513D01*
X037905Y006672D02*
X037690Y006672D01*
X037690Y006830D02*
X037905Y006830D01*
X037905Y006989D02*
X037690Y006989D01*
X037690Y007147D02*
X037905Y007147D01*
X037905Y007306D02*
X037690Y007306D01*
X037690Y007464D02*
X037905Y007464D01*
X037905Y007623D02*
X037690Y007623D01*
X037690Y007781D02*
X037905Y007781D01*
X037905Y007940D02*
X037690Y007940D01*
X037690Y008098D02*
X037905Y008098D01*
X037905Y008257D02*
X037690Y008257D01*
X037690Y008415D02*
X037905Y008415D01*
X037905Y008574D02*
X037690Y008574D01*
X037690Y008732D02*
X037905Y008732D01*
X037905Y008891D02*
X037690Y008891D01*
X037690Y009049D02*
X037905Y009049D01*
X037905Y009208D02*
X037690Y009208D01*
X037690Y009366D02*
X037905Y009366D01*
X037905Y009525D02*
X037690Y009525D01*
X037690Y009683D02*
X037905Y009683D01*
X037905Y009842D02*
X037690Y009842D01*
X037690Y010000D02*
X037905Y010000D01*
X037905Y010159D02*
X037690Y010159D01*
X037690Y010317D02*
X037905Y010317D01*
X037905Y010476D02*
X037690Y010476D01*
X037690Y010634D02*
X037905Y010634D01*
X037905Y010793D02*
X037690Y010793D01*
X037690Y010951D02*
X037905Y010951D01*
X037905Y011110D02*
X037690Y011110D01*
X037690Y011268D02*
X037905Y011268D01*
X037905Y011427D02*
X037690Y011427D01*
X037690Y011585D02*
X037905Y011585D01*
X037905Y011744D02*
X037690Y011744D01*
X037690Y011902D02*
X037905Y011902D01*
X037905Y012061D02*
X037690Y012061D01*
X037690Y012219D02*
X037905Y012219D01*
X037905Y012378D02*
X037690Y012378D01*
X037690Y012536D02*
X037905Y012536D01*
X037905Y012695D02*
X037690Y012695D01*
X037690Y012853D02*
X037905Y012853D01*
X037905Y013012D02*
X037690Y013012D01*
X037690Y013170D02*
X037905Y013170D01*
X037905Y013329D02*
X037690Y013329D01*
X037690Y013487D02*
X037905Y013487D01*
X037905Y013646D02*
X037690Y013646D01*
X037690Y013804D02*
X037905Y013804D01*
X037905Y013963D02*
X037690Y013963D01*
X037690Y014121D02*
X037905Y014121D01*
X037905Y014280D02*
X037690Y014280D01*
X037690Y014438D02*
X037905Y014438D01*
X037905Y014597D02*
X037690Y014597D01*
X037690Y014755D02*
X037905Y014755D01*
X037905Y014914D02*
X037690Y014914D01*
X037690Y015072D02*
X037905Y015072D01*
X037905Y015231D02*
X037690Y015231D01*
X037690Y015389D02*
X037905Y015389D01*
X037905Y015548D02*
X037690Y015548D01*
X037690Y015706D02*
X037905Y015706D01*
X037905Y015865D02*
X037690Y015865D01*
X037690Y016023D02*
X037905Y016023D01*
X037905Y016182D02*
X037690Y016182D01*
X037690Y016340D02*
X037905Y016340D01*
X037905Y016499D02*
X037690Y016499D01*
X037690Y016657D02*
X037905Y016657D01*
X037905Y016816D02*
X037690Y016816D01*
X037690Y016974D02*
X037905Y016974D01*
X037905Y017133D02*
X037690Y017133D01*
X037690Y017291D02*
X037905Y017291D01*
X037905Y017450D02*
X037690Y017450D01*
X037690Y017608D02*
X037905Y017608D01*
X037905Y017767D02*
X037690Y017767D01*
X037690Y017925D02*
X037905Y017925D01*
X037905Y018084D02*
X037666Y018084D01*
X037534Y018242D02*
X037905Y018242D01*
X037905Y018401D02*
X037375Y018401D01*
X037217Y018559D02*
X037905Y018559D01*
X037905Y018718D02*
X037058Y018718D01*
X036801Y018876D02*
X037905Y018876D01*
X036900Y018084D02*
X035700Y018084D01*
X035225Y018401D02*
X030140Y018401D01*
X030298Y018559D02*
X035330Y018559D01*
X035330Y018718D02*
X030457Y018718D01*
X030360Y018960D02*
X033720Y018960D01*
X034080Y019320D01*
X034080Y020575D01*
X034030Y020624D01*
X034515Y020620D02*
X036105Y020620D01*
X036105Y020778D02*
X034515Y020778D01*
X034515Y020937D02*
X036105Y020937D01*
X036185Y021095D02*
X034435Y021095D01*
X034515Y020461D02*
X036105Y020461D01*
X036105Y020303D02*
X034515Y020303D01*
X034426Y020144D02*
X036194Y020144D01*
X036054Y019986D02*
X034320Y019986D01*
X034320Y019827D02*
X035841Y019827D01*
X035683Y019669D02*
X034320Y019669D01*
X034320Y019510D02*
X035524Y019510D01*
X035370Y019352D02*
X034320Y019352D01*
X034287Y019193D02*
X035330Y019193D01*
X035330Y019035D02*
X034134Y019035D01*
X033975Y018876D02*
X035330Y018876D01*
X035066Y018242D02*
X032331Y018242D01*
X032368Y018084D02*
X034908Y018084D01*
X035717Y017291D02*
X035949Y017291D01*
X035982Y016974D02*
X035400Y016974D01*
X035241Y016816D02*
X035620Y016816D01*
X035461Y016657D02*
X035083Y016657D01*
X034924Y016499D02*
X035303Y016499D01*
X035144Y016340D02*
X034766Y016340D01*
X034607Y016182D02*
X034986Y016182D01*
X034827Y016023D02*
X034449Y016023D01*
X034390Y015865D02*
X034669Y015865D01*
X034510Y015706D02*
X034390Y015706D01*
X034985Y015389D02*
X035333Y015389D01*
X035175Y015231D02*
X034900Y015231D01*
X034900Y015072D02*
X035016Y015072D01*
X035143Y015548D02*
X035492Y015548D01*
X035650Y015706D02*
X035302Y015706D01*
X035460Y015865D02*
X035812Y015865D01*
X035619Y016023D02*
X036016Y016023D01*
X035777Y016182D02*
X037130Y016182D01*
X037130Y016340D02*
X036801Y016340D01*
X036801Y016499D02*
X037130Y016499D01*
X037130Y016657D02*
X036801Y016657D01*
X036801Y016816D02*
X037130Y016816D01*
X037130Y016974D02*
X036768Y016974D01*
X036801Y017291D02*
X037130Y017291D01*
X037130Y017133D02*
X035559Y017133D01*
X036801Y017450D02*
X037130Y017450D01*
X037130Y017608D02*
X036801Y017608D01*
X036734Y016023D02*
X037130Y016023D01*
X037130Y015865D02*
X036801Y015865D01*
X036801Y015706D02*
X037130Y015706D01*
X037130Y015548D02*
X036801Y015548D01*
X036801Y015389D02*
X037130Y015389D01*
X037130Y015231D02*
X036739Y015231D01*
X036801Y014914D02*
X037130Y014914D01*
X037130Y015072D02*
X035808Y015072D01*
X035949Y014914D02*
X035649Y014914D01*
X035491Y014755D02*
X035839Y014755D01*
X035681Y014597D02*
X035410Y014597D01*
X035410Y014438D02*
X035522Y014438D01*
X035997Y014121D02*
X037130Y014121D01*
X037130Y013963D02*
X036801Y013963D01*
X036801Y013988D02*
X036707Y014082D01*
X036043Y014082D01*
X035949Y013988D01*
X035949Y013324D01*
X036043Y013230D01*
X036707Y013230D01*
X036801Y013324D01*
X036801Y013988D01*
X036801Y013804D02*
X037130Y013804D01*
X037130Y013646D02*
X036801Y013646D01*
X036801Y013487D02*
X037130Y013487D01*
X037130Y013329D02*
X036801Y013329D01*
X036793Y013012D02*
X037130Y013012D01*
X037130Y013170D02*
X035890Y013170D01*
X035890Y013012D02*
X035957Y013012D01*
X035949Y012853D02*
X035890Y012853D01*
X035890Y012695D02*
X035949Y012695D01*
X035958Y012219D02*
X037130Y012219D01*
X037130Y012061D02*
X035913Y012061D01*
X035890Y011902D02*
X037130Y011902D01*
X037130Y011744D02*
X035890Y011744D01*
X035890Y011585D02*
X037130Y011585D01*
X037130Y011427D02*
X035890Y011427D01*
X035890Y011268D02*
X037130Y011268D01*
X037130Y011110D02*
X035890Y011110D01*
X035949Y010983D02*
X036043Y011076D01*
X036707Y011076D01*
X036801Y010983D01*
X036801Y010319D01*
X036707Y010225D01*
X036043Y010225D01*
X035949Y010319D01*
X035949Y010983D01*
X035949Y010951D02*
X035890Y010951D01*
X035890Y010793D02*
X035949Y010793D01*
X035949Y010634D02*
X035890Y010634D01*
X035890Y010476D02*
X035949Y010476D01*
X035951Y010317D02*
X035890Y010317D01*
X035890Y010159D02*
X037130Y010159D01*
X037130Y010317D02*
X036799Y010317D01*
X036801Y010476D02*
X037130Y010476D01*
X037130Y010634D02*
X036801Y010634D01*
X036801Y010793D02*
X037130Y010793D01*
X037130Y010951D02*
X036801Y010951D01*
X036707Y010092D02*
X036043Y010092D01*
X035949Y009998D01*
X035949Y009334D01*
X036043Y009241D01*
X036707Y009241D01*
X036801Y009334D01*
X036801Y009998D01*
X036707Y010092D01*
X036799Y010000D02*
X037130Y010000D01*
X037130Y009842D02*
X036801Y009842D01*
X036801Y009683D02*
X037130Y009683D01*
X037130Y009525D02*
X036801Y009525D01*
X036801Y009366D02*
X037130Y009366D01*
X037130Y009208D02*
X035948Y009208D01*
X035949Y009366D02*
X035890Y009366D01*
X035890Y009525D02*
X035949Y009525D01*
X035949Y009683D02*
X035890Y009683D01*
X035890Y009842D02*
X035949Y009842D01*
X035951Y010000D02*
X035890Y010000D01*
X034620Y009990D02*
X034620Y010110D01*
X035130Y011040D02*
X035130Y011250D01*
X035610Y012150D02*
X035610Y012360D01*
X036801Y012378D02*
X037130Y012378D01*
X037130Y012536D02*
X036801Y012536D01*
X036801Y012695D02*
X037130Y012695D01*
X037130Y012853D02*
X036801Y012853D01*
X035949Y013329D02*
X035890Y013329D01*
X035890Y013487D02*
X035949Y013487D01*
X035949Y013646D02*
X035890Y013646D01*
X035890Y013804D02*
X035949Y013804D01*
X035949Y013963D02*
X035890Y013963D01*
X036772Y014280D02*
X037130Y014280D01*
X037130Y014438D02*
X036801Y014438D01*
X036801Y014597D02*
X037130Y014597D01*
X037130Y014755D02*
X036801Y014755D01*
X036011Y015231D02*
X035966Y015231D01*
X032090Y015231D02*
X030940Y015231D01*
X030940Y015389D02*
X032090Y015389D01*
X031997Y015548D02*
X030940Y015548D01*
X030940Y015072D02*
X032090Y015072D01*
X032090Y014914D02*
X030940Y014914D01*
X030380Y014914D02*
X027403Y014914D01*
X027561Y015072D02*
X030380Y015072D01*
X030380Y015231D02*
X027720Y015231D01*
X027660Y015510D02*
X029520Y015510D01*
X029520Y018120D01*
X030360Y018960D01*
X030295Y019193D02*
X027710Y019193D01*
X027710Y019035D02*
X030095Y019035D01*
X029937Y018876D02*
X027710Y018876D01*
X027710Y018718D02*
X029778Y018718D01*
X029620Y018559D02*
X027710Y018559D01*
X027710Y018401D02*
X029461Y018401D01*
X029311Y018242D02*
X027710Y018242D01*
X027729Y018084D02*
X029280Y018084D01*
X029280Y017925D02*
X027888Y017925D01*
X028046Y017767D02*
X029280Y017767D01*
X029280Y017608D02*
X028205Y017608D01*
X028363Y017450D02*
X029280Y017450D01*
X029280Y017291D02*
X028588Y017291D01*
X028663Y017133D02*
X029280Y017133D01*
X029280Y016974D02*
X028700Y016974D01*
X028671Y016816D02*
X029280Y016816D01*
X029280Y016657D02*
X028540Y016657D01*
X028010Y016657D02*
X026140Y016657D01*
X026170Y016499D02*
X029280Y016499D01*
X029280Y016340D02*
X026184Y016340D01*
X026199Y016182D02*
X029280Y016182D01*
X029280Y016023D02*
X026199Y016023D01*
X026168Y015865D02*
X029280Y015865D01*
X029760Y015865D02*
X030312Y015865D01*
X030312Y016023D02*
X029760Y016023D01*
X029760Y016182D02*
X030312Y016182D01*
X030617Y016340D02*
X029760Y016340D01*
X029760Y016499D02*
X030776Y016499D01*
X030934Y016657D02*
X029760Y016657D01*
X029760Y016816D02*
X031093Y016816D01*
X031251Y016974D02*
X029760Y016974D01*
X029760Y017133D02*
X031410Y017133D01*
X031568Y017291D02*
X029760Y017291D01*
X029760Y017450D02*
X031720Y017450D01*
X031720Y017608D02*
X029760Y017608D01*
X029760Y017767D02*
X031712Y017767D01*
X031712Y017925D02*
X029760Y017925D01*
X029823Y018084D02*
X031712Y018084D01*
X031749Y018242D02*
X029981Y018242D01*
X027710Y019352D02*
X033772Y019352D01*
X033840Y019510D02*
X027710Y019510D01*
X027710Y019669D02*
X033840Y019669D01*
X033840Y019827D02*
X027710Y019827D01*
X027710Y019986D02*
X033840Y019986D01*
X033635Y020144D02*
X027710Y020144D01*
X027710Y020303D02*
X033546Y020303D01*
X033546Y020461D02*
X029255Y020461D01*
X027985Y020461D02*
X027674Y020461D01*
X027824Y020620D02*
X027479Y020620D01*
X027666Y020778D02*
X027250Y020778D01*
X027250Y020937D02*
X027620Y020937D01*
X027620Y021095D02*
X027250Y021095D01*
X027320Y021254D02*
X027620Y021254D01*
X027620Y021412D02*
X027478Y021412D01*
X027003Y021729D02*
X026694Y021729D01*
X026709Y021714D02*
X026676Y021748D01*
X026634Y021771D01*
X026589Y021784D01*
X026460Y021784D01*
X026331Y021784D01*
X026286Y021771D01*
X026244Y021748D01*
X026211Y021714D01*
X026200Y021695D01*
X026131Y021764D01*
X025789Y021764D01*
X025740Y021715D01*
X025740Y022254D01*
X025916Y022430D01*
X027552Y022430D01*
X027552Y022278D01*
X026745Y021471D01*
X026745Y021627D01*
X026733Y021673D01*
X026709Y021714D01*
X026745Y021571D02*
X026845Y021571D01*
X026460Y021571D02*
X026460Y021571D01*
X026460Y021729D02*
X026460Y021729D01*
X026460Y021784D02*
X026460Y021219D01*
X026460Y021219D01*
X026460Y021784D01*
X026226Y021729D02*
X026166Y021729D01*
X025754Y021729D02*
X025740Y021729D01*
X025740Y021888D02*
X027162Y021888D01*
X027320Y022046D02*
X025740Y022046D01*
X025740Y022205D02*
X027479Y022205D01*
X027552Y022363D02*
X025849Y022363D01*
X026460Y021412D02*
X026460Y021412D01*
X026460Y021254D02*
X026460Y021254D01*
X026800Y020224D02*
X026800Y018064D01*
X026800Y017936D01*
X026849Y017819D01*
X027437Y017230D01*
X026246Y017230D01*
X025240Y018236D01*
X025240Y018577D01*
X025244Y018572D01*
X025286Y018549D01*
X025331Y018536D01*
X025460Y018536D01*
X025589Y018536D01*
X025634Y018549D01*
X025676Y018572D01*
X025709Y018606D01*
X025710Y018608D01*
X025711Y018606D01*
X025744Y018572D01*
X025786Y018549D01*
X025831Y018536D01*
X025960Y018536D01*
X026089Y018536D01*
X026134Y018549D01*
X026176Y018572D01*
X026209Y018606D01*
X026210Y018608D01*
X026211Y018606D01*
X026244Y018572D01*
X026286Y018549D01*
X026331Y018536D01*
X026460Y018536D01*
X026589Y018536D01*
X026634Y018549D01*
X026676Y018572D01*
X026709Y018606D01*
X026733Y018647D01*
X026745Y018693D01*
X026745Y019101D01*
X026745Y019509D01*
X026733Y019554D01*
X026709Y019595D01*
X026676Y019629D01*
X026634Y019653D01*
X026589Y019665D01*
X026460Y019665D01*
X026331Y019665D01*
X026286Y019653D01*
X026244Y019629D01*
X026211Y019595D01*
X026210Y019594D01*
X026209Y019595D01*
X026176Y019629D01*
X026134Y019653D01*
X026089Y019665D01*
X025960Y019665D01*
X025831Y019665D01*
X025786Y019653D01*
X025744Y019629D01*
X025711Y019595D01*
X025710Y019594D01*
X025709Y019595D01*
X025676Y019629D01*
X025634Y019653D01*
X025589Y019665D01*
X025460Y019665D01*
X025331Y019665D01*
X025286Y019653D01*
X025244Y019629D01*
X025211Y019595D01*
X025200Y019576D01*
X025131Y019645D01*
X024790Y019645D01*
X024790Y019820D01*
X026336Y019820D01*
X026439Y019863D01*
X026517Y019941D01*
X026517Y019941D01*
X026800Y020224D01*
X026800Y020144D02*
X026720Y020144D01*
X026800Y019986D02*
X026562Y019986D01*
X026353Y019827D02*
X026800Y019827D01*
X026800Y019669D02*
X024790Y019669D01*
X025460Y019665D02*
X025460Y019101D01*
X025460Y019101D01*
X025460Y019665D01*
X025460Y019510D02*
X025460Y019510D01*
X025460Y019352D02*
X025460Y019352D01*
X025460Y019193D02*
X025460Y019193D01*
X025460Y019101D02*
X025745Y019101D01*
X025960Y019101D01*
X025960Y019665D01*
X025960Y019101D01*
X025960Y019101D01*
X026245Y019101D01*
X026460Y019101D01*
X026460Y019665D01*
X026460Y019101D01*
X026460Y019101D01*
X026460Y019101D01*
X026745Y019101D01*
X026460Y019101D01*
X026460Y019101D01*
X025960Y019101D01*
X025960Y019101D01*
X025960Y019101D01*
X025460Y019101D01*
X025460Y019101D01*
X025460Y018536D01*
X025460Y019101D01*
X025460Y019101D01*
X025460Y019035D02*
X025460Y019035D01*
X025460Y018876D02*
X025460Y018876D01*
X025460Y018718D02*
X025460Y018718D01*
X025460Y018559D02*
X025460Y018559D01*
X025652Y018559D02*
X025768Y018559D01*
X025960Y018559D02*
X025960Y018559D01*
X025960Y018536D02*
X025960Y019101D01*
X025960Y019101D01*
X025960Y018536D01*
X025960Y018718D02*
X025960Y018718D01*
X025960Y018876D02*
X025960Y018876D01*
X025960Y019035D02*
X025960Y019035D01*
X025960Y019193D02*
X025960Y019193D01*
X025960Y019352D02*
X025960Y019352D01*
X025960Y019510D02*
X025960Y019510D01*
X026460Y019510D02*
X026460Y019510D01*
X026460Y019352D02*
X026460Y019352D01*
X026460Y019193D02*
X026460Y019193D01*
X026460Y019101D02*
X026460Y018536D01*
X026460Y019101D01*
X026460Y019101D01*
X026460Y019035D02*
X026460Y019035D01*
X026460Y018876D02*
X026460Y018876D01*
X026460Y018718D02*
X026460Y018718D01*
X026460Y018559D02*
X026460Y018559D01*
X026652Y018559D02*
X026800Y018559D01*
X026800Y018401D02*
X025240Y018401D01*
X025240Y018559D02*
X025268Y018559D01*
X025240Y018242D02*
X026800Y018242D01*
X026800Y018084D02*
X025392Y018084D01*
X025551Y017925D02*
X026805Y017925D01*
X026901Y017767D02*
X025709Y017767D01*
X025868Y017608D02*
X027059Y017608D01*
X027218Y017450D02*
X026026Y017450D01*
X026185Y017291D02*
X027376Y017291D01*
X026268Y018559D02*
X026152Y018559D01*
X026745Y018718D02*
X026800Y018718D01*
X026800Y018876D02*
X026745Y018876D01*
X026745Y019035D02*
X026800Y019035D01*
X026800Y019193D02*
X026745Y019193D01*
X026745Y019352D02*
X026800Y019352D01*
X026800Y019510D02*
X026745Y019510D01*
X030507Y022046D02*
X030933Y022046D01*
X030807Y022205D02*
X030633Y022205D01*
X030680Y022363D02*
X030760Y022363D01*
X030760Y022522D02*
X030680Y022522D01*
X030680Y022680D02*
X030760Y022680D01*
X030760Y022839D02*
X030680Y022839D01*
X030680Y022997D02*
X030760Y022997D01*
X030782Y023156D02*
X030658Y023156D01*
X030567Y023314D02*
X030873Y023314D01*
X031567Y023314D02*
X031848Y023314D01*
X031763Y023156D02*
X031658Y023156D01*
X031680Y022997D02*
X031740Y022997D01*
X031740Y022839D02*
X031680Y022839D01*
X031680Y022680D02*
X031740Y022680D01*
X031740Y022690D02*
X031740Y022372D01*
X031752Y022298D01*
X031775Y022226D01*
X031809Y022158D01*
X031854Y022097D01*
X031907Y022044D01*
X031968Y021999D01*
X032036Y021965D01*
X032108Y021942D01*
X032182Y021930D01*
X032200Y021930D01*
X032200Y022690D01*
X031740Y022690D01*
X031740Y022522D02*
X031680Y022522D01*
X031680Y022363D02*
X031741Y022363D01*
X031786Y022205D02*
X031633Y022205D01*
X031507Y022046D02*
X031905Y022046D01*
X032200Y022046D02*
X032240Y022046D01*
X032240Y021930D02*
X032258Y021930D01*
X032332Y021942D01*
X032404Y021965D01*
X032472Y021999D01*
X032533Y022044D01*
X032586Y022097D01*
X032631Y022158D01*
X032665Y022226D01*
X032688Y022298D01*
X032700Y022372D01*
X032700Y022690D01*
X032240Y022690D01*
X032240Y021930D01*
X032240Y022205D02*
X032200Y022205D01*
X032200Y022363D02*
X032240Y022363D01*
X032240Y022522D02*
X032200Y022522D01*
X032200Y022680D02*
X032240Y022680D01*
X032700Y022680D02*
X033546Y022680D01*
X033546Y022787D02*
X033639Y022881D01*
X034422Y022881D01*
X034515Y022787D01*
X034515Y022005D01*
X034422Y021911D01*
X033639Y021911D01*
X033546Y022005D01*
X033546Y022787D01*
X033597Y022839D02*
X032700Y022839D01*
X032700Y022997D02*
X037905Y022997D01*
X037905Y022839D02*
X037023Y022839D01*
X037100Y022680D02*
X037905Y022680D01*
X037905Y022522D02*
X037304Y022522D01*
X037463Y022363D02*
X037905Y022363D01*
X037905Y022205D02*
X037621Y022205D01*
X037690Y022046D02*
X037905Y022046D01*
X037905Y021888D02*
X037690Y021888D01*
X037690Y021729D02*
X037905Y021729D01*
X037905Y021571D02*
X037690Y021571D01*
X037690Y021412D02*
X037905Y021412D01*
X037905Y021254D02*
X037690Y021254D01*
X037690Y021095D02*
X037905Y021095D01*
X037905Y020937D02*
X037690Y020937D01*
X037690Y020778D02*
X037905Y020778D01*
X037905Y020620D02*
X037690Y020620D01*
X037690Y020461D02*
X037905Y020461D01*
X037905Y020303D02*
X037690Y020303D01*
X036105Y022046D02*
X034515Y022046D01*
X034515Y022205D02*
X036105Y022205D01*
X036105Y022363D02*
X034515Y022363D01*
X034515Y022522D02*
X036105Y022522D01*
X036105Y022680D02*
X034515Y022680D01*
X034464Y022839D02*
X036156Y022839D01*
X037905Y023156D02*
X032677Y023156D01*
X032592Y023314D02*
X037905Y023314D01*
X033546Y022522D02*
X032700Y022522D01*
X032699Y022363D02*
X033546Y022363D01*
X033546Y022205D02*
X032654Y022205D01*
X032535Y022046D02*
X033546Y022046D01*
X032469Y017925D02*
X032368Y017925D01*
X030312Y015706D02*
X029760Y015706D01*
X029760Y015548D02*
X030380Y015548D01*
X030380Y015389D02*
X029730Y015389D01*
X029878Y014438D02*
X030332Y014438D01*
X030337Y014280D02*
X029873Y014280D01*
X030983Y014280D02*
X032090Y014280D01*
X032090Y014438D02*
X030988Y014438D01*
X027739Y014755D02*
X027244Y014755D01*
X027086Y014597D02*
X027581Y014597D01*
X027422Y014438D02*
X026927Y014438D01*
X026769Y014280D02*
X027264Y014280D01*
X027105Y014121D02*
X026610Y014121D01*
X026452Y013963D02*
X026947Y013963D01*
X026870Y013804D02*
X026247Y013804D01*
X026190Y014040D02*
X026010Y014040D01*
X024390Y014040D01*
X024081Y013963D02*
X023860Y013963D01*
X023880Y014121D02*
X024081Y014121D01*
X024106Y014280D02*
X023880Y014280D01*
X023880Y014438D02*
X026249Y014438D01*
X026407Y014597D02*
X023880Y014597D01*
X023880Y014755D02*
X024158Y014755D01*
X023999Y014914D02*
X023880Y014914D01*
X025455Y014755D02*
X026566Y014755D01*
X026724Y014914D02*
X025614Y014914D01*
X025772Y015072D02*
X026883Y015072D01*
X027041Y015231D02*
X025883Y015231D01*
X025883Y015389D02*
X027200Y015389D01*
X027358Y015548D02*
X025883Y015548D01*
X025883Y015706D02*
X027517Y015706D01*
X027660Y015510D02*
X027300Y015150D01*
X026190Y014040D01*
X026870Y013646D02*
X023543Y013646D01*
X023701Y013804D02*
X024102Y013804D01*
X023384Y013487D02*
X026870Y013487D01*
X026870Y013329D02*
X023225Y013329D01*
X023067Y013170D02*
X026784Y013170D01*
X026626Y013012D02*
X026088Y013012D01*
X025950Y012810D02*
X026130Y012630D01*
X025950Y012810D02*
X025170Y012810D01*
X025140Y012780D01*
X025140Y011220D01*
X025110Y011190D01*
X024060Y010140D01*
X025170Y009540D02*
X025380Y009750D01*
X025560Y009930D01*
X025560Y010320D01*
X026610Y009208D02*
X024300Y009208D01*
X025939Y008098D02*
X015371Y008098D01*
X015213Y008257D02*
X026097Y008257D01*
X026256Y008415D02*
X015054Y008415D01*
X014693Y008098D02*
X014351Y008098D01*
X014193Y008257D02*
X014534Y008257D01*
X014376Y008415D02*
X014034Y008415D01*
X013876Y008574D02*
X014217Y008574D01*
X014059Y008732D02*
X013717Y008732D01*
X013559Y008891D02*
X013933Y008891D01*
X013920Y009049D02*
X013440Y009049D01*
X013440Y009208D02*
X013920Y009208D01*
X013920Y009366D02*
X013440Y009366D01*
X013440Y009525D02*
X013920Y009525D01*
X013904Y009683D02*
X013456Y009683D01*
X013528Y009842D02*
X013832Y009842D01*
X013832Y010000D02*
X013528Y010000D01*
X013528Y010159D02*
X013832Y010159D01*
X013924Y010317D02*
X013436Y010317D01*
X013200Y009990D02*
X013200Y008970D01*
X013200Y008910D01*
X016320Y005790D01*
X016320Y004990D01*
X016310Y004980D01*
X016770Y004928D02*
X016850Y004928D01*
X016850Y004770D02*
X016770Y004770D01*
X016770Y004611D02*
X016850Y004611D01*
X016906Y004453D02*
X016714Y004453D01*
X016770Y005087D02*
X016850Y005087D01*
X016850Y005245D02*
X016770Y005245D01*
X016757Y005404D02*
X016863Y005404D01*
X016941Y005562D02*
X016679Y005562D01*
X016560Y005721D02*
X017070Y005721D01*
X016912Y005879D02*
X016543Y005879D01*
X016412Y006038D02*
X016753Y006038D01*
X016595Y006196D02*
X016253Y006196D01*
X016095Y006355D02*
X016436Y006355D01*
X016278Y006513D02*
X015936Y006513D01*
X015778Y006672D02*
X016119Y006672D01*
X015961Y006830D02*
X015619Y006830D01*
X015461Y006989D02*
X015802Y006989D01*
X015644Y007147D02*
X015302Y007147D01*
X015144Y007306D02*
X015485Y007306D01*
X015327Y007464D02*
X014985Y007464D01*
X014827Y007623D02*
X015168Y007623D01*
X015010Y007781D02*
X014668Y007781D01*
X014510Y007940D02*
X014851Y007940D01*
X014148Y007623D02*
X012557Y007623D01*
X012580Y007781D02*
X013990Y007781D01*
X013831Y007940D02*
X012580Y007940D01*
X012580Y008098D02*
X013673Y008098D01*
X013514Y008257D02*
X012580Y008257D01*
X012580Y008415D02*
X013356Y008415D01*
X013197Y008574D02*
X012580Y008574D01*
X012580Y008732D02*
X013039Y008732D01*
X012960Y008891D02*
X012580Y008891D01*
X012580Y009049D02*
X012960Y009049D01*
X012960Y009208D02*
X012580Y009208D01*
X012580Y009366D02*
X012960Y009366D01*
X012960Y009525D02*
X012580Y009525D01*
X012580Y009683D02*
X012944Y009683D01*
X012872Y009842D02*
X012530Y009842D01*
X012464Y010000D02*
X012872Y010000D01*
X012872Y010159D02*
X012338Y010159D01*
X012172Y010317D02*
X012964Y010317D01*
X015530Y007940D02*
X025780Y007940D01*
X025622Y007781D02*
X015688Y007781D01*
X015847Y007623D02*
X025463Y007623D01*
X025305Y007464D02*
X016005Y007464D01*
X016164Y007306D02*
X025146Y007306D01*
X024988Y007147D02*
X016322Y007147D01*
X016481Y006989D02*
X024829Y006989D01*
X024671Y006830D02*
X016639Y006830D01*
X016798Y006672D02*
X024570Y006672D01*
X024570Y006513D02*
X016956Y006513D01*
X017115Y006355D02*
X024435Y006355D01*
X024277Y006196D02*
X017273Y006196D01*
X016050Y005721D02*
X015449Y005721D01*
X015171Y005721D02*
X014503Y005721D01*
X014494Y005725D02*
X014422Y005748D01*
X014348Y005760D01*
X014330Y005760D01*
X014330Y005000D01*
X014790Y005000D01*
X014790Y005318D01*
X014778Y005392D01*
X014755Y005464D01*
X014721Y005532D01*
X014676Y005593D01*
X014623Y005646D01*
X014562Y005691D01*
X014494Y005725D01*
X014330Y005721D02*
X014290Y005721D01*
X014290Y005562D02*
X014330Y005562D01*
X014330Y005404D02*
X014290Y005404D01*
X014290Y005245D02*
X014330Y005245D01*
X014330Y005087D02*
X014290Y005087D01*
X013830Y005087D02*
X013790Y005087D01*
X013790Y005000D02*
X013790Y005318D01*
X013778Y005392D01*
X013755Y005464D01*
X013721Y005532D01*
X013676Y005593D01*
X013623Y005646D01*
X013562Y005691D01*
X013494Y005725D01*
X013422Y005748D01*
X013348Y005760D01*
X013330Y005760D01*
X013330Y005000D01*
X013790Y005000D01*
X013790Y004928D02*
X013830Y004928D01*
X013830Y004770D02*
X013790Y004770D01*
X013785Y004611D02*
X013835Y004611D01*
X013887Y004453D02*
X013733Y004453D01*
X013330Y005087D02*
X013290Y005087D01*
X013290Y005245D02*
X013330Y005245D01*
X013330Y005404D02*
X013290Y005404D01*
X013290Y005562D02*
X013330Y005562D01*
X013330Y005721D02*
X013290Y005721D01*
X013117Y005721D02*
X010870Y005721D01*
X010870Y005879D02*
X015892Y005879D01*
X015733Y006038D02*
X010870Y006038D01*
X010870Y006196D02*
X015575Y006196D01*
X015416Y006355D02*
X010870Y006355D01*
X010870Y006513D02*
X015258Y006513D01*
X015099Y006672D02*
X010870Y006672D01*
X010870Y006830D02*
X014941Y006830D01*
X014782Y006989D02*
X011944Y006989D01*
X012244Y007147D02*
X014624Y007147D01*
X014465Y007306D02*
X012402Y007306D01*
X012491Y007464D02*
X014307Y007464D01*
X014117Y005721D02*
X013503Y005721D01*
X013698Y005562D02*
X013922Y005562D01*
X013845Y005404D02*
X013775Y005404D01*
X013790Y005245D02*
X013830Y005245D01*
X014698Y005562D02*
X014941Y005562D01*
X014863Y005404D02*
X014775Y005404D01*
X014790Y005245D02*
X014850Y005245D01*
X014850Y005087D02*
X014790Y005087D01*
X014790Y004928D02*
X014850Y004928D01*
X014850Y004770D02*
X014790Y004770D01*
X014785Y004611D02*
X014850Y004611D01*
X014906Y004453D02*
X014733Y004453D01*
X015714Y004453D02*
X015906Y004453D01*
X015850Y004611D02*
X015770Y004611D01*
X015770Y004770D02*
X015850Y004770D01*
X015850Y004928D02*
X015770Y004928D01*
X015770Y005087D02*
X015850Y005087D01*
X015850Y005245D02*
X015770Y005245D01*
X015757Y005404D02*
X015863Y005404D01*
X015941Y005562D02*
X015679Y005562D01*
X012922Y005562D02*
X010870Y005562D01*
X010870Y005404D02*
X012845Y005404D01*
X012830Y005245D02*
X010870Y005245D01*
X010909Y005087D02*
X012830Y005087D01*
X012830Y004928D02*
X011068Y004928D01*
X011226Y004770D02*
X012830Y004770D01*
X012835Y004611D02*
X011385Y004611D01*
X011543Y004453D02*
X012887Y004453D01*
X010310Y005245D02*
X008401Y005245D01*
X008569Y005404D02*
X010310Y005404D01*
X010310Y005562D02*
X008709Y005562D01*
X008774Y005721D02*
X010310Y005721D01*
X010310Y005879D02*
X008840Y005879D01*
X008846Y006038D02*
X010310Y006038D01*
X010310Y006196D02*
X008846Y006196D01*
X008819Y006355D02*
X010310Y006355D01*
X010310Y006513D02*
X008753Y006513D01*
X008676Y006672D02*
X010310Y006672D01*
X010310Y006830D02*
X008517Y006830D01*
X018679Y005562D02*
X023680Y005562D01*
X023806Y005404D02*
X018757Y005404D01*
X018770Y005245D02*
X024116Y005245D01*
X024120Y005087D02*
X024160Y005087D01*
X024160Y004928D02*
X024120Y004928D01*
X024120Y004770D02*
X024160Y004770D01*
X023828Y005087D02*
X018770Y005087D01*
X018770Y004928D02*
X023669Y004928D01*
X023660Y004770D02*
X018770Y004770D01*
X018770Y004611D02*
X023660Y004611D01*
X023729Y004453D02*
X018714Y004453D01*
X024140Y005560D02*
X024480Y005220D01*
X024611Y004928D02*
X024697Y004928D01*
X024680Y004770D02*
X024620Y004770D01*
X024620Y004611D02*
X024680Y004611D01*
X024757Y004453D02*
X024551Y004453D01*
X024140Y005560D02*
X024140Y005720D01*
X026140Y005720D02*
X027210Y006790D01*
X027450Y007306D02*
X028415Y007306D01*
X028257Y007464D02*
X027450Y007464D01*
X027450Y007623D02*
X028098Y007623D01*
X027955Y007781D02*
X027470Y007781D01*
X027526Y007837D02*
X027526Y007837D01*
X027629Y007940D02*
X027930Y007940D01*
X027930Y008098D02*
X027787Y008098D01*
X027840Y008257D02*
X027930Y008257D01*
X027930Y008415D02*
X027840Y008415D01*
X030091Y006991D02*
X030124Y007025D01*
X030165Y007048D01*
X030211Y007061D01*
X030531Y007061D01*
X030531Y006584D01*
X030055Y006584D01*
X030055Y006904D01*
X030067Y006950D01*
X030091Y006991D01*
X030089Y006989D02*
X029411Y006989D01*
X029519Y006830D02*
X030055Y006830D01*
X030055Y006672D02*
X029520Y006672D01*
X029520Y006513D02*
X030055Y006513D01*
X030055Y006355D02*
X029520Y006355D01*
X029520Y006196D02*
X030058Y006196D01*
X030531Y006196D02*
X030588Y006196D01*
X030588Y006355D02*
X030531Y006355D01*
X030531Y006513D02*
X030588Y006513D01*
X030588Y006672D02*
X030531Y006672D01*
X030531Y006830D02*
X030588Y006830D01*
X030588Y006989D02*
X030531Y006989D01*
X028952Y005879D02*
X026638Y005879D01*
X026600Y005721D02*
X028952Y005721D01*
X028952Y005562D02*
X026600Y005562D01*
X027972Y006196D02*
X028029Y006196D01*
X028485Y004611D02*
X030075Y004611D01*
X030075Y004453D02*
X028485Y004453D01*
X030975Y005245D02*
X036679Y005245D01*
X036801Y005404D02*
X036838Y005404D01*
X036801Y005562D02*
X036996Y005562D01*
X037130Y005721D02*
X036801Y005721D01*
X036801Y005879D02*
X037130Y005879D01*
X037130Y006038D02*
X036801Y006038D01*
X036774Y006355D02*
X037130Y006355D01*
X037130Y006513D02*
X036801Y006513D01*
X036801Y006672D02*
X037130Y006672D01*
X037130Y006830D02*
X036801Y006830D01*
X036801Y006989D02*
X037130Y006989D01*
X037130Y007147D02*
X035579Y007147D01*
X035420Y007306D02*
X036010Y007306D01*
X035605Y007464D02*
X035262Y007464D01*
X035392Y007623D02*
X035103Y007623D01*
X035233Y007781D02*
X034945Y007781D01*
X034900Y007940D02*
X035075Y007940D01*
X034916Y008098D02*
X034900Y008098D01*
X035410Y008415D02*
X035949Y008415D01*
X036043Y008257D02*
X035549Y008257D01*
X035708Y008098D02*
X036017Y008098D01*
X035791Y008574D02*
X035410Y008574D01*
X035410Y008732D02*
X035632Y008732D01*
X035474Y008891D02*
X035410Y008891D01*
X036766Y009049D02*
X037130Y009049D01*
X037130Y008891D02*
X036801Y008891D01*
X036801Y008732D02*
X037130Y008732D01*
X037130Y008574D02*
X036801Y008574D01*
X036801Y008415D02*
X037130Y008415D01*
X037130Y008257D02*
X036707Y008257D01*
X036733Y008098D02*
X037130Y008098D01*
X037130Y007940D02*
X036801Y007940D01*
X036801Y007781D02*
X037130Y007781D01*
X037130Y007623D02*
X036801Y007623D01*
X036801Y007464D02*
X037130Y007464D01*
X037130Y007306D02*
X036740Y007306D01*
X035949Y006513D02*
X035133Y006513D01*
X035263Y006672D02*
X034974Y006672D01*
X035104Y006830D02*
X034816Y006830D01*
X034782Y006864D02*
X034782Y006864D01*
X034657Y006989D02*
X034946Y006989D01*
X034787Y007147D02*
X034638Y007147D01*
X034629Y007306D02*
X034547Y007306D01*
X034470Y007464D02*
X034390Y007464D01*
X034290Y006960D02*
X034545Y006705D01*
X035291Y006355D02*
X035976Y006355D01*
X035450Y006196D02*
X037130Y006196D01*
X025170Y012810D02*
X024810Y012810D01*
X024501Y012853D02*
X023008Y012853D01*
X023008Y013012D02*
X024501Y013012D01*
X024501Y012695D02*
X023707Y012695D01*
X026010Y013290D02*
X026130Y013290D01*
X019170Y011850D02*
X019170Y015570D01*
D24*
X019890Y016290D01*
X021660Y016290D01*
X021720Y016290D01*
X021930Y016500D01*
X021930Y021120D01*
X022350Y021540D01*
X023880Y021540D01*
X023910Y021570D01*
X027120Y020310D02*
X027120Y018000D01*
X028260Y016860D01*
X028290Y016860D01*
X028380Y016950D01*
X027270Y018090D01*
X028260Y017100D01*
X028380Y016980D02*
X028290Y016890D01*
X027240Y017940D01*
X027240Y020280D01*
X027210Y020310D01*
X027120Y020310D01*
X027210Y020310D02*
X027330Y020190D01*
X027330Y019680D01*
X027390Y019740D01*
X027390Y020310D01*
X027210Y020310D01*
X027150Y020190D02*
X027390Y020190D01*
X027390Y017970D01*
X028380Y016980D01*
X030660Y015930D02*
X032040Y017310D01*
X032040Y017970D01*
X027270Y020190D02*
X027150Y020190D01*
X023460Y006630D02*
X023460Y004980D01*
D25*
X022680Y013020D02*
X022680Y013080D01*
X023670Y014070D01*
X023670Y014910D01*
X023550Y015030D01*
X023040Y015030D01*
X022980Y014970D01*
X022950Y014940D01*
X022680Y014670D01*
X022680Y014610D01*
X022650Y015240D02*
X023970Y015240D01*
X024180Y015030D01*
X024330Y014880D01*
X025283Y014880D01*
X025673Y015270D01*
X025673Y015893D01*
X025890Y016110D01*
X025140Y016110D02*
X025080Y016170D01*
D26*
X019170Y015570D02*
X017550Y017190D01*
X014700Y017190D01*
X014250Y017640D01*
X014250Y018600D01*
X014790Y019140D01*
X016710Y019140D01*
X017252Y019682D01*
X017252Y020109D01*
X017730Y019110D02*
X018840Y019110D01*
X018990Y019260D01*
X018990Y020880D01*
X018510Y021360D01*
X017730Y019110D02*
X017252Y018632D01*
X017252Y018109D01*
D27*
X015060Y016170D02*
X013710Y016170D01*
X009480Y016170D01*
X009480Y014580D01*
X009540Y014580D01*
X009510Y014610D01*
X009510Y016130D01*
X009510Y014477D01*
X009480Y014460D02*
X013650Y014460D01*
X014010Y014820D01*
X009750Y014820D01*
X009660Y014910D01*
X013380Y014910D01*
X013530Y015060D01*
X015060Y014820D01*
X011675Y016130D01*
X011675Y014477D01*
X012866Y014940D02*
X011675Y016130D01*
X010290Y015570D02*
X010050Y015330D01*
X010050Y015030D01*
X009480Y014460D01*
X010290Y015570D02*
X014670Y015570D01*
X014850Y015390D01*
X015060Y015390D01*
X015060Y016170D01*
X014130Y015019D02*
X012866Y014940D01*
X013727Y012823D02*
X009510Y012823D01*
X011675Y012823D01*
X012078Y012420D01*
X014130Y012341D01*
X014100Y012450D02*
X013727Y012823D01*
X014100Y012480D02*
X014100Y012450D01*
X014100Y012480D02*
X014160Y012540D01*
X015030Y012540D01*
X015060Y012540D01*
X015060Y011220D01*
X015030Y011190D01*
X015030Y011160D01*
X015030Y011190D01*
X015000Y011160D01*
X011130Y011160D01*
X009480Y012810D01*
X009480Y011160D01*
X013860Y011160D01*
X014310Y011610D01*
X011280Y011610D01*
X010740Y012150D01*
X011040Y012150D01*
X011160Y012270D01*
X011250Y012270D01*
X011700Y011820D01*
X009510Y011170D01*
D28*
X006900Y009990D02*
X006660Y009990D01*
X006720Y010050D01*
X006720Y016620D01*
X006690Y016650D01*
X006690Y016710D01*
X006720Y016740D01*
X006630Y016740D01*
X005970Y016080D01*
X005970Y015510D01*
X008010Y017550D01*
X008010Y017610D01*
X006180Y017610D01*
X006870Y018300D01*
X007530Y018300D01*
X007920Y018690D01*
X010830Y018690D01*
X011670Y017850D01*
X011670Y017790D01*
X011670Y019470D01*
X011640Y019440D01*
X006990Y019440D01*
X005370Y017820D01*
X005280Y017730D01*
X005280Y009930D01*
X006960Y008250D01*
X007350Y007860D01*
X011670Y007860D01*
X011670Y009540D01*
X011640Y009510D01*
X009504Y009510D01*
X009504Y007869D01*
X009510Y007863D01*
X010440Y008340D02*
X008550Y008340D01*
X008550Y009090D01*
X008130Y009510D01*
X011640Y009510D01*
X011670Y009540D01*
X007620Y009540D01*
X007590Y009570D01*
X007590Y008940D01*
X007650Y008880D01*
X007140Y008880D01*
X006540Y009480D01*
X006900Y009990D01*
X008220Y009510D02*
X010830Y008730D01*
X010440Y008340D01*
X009504Y009510D02*
X009510Y009516D01*
X008220Y009510D02*
X006210Y011520D01*
X006210Y016290D01*
X007704Y017784D01*
X011675Y017784D01*
X009510Y017784D02*
X009510Y019437D01*
D29*
X020490Y015480D02*
X020490Y012420D01*
X019560Y011490D01*
X016950Y011490D01*
X016710Y011730D01*
X016170Y011220D02*
X015900Y010950D01*
X015900Y010470D01*
X015420Y009990D01*
X014160Y009990D01*
X016260Y010500D02*
X016260Y010770D01*
X016410Y010920D01*
X019830Y010920D01*
X019860Y010950D01*
X021601Y012691D01*
X022620Y013710D01*
X022620Y013860D01*
X022260Y014280D02*
X021870Y013890D01*
X021870Y013500D01*
X021870Y013410D01*
X021030Y012570D01*
X019680Y011220D01*
X016170Y011220D01*
X019920Y010590D02*
X019920Y009990D01*
X019920Y010590D02*
X021570Y012240D01*
X021960Y012630D01*
X023460Y012630D01*
X023670Y012420D01*
X024660Y012420D01*
X024780Y012300D01*
X024300Y012090D02*
X023490Y012090D01*
X023400Y012180D01*
X023220Y012360D01*
X022110Y012360D01*
X021930Y012180D01*
X021870Y012120D01*
X021870Y011670D01*
X021120Y010920D01*
X021000Y010920D01*
X022260Y014280D02*
X022890Y014280D01*
X023010Y014400D01*
X023280Y014670D01*
M02*
