G75*
G70*
%OFA0B0*%
%FSLAX24Y24*%
%IPPOS*%
%LPD*%
%AMOC8*
5,1,8,0,0,1.08239X$1,22.5*
%
%ADD10C,0.0000*%
%ADD11C,0.0040*%
%ADD12C,0.0050*%
%ADD13C,0.0060*%
%ADD14C,0.0030*%
D10*
X003780Y003690D02*
X003780Y023674D01*
X038135Y023674D01*
X038135Y003720D01*
X003780Y003690D01*
D11*
X011650Y014779D02*
X012110Y014779D01*
X012110Y015009D01*
X012034Y015086D01*
X011880Y015086D01*
X011803Y015009D01*
X011803Y014779D01*
X011803Y014933D02*
X011650Y015086D01*
X011650Y015240D02*
X011957Y015547D01*
X012034Y015547D01*
X012110Y015470D01*
X012110Y015316D01*
X012034Y015240D01*
X011650Y015240D02*
X011650Y015547D01*
D12*
X012516Y015963D02*
X015744Y015963D01*
X015744Y011397D01*
X012516Y011397D01*
X012516Y015963D01*
D13*
X024726Y019648D02*
X026694Y019648D01*
X026694Y020672D01*
X024726Y020672D01*
X024730Y020663D02*
X024730Y020319D01*
X024730Y020001D01*
X024730Y019657D01*
X024730Y020001D02*
X024754Y020003D01*
X024777Y020008D01*
X024799Y020017D01*
X024820Y020029D01*
X024838Y020043D01*
X024854Y020061D01*
X024868Y020081D01*
X024878Y020102D01*
X024885Y020125D01*
X024889Y020148D01*
X024889Y020172D01*
X024885Y020195D01*
X024878Y020218D01*
X024868Y020240D01*
X024854Y020259D01*
X024838Y020277D01*
X024820Y020291D01*
X024799Y020303D01*
X024777Y020312D01*
X024754Y020317D01*
X024730Y020319D01*
D14*
X024496Y020426D02*
X024496Y020620D01*
X024303Y020426D01*
X024254Y020426D01*
X024206Y020475D01*
X024206Y020571D01*
X024254Y020620D01*
X024206Y020721D02*
X024448Y020721D01*
X024496Y020769D01*
X024496Y020866D01*
X024448Y020914D01*
X024206Y020914D01*
X024393Y021181D02*
X024707Y021495D01*
X024707Y021338D02*
X024393Y021338D01*
X024393Y021495D02*
X024707Y021181D01*
X024550Y021181D02*
X024550Y021495D01*
M02*
