G75*
G70*
%OFA0B0*%
%FSLAX24Y24*%
%IPPOS*%
%LPD*%
%AMOC8*
5,1,8,0,0,1.08239X$1,22.5*
%
%ADD10R,0.0847X0.0847*%
%ADD11R,0.0710X0.0710*%
%ADD12C,0.0660*%
%ADD13R,0.0591X0.0591*%
%ADD14OC8,0.0660*%
%ADD15R,0.1123X0.1123*%
%ADD16C,0.1720*%
%ADD17R,0.2859X0.1469*%
%ADD18R,0.0270X0.0828*%
%ADD19R,0.0436X0.0436*%
%ADD20R,0.0397X0.0397*%
%ADD21R,0.0357X0.0357*%
D10*
X013252Y018109D03*
X015252Y018109D03*
X016252Y018109D03*
X017252Y018109D03*
X018252Y018109D03*
X018252Y020109D03*
X017252Y020109D03*
X016252Y020109D03*
X015252Y020109D03*
X013252Y020109D03*
D11*
X034030Y020624D03*
X036590Y020624D03*
X036590Y022396D03*
X034030Y022396D03*
X030560Y006556D03*
X028000Y006556D03*
X028000Y004784D03*
X030560Y004784D03*
D12*
X018310Y004680D02*
X018310Y005280D01*
X017310Y005280D02*
X017310Y004680D01*
X016310Y004680D02*
X016310Y005280D01*
X015310Y005280D02*
X015310Y004680D01*
X014310Y004680D02*
X014310Y005280D01*
X013310Y005280D02*
X013310Y004680D01*
X019680Y017080D02*
X020280Y017080D01*
X020280Y018080D02*
X019680Y018080D01*
X019680Y019390D02*
X020280Y019390D01*
X020280Y020390D02*
X019680Y020390D01*
X029220Y022410D02*
X029220Y023010D01*
X030220Y023010D02*
X030220Y022410D01*
X031220Y022410D02*
X031220Y023010D01*
X032220Y023010D02*
X032220Y022410D01*
D13*
X036375Y018577D03*
X036375Y017593D03*
X036375Y016609D03*
X036375Y015625D03*
X036375Y014640D03*
X036375Y013656D03*
X036375Y012672D03*
X036375Y010651D03*
X036375Y009666D03*
X036375Y008682D03*
X036375Y007698D03*
X036375Y006714D03*
X036375Y005729D03*
X036375Y004745D03*
D14*
X026140Y004720D03*
X025140Y004720D03*
X024140Y004720D03*
X024140Y005720D03*
X025140Y005720D03*
X026140Y005720D03*
D15*
X011675Y007863D03*
X009510Y007863D03*
X009510Y009516D03*
X011675Y009516D03*
X011675Y011170D03*
X009510Y011170D03*
X009510Y012823D03*
X011675Y012823D03*
X011675Y014477D03*
X009510Y014477D03*
X009510Y016130D03*
X011675Y016130D03*
X011675Y017784D03*
X009510Y017784D03*
X009510Y019437D03*
X011675Y019437D03*
D16*
X007856Y006091D03*
X007856Y021209D03*
D17*
X014130Y015019D03*
X014130Y012341D03*
D18*
X024960Y019101D03*
X025460Y019101D03*
X025960Y019101D03*
X026460Y019101D03*
X026460Y021219D03*
X025960Y021219D03*
X025460Y021219D03*
X024960Y021219D03*
D19*
X026460Y022080D03*
X027900Y022230D03*
X025200Y023040D03*
X018510Y021360D03*
X026430Y017550D03*
X024810Y015660D03*
X030270Y013541D03*
X029520Y012360D03*
X029520Y011250D03*
X029520Y010140D03*
X029520Y008970D03*
X029550Y007830D03*
X032370Y005640D03*
X034290Y006960D03*
X034620Y010110D03*
X035130Y011250D03*
X035610Y012360D03*
X030660Y015930D03*
X034950Y019350D03*
X024030Y009540D03*
X023490Y009060D03*
D20*
X024060Y010140D03*
X025560Y010320D03*
X026850Y010650D03*
X026850Y011340D03*
X026130Y012630D03*
X026130Y013290D03*
X024360Y013290D03*
X022680Y013020D03*
X022620Y013860D03*
X022680Y014610D03*
X023280Y014670D03*
X022650Y015240D03*
X021900Y015540D03*
X020490Y015480D03*
X022260Y011940D03*
X022770Y011940D03*
X021000Y010920D03*
X019920Y009990D03*
X016710Y011730D03*
X016260Y010500D03*
X014160Y009990D03*
X013200Y009990D03*
X023460Y006630D03*
X023460Y004980D03*
X029280Y005670D03*
X027900Y013770D03*
X029550Y014520D03*
X030660Y014520D03*
X028260Y017100D03*
X032040Y017970D03*
X027270Y020190D03*
X023910Y021570D03*
X031140Y021000D03*
D21*
X029220Y021390D03*
X028590Y021390D03*
X030960Y017670D03*
X025890Y016110D03*
X025080Y016170D03*
X024390Y014040D03*
X024810Y012810D03*
X024780Y012300D03*
X024300Y012090D03*
X025530Y012150D03*
X026010Y012150D03*
X019170Y011850D03*
X016140Y012990D03*
X016200Y013650D03*
X016140Y014370D03*
X017760Y014220D03*
X019170Y015570D03*
X015300Y016050D03*
X014940Y016410D03*
X010590Y017370D03*
X010590Y019830D03*
X015300Y011280D03*
X014940Y010920D03*
X010590Y009930D03*
X010590Y007440D03*
M02*
