G75*
G70*
%OFA0B0*%
%FSLAX24Y24*%
%IPPOS*%
%LPD*%
%AMOC8*
5,1,8,0,0,1.08239X$1,22.5*
%
%ADD10C,0.1221*%
%ADD11R,0.0749X0.0323*%
%ADD12R,0.0473X0.0160*%
%ADD13R,0.1103X0.1103*%
%ADD14C,0.1300*%
%ADD15R,0.1024X0.0237*%
%ADD16R,0.1024X0.0827*%
%ADD17C,0.0394*%
%ADD18C,0.1040*%
%ADD19OC8,0.1040*%
%ADD20R,0.0670X0.0750*%
%ADD21R,0.0631X0.0631*%
%ADD22R,0.0690X0.0690*%
%ADD23R,0.1201X0.0701*%
%ADD24R,0.0257X0.0473*%
%ADD25R,0.0749X0.0985*%
%ADD26C,0.0640*%
%ADD27OC8,0.0640*%
%ADD28R,0.0749X0.0670*%
%ADD29R,0.0670X0.0749*%
%ADD30R,0.0620X0.0240*%
%ADD31R,0.0240X0.0620*%
%ADD32R,0.0138X0.0512*%
%ADD33R,0.0512X0.0138*%
%ADD34R,0.0750X0.0670*%
%ADD35R,0.0820X0.0260*%
%ADD36R,0.1040X0.1209*%
%ADD37R,0.0697X0.0497*%
%ADD38R,0.0590X0.0150*%
%ADD39R,0.0690X0.1160*%
%ADD40R,0.1209X0.1040*%
%ADD41R,0.0497X0.0697*%
%ADD42R,0.0150X0.0590*%
%ADD43R,0.1160X0.0690*%
%ADD44R,0.1694X0.0749*%
%ADD45R,0.0906X0.0276*%
%ADD46R,0.0473X0.0434*%
%ADD47R,0.0985X0.0749*%
%ADD48R,0.0276X0.0906*%
%ADD49R,0.0591X0.1221*%
%ADD50R,0.1540X0.1709*%
%ADD51R,0.1709X0.1540*%
%ADD52R,0.0260X0.0820*%
%ADD53R,0.1220X0.0830*%
%ADD54R,0.1406X0.1087*%
%ADD55R,0.1339X0.1087*%
%ADD56R,0.1221X0.0591*%
%ADD57R,0.0648X0.0648*%
%ADD58R,0.0290X0.0540*%
D10*
X013173Y025181D03*
X033331Y033803D03*
X043921Y024079D03*
X048181Y047205D03*
X048181Y058504D03*
X039945Y071087D03*
X028606Y059748D03*
X023016Y072425D03*
D11*
X023000Y058215D03*
X023000Y057715D03*
X023000Y057215D03*
X023000Y056715D03*
X023000Y054947D03*
X023000Y054447D03*
X023000Y053947D03*
X023000Y053447D03*
X024843Y053447D03*
X024843Y053947D03*
X024843Y054447D03*
X024843Y054947D03*
X025953Y054947D03*
X025953Y054447D03*
X025953Y053947D03*
X025953Y053447D03*
X027795Y053447D03*
X027795Y053947D03*
X027795Y054447D03*
X027795Y054947D03*
X027795Y056715D03*
X027795Y057215D03*
X027795Y057715D03*
X027795Y058215D03*
X025953Y058215D03*
X025953Y057715D03*
X025953Y057215D03*
X025953Y056715D03*
X024843Y056715D03*
X024843Y057215D03*
X024843Y057715D03*
X024843Y058215D03*
X025480Y019750D03*
X025480Y019250D03*
X025480Y018750D03*
X025480Y018250D03*
X025480Y017467D03*
X025480Y016967D03*
X025480Y016467D03*
X025480Y015967D03*
X025480Y015065D03*
X025480Y014565D03*
X025480Y014065D03*
X025480Y013565D03*
X025480Y012742D03*
X025480Y012242D03*
X025480Y011742D03*
X025480Y011242D03*
X025480Y010380D03*
X025480Y009880D03*
X025480Y009380D03*
X025480Y008880D03*
X025480Y008097D03*
X025480Y007597D03*
X025480Y007097D03*
X025480Y006597D03*
X027323Y006597D03*
X027323Y007097D03*
X027323Y007597D03*
X027323Y008097D03*
X027323Y008880D03*
X027323Y009380D03*
X027323Y009880D03*
X027323Y010380D03*
X027323Y011242D03*
X027323Y011742D03*
X027323Y012242D03*
X027323Y012742D03*
X027323Y013565D03*
X027323Y014065D03*
X027323Y014565D03*
X027323Y015065D03*
X027323Y015967D03*
X027323Y016467D03*
X027323Y016967D03*
X027323Y017467D03*
X027323Y018250D03*
X027323Y018750D03*
X027323Y019250D03*
X027323Y019750D03*
X028236Y019750D03*
X028236Y019250D03*
X028236Y018750D03*
X028236Y018250D03*
X028236Y017467D03*
X028236Y016967D03*
X028236Y016467D03*
X028236Y015967D03*
X028236Y015065D03*
X028236Y014565D03*
X028236Y014065D03*
X028236Y013565D03*
X028236Y012742D03*
X028236Y012242D03*
X028236Y011742D03*
X028236Y011242D03*
X028236Y010380D03*
X028236Y009880D03*
X028236Y009380D03*
X028236Y008880D03*
X028236Y008097D03*
X028236Y007597D03*
X028236Y007097D03*
X028236Y006597D03*
X030079Y006597D03*
X030079Y007097D03*
X030079Y007597D03*
X030079Y008097D03*
X030079Y008880D03*
X030079Y009380D03*
X030079Y009880D03*
X030079Y010380D03*
X030079Y011242D03*
X030079Y011742D03*
X030079Y012242D03*
X030079Y012742D03*
X030079Y013565D03*
X030079Y014065D03*
X030079Y014565D03*
X030079Y015065D03*
X030079Y015967D03*
X030079Y016467D03*
X030079Y016967D03*
X030079Y017467D03*
X030079Y018250D03*
X030079Y018750D03*
X030079Y019250D03*
X030079Y019750D03*
D12*
X031561Y018410D03*
X031561Y018213D03*
X031561Y018016D03*
X031561Y017819D03*
X031561Y017622D03*
X033211Y017622D03*
X033211Y017819D03*
X033211Y018016D03*
X033211Y018213D03*
X033211Y018410D03*
X033211Y013528D03*
X033211Y013331D03*
X033211Y013134D03*
X033211Y012937D03*
X033211Y012740D03*
X031561Y012740D03*
X031561Y012937D03*
X031561Y013134D03*
X031561Y013331D03*
X031561Y013528D03*
X031561Y008882D03*
X031561Y008685D03*
X031561Y008488D03*
X031561Y008291D03*
X031561Y008095D03*
X033211Y008095D03*
X033211Y008291D03*
X033211Y008488D03*
X033211Y008685D03*
X033211Y008882D03*
X027699Y055457D03*
X027699Y055654D03*
X027699Y055851D03*
X027699Y056047D03*
X027699Y056244D03*
X026050Y056244D03*
X026050Y056047D03*
X026050Y055851D03*
X026050Y055654D03*
X026050Y055457D03*
D13*
X015772Y054984D03*
X015772Y053331D03*
X015772Y051677D03*
X015772Y050024D03*
X013606Y050024D03*
X013606Y051677D03*
X013606Y053331D03*
X013606Y054984D03*
X013606Y056638D03*
X013606Y058291D03*
X013606Y059945D03*
X013606Y061599D03*
X015772Y061599D03*
X015772Y059945D03*
X015772Y058291D03*
X015772Y056638D03*
X015575Y019866D03*
X015575Y018213D03*
X015575Y016559D03*
X015575Y014906D03*
X015575Y013252D03*
X015575Y011599D03*
X015575Y009945D03*
X015575Y008291D03*
X013410Y008291D03*
X013410Y009945D03*
X013410Y011599D03*
X013410Y013252D03*
X013410Y014906D03*
X013410Y016559D03*
X013410Y018213D03*
X013410Y019866D03*
X042740Y018882D03*
X042740Y017229D03*
X042740Y015575D03*
X042740Y013921D03*
X042740Y012268D03*
X042740Y010614D03*
X042740Y008961D03*
X042740Y007307D03*
X044906Y007307D03*
X044906Y008961D03*
X044906Y010614D03*
X044906Y012268D03*
X044906Y013921D03*
X044906Y015575D03*
X044906Y017229D03*
X044906Y018882D03*
X045103Y065024D03*
X045103Y066677D03*
X042937Y066677D03*
X042937Y065024D03*
D14*
X046756Y063252D03*
X046756Y068449D03*
X046559Y020654D03*
X046559Y005536D03*
X011953Y048252D03*
X011953Y063370D03*
X011756Y021638D03*
X011756Y006520D03*
D15*
X010890Y039236D03*
X010890Y039551D03*
X010890Y039866D03*
X010890Y040181D03*
X010890Y040496D03*
X047386Y074079D03*
X047386Y074394D03*
X047386Y074709D03*
X047386Y075024D03*
X047386Y075339D03*
D16*
X047386Y076480D03*
X049551Y076480D03*
X049551Y072937D03*
X047386Y072937D03*
X010890Y041638D03*
X008725Y041638D03*
X008725Y038095D03*
X010890Y038095D03*
D17*
X009906Y039000D03*
X009906Y040732D03*
X048370Y073843D03*
X048370Y075575D03*
D18*
X019512Y058197D03*
X019512Y053465D03*
X019315Y015835D03*
X019315Y012126D03*
D19*
X019315Y010126D03*
X019315Y017835D03*
X019512Y051465D03*
X019512Y060197D03*
D20*
X011883Y066244D03*
X010763Y066244D03*
X010881Y045378D03*
X012001Y045378D03*
X013047Y039276D03*
X014166Y039276D03*
X014166Y038095D03*
X013047Y038095D03*
X009442Y037110D03*
X008322Y037110D03*
X010684Y024512D03*
X011804Y024512D03*
X020724Y038095D03*
X021843Y038095D03*
X021843Y039276D03*
X020724Y039276D03*
X023677Y036520D03*
X024796Y036520D03*
X025054Y038488D03*
X026174Y038488D03*
X027417Y038488D03*
X028536Y038488D03*
X029779Y038488D03*
X030899Y038488D03*
X030999Y037583D03*
X032119Y037583D03*
X033047Y037583D03*
X034166Y037583D03*
X033991Y038764D03*
X035111Y038764D03*
X035054Y037347D03*
X036174Y037347D03*
X042574Y036244D03*
X042574Y034945D03*
X043694Y034945D03*
X043694Y036244D03*
X043694Y032583D03*
X042574Y032583D03*
X045921Y027071D03*
X045921Y025890D03*
X045921Y024669D03*
X047040Y024669D03*
X047040Y025890D03*
X047040Y027071D03*
X048952Y028410D03*
X048952Y029315D03*
X050072Y029315D03*
X050072Y028410D03*
X049403Y033764D03*
X048283Y033764D03*
X048283Y034945D03*
X049403Y034945D03*
X047040Y023449D03*
X045921Y023449D03*
X033851Y028370D03*
X032732Y028370D03*
X026174Y028252D03*
X025054Y028252D03*
X025054Y025890D03*
X025054Y024709D03*
X026174Y024709D03*
X026174Y025890D03*
X026174Y032189D03*
X025054Y032189D03*
X032299Y056795D03*
X033418Y056795D03*
X034464Y056795D03*
X035584Y056795D03*
X031450Y062110D03*
X030330Y062110D03*
X030330Y064315D03*
X031450Y064315D03*
X031450Y066480D03*
X030330Y066480D03*
X028733Y066047D03*
X027614Y066047D03*
X027614Y062504D03*
X028733Y062504D03*
X033322Y069000D03*
X034442Y069000D03*
X035291Y069000D03*
X036410Y069000D03*
X034442Y072543D03*
X033322Y072543D03*
X036669Y075299D03*
X037788Y075299D03*
X037788Y076480D03*
X036669Y076480D03*
X044346Y076284D03*
X045466Y076284D03*
X045466Y075103D03*
X044346Y075103D03*
X011804Y003646D03*
X010684Y003646D03*
D21*
X008390Y003646D03*
X009768Y003646D03*
X009768Y024512D03*
X008390Y024512D03*
X010201Y037110D03*
X011579Y037110D03*
X009768Y045378D03*
X008390Y045378D03*
X008390Y066244D03*
X009768Y066244D03*
X036992Y037288D03*
X037819Y037288D03*
X038646Y037288D03*
X039473Y037288D03*
X039473Y035910D03*
X038646Y035910D03*
X037819Y035910D03*
X036992Y035910D03*
X046776Y029315D03*
X046776Y028410D03*
X048154Y028410D03*
X048154Y029315D03*
X047957Y027071D03*
X047957Y025890D03*
X047957Y024669D03*
X047957Y023449D03*
X049335Y023449D03*
X049335Y024669D03*
X049335Y025890D03*
X049335Y027071D03*
D22*
X032681Y039374D03*
X032681Y041146D03*
X030122Y041146D03*
X029295Y041146D03*
X029295Y039374D03*
X030122Y039374D03*
X026736Y039374D03*
X025910Y039374D03*
X025910Y041146D03*
X026736Y041146D03*
X023351Y041146D03*
X023351Y039374D03*
D23*
X019512Y064516D03*
X019512Y066398D03*
X041362Y037658D03*
X041362Y035776D03*
D24*
X032416Y024433D03*
X031923Y024433D03*
X031431Y024433D03*
X030939Y024433D03*
X030939Y023646D03*
X031431Y023646D03*
X031923Y023646D03*
X032416Y023646D03*
D25*
X032819Y029473D03*
X033764Y029473D03*
X033764Y031205D03*
X032819Y031205D03*
D26*
X029536Y025382D02*
X028936Y025382D01*
X028936Y024382D02*
X029536Y024382D01*
X029536Y023382D02*
X028936Y023382D01*
X028936Y022382D02*
X029536Y022382D01*
X026146Y022637D02*
X026146Y023237D01*
X025146Y023237D02*
X025146Y022637D01*
X024146Y022637D02*
X024146Y023237D01*
X023146Y023237D02*
X023146Y022637D01*
X022146Y022637D02*
X022146Y023237D01*
X021146Y023237D02*
X021146Y022637D01*
X012651Y026858D02*
X012051Y026858D01*
X012051Y027858D02*
X012651Y027858D01*
X012651Y028858D02*
X012051Y028858D01*
X012051Y030402D02*
X012651Y030402D01*
X012651Y031402D02*
X012051Y031402D01*
X012051Y032402D02*
X012651Y032402D01*
X012651Y033945D02*
X012051Y033945D01*
X012051Y034945D02*
X012651Y034945D01*
X012651Y035945D02*
X012051Y035945D01*
X012051Y067803D02*
X012651Y067803D01*
X012651Y068803D02*
X012051Y068803D01*
X012051Y069803D02*
X012651Y069803D01*
X012651Y071740D02*
X012051Y071740D01*
X012051Y072740D02*
X012651Y072740D01*
X012651Y073740D02*
X012051Y073740D01*
X012051Y075677D02*
X012651Y075677D01*
X012651Y076677D02*
X012051Y076677D01*
X012051Y077677D02*
X012651Y077677D01*
X019299Y074296D02*
X019299Y073696D01*
X020299Y073696D02*
X020299Y074296D01*
X021299Y074296D02*
X021299Y073696D01*
X040511Y068673D02*
X041111Y068673D01*
X041111Y067673D02*
X040511Y067673D01*
X044133Y030524D02*
X044733Y030524D01*
X044733Y029524D02*
X044133Y029524D01*
X040009Y006469D02*
X039409Y006469D01*
X039409Y005469D02*
X040009Y005469D01*
D27*
X039894Y028236D03*
X039894Y029236D03*
X039894Y030236D03*
X038894Y030236D03*
X038894Y029236D03*
X038894Y028236D03*
X029854Y034732D03*
X028854Y034732D03*
X028854Y035732D03*
X028854Y036732D03*
X029854Y036732D03*
X029854Y035732D03*
D28*
X026795Y035496D03*
X026795Y034394D03*
X030772Y030969D03*
X030772Y029866D03*
X031717Y029866D03*
X031717Y030969D03*
X034866Y030969D03*
X034866Y029866D03*
X037819Y019945D03*
X037819Y018843D03*
X023449Y024354D03*
X023449Y025457D03*
X022268Y025457D03*
X022268Y024354D03*
X022268Y034197D03*
X022268Y035299D03*
X019118Y035299D03*
X019118Y034197D03*
X020890Y040496D03*
X020890Y041599D03*
X022071Y041599D03*
X022071Y040496D03*
X014197Y040496D03*
X014197Y041599D03*
X013016Y041599D03*
X013016Y040496D03*
X024551Y061874D03*
X024551Y062977D03*
X024591Y065063D03*
X024591Y066166D03*
X021677Y065811D03*
X021677Y064709D03*
X025221Y073961D03*
X025221Y075063D03*
X026795Y076126D03*
X026795Y077229D03*
X028370Y075063D03*
X028370Y073961D03*
X030142Y073961D03*
X030142Y075063D03*
X036638Y073882D03*
X036638Y072780D03*
X037819Y072780D03*
X037819Y073882D03*
X044315Y073882D03*
X044315Y072780D03*
X045496Y072780D03*
X045496Y073882D03*
X039709Y055260D03*
X039709Y054158D03*
D29*
X036717Y055103D03*
X035614Y055103D03*
X036795Y060221D03*
X037898Y060221D03*
X033685Y064551D03*
X032583Y064551D03*
X031441Y065378D03*
X030339Y065378D03*
X030339Y063252D03*
X031441Y063252D03*
X032583Y066480D03*
X033685Y066480D03*
X033449Y073921D03*
X032347Y073921D03*
X032150Y077071D03*
X033252Y077071D03*
X042583Y040457D03*
X043685Y040457D03*
X045142Y039473D03*
X046244Y039473D03*
X048095Y039276D03*
X049197Y039276D03*
X046835Y033764D03*
X046835Y032583D03*
X045732Y032583D03*
X045732Y033764D03*
X043685Y033764D03*
X042583Y033764D03*
X040851Y032701D03*
X039748Y032701D03*
X036008Y024512D03*
X034906Y024512D03*
X032229Y022780D03*
X031126Y022780D03*
X033725Y019788D03*
X034827Y019788D03*
X026166Y027071D03*
X025063Y027071D03*
X026047Y036520D03*
X027150Y036520D03*
X016047Y026008D03*
X014945Y026008D03*
X048291Y032583D03*
X049394Y032583D03*
D30*
X038455Y032620D03*
X038455Y032310D03*
X038455Y031990D03*
X038455Y031680D03*
X038455Y032940D03*
X038455Y033250D03*
X038455Y033570D03*
X038455Y033880D03*
X035215Y033880D03*
X035215Y033570D03*
X035215Y033250D03*
X035215Y032940D03*
X035215Y032620D03*
X035215Y032310D03*
X035215Y031990D03*
X035215Y031680D03*
D31*
X035735Y031160D03*
X036045Y031160D03*
X036365Y031160D03*
X036675Y031160D03*
X036995Y031160D03*
X037305Y031160D03*
X037625Y031160D03*
X037935Y031160D03*
X037935Y034400D03*
X037625Y034400D03*
X037305Y034400D03*
X036995Y034400D03*
X036675Y034400D03*
X036365Y034400D03*
X036045Y034400D03*
X035735Y034400D03*
D32*
X021973Y032032D03*
X021776Y032032D03*
X021579Y032032D03*
X021382Y032032D03*
X021185Y032032D03*
X020988Y032032D03*
X020791Y032032D03*
X020595Y032032D03*
X020398Y032032D03*
X020201Y032032D03*
X020004Y032032D03*
X019807Y032032D03*
X019610Y032032D03*
X019414Y032032D03*
X019217Y032032D03*
X019020Y032032D03*
X019020Y027622D03*
X019217Y027622D03*
X019414Y027622D03*
X019610Y027622D03*
X019807Y027622D03*
X020004Y027622D03*
X020201Y027622D03*
X020398Y027622D03*
X020595Y027622D03*
X020791Y027622D03*
X020988Y027622D03*
X021185Y027622D03*
X021382Y027622D03*
X021579Y027622D03*
X021776Y027622D03*
X021973Y027622D03*
X027091Y067977D03*
X027288Y067977D03*
X027484Y067977D03*
X027681Y067977D03*
X027878Y067977D03*
X028075Y067977D03*
X028272Y067977D03*
X028469Y067977D03*
X028666Y067977D03*
X028862Y067977D03*
X029059Y067977D03*
X029256Y067977D03*
X029453Y067977D03*
X029650Y067977D03*
X029847Y067977D03*
X030043Y067977D03*
X030043Y072386D03*
X029847Y072386D03*
X029650Y072386D03*
X029453Y072386D03*
X029256Y072386D03*
X029059Y072386D03*
X028862Y072386D03*
X028666Y072386D03*
X028469Y072386D03*
X028272Y072386D03*
X028075Y072386D03*
X027878Y072386D03*
X027681Y072386D03*
X027484Y072386D03*
X027288Y072386D03*
X027091Y072386D03*
D33*
X026362Y071658D03*
X026362Y071461D03*
X026362Y071264D03*
X026362Y071067D03*
X026362Y070870D03*
X026362Y070673D03*
X026362Y070477D03*
X026362Y070280D03*
X026362Y070083D03*
X026362Y069886D03*
X026362Y069689D03*
X026362Y069492D03*
X026362Y069295D03*
X026362Y069099D03*
X026362Y068902D03*
X026362Y068705D03*
X030772Y068705D03*
X030772Y068902D03*
X030772Y069099D03*
X030772Y069295D03*
X030772Y069492D03*
X030772Y069689D03*
X030772Y069886D03*
X030772Y070083D03*
X030772Y070280D03*
X030772Y070477D03*
X030772Y070673D03*
X030772Y070870D03*
X030772Y071067D03*
X030772Y071264D03*
X030772Y071461D03*
X030772Y071658D03*
X022701Y031303D03*
X022701Y031106D03*
X022701Y030910D03*
X022701Y030713D03*
X022701Y030516D03*
X022701Y030319D03*
X022701Y030122D03*
X022701Y029925D03*
X022701Y029729D03*
X022701Y029532D03*
X022701Y029335D03*
X022701Y029138D03*
X022701Y028941D03*
X022701Y028744D03*
X022701Y028547D03*
X022701Y028351D03*
X018291Y028351D03*
X018291Y028547D03*
X018291Y028744D03*
X018291Y028941D03*
X018291Y029138D03*
X018291Y029335D03*
X018291Y029532D03*
X018291Y029729D03*
X018291Y029925D03*
X018291Y030122D03*
X018291Y030319D03*
X018291Y030516D03*
X018291Y030713D03*
X018291Y030910D03*
X018291Y031106D03*
X018291Y031303D03*
D34*
X017740Y034188D03*
X017740Y035308D03*
X020890Y035308D03*
X020890Y034188D03*
X021087Y025466D03*
X021087Y024346D03*
X028370Y028677D03*
X028370Y029796D03*
X028370Y031236D03*
X028370Y032355D03*
X031047Y026568D03*
X031047Y025448D03*
X032268Y025448D03*
X032268Y026568D03*
X033685Y024678D03*
X033685Y023558D03*
X033685Y022395D03*
X033685Y021275D03*
X036835Y070015D03*
X036835Y071135D03*
X034866Y074936D03*
X034866Y076056D03*
X026795Y075072D03*
X026795Y073952D03*
X025221Y076117D03*
X025221Y077237D03*
D35*
X039119Y076656D03*
X039119Y076156D03*
X039119Y075656D03*
X039119Y075156D03*
X039119Y074656D03*
X039119Y074156D03*
X039119Y073656D03*
X039119Y073156D03*
X042819Y073156D03*
X042819Y073656D03*
X042819Y074156D03*
X042819Y074656D03*
X042819Y075156D03*
X042819Y075656D03*
X042819Y076156D03*
X042819Y076656D03*
X019393Y041419D03*
X019393Y040919D03*
X019393Y040419D03*
X019393Y039919D03*
X019393Y039419D03*
X019393Y038919D03*
X019393Y038419D03*
X019393Y037919D03*
X015693Y037919D03*
X015693Y038419D03*
X015693Y038919D03*
X015693Y039419D03*
X015693Y039919D03*
X015693Y040419D03*
X015693Y040919D03*
X015693Y041419D03*
D36*
X019512Y062701D03*
X026047Y062229D03*
X026008Y066008D03*
X038331Y054315D03*
X041323Y033921D03*
X036244Y019000D03*
D37*
X036244Y020036D03*
X041323Y034957D03*
X038331Y055351D03*
X026047Y063264D03*
X026008Y064972D03*
X019512Y063737D03*
D38*
X027313Y063786D03*
X027313Y063976D03*
X027313Y064176D03*
X027313Y064376D03*
X027313Y064576D03*
X027313Y064766D03*
X027313Y064966D03*
X027313Y063586D03*
X029033Y063586D03*
X029033Y063786D03*
X029033Y063976D03*
X029033Y064176D03*
X029033Y064376D03*
X029033Y064576D03*
X029033Y064766D03*
X029033Y064966D03*
D39*
X028183Y064256D03*
D40*
X015614Y064788D03*
X045299Y040654D03*
X049236Y040654D03*
D41*
X048201Y040654D03*
X046335Y040654D03*
X016650Y064788D03*
D42*
X045594Y037774D03*
X045794Y037774D03*
X045984Y037774D03*
X046184Y037774D03*
X046384Y037774D03*
X046584Y037774D03*
X046774Y037774D03*
X046974Y037774D03*
X046974Y036054D03*
X046774Y036054D03*
X046584Y036054D03*
X046384Y036054D03*
X046184Y036054D03*
X045984Y036054D03*
X045794Y036054D03*
X045594Y036054D03*
D43*
X046264Y036904D03*
D44*
X048843Y036185D03*
X048843Y037642D03*
X043134Y037366D03*
X043134Y038823D03*
X023095Y064729D03*
X022937Y063311D03*
X022937Y061854D03*
X023095Y066185D03*
D45*
X016008Y068014D03*
X016008Y068514D03*
X016008Y069014D03*
X016008Y069514D03*
X016008Y071833D03*
X016008Y072333D03*
X016008Y072833D03*
X016008Y073333D03*
X016008Y075730D03*
X016008Y076230D03*
X016008Y076730D03*
X016008Y077230D03*
X013961Y077230D03*
X013961Y076730D03*
X013961Y076230D03*
X013961Y075730D03*
X013961Y073333D03*
X013961Y072833D03*
X013961Y072333D03*
X013961Y071833D03*
X013961Y069514D03*
X013961Y069014D03*
X013961Y068514D03*
X013961Y068014D03*
X033449Y070022D03*
X033449Y070522D03*
X033449Y071022D03*
X033449Y071522D03*
X035496Y071522D03*
X035496Y071022D03*
X035496Y070522D03*
X035496Y070022D03*
X015811Y035695D03*
X015811Y035195D03*
X015811Y034695D03*
X015811Y034195D03*
X015811Y032152D03*
X015811Y031652D03*
X015811Y031152D03*
X015811Y030652D03*
X015811Y028412D03*
X015811Y027912D03*
X015811Y027412D03*
X015811Y026912D03*
X013764Y026912D03*
X013764Y027412D03*
X013764Y027912D03*
X013764Y028412D03*
X013764Y030652D03*
X013764Y031152D03*
X013764Y031652D03*
X013764Y032152D03*
X013764Y034195D03*
X013764Y034695D03*
X013764Y035195D03*
X013764Y035695D03*
X024984Y030971D03*
X024984Y030471D03*
X024984Y029971D03*
X024984Y029471D03*
X027032Y029471D03*
X027032Y029971D03*
X027032Y030471D03*
X027032Y030971D03*
D46*
X022268Y036185D03*
X022268Y036854D03*
X019118Y036854D03*
X019118Y036185D03*
X028370Y076146D03*
X028370Y076815D03*
X030142Y076815D03*
X030142Y076146D03*
D47*
X031835Y075969D03*
X031835Y075024D03*
X033567Y075024D03*
X033567Y075969D03*
X025496Y035417D03*
X025496Y034473D03*
X023764Y034473D03*
X023764Y035417D03*
D48*
X020853Y070536D03*
X020353Y070536D03*
X019853Y070536D03*
X019353Y070536D03*
X019353Y072583D03*
X019853Y072583D03*
X020353Y072583D03*
X020853Y072583D03*
D49*
X039276Y066284D03*
X039276Y063921D03*
X040378Y041520D03*
X040378Y039158D03*
X037071Y039158D03*
X037071Y041520D03*
D50*
X017858Y063414D03*
X017858Y065925D03*
D51*
X046288Y031008D03*
X048799Y031008D03*
D52*
X036207Y023120D03*
X035707Y023120D03*
X035207Y023120D03*
X034707Y023120D03*
X034707Y021180D03*
X035207Y021180D03*
X035707Y021180D03*
X036207Y021180D03*
X036400Y056692D03*
X036900Y056692D03*
X037400Y056692D03*
X037900Y056692D03*
X037900Y058632D03*
X037400Y058632D03*
X036900Y058632D03*
X036400Y058632D03*
D53*
X037150Y057662D03*
X035457Y022150D03*
D54*
X037778Y021630D03*
X040616Y021630D03*
X039667Y056748D03*
X042506Y056748D03*
D55*
X041087Y060937D03*
X039197Y025819D03*
D56*
X039040Y019236D03*
X038213Y016441D03*
X038213Y013095D03*
X038213Y009748D03*
X035851Y009748D03*
X035851Y013095D03*
X035851Y016441D03*
X041402Y019236D03*
X041717Y046953D03*
X044079Y046953D03*
X044079Y050496D03*
X041717Y050496D03*
X041677Y054040D03*
X044040Y054040D03*
D57*
X045299Y054630D03*
X045299Y053449D03*
X045299Y052268D03*
X045299Y051087D03*
X045299Y049906D03*
X045299Y048725D03*
X045299Y047543D03*
X045299Y046362D03*
X046480Y046362D03*
X046480Y047543D03*
X046480Y048725D03*
X046480Y049906D03*
X046480Y051087D03*
X046480Y052268D03*
X046480Y053449D03*
X046480Y054630D03*
X046480Y055811D03*
X045299Y055811D03*
X045299Y056992D03*
X045299Y058173D03*
X046480Y058173D03*
X046480Y056992D03*
X046480Y059354D03*
X045299Y059354D03*
D58*
X043347Y030851D03*
X042347Y030851D03*
X042347Y028488D03*
X043347Y028488D03*
M02*
