G75*
G70*
%OFA0B0*%
%FSLAX24Y24*%
%IPPOS*%
%LPD*%
%AMOC8*
5,1,8,0,0,1.08239X$1,22.5*
%
%ADD10R,0.1063X0.1063*%
%ADD11C,0.1000*%
%ADD12OC8,0.1000*%
%ADD13R,0.0650X0.0650*%
%ADD14C,0.0600*%
%ADD15OC8,0.0600*%
%ADD16R,0.0608X0.0608*%
%ADD17R,0.0630X0.0710*%
%ADD18R,0.1000X0.1169*%
%ADD19R,0.0657X0.0457*%
%ADD20R,0.0317X0.0317*%
%ADD21C,0.0100*%
%ADD22R,0.0356X0.0356*%
%ADD23C,0.0320*%
%ADD24C,0.0660*%
%ADD25C,0.0560*%
%ADD26C,0.0400*%
%ADD27C,0.0240*%
%ADD28C,0.0160*%
%ADD29C,0.0120*%
%ADD30C,0.0060*%
%ADD31C,0.0240*%
%ADD32C,0.0500*%
D10*
X013410Y008291D03*
X013410Y009945D03*
X013410Y011599D03*
X013410Y013252D03*
X013410Y014906D03*
X013410Y016559D03*
X013410Y018213D03*
X013410Y019866D03*
X015575Y019866D03*
X015575Y018213D03*
X015575Y016559D03*
X015575Y014906D03*
X015575Y013252D03*
X015575Y011599D03*
X015575Y009945D03*
X015575Y008291D03*
X042740Y008961D03*
X042740Y010614D03*
X042740Y012268D03*
X042740Y013921D03*
X042740Y015575D03*
X042740Y017229D03*
X042740Y018882D03*
X044906Y018882D03*
X044906Y017229D03*
X044906Y015575D03*
X044906Y013921D03*
X044906Y012268D03*
X044906Y010614D03*
X044906Y008961D03*
X044906Y007307D03*
X042740Y007307D03*
X015772Y050024D03*
X015772Y051677D03*
X015772Y053331D03*
X015772Y054984D03*
X015772Y056638D03*
X015772Y058291D03*
X015772Y059945D03*
X015772Y061599D03*
X013606Y061599D03*
X013606Y059945D03*
X013606Y058291D03*
X013606Y056638D03*
X013606Y054984D03*
X013606Y053331D03*
X013606Y051677D03*
X013606Y050024D03*
X042937Y065024D03*
X042937Y066677D03*
X045103Y066677D03*
X045103Y065024D03*
D11*
X019512Y058197D03*
X019512Y053465D03*
X019315Y015835D03*
X019315Y012126D03*
D12*
X019315Y010126D03*
X019315Y017835D03*
X019512Y051465D03*
X019512Y060197D03*
D13*
X023351Y041146D03*
X023351Y039374D03*
X025910Y039374D03*
X026736Y039374D03*
X026736Y041146D03*
X025910Y041146D03*
X029295Y041146D03*
X030122Y041146D03*
X030122Y039374D03*
X029295Y039374D03*
X032681Y039374D03*
X032681Y041146D03*
D14*
X029536Y025382D02*
X028936Y025382D01*
X028936Y024382D02*
X029536Y024382D01*
X029536Y023382D02*
X028936Y023382D01*
X028936Y022382D02*
X029536Y022382D01*
X026146Y022637D02*
X026146Y023237D01*
X025146Y023237D02*
X025146Y022637D01*
X024146Y022637D02*
X024146Y023237D01*
X023146Y023237D02*
X023146Y022637D01*
X022146Y022637D02*
X022146Y023237D01*
X021146Y023237D02*
X021146Y022637D01*
X012651Y026858D02*
X012051Y026858D01*
X012051Y027858D02*
X012651Y027858D01*
X012651Y028858D02*
X012051Y028858D01*
X012051Y030402D02*
X012651Y030402D01*
X012651Y031402D02*
X012051Y031402D01*
X012051Y032402D02*
X012651Y032402D01*
X012651Y033945D02*
X012051Y033945D01*
X012051Y034945D02*
X012651Y034945D01*
X012651Y035945D02*
X012051Y035945D01*
X012051Y067803D02*
X012651Y067803D01*
X012651Y068803D02*
X012051Y068803D01*
X012051Y069803D02*
X012651Y069803D01*
X012651Y071740D02*
X012051Y071740D01*
X012051Y072740D02*
X012651Y072740D01*
X012651Y073740D02*
X012051Y073740D01*
X012051Y075677D02*
X012651Y075677D01*
X012651Y076677D02*
X012051Y076677D01*
X012051Y077677D02*
X012651Y077677D01*
X019299Y074296D02*
X019299Y073696D01*
X020299Y073696D02*
X020299Y074296D01*
X021299Y074296D02*
X021299Y073696D01*
X040511Y068673D02*
X041111Y068673D01*
X041111Y067673D02*
X040511Y067673D01*
X044133Y030524D02*
X044733Y030524D01*
X044733Y029524D02*
X044133Y029524D01*
X040009Y006469D02*
X039409Y006469D01*
X039409Y005469D02*
X040009Y005469D01*
D15*
X039894Y028236D03*
X039894Y029236D03*
X039894Y030236D03*
X038894Y030236D03*
X038894Y029236D03*
X038894Y028236D03*
X029854Y034732D03*
X028854Y034732D03*
X028854Y035732D03*
X028854Y036732D03*
X029854Y036732D03*
X029854Y035732D03*
D16*
X045299Y046362D03*
X045299Y047543D03*
X045299Y048725D03*
X045299Y049906D03*
X045299Y051087D03*
X045299Y052268D03*
X045299Y053449D03*
X045299Y054630D03*
X045299Y055811D03*
X045299Y056992D03*
X045299Y058173D03*
X046480Y058173D03*
X046480Y056992D03*
X046480Y055811D03*
X046480Y054630D03*
X046480Y053449D03*
X046480Y052268D03*
X046480Y051087D03*
X046480Y049906D03*
X046480Y048725D03*
X046480Y047543D03*
X046480Y046362D03*
X046480Y059354D03*
X045299Y059354D03*
D17*
X039009Y025732D03*
X039009Y024827D03*
X037889Y024827D03*
X037889Y025732D03*
X037670Y011599D03*
X037670Y010693D03*
X037670Y009788D03*
X037670Y008882D03*
X036551Y008882D03*
X036551Y009788D03*
X036551Y010693D03*
X036551Y011599D03*
D18*
X041323Y033921D03*
D19*
X041323Y034957D03*
D20*
X031756Y018764D03*
X032504Y018291D03*
X032150Y017819D03*
X031756Y017307D03*
X032819Y017307D03*
X032819Y013882D03*
X032504Y013410D03*
X032150Y012937D03*
X031717Y012386D03*
X032819Y012386D03*
X031717Y013882D03*
X031717Y009236D03*
X032504Y008764D03*
X032819Y009236D03*
X032150Y008291D03*
X031717Y007740D03*
X025221Y062150D03*
X026756Y063252D03*
X026677Y065024D03*
X025221Y065457D03*
X032701Y076126D03*
D21*
X030772Y072504D02*
X028567Y072504D01*
X027898Y073173D01*
X028764Y071874D02*
X027032Y071874D01*
X026047Y072858D01*
X026047Y073843D01*
X027110Y071047D02*
X027110Y070732D01*
X027110Y071047D01*
X027110Y070732D02*
X027110Y069000D01*
X029512Y069118D02*
X029512Y071244D01*
X029669Y071402D01*
X029394Y073291D02*
X029473Y073370D01*
X029473Y073921D02*
X029473Y077583D01*
X029591Y077701D01*
X035496Y077701D01*
X035772Y077425D01*
X036284Y078055D02*
X036677Y077662D01*
X036284Y078055D02*
X029236Y078055D01*
X029040Y077858D01*
X029040Y074433D01*
X029512Y069118D02*
X029709Y068921D01*
X031166Y068921D01*
X031323Y068764D01*
X030457Y067977D02*
X018410Y067977D01*
X017780Y068606D01*
X017425Y067740D02*
X017662Y067504D01*
X030496Y067504D01*
X026677Y065024D02*
X026244Y065457D01*
X025221Y065457D01*
X026756Y063252D02*
X026756Y062937D01*
X025969Y062150D01*
X025851Y062150D01*
X025221Y062150D01*
X026914Y061559D02*
X026914Y058725D01*
X028095Y057543D01*
X028173Y057465D01*
X028213Y057425D01*
X028213Y055772D01*
X027347Y055417D02*
X031599Y055417D01*
X031914Y055732D01*
X027347Y055417D02*
X027229Y055536D01*
X027229Y055969D01*
X026914Y061559D02*
X027071Y061717D01*
X023646Y038685D02*
X023646Y038291D01*
X023646Y037701D01*
X020496Y034551D01*
X020496Y033370D01*
X019906Y034158D02*
X019906Y034551D01*
X023055Y037701D01*
X023055Y037898D01*
X022858Y038095D01*
X019512Y032780D02*
X019709Y032583D01*
X020299Y031992D01*
X022543Y031992D01*
X022662Y032110D01*
X022662Y032189D01*
X023252Y031205D02*
X023646Y031599D01*
X023252Y031205D02*
X023252Y030024D01*
X022071Y029827D02*
X019906Y029827D01*
X019118Y029040D01*
X019906Y028252D01*
X020693Y028252D01*
X020890Y027858D02*
X019709Y027858D01*
X019512Y027662D01*
X019512Y027071D01*
X019118Y026677D01*
X020693Y026677D02*
X020890Y026480D01*
X020693Y026677D01*
X020890Y026480D02*
X021087Y026284D01*
X022268Y026284D01*
X020890Y027858D02*
X021087Y028055D01*
X021087Y029433D01*
X022071Y029236D02*
X022071Y029197D01*
X019394Y031402D02*
X019276Y031402D01*
X026559Y017898D02*
X026323Y017662D01*
X026559Y017898D02*
X026638Y017898D01*
X030693Y017898D01*
X030890Y018095D01*
X031756Y018095D01*
X031894Y018232D01*
X031953Y018291D01*
X032504Y018291D01*
X032504Y013410D01*
X032504Y008764D01*
X032819Y009236D02*
X032819Y012386D01*
X033291Y011677D02*
X034079Y012465D01*
X034079Y013331D01*
X034709Y012937D02*
X034709Y012543D01*
X033567Y011402D01*
X033567Y008173D01*
X033606Y008134D01*
X034079Y007662D01*
X034984Y007662D01*
X035024Y007701D01*
X035299Y007977D01*
X035299Y009669D01*
X035417Y009788D01*
X036551Y009788D01*
X036551Y010693D02*
X035221Y010693D01*
X035024Y010496D01*
X035024Y008095D01*
X034866Y007937D01*
X034394Y007937D01*
X034236Y008095D01*
X034158Y008173D01*
X034158Y008488D01*
X033961Y008685D01*
X033291Y008016D02*
X033291Y011677D01*
X032150Y012937D02*
X032150Y015536D01*
X025732Y015536D01*
X029394Y017110D02*
X029473Y017110D01*
X029512Y017110D01*
X031559Y017110D01*
X031756Y017307D01*
X032150Y017819D02*
X032150Y015536D01*
X031717Y013882D02*
X029394Y013882D01*
X029394Y012386D02*
X031717Y012386D01*
X032150Y012937D02*
X032150Y008291D01*
X031717Y007740D02*
X029473Y007740D01*
X029394Y007740D01*
X029394Y009236D02*
X031717Y009236D01*
X033291Y008016D02*
X033331Y007977D01*
X033921Y007386D01*
X035103Y007386D01*
X035536Y007819D01*
X035536Y008764D01*
X035654Y008882D01*
X036551Y008882D01*
X036551Y011599D02*
X035063Y011599D01*
X035004Y011658D01*
X032819Y013882D02*
X032819Y017307D01*
X031894Y018232D02*
X031874Y018213D01*
X031756Y018764D02*
X029512Y018764D01*
X029394Y018646D01*
X034630Y026480D02*
X034630Y026795D01*
X034945Y027110D01*
X035103Y027268D01*
X037189Y027268D01*
X037307Y027150D01*
X037347Y027110D01*
X037386Y027071D01*
X038055Y026402D01*
X038173Y026402D01*
X038252Y026402D01*
X038410Y026244D01*
X038410Y026166D01*
X038410Y025142D01*
X038095Y024827D01*
X037889Y024827D01*
X037889Y025732D02*
X037889Y026214D01*
X037327Y026776D01*
X037229Y026874D01*
X037110Y026992D01*
X035378Y026992D01*
X035260Y026874D01*
X035221Y026835D01*
X035103Y026717D01*
X035103Y026480D01*
X037268Y026835D02*
X037327Y026776D01*
X043134Y035614D02*
X044788Y035614D01*
X045103Y035614D01*
X041205Y013803D02*
X041166Y013764D01*
X041166Y013685D01*
X041166Y012622D01*
X029854Y036732D02*
X029854Y036744D01*
X029984Y036874D01*
D22*
X031126Y035929D03*
X031638Y036323D03*
X031520Y038725D03*
X033410Y039512D03*
X034276Y033173D03*
X036205Y033567D03*
X036992Y033606D03*
X037662Y033606D03*
X039040Y034236D03*
X039040Y035221D03*
X039906Y034551D03*
X039945Y033764D03*
X040575Y035063D03*
X043134Y035614D03*
X044354Y034788D03*
X045103Y035614D03*
X044709Y037898D03*
X047465Y034551D03*
X047662Y035929D03*
X050221Y037583D03*
X046914Y029906D03*
X049315Y027701D03*
X049984Y026441D03*
X049984Y025221D03*
X049984Y024000D03*
X044669Y027347D03*
X040851Y028252D03*
X039866Y024827D03*
X036992Y026480D03*
X036520Y026480D03*
X036047Y026480D03*
X035575Y026480D03*
X035103Y026480D03*
X034630Y026480D03*
X034040Y027425D03*
X032977Y026992D03*
X031914Y028449D03*
X029788Y026677D03*
X029197Y027150D03*
X028646Y027150D03*
X028173Y027622D03*
X027386Y027465D03*
X026992Y026480D03*
X028291Y025851D03*
X029354Y028843D03*
X029354Y031008D03*
X032110Y031795D03*
X033882Y030417D03*
X034630Y028921D03*
X037819Y031992D03*
X038095Y039158D03*
X042425Y041914D03*
X042858Y046953D03*
X041638Y053331D03*
X038528Y056047D03*
X037150Y055851D03*
X036008Y057543D03*
X035240Y058823D03*
X031914Y055732D03*
X028213Y055772D03*
X027229Y055969D03*
X027071Y061717D03*
X026992Y066047D03*
X027110Y069000D03*
X027110Y071047D03*
X028764Y071874D03*
X029669Y071402D03*
X030772Y072504D03*
X029473Y073921D03*
X029040Y074433D03*
X027662Y074433D03*
X027898Y073173D03*
X026047Y073843D03*
X024512Y075063D03*
X027662Y075811D03*
X027543Y077504D03*
X030890Y076559D03*
X030890Y074984D03*
X031323Y070063D03*
X031323Y068764D03*
X031126Y068213D03*
X030457Y067977D03*
X030496Y067504D03*
X028843Y069000D03*
X032583Y063646D03*
X034473Y068291D03*
X034473Y070851D03*
X034866Y074276D03*
X035772Y077425D03*
X036677Y077662D03*
X037819Y072032D03*
X040024Y059984D03*
X024827Y039669D03*
X024236Y038488D03*
X023646Y038685D03*
X022858Y038095D03*
X019709Y036323D03*
X019906Y034158D03*
X020496Y033370D03*
X019512Y032780D03*
X019276Y031402D03*
X019040Y029945D03*
X019118Y029040D03*
X020693Y028252D03*
X021087Y029433D03*
X021480Y028606D03*
X022071Y029236D03*
X022071Y029827D03*
X023252Y030024D03*
X023646Y031599D03*
X022662Y032189D03*
X025221Y033567D03*
X026638Y033488D03*
X022268Y026284D03*
X020693Y026677D03*
X019118Y026677D03*
X015811Y029118D03*
X015811Y032858D03*
X015811Y036402D03*
X017937Y036323D03*
X012347Y037110D03*
X009866Y040063D03*
X014788Y025260D03*
X019118Y020063D03*
X023370Y017465D03*
X023370Y016992D03*
X023370Y016520D03*
X023370Y016047D03*
X023370Y012740D03*
X023370Y012268D03*
X023370Y011795D03*
X023370Y011362D03*
X023370Y008055D03*
X023370Y007583D03*
X023370Y007110D03*
X023370Y006638D03*
X029394Y007740D03*
X029394Y009236D03*
X029394Y012386D03*
X029394Y013882D03*
X029394Y017110D03*
X029394Y018646D03*
X029551Y020457D03*
X029079Y020969D03*
X030890Y020221D03*
X030890Y019748D03*
X032858Y019748D03*
X032858Y020221D03*
X034000Y018252D03*
X034000Y017662D03*
X034079Y013331D03*
X034709Y012937D03*
X033961Y008685D03*
X034630Y008291D03*
X039473Y009748D03*
X039473Y013095D03*
X039118Y016402D03*
X038016Y018173D03*
X026323Y017662D03*
X025732Y015536D03*
X021677Y061126D03*
X020654Y063173D03*
X020732Y066205D03*
X023095Y065536D03*
X024669Y068370D03*
X020536Y071559D03*
X019354Y071323D03*
X017780Y068606D03*
X017425Y067740D03*
X015221Y070063D03*
X014748Y071835D03*
X015221Y073882D03*
X014748Y075730D03*
X015221Y077110D03*
X014748Y068014D03*
X015496Y063803D03*
X014748Y063173D03*
X009197Y062543D03*
D23*
X007764Y043173D02*
X007764Y002331D01*
X015435Y002331D01*
X014741Y003025D01*
X013048Y004718D01*
X012907Y004859D01*
X012868Y004898D01*
X012791Y005082D01*
X012791Y007267D01*
X012781Y007277D01*
X012778Y007284D01*
X012760Y007301D01*
X012195Y007301D01*
X012260Y007274D01*
X012511Y007024D01*
X012646Y006697D01*
X012646Y006343D01*
X012511Y006016D01*
X012260Y005765D01*
X011933Y005630D01*
X011579Y005630D01*
X011252Y005765D01*
X011002Y006016D01*
X010866Y006343D01*
X010866Y006697D01*
X011002Y007024D01*
X011252Y007274D01*
X011317Y007301D01*
X009397Y007301D01*
X009257Y007359D01*
X009150Y007466D01*
X008658Y007958D01*
X008600Y008098D01*
X008600Y019765D01*
X008658Y019904D01*
X008765Y020011D01*
X009336Y020582D01*
X009375Y020622D01*
X009515Y020679D01*
X018371Y020679D01*
X018371Y020763D01*
X018455Y020965D01*
X018610Y021120D01*
X018925Y021435D01*
X019127Y021519D01*
X029327Y021519D01*
X029408Y021527D01*
X029428Y021521D01*
X029450Y021521D01*
X029457Y021519D01*
X029739Y021519D01*
X029942Y021435D01*
X030096Y021280D01*
X030180Y021078D01*
X030180Y021055D01*
X030247Y021122D01*
X030247Y021122D01*
X033188Y024062D01*
X033188Y026594D01*
X033116Y026594D01*
X032326Y025804D01*
X032186Y025746D01*
X029908Y025746D01*
X029977Y025677D01*
X030056Y025485D01*
X030056Y025279D01*
X029977Y025087D01*
X029831Y024941D01*
X029688Y024882D01*
X029831Y024823D01*
X029977Y024677D01*
X030056Y024485D01*
X030056Y024279D01*
X029977Y024087D01*
X029831Y023941D01*
X029688Y023882D01*
X029831Y023823D01*
X029977Y023677D01*
X030056Y023485D01*
X030056Y023279D01*
X029977Y023087D01*
X029831Y022941D01*
X029742Y022904D01*
X029751Y022901D01*
X029830Y022861D01*
X029901Y022809D01*
X029964Y022747D01*
X030015Y022676D01*
X030055Y022597D01*
X030083Y022513D01*
X030096Y022426D01*
X030096Y022382D01*
X029236Y022382D01*
X028376Y022382D01*
X028376Y022338D01*
X028390Y022251D01*
X028417Y022167D01*
X028457Y022089D01*
X028509Y022017D01*
X028572Y021955D01*
X028643Y021903D01*
X028721Y021863D01*
X028805Y021836D01*
X028892Y021822D01*
X029236Y021822D01*
X029236Y022382D01*
X029236Y022382D01*
X028376Y022382D01*
X028376Y022426D01*
X028390Y022513D01*
X028417Y022597D01*
X028457Y022676D01*
X028509Y022747D01*
X028572Y022809D01*
X028643Y022861D01*
X028721Y022901D01*
X028731Y022904D01*
X028642Y022941D01*
X028593Y022990D01*
X027617Y022990D01*
X027463Y023054D01*
X027345Y023172D01*
X027246Y023270D01*
X026503Y024013D01*
X023623Y024013D01*
X023566Y023956D01*
X023566Y023553D01*
X023587Y023532D01*
X023646Y023389D01*
X023705Y023532D01*
X023851Y023678D01*
X024042Y023757D01*
X024249Y023757D01*
X024440Y023678D01*
X024587Y023532D01*
X024646Y023389D01*
X024705Y023532D01*
X024851Y023678D01*
X025042Y023757D01*
X025249Y023757D01*
X025440Y023678D01*
X025587Y023532D01*
X025646Y023389D01*
X025705Y023532D01*
X025851Y023678D01*
X026042Y023757D01*
X026249Y023757D01*
X026440Y023678D01*
X026587Y023532D01*
X026666Y023341D01*
X026666Y022534D01*
X026587Y022343D01*
X026440Y022196D01*
X026249Y022117D01*
X026042Y022117D01*
X025851Y022196D01*
X025705Y022343D01*
X025646Y022485D01*
X025587Y022343D01*
X025440Y022196D01*
X025249Y022117D01*
X025042Y022117D01*
X024851Y022196D01*
X024705Y022343D01*
X024646Y022485D01*
X024587Y022343D01*
X024440Y022196D01*
X024249Y022117D01*
X024042Y022117D01*
X023851Y022196D01*
X023705Y022343D01*
X023646Y022485D01*
X023587Y022343D01*
X023440Y022196D01*
X023249Y022117D01*
X023042Y022117D01*
X022851Y022196D01*
X022705Y022343D01*
X022668Y022432D01*
X022665Y022422D01*
X022625Y022344D01*
X022573Y022272D01*
X022511Y022210D01*
X022439Y022158D01*
X022361Y022118D01*
X022277Y022091D01*
X022190Y022077D01*
X022146Y022077D01*
X022146Y022937D01*
X022146Y022937D01*
X022146Y022077D01*
X022102Y022077D01*
X022015Y022091D01*
X021931Y022118D01*
X021852Y022158D01*
X021781Y022210D01*
X021719Y022272D01*
X021667Y022344D01*
X021646Y022385D01*
X021625Y022344D01*
X021573Y022272D01*
X021511Y022210D01*
X021439Y022158D01*
X021361Y022118D01*
X021277Y022091D01*
X021190Y022077D01*
X021146Y022077D01*
X021146Y022937D01*
X021146Y022937D01*
X021586Y022937D01*
X022146Y022937D01*
X022146Y022937D01*
X022146Y023797D01*
X022190Y023797D01*
X022277Y023783D01*
X022361Y023756D01*
X022439Y023716D01*
X022511Y023664D01*
X022573Y023602D01*
X022625Y023531D01*
X022665Y023452D01*
X022668Y023442D01*
X022705Y023532D01*
X022726Y023553D01*
X022726Y024214D01*
X022790Y024368D01*
X023093Y024671D01*
X023093Y024671D01*
X023211Y024789D01*
X023365Y024853D01*
X026761Y024853D01*
X026915Y024789D01*
X027362Y024343D01*
X027362Y026182D01*
X027262Y026082D01*
X026723Y026082D01*
X026594Y026211D01*
X026594Y026750D01*
X026692Y026848D01*
X026692Y033036D01*
X026738Y033146D01*
X026822Y033231D01*
X027413Y033821D01*
X027523Y033867D01*
X028040Y033867D01*
X027722Y034185D01*
X027677Y034295D01*
X027677Y037183D01*
X027262Y037598D01*
X026736Y037598D01*
X026625Y037643D01*
X026541Y037728D01*
X025655Y038614D01*
X025610Y038724D01*
X025610Y038829D01*
X025494Y038829D01*
X025365Y038958D01*
X025365Y039790D01*
X025494Y039919D01*
X027152Y039919D01*
X027281Y039790D01*
X027281Y038958D01*
X027152Y038829D01*
X026288Y038829D01*
X026920Y038198D01*
X027446Y038198D01*
X027556Y038152D01*
X028146Y037562D01*
X028231Y037477D01*
X028277Y037367D01*
X028277Y034479D01*
X028495Y034261D01*
X028591Y034261D01*
X028334Y034517D01*
X028334Y034948D01*
X028619Y035232D01*
X028334Y035517D01*
X028334Y035948D01*
X028591Y036204D01*
X028294Y036500D01*
X028294Y036732D01*
X028854Y036732D01*
X028854Y036732D01*
X028294Y036732D01*
X028294Y036964D01*
X028623Y037292D01*
X028854Y037292D01*
X028854Y036732D01*
X028854Y036732D01*
X028854Y037292D01*
X029054Y037292D01*
X029054Y037564D01*
X029100Y037674D01*
X029185Y037758D01*
X030169Y038743D01*
X030279Y038788D01*
X031122Y038788D01*
X031122Y038994D01*
X031180Y039052D01*
X031180Y039489D01*
X030788Y039881D01*
X030576Y039881D01*
X030667Y039790D01*
X030667Y038958D01*
X030538Y038829D01*
X028880Y038829D01*
X028751Y038958D01*
X028751Y039790D01*
X028880Y039919D01*
X029509Y039919D01*
X029477Y039932D01*
X029381Y040028D01*
X029123Y040287D01*
X029123Y040287D01*
X029027Y040382D01*
X028975Y040507D01*
X028975Y040601D01*
X028880Y040601D01*
X028751Y040730D01*
X028751Y041562D01*
X028880Y041691D01*
X029659Y041691D01*
X029674Y041701D01*
X029722Y041721D01*
X029772Y041731D01*
X030122Y041731D01*
X030122Y041146D01*
X030122Y041146D01*
X030122Y041731D01*
X030473Y041731D01*
X030523Y041721D01*
X030570Y041701D01*
X030613Y041673D01*
X030649Y041636D01*
X030677Y041594D01*
X030697Y041546D01*
X030707Y041496D01*
X030707Y041146D01*
X030122Y041146D01*
X030122Y041146D01*
X030122Y040561D01*
X029810Y040561D01*
X029810Y040561D01*
X030997Y040561D01*
X031122Y040509D01*
X031712Y039918D01*
X031808Y039823D01*
X031860Y039698D01*
X031860Y039052D01*
X031918Y038994D01*
X031918Y038455D01*
X031789Y038326D01*
X031546Y038326D01*
X031454Y038234D01*
X031343Y038188D01*
X030463Y038188D01*
X029654Y037380D01*
X029654Y037252D01*
X030070Y037252D01*
X030374Y036948D01*
X030374Y036637D01*
X030770Y036241D01*
X030857Y036327D01*
X031240Y036327D01*
X031240Y036592D01*
X031369Y036721D01*
X031907Y036721D01*
X032036Y036592D01*
X032036Y036054D01*
X031907Y035925D01*
X031820Y035925D01*
X031820Y035512D01*
X032295Y035987D01*
X032807Y036499D01*
X032917Y036544D01*
X034099Y036544D01*
X034209Y036499D01*
X034294Y036414D01*
X034294Y036414D01*
X035306Y035403D01*
X036698Y035403D01*
X036808Y035357D01*
X036892Y035272D01*
X037162Y035003D01*
X037162Y035003D01*
X037247Y034918D01*
X037292Y034808D01*
X037292Y033974D01*
X037327Y033939D01*
X037392Y034005D01*
X037931Y034005D01*
X038060Y033876D01*
X038060Y033337D01*
X037939Y033216D01*
X037916Y033161D01*
X037758Y033003D01*
X037674Y032919D01*
X037564Y032873D01*
X036696Y032873D01*
X036586Y032919D01*
X036429Y033077D01*
X036344Y033161D01*
X036341Y033169D01*
X036321Y033169D01*
X036009Y032857D01*
X034910Y031758D01*
X034910Y029309D01*
X035028Y029191D01*
X035028Y028710D01*
X037549Y028710D01*
X037519Y028783D01*
X037519Y031625D01*
X037421Y031723D01*
X037421Y032262D01*
X037550Y032390D01*
X038088Y032390D01*
X038217Y032262D01*
X038217Y031723D01*
X038119Y031625D01*
X038119Y028967D01*
X038270Y028816D01*
X038504Y028582D01*
X038658Y028736D01*
X038374Y029021D01*
X038374Y029452D01*
X038630Y029708D01*
X038334Y030004D01*
X038334Y030236D01*
X038894Y030236D01*
X038894Y030236D01*
X038894Y032083D01*
X038894Y032713D01*
X039945Y033764D01*
X039512Y033764D01*
X039040Y034236D01*
X039508Y034282D02*
X039508Y034821D01*
X039636Y034949D01*
X040175Y034949D01*
X040177Y034948D01*
X040177Y035332D01*
X040235Y035390D01*
X040235Y036076D01*
X040287Y036201D01*
X040382Y036296D01*
X040507Y036348D01*
X041981Y036348D01*
X042106Y036296D01*
X042202Y036201D01*
X042254Y036076D01*
X042254Y034799D01*
X042202Y034674D01*
X042106Y034578D01*
X042043Y034552D01*
X042043Y033246D01*
X041939Y033142D01*
X041939Y027547D01*
X041881Y027407D01*
X041774Y027300D01*
X041105Y026631D01*
X040966Y026573D01*
X038463Y026573D01*
X038481Y026555D01*
X038639Y026397D01*
X038676Y026307D01*
X039415Y026307D01*
X039544Y026178D01*
X039544Y026032D01*
X040529Y026032D01*
X043037Y028540D01*
X043122Y028625D01*
X043232Y028670D01*
X045254Y028670D01*
X046515Y029932D01*
X046515Y030175D01*
X046644Y030304D01*
X047165Y030304D01*
X047165Y034184D01*
X047067Y034282D01*
X047067Y034469D01*
X046586Y034949D01*
X046534Y035074D01*
X046534Y037166D01*
X046143Y037558D01*
X045036Y037558D01*
X044978Y037500D01*
X044440Y037500D01*
X044311Y037629D01*
X044311Y038167D01*
X044440Y038296D01*
X044978Y038296D01*
X045036Y038238D01*
X046351Y038238D01*
X046476Y038186D01*
X047067Y037595D01*
X047162Y037500D01*
X047214Y037375D01*
X047214Y035283D01*
X047547Y034949D01*
X047734Y034949D01*
X047863Y034821D01*
X047863Y034282D01*
X047765Y034184D01*
X047765Y030043D01*
X047719Y029933D01*
X047635Y029848D01*
X047438Y029651D01*
X047328Y029606D01*
X047281Y029606D01*
X047183Y029508D01*
X046940Y029508D01*
X045548Y028116D01*
X045464Y028081D01*
X049028Y028081D01*
X049046Y028099D01*
X049584Y028099D01*
X049713Y027970D01*
X049713Y027432D01*
X049584Y027303D01*
X049046Y027303D01*
X049028Y027321D01*
X045181Y027321D01*
X045068Y027207D01*
X045068Y027077D01*
X044939Y026949D01*
X044400Y026949D01*
X044271Y027077D01*
X044271Y027616D01*
X044400Y027745D01*
X044530Y027745D01*
X044809Y028023D01*
X044922Y028070D01*
X043416Y028070D01*
X040954Y025608D01*
X040954Y024764D01*
X042801Y026611D01*
X042801Y026611D01*
X042885Y026695D01*
X042996Y026741D01*
X049617Y026741D01*
X049715Y026839D01*
X050254Y026839D01*
X050383Y026710D01*
X050383Y026172D01*
X050254Y026043D01*
X049715Y026043D01*
X049617Y026141D01*
X049606Y026141D01*
X050129Y025619D01*
X050254Y025619D01*
X050383Y025490D01*
X050383Y024951D01*
X050254Y024823D01*
X049941Y024823D01*
X050154Y024609D01*
X050239Y024524D01*
X050284Y024414D01*
X050284Y024368D01*
X050383Y024269D01*
X050383Y023731D01*
X050254Y023602D01*
X049715Y023602D01*
X049586Y023731D01*
X049586Y024269D01*
X049616Y024299D01*
X048718Y025196D01*
X043967Y025196D01*
X043663Y024893D01*
X043752Y024929D01*
X044091Y024929D01*
X044403Y024800D01*
X044642Y024561D01*
X044772Y024248D01*
X044772Y023910D01*
X044642Y023597D01*
X044403Y023358D01*
X044091Y023228D01*
X043752Y023228D01*
X043440Y023358D01*
X043200Y023597D01*
X043071Y023910D01*
X043071Y024248D01*
X043108Y024337D01*
X042517Y023746D01*
X041977Y023207D01*
X041977Y017746D01*
X041989Y017735D01*
X041989Y017851D01*
X042118Y017980D01*
X043363Y017980D01*
X043492Y017851D01*
X043492Y016606D01*
X043363Y016477D01*
X042118Y016477D01*
X041989Y016606D01*
X041989Y016938D01*
X041901Y016974D01*
X041817Y017059D01*
X041466Y017410D01*
X041466Y013880D01*
X041475Y013857D01*
X041475Y013750D01*
X041466Y013727D01*
X041466Y012746D01*
X041644Y012568D01*
X041989Y012568D01*
X041989Y012890D01*
X042118Y013019D01*
X043363Y013019D01*
X043492Y012890D01*
X043492Y011645D01*
X043363Y011516D01*
X042118Y011516D01*
X041989Y011645D01*
X041989Y011968D01*
X041460Y011968D01*
X041350Y012014D01*
X041266Y012098D01*
X040954Y012410D01*
X040954Y009518D01*
X041211Y009261D01*
X041989Y009261D01*
X041989Y009583D01*
X042118Y009712D01*
X043363Y009712D01*
X043492Y009583D01*
X043492Y008338D01*
X043363Y008209D01*
X042118Y008209D01*
X041989Y008338D01*
X041989Y008661D01*
X041027Y008661D01*
X040917Y008706D01*
X040832Y008791D01*
X040832Y008791D01*
X040399Y009224D01*
X040354Y009334D01*
X040354Y023945D01*
X040284Y023876D01*
X040284Y015673D01*
X040239Y015563D01*
X038828Y014151D01*
X038828Y010082D01*
X038782Y009972D01*
X038698Y009888D01*
X038343Y009533D01*
X038233Y009488D01*
X038205Y009488D01*
X038205Y009376D01*
X038216Y009360D01*
X038235Y009313D01*
X038245Y009263D01*
X038245Y008882D01*
X037670Y008882D01*
X037095Y008882D01*
X037095Y008502D01*
X037105Y008451D01*
X037125Y008404D01*
X037153Y008361D01*
X037190Y008325D01*
X037232Y008297D01*
X037279Y008277D01*
X037330Y008267D01*
X037670Y008267D01*
X037670Y008882D01*
X037670Y008882D01*
X037095Y008882D01*
X037095Y009263D01*
X037105Y009313D01*
X037125Y009360D01*
X037135Y009376D01*
X037135Y010199D01*
X037125Y010215D01*
X037105Y010262D01*
X037095Y010313D01*
X037095Y010693D01*
X037670Y010693D01*
X037670Y010693D01*
X037095Y010693D01*
X037095Y011074D01*
X037105Y011124D01*
X037125Y011171D01*
X037135Y011187D01*
X037135Y012045D01*
X037264Y012174D01*
X038076Y012174D01*
X038205Y012045D01*
X038205Y011937D01*
X038228Y011959D01*
X038228Y014335D01*
X038273Y014446D01*
X039684Y015857D01*
X039684Y024060D01*
X039730Y024170D01*
X040354Y024794D01*
X040354Y025432D01*
X039544Y025432D01*
X039544Y025321D01*
X039554Y025305D01*
X039574Y025258D01*
X039584Y025207D01*
X039584Y024827D01*
X039009Y024827D01*
X039009Y024827D01*
X039584Y024827D01*
X039584Y024446D01*
X039574Y024396D01*
X039554Y024349D01*
X039526Y024306D01*
X039490Y024270D01*
X039447Y024242D01*
X039400Y024222D01*
X039349Y024212D01*
X039009Y024212D01*
X039009Y024827D01*
X039009Y024827D01*
X039009Y024212D01*
X038668Y024212D01*
X038618Y024222D01*
X038571Y024242D01*
X038528Y024270D01*
X038492Y024306D01*
X038463Y024349D01*
X038444Y024396D01*
X038434Y024446D01*
X038434Y024784D01*
X038424Y024775D01*
X038424Y024381D01*
X038295Y024252D01*
X037483Y024252D01*
X037354Y024381D01*
X037354Y025273D01*
X037361Y025280D01*
X037354Y025286D01*
X037354Y026175D01*
X037272Y026093D01*
X037272Y017448D01*
X037230Y017345D01*
X035973Y016089D01*
X035973Y012291D01*
X035930Y012188D01*
X035611Y011869D01*
X036016Y011869D01*
X036016Y012045D01*
X036144Y012174D01*
X036957Y012174D01*
X037086Y012045D01*
X037086Y011153D01*
X037079Y011146D01*
X037086Y011139D01*
X037086Y010247D01*
X037079Y010240D01*
X037086Y010234D01*
X037086Y009342D01*
X037079Y009335D01*
X037086Y009328D01*
X037086Y008436D01*
X036957Y008307D01*
X036144Y008307D01*
X036016Y008436D01*
X036016Y008612D01*
X035806Y008612D01*
X035806Y007765D01*
X035764Y007666D01*
X035331Y007233D01*
X035331Y007233D01*
X035255Y007157D01*
X035156Y007116D01*
X033868Y007116D01*
X033768Y007157D01*
X033178Y007748D01*
X033139Y007787D01*
X033063Y007863D01*
X033021Y007962D01*
X033021Y008858D01*
X032883Y008858D01*
X032883Y008514D01*
X032754Y008386D01*
X032528Y008386D01*
X032528Y008042D01*
X032399Y007913D01*
X032095Y007913D01*
X032095Y007491D01*
X031966Y007362D01*
X031467Y007362D01*
X031359Y007470D01*
X029791Y007470D01*
X029663Y007342D01*
X029125Y007342D01*
X028996Y007471D01*
X028996Y008010D01*
X029125Y008138D01*
X029663Y008138D01*
X029791Y008010D01*
X031359Y008010D01*
X031467Y008119D01*
X031771Y008119D01*
X031771Y008541D01*
X031880Y008649D01*
X031880Y008858D01*
X031467Y008858D01*
X031359Y008966D01*
X029791Y008966D01*
X029663Y008838D01*
X029125Y008838D01*
X028996Y008967D01*
X028996Y009506D01*
X029125Y009634D01*
X029663Y009634D01*
X029791Y009506D01*
X031359Y009506D01*
X031467Y009615D01*
X031880Y009615D01*
X031880Y012008D01*
X031467Y012008D01*
X031359Y012116D01*
X029791Y012116D01*
X029663Y011988D01*
X029125Y011988D01*
X028996Y012117D01*
X028996Y012655D01*
X029125Y012784D01*
X029663Y012784D01*
X029791Y012656D01*
X031359Y012656D01*
X031467Y012764D01*
X031771Y012764D01*
X031771Y013187D01*
X031880Y013295D01*
X031880Y013504D01*
X031467Y013504D01*
X031359Y013612D01*
X029791Y013612D01*
X029663Y013484D01*
X029125Y013484D01*
X028996Y013613D01*
X028996Y014151D01*
X029125Y014280D01*
X029663Y014280D01*
X029791Y014152D01*
X031359Y014152D01*
X031467Y014260D01*
X031880Y014260D01*
X031880Y015266D01*
X026130Y015266D01*
X026002Y015137D01*
X025899Y015137D01*
X025847Y015116D01*
X024813Y015116D01*
X024813Y006667D01*
X024816Y006660D01*
X024813Y006592D01*
X024813Y006366D01*
X024755Y006226D01*
X024648Y006119D01*
X024637Y006114D01*
X039028Y006114D01*
X038968Y006174D01*
X038889Y006365D01*
X038889Y006572D01*
X038968Y006763D01*
X039114Y006909D01*
X039305Y006989D01*
X040112Y006989D01*
X040303Y006909D01*
X040450Y006763D01*
X040529Y006572D01*
X040529Y006365D01*
X040450Y006174D01*
X040390Y006114D01*
X040549Y006114D01*
X040549Y006976D01*
X039117Y008408D01*
X039053Y008562D01*
X039053Y013178D01*
X039074Y013231D01*
X039074Y013364D01*
X039203Y013493D01*
X039336Y013493D01*
X039389Y013515D01*
X039556Y013515D01*
X039609Y013493D01*
X039742Y013493D01*
X039871Y013364D01*
X039871Y013231D01*
X039893Y013178D01*
X039893Y008820D01*
X041207Y007506D01*
X041325Y007388D01*
X041389Y007233D01*
X041389Y006114D01*
X043124Y006114D01*
X043815Y006806D01*
X043815Y019493D01*
X043891Y019677D01*
X044032Y019818D01*
X044216Y019894D01*
X046068Y019894D01*
X046055Y019899D01*
X045805Y020150D01*
X045669Y020477D01*
X045669Y020831D01*
X045805Y021158D01*
X046055Y021408D01*
X046382Y021544D01*
X046736Y021544D01*
X047063Y021408D01*
X047314Y021158D01*
X047449Y020831D01*
X047449Y020477D01*
X047314Y020150D01*
X047063Y019899D01*
X047050Y019894D01*
X049728Y019894D01*
X049729Y019894D01*
X049827Y019894D01*
X049926Y019894D01*
X049927Y019894D01*
X049928Y019894D01*
X050019Y019856D01*
X050110Y019818D01*
X050111Y019817D01*
X050111Y019817D01*
X050181Y019747D01*
X050251Y019677D01*
X050251Y019676D01*
X050252Y019676D01*
X050289Y019585D01*
X050327Y019493D01*
X050327Y019493D01*
X050327Y019492D01*
X050327Y019393D01*
X050327Y019294D01*
X050327Y019294D01*
X050288Y006524D01*
X050314Y006337D01*
X050327Y006304D01*
X050327Y006239D01*
X050336Y006174D01*
X050327Y006140D01*
X050327Y004806D01*
X050251Y004622D01*
X050110Y004482D01*
X049306Y003678D01*
X049306Y003678D01*
X047959Y002331D01*
X050551Y002331D01*
X050551Y043173D01*
X007764Y043173D01*
X007764Y043158D02*
X050551Y043158D01*
X050551Y042839D02*
X007764Y042839D01*
X007764Y042521D02*
X050551Y042521D01*
X050551Y042202D02*
X007764Y042202D01*
X007764Y041884D02*
X050551Y041884D01*
X050551Y041565D02*
X045216Y041565D01*
X045170Y041584D02*
X039326Y041584D01*
X039201Y041532D01*
X039106Y041437D01*
X038414Y040745D01*
X038414Y040745D01*
X038020Y040351D01*
X037902Y040233D01*
X037806Y040138D01*
X037755Y040013D01*
X037755Y039485D01*
X037697Y039427D01*
X037697Y038888D01*
X037825Y038760D01*
X038364Y038760D01*
X038493Y038888D01*
X038493Y039427D01*
X038435Y039485D01*
X038435Y039804D01*
X038501Y039871D01*
X038895Y040264D01*
X038895Y040264D01*
X039535Y040904D01*
X044962Y040904D01*
X047518Y038348D01*
X047518Y036327D01*
X047392Y036327D01*
X047263Y036199D01*
X047263Y035660D01*
X047392Y035531D01*
X047931Y035531D01*
X048060Y035660D01*
X048060Y035847D01*
X048147Y035934D01*
X048198Y036059D01*
X048198Y038556D01*
X048147Y038681D01*
X048051Y038777D01*
X045295Y041532D01*
X045170Y041584D01*
X045581Y041247D02*
X050551Y041247D01*
X050551Y040928D02*
X045900Y040928D01*
X046218Y040610D02*
X050551Y040610D01*
X050551Y040291D02*
X046537Y040291D01*
X046855Y039973D02*
X050551Y039973D01*
X050551Y039654D02*
X047174Y039654D01*
X047492Y039336D02*
X050551Y039336D01*
X050551Y039017D02*
X047811Y039017D01*
X048129Y038699D02*
X050551Y038699D01*
X050551Y038380D02*
X048198Y038380D01*
X048198Y038062D02*
X050551Y038062D01*
X050551Y037743D02*
X048198Y037743D01*
X048198Y037425D02*
X050551Y037425D01*
X050551Y037106D02*
X048198Y037106D01*
X048198Y036788D02*
X050551Y036788D01*
X050551Y036469D02*
X048198Y036469D01*
X048198Y036151D02*
X050551Y036151D01*
X050551Y035832D02*
X048060Y035832D01*
X047263Y035832D02*
X047214Y035832D01*
X047214Y035514D02*
X050551Y035514D01*
X050551Y035195D02*
X047302Y035195D01*
X047807Y034877D02*
X050551Y034877D01*
X050551Y034558D02*
X047863Y034558D01*
X047820Y034240D02*
X050551Y034240D01*
X050551Y033921D02*
X047765Y033921D01*
X047765Y033603D02*
X050551Y033603D01*
X050551Y033284D02*
X047765Y033284D01*
X047765Y032966D02*
X050551Y032966D01*
X050551Y032647D02*
X047765Y032647D01*
X047765Y032329D02*
X050551Y032329D01*
X050551Y032010D02*
X047765Y032010D01*
X047765Y031692D02*
X050551Y031692D01*
X050551Y031373D02*
X047765Y031373D01*
X047765Y031055D02*
X050551Y031055D01*
X050551Y030736D02*
X047765Y030736D01*
X047765Y030418D02*
X050551Y030418D01*
X050551Y030099D02*
X047765Y030099D01*
X047567Y029781D02*
X050551Y029781D01*
X050551Y029462D02*
X046894Y029462D01*
X046576Y029144D02*
X050551Y029144D01*
X050551Y028825D02*
X046257Y028825D01*
X045939Y028507D02*
X050551Y028507D01*
X050551Y028188D02*
X045620Y028188D01*
X045409Y028825D02*
X041939Y028825D01*
X041939Y028507D02*
X043004Y028507D01*
X042685Y028188D02*
X041939Y028188D01*
X041939Y027870D02*
X042367Y027870D01*
X042048Y027551D02*
X041939Y027551D01*
X041730Y027233D02*
X041707Y027233D01*
X041559Y027622D02*
X041559Y033685D01*
X041323Y033921D01*
X042043Y033921D02*
X047165Y033921D01*
X047165Y033603D02*
X042043Y033603D01*
X042043Y033284D02*
X047165Y033284D01*
X047165Y032966D02*
X041939Y032966D01*
X041939Y032647D02*
X047165Y032647D01*
X047165Y032329D02*
X041939Y032329D01*
X041939Y032010D02*
X047165Y032010D01*
X047165Y031692D02*
X041939Y031692D01*
X041939Y031373D02*
X047165Y031373D01*
X047165Y031055D02*
X041939Y031055D01*
X041939Y030736D02*
X043658Y030736D01*
X043692Y030818D02*
X043613Y030627D01*
X043613Y030420D01*
X043692Y030229D01*
X043839Y030083D01*
X043982Y030024D01*
X043839Y029965D01*
X043692Y029818D01*
X043613Y029627D01*
X043613Y029420D01*
X043692Y029229D01*
X043839Y029083D01*
X044030Y029004D01*
X044837Y029004D01*
X045028Y029083D01*
X045174Y029229D01*
X045253Y029420D01*
X045253Y029627D01*
X045174Y029818D01*
X045028Y029965D01*
X044885Y030024D01*
X045028Y030083D01*
X045174Y030229D01*
X045253Y030420D01*
X045253Y030627D01*
X045174Y030818D01*
X045028Y030965D01*
X044837Y031044D01*
X044030Y031044D01*
X043839Y030965D01*
X043692Y030818D01*
X043614Y030418D02*
X041939Y030418D01*
X041939Y030099D02*
X043823Y030099D01*
X043677Y029781D02*
X041939Y029781D01*
X041939Y029462D02*
X043613Y029462D01*
X043778Y029144D02*
X041939Y029144D01*
X041559Y027622D02*
X040890Y026953D01*
X038173Y026953D01*
X037386Y027740D01*
X034354Y027740D01*
X034040Y027425D01*
X033188Y027390D02*
X033188Y028084D01*
X033239Y028208D01*
X033335Y028304D01*
X033689Y028658D01*
X033814Y028710D01*
X034232Y028710D01*
X034232Y029191D01*
X034350Y029309D01*
X034350Y031930D01*
X034393Y032033D01*
X034471Y032112D01*
X035613Y033253D01*
X035807Y033447D01*
X035807Y033818D01*
X035318Y033818D01*
X035208Y033864D01*
X034809Y034263D01*
X034809Y034263D01*
X033561Y035511D01*
X033258Y035511D01*
X032607Y034860D01*
X032607Y034279D01*
X032610Y034285D01*
X032849Y034524D01*
X033162Y034654D01*
X033500Y034654D01*
X033813Y034524D01*
X034052Y034285D01*
X034181Y033972D01*
X034181Y033634D01*
X034052Y033322D01*
X033813Y033082D01*
X033500Y032953D01*
X033162Y032953D01*
X032849Y033082D01*
X032610Y033322D01*
X032578Y033398D01*
X032562Y033358D01*
X030599Y031396D01*
X030599Y028271D01*
X030554Y028161D01*
X029963Y027570D01*
X029879Y027486D01*
X029768Y027440D01*
X029574Y027440D01*
X029595Y027419D01*
X029595Y027075D01*
X030057Y027075D01*
X030186Y026947D01*
X030186Y026506D01*
X031953Y026506D01*
X032578Y027132D01*
X032578Y027262D01*
X032707Y027390D01*
X033188Y027390D01*
X033188Y027551D02*
X029944Y027551D01*
X030262Y027870D02*
X033188Y027870D01*
X033231Y028188D02*
X032312Y028188D01*
X032312Y028180D02*
X032312Y028423D01*
X032365Y028476D01*
X032410Y028586D01*
X032410Y031428D01*
X032509Y031526D01*
X032509Y032065D01*
X032380Y032194D01*
X031841Y032194D01*
X031712Y032065D01*
X031712Y031526D01*
X031810Y031428D01*
X031810Y028847D01*
X031644Y028847D01*
X031515Y028718D01*
X031515Y028180D01*
X031644Y028051D01*
X032183Y028051D01*
X032312Y028180D01*
X032377Y028507D02*
X033538Y028507D01*
X032578Y027233D02*
X029595Y027233D01*
X030186Y026914D02*
X032361Y026914D01*
X032042Y026596D02*
X030186Y026596D01*
X029992Y025640D02*
X033188Y025640D01*
X033188Y025322D02*
X030056Y025322D01*
X029893Y025003D02*
X033188Y025003D01*
X033188Y024685D02*
X029969Y024685D01*
X030056Y024366D02*
X033188Y024366D01*
X033173Y024048D02*
X029937Y024048D01*
X029925Y023729D02*
X032855Y023729D01*
X032536Y023411D02*
X030056Y023411D01*
X029979Y023092D02*
X032218Y023092D01*
X031899Y022774D02*
X029937Y022774D01*
X030092Y022455D02*
X031581Y022455D01*
X031262Y022137D02*
X030040Y022137D01*
X030055Y022167D02*
X030083Y022251D01*
X030096Y022338D01*
X030096Y022382D01*
X029236Y022382D01*
X029236Y022382D01*
X029236Y021822D01*
X029580Y021822D01*
X029668Y021836D01*
X029751Y021863D01*
X029830Y021903D01*
X029901Y021955D01*
X029964Y022017D01*
X030015Y022089D01*
X030055Y022167D01*
X029786Y021500D02*
X030625Y021500D01*
X030944Y021818D02*
X012645Y021818D01*
X012646Y021815D02*
X012511Y022142D01*
X012260Y022392D01*
X011933Y022528D01*
X011579Y022528D01*
X011252Y022392D01*
X011002Y022142D01*
X010866Y021815D01*
X010866Y021461D01*
X011002Y021134D01*
X011252Y020884D01*
X011579Y020748D01*
X011933Y020748D01*
X012260Y020884D01*
X012511Y021134D01*
X012646Y021461D01*
X012646Y021815D01*
X012646Y021500D02*
X019081Y021500D01*
X018671Y021181D02*
X012530Y021181D01*
X012210Y020863D02*
X018413Y020863D01*
X018921Y020063D02*
X009748Y020063D01*
X009197Y019512D01*
X009197Y008331D01*
X009630Y007898D01*
X012740Y007898D01*
X012701Y007937D01*
X012701Y010339D01*
X012858Y010496D01*
X012937Y010496D01*
X012898Y010536D01*
X012917Y010536D01*
X013508Y009945D01*
X015575Y009945D01*
X015756Y010126D01*
X019315Y010126D01*
X019213Y010024D01*
X018134Y010024D01*
X019217Y010142D02*
X013311Y010142D01*
X013213Y010043D01*
X013114Y010043D01*
X013410Y010339D01*
X019315Y010339D01*
X019512Y010142D01*
X019610Y010142D01*
X019217Y010536D01*
X012917Y010536D01*
X012898Y007701D01*
X013331Y007268D01*
X012917Y007681D01*
X019709Y007681D01*
X019709Y010536D01*
X013095Y007504D01*
X012858Y007740D01*
X012858Y010536D01*
X012898Y010536D01*
X012622Y010536D01*
X012543Y010614D01*
X011992Y011166D01*
X011953Y011205D01*
X011953Y016953D01*
X012465Y017465D01*
X012268Y017465D01*
X019473Y017465D01*
X019512Y017504D01*
X019748Y017740D01*
X019748Y020299D01*
X009591Y020299D01*
X009551Y020260D01*
X008980Y019689D01*
X008980Y008173D01*
X009473Y007681D01*
X012917Y007681D01*
X013016Y007780D01*
X013016Y007878D01*
X019512Y007878D01*
X019512Y007977D01*
X013114Y007977D01*
X013410Y008272D01*
X019512Y008272D01*
X013114Y008272D01*
X013410Y008567D01*
X019512Y008567D01*
X013016Y008567D01*
X013311Y008862D01*
X019610Y008862D01*
X013016Y008862D01*
X013311Y009158D01*
X019610Y009158D01*
X019512Y009256D01*
X013016Y009256D01*
X013311Y009551D01*
X019512Y009551D01*
X019315Y009748D01*
X013114Y009748D01*
X013213Y009847D01*
X019512Y009847D01*
X019217Y010142D01*
X019748Y011047D02*
X012858Y011047D01*
X012858Y011205D01*
X013252Y011599D01*
X015614Y011599D01*
X019866Y011599D01*
X019906Y011638D01*
X019906Y011677D01*
X019512Y012071D01*
X013488Y012071D01*
X013252Y012307D01*
X013252Y012032D01*
X013213Y011992D01*
X013213Y013134D01*
X013291Y013213D01*
X013488Y013213D01*
X013685Y013016D01*
X013685Y012268D01*
X013725Y012229D01*
X016677Y012229D01*
X016717Y012268D01*
X016717Y012347D01*
X015811Y013252D01*
X014197Y013252D01*
X013882Y012937D01*
X013882Y012543D01*
X013921Y012504D01*
X016362Y012504D01*
X016244Y012504D01*
X015693Y013055D01*
X014354Y013055D01*
X014079Y012780D01*
X016087Y012780D01*
X016087Y013646D01*
X016047Y013685D01*
X019158Y013685D01*
X019394Y013685D01*
X020142Y014433D01*
X020142Y012780D01*
X020063Y012701D01*
X020063Y013921D01*
X019906Y014079D01*
X019906Y012780D01*
X019827Y012701D01*
X019827Y013488D01*
X019669Y013646D01*
X019158Y013646D01*
X018961Y013449D01*
X019630Y013449D01*
X019709Y013370D01*
X019118Y013370D01*
X018961Y013213D01*
X019433Y013213D01*
X019630Y013016D01*
X018843Y013016D01*
X018843Y012937D01*
X019000Y012780D01*
X019630Y012780D01*
X019354Y012780D01*
X018685Y013449D01*
X016599Y013449D01*
X016559Y013488D01*
X016638Y013488D01*
X017386Y012740D01*
X018410Y012740D01*
X018567Y012898D01*
X018567Y013291D01*
X018528Y013331D01*
X017307Y013331D01*
X017189Y013213D01*
X017307Y013213D01*
X017543Y012977D01*
X018291Y012977D01*
X018370Y013055D01*
X017622Y013055D01*
X017543Y013134D01*
X017189Y012583D02*
X016087Y013685D01*
X016047Y013685D01*
X012858Y013685D01*
X012858Y011166D01*
X020103Y011166D01*
X020181Y011244D01*
X020181Y012150D01*
X019984Y012347D01*
X016992Y012347D01*
X015929Y013410D01*
X013095Y013410D01*
X013055Y013370D01*
X013055Y011402D01*
X013095Y011362D01*
X019984Y011362D01*
X020024Y011402D01*
X020024Y011874D01*
X019984Y011914D01*
X013252Y011914D01*
X013213Y011953D01*
X013213Y011638D01*
X013252Y011599D01*
X013095Y011441D01*
X016008Y011441D01*
X016166Y011599D01*
X013252Y011599D01*
X019709Y011166D01*
X019748Y011126D01*
X019748Y011047D01*
X020536Y010496D02*
X020536Y014394D01*
X020181Y014748D01*
X020181Y014709D01*
X019158Y013685D01*
X020339Y013685D01*
X020378Y013725D01*
X020378Y014669D01*
X020339Y014709D01*
X020339Y015181D01*
X020417Y015260D01*
X018725Y013567D01*
X018725Y012307D01*
X020536Y010496D01*
X020378Y012110D02*
X020339Y012110D01*
X020339Y008882D01*
X020339Y007347D01*
X021087Y006599D01*
X021087Y006835D01*
X020575Y007347D01*
X020575Y017189D01*
X020496Y017268D01*
X024236Y017268D01*
X021047Y017268D01*
X020772Y016992D01*
X020772Y007465D01*
X021402Y006835D01*
X024118Y006835D01*
X024315Y007032D01*
X021520Y007032D01*
X021008Y007543D01*
X021008Y016835D01*
X021205Y017032D01*
X023370Y016992D01*
X023095Y017032D01*
X023095Y016795D01*
X024040Y016795D01*
X024158Y016677D01*
X024158Y007740D01*
X023921Y007504D01*
X021756Y007504D01*
X021402Y007858D01*
X021402Y016480D01*
X021520Y016599D01*
X023370Y016599D01*
X023370Y016520D01*
X023370Y016402D01*
X023370Y016520D01*
X023685Y016402D01*
X023725Y016362D01*
X023725Y007898D01*
X023646Y007642D01*
X023370Y007583D01*
X023331Y007681D01*
X023331Y007268D01*
X021638Y007268D01*
X021244Y007662D01*
X021244Y016717D01*
X021323Y016795D01*
X023095Y016795D01*
X023370Y016599D02*
X023843Y016599D01*
X023921Y016520D01*
X023921Y007819D01*
X023843Y007740D01*
X023843Y007622D01*
X024118Y007347D01*
X022189Y007347D01*
X021599Y007937D01*
X021599Y016323D01*
X021677Y016402D01*
X023370Y016520D01*
X023410Y016205D02*
X023488Y016126D01*
X023370Y016047D01*
X023193Y015969D01*
X023193Y015988D01*
X023291Y015890D01*
X023291Y012543D01*
X023291Y012739D01*
X023370Y012740D01*
X023370Y012268D01*
X023291Y012306D01*
X023291Y012229D01*
X023291Y011953D01*
X023291Y011755D01*
X023370Y011795D01*
X023370Y011362D01*
X023439Y011282D01*
X023439Y011401D01*
X023370Y011362D02*
X023567Y015339D01*
X023567Y006480D01*
X023370Y006677D01*
X023370Y008055D01*
X023331Y008094D02*
X023331Y008016D01*
X022465Y007858D01*
X023567Y007858D01*
X023528Y007819D01*
X022898Y007819D01*
X022701Y008016D01*
X022071Y008016D01*
X021953Y008134D01*
X021953Y015929D01*
X022032Y016008D01*
X023173Y016008D01*
X023193Y015988D01*
X023370Y016047D02*
X023370Y012740D01*
X023291Y012543D02*
X023291Y012229D01*
X023370Y012268D02*
X023370Y011795D01*
X023291Y011953D02*
X023291Y008291D01*
X023213Y008213D01*
X022268Y008213D01*
X022150Y008331D01*
X022150Y015693D01*
X022268Y015811D01*
X023055Y015811D01*
X023134Y015732D01*
X023410Y015732D01*
X023567Y015890D01*
X023567Y013252D01*
X023685Y013134D01*
X023685Y015063D01*
X023016Y015732D01*
X023016Y015457D01*
X023134Y015339D01*
X023134Y008567D01*
X023016Y008449D01*
X022347Y008449D01*
X022307Y008488D01*
X022307Y015496D01*
X022425Y015614D01*
X022780Y015614D01*
X022898Y015496D01*
X022898Y008725D01*
X022819Y008646D01*
X022583Y008646D01*
X022543Y008685D01*
X022543Y008843D01*
X022504Y008882D01*
X022504Y015378D01*
X022583Y015457D01*
X022701Y015457D01*
X022740Y015417D01*
X022740Y008803D01*
X022701Y008764D01*
X022701Y008252D01*
X023370Y007583D01*
X024433Y006520D01*
X020260Y006520D01*
X020260Y007583D01*
X020260Y007150D01*
X020693Y006717D01*
X020457Y006717D01*
X020457Y017307D01*
X020299Y017465D01*
X020260Y017465D01*
X020260Y017583D01*
X024433Y017583D01*
X024433Y016717D01*
X024197Y016480D01*
X024079Y016480D01*
X020181Y012583D01*
X017189Y012583D01*
X015575Y013213D02*
X015575Y011599D01*
X015614Y011599D01*
X018788Y011599D01*
X019315Y012126D01*
X020284Y012126D01*
X020299Y012110D01*
X020339Y012110D01*
X020378Y012110D01*
X018646Y014315D02*
X013016Y014315D01*
X013410Y014709D01*
X013410Y016559D01*
X013252Y016717D02*
X019433Y016717D01*
X019512Y016638D01*
X019512Y015457D01*
X018567Y014512D01*
X013370Y014512D01*
X013055Y014827D01*
X013055Y015142D01*
X013016Y015103D01*
X013016Y014394D01*
X013055Y014433D01*
X013055Y014512D01*
X013016Y014551D01*
X013016Y016953D01*
X019669Y016953D01*
X019709Y016914D01*
X019709Y015378D01*
X018646Y014315D01*
X018410Y014669D02*
X013606Y014669D01*
X013213Y015063D01*
X013213Y016677D01*
X013252Y016717D01*
X013055Y016953D02*
X012858Y016953D01*
X012858Y014315D01*
X013567Y014315D01*
X013606Y014354D01*
X013961Y015260D01*
X014040Y015181D01*
X018134Y015181D01*
X018449Y015496D01*
X018291Y015496D01*
X017858Y015929D01*
X014197Y015929D01*
X014158Y015890D01*
X014158Y015417D01*
X018134Y015417D01*
X018173Y015457D01*
X017937Y015457D01*
X017662Y015732D01*
X014276Y015732D01*
X014236Y015693D01*
X013410Y014906D01*
X013606Y015103D02*
X013606Y016441D01*
X013685Y016520D01*
X019158Y016520D01*
X019354Y016323D01*
X019354Y015614D01*
X018410Y014669D01*
X018331Y014827D02*
X013882Y014827D01*
X013606Y015103D01*
X013803Y015103D02*
X013803Y016284D01*
X013882Y016362D01*
X018173Y016362D01*
X018764Y015772D01*
X019000Y015772D01*
X018449Y016323D01*
X018410Y016323D01*
X018449Y016362D01*
X019079Y016362D01*
X019197Y016244D01*
X019197Y015693D01*
X018331Y014827D01*
X018291Y015024D02*
X013882Y015024D01*
X013803Y015103D01*
X013961Y015103D02*
X014000Y015063D01*
X014000Y014984D01*
X014040Y015024D01*
X014040Y016323D01*
X014000Y016284D01*
X014000Y015929D01*
X013961Y015969D01*
X013961Y016126D01*
X018055Y016126D01*
X018646Y015536D01*
X018803Y015536D01*
X018291Y015024D01*
X019315Y015835D02*
X018591Y016559D01*
X015575Y016559D01*
X015496Y018173D02*
X016126Y018803D01*
X016284Y018803D01*
X016323Y018764D01*
X018488Y018764D01*
X018606Y018882D01*
X018606Y019000D01*
X018567Y019040D01*
X016126Y019040D01*
X016087Y019000D01*
X016087Y018725D01*
X016244Y018567D01*
X018764Y018567D01*
X018725Y018606D01*
X018725Y019197D01*
X018685Y019236D01*
X015890Y019236D01*
X015851Y019197D01*
X015851Y018410D01*
X018921Y018410D01*
X019000Y018488D01*
X019000Y019315D01*
X018921Y019394D01*
X010260Y019394D01*
X009906Y019040D01*
X009906Y008646D01*
X012032Y008606D01*
X012110Y008685D01*
X012268Y008685D01*
X012307Y008646D01*
X012307Y008567D01*
X012229Y008646D01*
X012110Y008646D01*
X012229Y008764D01*
X012229Y010063D01*
X011047Y011244D01*
X011047Y017229D01*
X011835Y018016D01*
X018961Y018016D01*
X019197Y018252D01*
X019197Y019473D01*
X019040Y019630D01*
X010103Y019630D01*
X009709Y019236D01*
X009709Y008528D01*
X009866Y008370D01*
X012307Y008370D01*
X012425Y008488D01*
X012425Y010181D01*
X011362Y011244D01*
X011362Y017110D01*
X012071Y017819D01*
X019000Y017819D01*
X019394Y018213D01*
X019394Y019709D01*
X019236Y019866D01*
X009945Y019866D01*
X009433Y019354D01*
X009433Y008410D01*
X009709Y008134D01*
X012465Y008134D01*
X012622Y008291D01*
X012622Y010299D01*
X011677Y011244D01*
X011677Y017071D01*
X012268Y017662D01*
X019158Y017662D01*
X019354Y017858D01*
X019354Y019827D01*
X019118Y020063D01*
X018921Y020063D01*
X019118Y020063D02*
X019512Y020063D01*
X019551Y020024D01*
X019551Y018055D01*
X019354Y017858D01*
X019315Y017835D02*
X019315Y018213D01*
X015575Y018213D01*
X015575Y019866D01*
X015339Y019118D02*
X010378Y019118D01*
X010142Y018882D01*
X010142Y010929D01*
X010811Y010260D01*
X010811Y009669D01*
X011008Y009669D01*
X010693Y009984D01*
X010693Y010063D01*
X010614Y009984D01*
X010614Y009512D01*
X011520Y009512D01*
X010772Y010260D01*
X010693Y010339D01*
X010614Y010339D01*
X010457Y010181D01*
X010457Y009354D01*
X010536Y009276D01*
X011638Y009276D01*
X011717Y009354D01*
X011717Y009669D01*
X010969Y010417D01*
X010969Y010457D01*
X010851Y010575D01*
X010299Y010575D01*
X010378Y010496D01*
X010417Y010496D01*
X010299Y010378D01*
X010299Y009118D01*
X010339Y009079D01*
X011835Y009079D01*
X011874Y009118D01*
X011874Y009866D01*
X010969Y010772D01*
X010063Y010772D01*
X010103Y010732D01*
X010103Y008921D01*
X010142Y008882D01*
X011992Y008882D01*
X012071Y008961D01*
X012071Y009984D01*
X010890Y011166D01*
X010890Y017347D01*
X011717Y018173D01*
X015496Y018173D01*
X015221Y018370D02*
X015339Y018488D01*
X015339Y019118D01*
X015142Y018764D02*
X014984Y018921D01*
X010536Y018921D01*
X010339Y018725D01*
X010339Y011047D01*
X010457Y010929D01*
X010772Y010929D01*
X010732Y010969D01*
X010732Y017465D01*
X011638Y018370D01*
X015221Y018370D01*
X015142Y018528D02*
X015142Y018764D01*
X015260Y018685D02*
X010575Y018685D01*
X010496Y018606D01*
X010496Y017977D01*
X010693Y017780D01*
X010693Y017740D01*
X011480Y018528D01*
X015142Y018528D01*
X015260Y018685D02*
X011362Y018685D01*
X010732Y018055D01*
X010732Y018370D01*
X010693Y018410D01*
X010929Y018410D01*
X010969Y018449D01*
X010969Y018134D01*
X010575Y017740D01*
X010575Y009512D01*
X010417Y009354D01*
X015575Y008291D01*
X013410Y008291D02*
X013410Y009945D01*
X013410Y011599D02*
X013449Y011638D01*
X013449Y013213D01*
X013410Y013252D01*
X013449Y013213D02*
X015575Y013213D01*
X013961Y015103D02*
X013961Y016047D01*
X013055Y016953D01*
X011303Y020863D02*
X007764Y020863D01*
X007764Y021181D02*
X010982Y021181D01*
X010866Y021500D02*
X007764Y021500D01*
X007764Y021818D02*
X010867Y021818D01*
X010999Y022137D02*
X007764Y022137D01*
X007764Y022455D02*
X011403Y022455D01*
X012109Y022455D02*
X020616Y022455D01*
X020627Y022422D02*
X020667Y022344D01*
X020719Y022272D01*
X020781Y022210D01*
X020852Y022158D01*
X020931Y022118D01*
X021015Y022091D01*
X021102Y022077D01*
X021146Y022077D01*
X021146Y022937D01*
X021146Y022937D01*
X022146Y022937D01*
X022146Y022937D01*
X022146Y023797D01*
X022102Y023797D01*
X022015Y023783D01*
X021931Y023756D01*
X021852Y023716D01*
X021781Y023664D01*
X021719Y023602D01*
X021667Y023531D01*
X021646Y023489D01*
X021625Y023531D01*
X021573Y023602D01*
X021511Y023664D01*
X021439Y023716D01*
X021361Y023756D01*
X021277Y023783D01*
X021190Y023797D01*
X021146Y023797D01*
X021146Y022937D01*
X020586Y022937D01*
X020586Y022593D01*
X020600Y022506D01*
X020627Y022422D01*
X020586Y022774D02*
X007764Y022774D01*
X007764Y023092D02*
X020586Y023092D01*
X020586Y022937D02*
X021146Y022937D01*
X021146Y022937D01*
X021146Y022937D01*
X021146Y023797D01*
X021102Y023797D01*
X021015Y023783D01*
X020931Y023756D01*
X020852Y023716D01*
X020781Y023664D01*
X020719Y023602D01*
X020667Y023531D01*
X020627Y023452D01*
X020600Y023368D01*
X020586Y023281D01*
X020586Y022937D01*
X020613Y023411D02*
X007764Y023411D01*
X007764Y023729D02*
X020878Y023729D01*
X021146Y023729D02*
X021146Y023729D01*
X021414Y023729D02*
X021878Y023729D01*
X022146Y023729D02*
X022146Y023729D01*
X022414Y023729D02*
X022726Y023729D01*
X022726Y024048D02*
X007764Y024048D01*
X007764Y024366D02*
X012919Y024366D01*
X013004Y024331D02*
X013343Y024331D01*
X013655Y024460D01*
X013894Y024699D01*
X014024Y025012D01*
X014024Y025350D01*
X013894Y025663D01*
X013655Y025902D01*
X013343Y026032D01*
X013004Y026032D01*
X012692Y025902D01*
X012452Y025663D01*
X012323Y025350D01*
X012323Y025012D01*
X012452Y024699D01*
X012692Y024460D01*
X013004Y024331D01*
X013428Y024366D02*
X022789Y024366D01*
X023106Y024685D02*
X013880Y024685D01*
X014020Y025003D02*
X014389Y025003D01*
X014389Y024991D02*
X014518Y024862D01*
X015057Y024862D01*
X015186Y024991D01*
X015186Y025529D01*
X015168Y025547D01*
X015168Y038528D01*
X017406Y040766D01*
X022806Y040766D01*
X022806Y040730D01*
X022935Y040601D01*
X023766Y040601D01*
X023895Y040730D01*
X023895Y041562D01*
X023766Y041691D01*
X022935Y041691D01*
X022806Y041562D01*
X022806Y041526D01*
X017173Y041526D01*
X017033Y041468D01*
X014572Y039007D01*
X014465Y038900D01*
X014408Y038761D01*
X014408Y025547D01*
X014389Y025529D01*
X014389Y024991D01*
X014389Y025322D02*
X014024Y025322D01*
X013904Y025640D02*
X014408Y025640D01*
X014408Y025959D02*
X013519Y025959D01*
X012945Y026418D02*
X013091Y026564D01*
X013171Y026755D01*
X013171Y026962D01*
X013091Y027153D01*
X012945Y027299D01*
X012802Y027358D01*
X012945Y027418D01*
X013091Y027564D01*
X013171Y027755D01*
X013171Y027962D01*
X013091Y028153D01*
X012945Y028299D01*
X012802Y028358D01*
X012945Y028418D01*
X013091Y028564D01*
X013171Y028755D01*
X013171Y028962D01*
X013091Y029153D01*
X012945Y029299D01*
X012754Y029378D01*
X011947Y029378D01*
X011756Y029299D01*
X011610Y029153D01*
X011531Y028962D01*
X011531Y028755D01*
X011610Y028564D01*
X011756Y028418D01*
X011899Y028358D01*
X011756Y028299D01*
X011610Y028153D01*
X011531Y027962D01*
X011531Y027755D01*
X011610Y027564D01*
X011756Y027418D01*
X011899Y027358D01*
X011756Y027299D01*
X011610Y027153D01*
X011531Y026962D01*
X011531Y026755D01*
X011610Y026564D01*
X011756Y026418D01*
X011947Y026338D01*
X012754Y026338D01*
X012945Y026418D01*
X013105Y026596D02*
X014408Y026596D01*
X014408Y026914D02*
X013171Y026914D01*
X013012Y027233D02*
X014408Y027233D01*
X014408Y027551D02*
X013079Y027551D01*
X013171Y027870D02*
X014408Y027870D01*
X014408Y028188D02*
X013056Y028188D01*
X013034Y028507D02*
X014408Y028507D01*
X014408Y028825D02*
X013171Y028825D01*
X013095Y029144D02*
X014408Y029144D01*
X014408Y029462D02*
X007764Y029462D01*
X007764Y029144D02*
X011606Y029144D01*
X011531Y028825D02*
X007764Y028825D01*
X007764Y028507D02*
X011667Y028507D01*
X011645Y028188D02*
X007764Y028188D01*
X007764Y027870D02*
X011531Y027870D01*
X011623Y027551D02*
X007764Y027551D01*
X007764Y027233D02*
X011689Y027233D01*
X011531Y026914D02*
X007764Y026914D01*
X007764Y026596D02*
X011597Y026596D01*
X012443Y025640D02*
X007764Y025640D01*
X007764Y025322D02*
X012323Y025322D01*
X012327Y025003D02*
X007764Y025003D01*
X007764Y024685D02*
X012467Y024685D01*
X012827Y025959D02*
X007764Y025959D01*
X007764Y026277D02*
X014408Y026277D01*
X015168Y026277D02*
X020712Y026277D01*
X020709Y026279D02*
X020737Y026252D01*
X020934Y026055D01*
X021033Y026014D01*
X021871Y026014D01*
X021999Y025886D01*
X022537Y025886D01*
X022666Y026014D01*
X022666Y026553D01*
X022537Y026682D01*
X021999Y026682D01*
X021871Y026554D01*
X021199Y026554D01*
X021119Y026633D01*
X021091Y026661D01*
X021091Y026947D01*
X020962Y027075D01*
X020424Y027075D01*
X020295Y026947D01*
X020295Y026408D01*
X020424Y026279D01*
X020709Y026279D01*
X020295Y026596D02*
X019516Y026596D01*
X019516Y026694D02*
X019741Y026918D01*
X019782Y027017D01*
X019782Y027550D01*
X019821Y027588D01*
X020944Y027588D01*
X021043Y027630D01*
X021119Y027705D01*
X021316Y027902D01*
X021357Y028002D01*
X021357Y029036D01*
X021485Y029164D01*
X021485Y029557D01*
X021674Y029557D01*
X021802Y029429D01*
X022340Y029429D01*
X022469Y029558D01*
X022469Y030096D01*
X022340Y030225D01*
X021802Y030225D01*
X021674Y030097D01*
X019852Y030097D01*
X019753Y030056D01*
X019135Y029438D01*
X018849Y029438D01*
X018720Y029309D01*
X018720Y028770D01*
X018849Y028641D01*
X019135Y028641D01*
X019650Y028126D01*
X019556Y028087D01*
X019359Y027890D01*
X019283Y027815D01*
X019242Y027715D01*
X019242Y027183D01*
X019135Y027075D01*
X018849Y027075D01*
X018720Y026947D01*
X018720Y026408D01*
X018849Y026279D01*
X019388Y026279D01*
X019516Y026408D01*
X019516Y026694D01*
X019737Y026914D02*
X020295Y026914D01*
X019782Y027233D02*
X026692Y027233D01*
X026692Y027551D02*
X019783Y027551D01*
X019242Y027551D02*
X015168Y027551D01*
X015168Y027233D02*
X019242Y027233D01*
X018720Y026914D02*
X015168Y026914D01*
X015168Y026596D02*
X018720Y026596D01*
X019338Y027870D02*
X015168Y027870D01*
X015168Y028188D02*
X019588Y028188D01*
X019269Y028507D02*
X015168Y028507D01*
X015168Y028825D02*
X018720Y028825D01*
X018720Y029144D02*
X015168Y029144D01*
X015168Y029462D02*
X019159Y029462D01*
X019040Y029748D02*
X019040Y029788D01*
X019040Y029945D01*
X019040Y031166D01*
X019276Y031402D01*
X019394Y031402D01*
X022780Y031402D01*
X023134Y031756D01*
X023134Y032386D01*
X023555Y032807D01*
X023764Y033016D01*
X026166Y033016D01*
X026638Y033488D01*
X026876Y033284D02*
X025605Y033284D01*
X025619Y033298D02*
X025619Y033836D01*
X025521Y033934D01*
X025521Y037170D01*
X025475Y037280D01*
X024884Y037871D01*
X024688Y038068D01*
X024585Y038170D01*
X024634Y038219D01*
X024634Y038406D01*
X025115Y038886D01*
X025167Y039011D01*
X025167Y039342D01*
X025225Y039400D01*
X025225Y039939D01*
X025096Y040068D01*
X024558Y040068D01*
X024429Y039939D01*
X024429Y039400D01*
X024487Y039342D01*
X024487Y039220D01*
X024154Y038886D01*
X024044Y038886D01*
X024044Y038954D01*
X023915Y039083D01*
X023895Y039083D01*
X023895Y039790D01*
X023766Y039919D01*
X022935Y039919D01*
X022806Y039790D01*
X022806Y038958D01*
X022935Y038829D01*
X023248Y038829D01*
X023248Y038416D01*
X023376Y038288D01*
X023376Y037813D01*
X023325Y037762D01*
X023325Y037952D01*
X023284Y038051D01*
X023257Y038078D01*
X023257Y038364D01*
X023128Y038493D01*
X022589Y038493D01*
X022460Y038364D01*
X022460Y037825D01*
X022589Y037697D01*
X022669Y037697D01*
X019677Y034704D01*
X019636Y034605D01*
X019636Y034555D01*
X019508Y034427D01*
X019508Y033888D01*
X019636Y033760D01*
X020175Y033760D01*
X020226Y033811D01*
X020226Y033768D01*
X020098Y033639D01*
X020098Y033101D01*
X020227Y032972D01*
X020765Y032972D01*
X020894Y033101D01*
X020894Y033639D01*
X020766Y033768D01*
X020766Y034440D01*
X023875Y037548D01*
X023916Y037647D01*
X023916Y038142D01*
X023936Y038121D01*
X023936Y038035D01*
X023982Y037925D01*
X024066Y037840D01*
X024263Y037643D01*
X024460Y037447D01*
X024921Y036986D01*
X024921Y033934D01*
X024823Y033836D01*
X024823Y033298D01*
X024951Y033169D01*
X025490Y033169D01*
X025619Y033298D01*
X025619Y033603D02*
X027194Y033603D01*
X026692Y032966D02*
X019910Y032966D01*
X019910Y033049D02*
X019910Y032763D01*
X020411Y032262D01*
X022263Y032262D01*
X022263Y032458D01*
X022392Y032587D01*
X022931Y032587D01*
X023060Y032458D01*
X023060Y031920D01*
X022931Y031791D01*
X022724Y031791D01*
X022696Y031763D01*
X022597Y031722D01*
X020246Y031722D01*
X020146Y031763D01*
X020070Y031839D01*
X020070Y031839D01*
X019528Y032382D01*
X019243Y032382D01*
X019114Y032510D01*
X019114Y033049D01*
X019243Y033178D01*
X019781Y033178D01*
X019910Y033049D01*
X020098Y033284D02*
X015168Y033284D01*
X015168Y032966D02*
X019114Y032966D01*
X019114Y032647D02*
X015168Y032647D01*
X015168Y032329D02*
X019581Y032329D01*
X019900Y032010D02*
X015168Y032010D01*
X015168Y031692D02*
X023248Y031692D01*
X023248Y031582D02*
X023023Y031358D01*
X022982Y031259D01*
X022982Y030421D01*
X022854Y030293D01*
X022854Y029755D01*
X022983Y029626D01*
X023521Y029626D01*
X023650Y029755D01*
X023650Y030293D01*
X023522Y030421D01*
X023522Y031093D01*
X023630Y031200D01*
X023915Y031200D01*
X024044Y031329D01*
X024044Y031868D01*
X023915Y031997D01*
X023377Y031997D01*
X023248Y031868D01*
X023248Y031582D01*
X023038Y031373D02*
X015168Y031373D01*
X015168Y031055D02*
X022982Y031055D01*
X022982Y030736D02*
X015168Y030736D01*
X015168Y030418D02*
X022979Y030418D01*
X022854Y030099D02*
X022466Y030099D01*
X022469Y029781D02*
X022854Y029781D01*
X022373Y029462D02*
X026692Y029462D01*
X026692Y029144D02*
X021464Y029144D01*
X021485Y029462D02*
X021769Y029462D01*
X021676Y030099D02*
X015168Y030099D01*
X015168Y029781D02*
X019477Y029781D01*
X019040Y029748D02*
X018410Y029118D01*
X016874Y029118D01*
X016756Y029000D01*
X016756Y028882D01*
X016835Y029000D02*
X016914Y029079D01*
X016914Y029118D01*
X016874Y029118D01*
X016914Y029118D02*
X016835Y029040D01*
X016835Y029000D01*
X016914Y029118D02*
X016559Y029118D01*
X016599Y029118D01*
X016677Y029040D01*
X016638Y029040D01*
X016559Y029118D01*
X017032Y029118D01*
X015811Y029118D01*
X014408Y029781D02*
X007764Y029781D01*
X007764Y030099D02*
X011618Y030099D01*
X011610Y030107D02*
X011756Y029961D01*
X011947Y029882D01*
X012754Y029882D01*
X012945Y029961D01*
X013091Y030107D01*
X013171Y030298D01*
X013171Y030505D01*
X013091Y030696D01*
X012945Y030843D01*
X012802Y030902D01*
X012945Y030961D01*
X013091Y031107D01*
X013171Y031298D01*
X013171Y031505D01*
X013091Y031696D01*
X012945Y031843D01*
X012802Y031902D01*
X012945Y031961D01*
X013091Y032107D01*
X013171Y032298D01*
X013171Y032505D01*
X013091Y032696D01*
X012945Y032843D01*
X012754Y032922D01*
X011947Y032922D01*
X011756Y032843D01*
X011610Y032696D01*
X011531Y032505D01*
X011531Y032298D01*
X011610Y032107D01*
X011756Y031961D01*
X011899Y031902D01*
X011756Y031843D01*
X011610Y031696D01*
X011531Y031505D01*
X011531Y031298D01*
X011610Y031107D01*
X011756Y030961D01*
X011899Y030902D01*
X011756Y030843D01*
X011610Y030696D01*
X011531Y030505D01*
X011531Y030298D01*
X011610Y030107D01*
X011531Y030418D02*
X007764Y030418D01*
X007764Y030736D02*
X011649Y030736D01*
X011662Y031055D02*
X007764Y031055D01*
X007764Y031373D02*
X011531Y031373D01*
X011608Y031692D02*
X007764Y031692D01*
X007764Y032010D02*
X011707Y032010D01*
X011531Y032329D02*
X007764Y032329D01*
X007764Y032647D02*
X011589Y032647D01*
X011947Y033425D02*
X011756Y033504D01*
X011610Y033650D01*
X011531Y033842D01*
X011531Y034048D01*
X011610Y034240D01*
X011756Y034386D01*
X011899Y034445D01*
X011756Y034504D01*
X011610Y034650D01*
X011531Y034842D01*
X011531Y035048D01*
X011610Y035240D01*
X011756Y035386D01*
X011899Y035445D01*
X011756Y035504D01*
X011610Y035650D01*
X011531Y035842D01*
X011531Y036048D01*
X011610Y036240D01*
X011756Y036386D01*
X011947Y036465D01*
X012754Y036465D01*
X012945Y036386D01*
X013091Y036240D01*
X013171Y036048D01*
X013171Y035842D01*
X013091Y035650D01*
X012945Y035504D01*
X012802Y035445D01*
X012945Y035386D01*
X013091Y035240D01*
X013171Y035048D01*
X013171Y034842D01*
X013091Y034650D01*
X012945Y034504D01*
X012802Y034445D01*
X012945Y034386D01*
X013091Y034240D01*
X013171Y034048D01*
X013171Y033842D01*
X013091Y033650D01*
X012945Y033504D01*
X012754Y033425D01*
X011947Y033425D01*
X011658Y033603D02*
X007764Y033603D01*
X007764Y033921D02*
X011531Y033921D01*
X011610Y034240D02*
X007764Y034240D01*
X007764Y034558D02*
X011702Y034558D01*
X011531Y034877D02*
X007764Y034877D01*
X007764Y035195D02*
X011591Y035195D01*
X011747Y035514D02*
X007764Y035514D01*
X007764Y035832D02*
X011535Y035832D01*
X011573Y036151D02*
X007764Y036151D01*
X007764Y036469D02*
X014408Y036469D01*
X014408Y036151D02*
X013128Y036151D01*
X013167Y035832D02*
X014408Y035832D01*
X014408Y035514D02*
X012954Y035514D01*
X013110Y035195D02*
X014408Y035195D01*
X014408Y034877D02*
X013171Y034877D01*
X012999Y034558D02*
X014408Y034558D01*
X014408Y034240D02*
X013091Y034240D01*
X013171Y033921D02*
X014408Y033921D01*
X014408Y033603D02*
X013043Y033603D01*
X013112Y032647D02*
X014408Y032647D01*
X014408Y032329D02*
X013171Y032329D01*
X012994Y032010D02*
X014408Y032010D01*
X014408Y031692D02*
X013093Y031692D01*
X013171Y031373D02*
X014408Y031373D01*
X014408Y031055D02*
X013039Y031055D01*
X013052Y030736D02*
X014408Y030736D01*
X014408Y030418D02*
X013171Y030418D01*
X013083Y030099D02*
X014408Y030099D01*
X014408Y032966D02*
X007764Y032966D01*
X007764Y033284D02*
X014408Y033284D01*
X015168Y033603D02*
X020098Y033603D01*
X019508Y033921D02*
X015168Y033921D01*
X015168Y034240D02*
X019508Y034240D01*
X019636Y034558D02*
X015168Y034558D01*
X015168Y034877D02*
X019849Y034877D01*
X020168Y035195D02*
X015168Y035195D01*
X015168Y035514D02*
X020486Y035514D01*
X020805Y035832D02*
X015168Y035832D01*
X015168Y036151D02*
X017539Y036151D01*
X017539Y036054D02*
X017668Y035925D01*
X018206Y035925D01*
X018305Y036023D01*
X019341Y036023D01*
X019440Y035925D01*
X019978Y035925D01*
X020107Y036054D01*
X020107Y036592D01*
X019978Y036721D01*
X019440Y036721D01*
X019341Y036623D01*
X018305Y036623D01*
X018206Y036721D01*
X017668Y036721D01*
X017539Y036592D01*
X017539Y036054D01*
X017539Y036469D02*
X015168Y036469D01*
X015168Y036788D02*
X021760Y036788D01*
X022079Y037106D02*
X015168Y037106D01*
X015168Y037425D02*
X022397Y037425D01*
X022543Y037743D02*
X015168Y037743D01*
X015168Y038062D02*
X022460Y038062D01*
X022476Y038380D02*
X015168Y038380D01*
X015338Y038699D02*
X023248Y038699D01*
X023240Y038380D02*
X023284Y038380D01*
X023273Y038062D02*
X023376Y038062D01*
X023916Y038062D02*
X023936Y038062D01*
X023916Y037743D02*
X024164Y037743D01*
X024482Y037425D02*
X023751Y037425D01*
X023433Y037106D02*
X024801Y037106D01*
X024921Y036788D02*
X023114Y036788D01*
X022796Y036469D02*
X024921Y036469D01*
X024921Y036151D02*
X022477Y036151D01*
X022159Y035832D02*
X024921Y035832D01*
X024921Y035514D02*
X021840Y035514D01*
X021522Y035195D02*
X024921Y035195D01*
X024921Y034877D02*
X021203Y034877D01*
X020885Y034558D02*
X024921Y034558D01*
X024921Y034240D02*
X020766Y034240D01*
X020766Y033921D02*
X024907Y033921D01*
X024823Y033603D02*
X020894Y033603D01*
X020894Y033284D02*
X024836Y033284D01*
X025534Y033921D02*
X027986Y033921D01*
X027699Y034240D02*
X025521Y034240D01*
X025521Y034558D02*
X027677Y034558D01*
X027677Y034877D02*
X025521Y034877D01*
X025521Y035195D02*
X027677Y035195D01*
X027677Y035514D02*
X025521Y035514D01*
X025521Y035832D02*
X027677Y035832D01*
X027677Y036151D02*
X025521Y036151D01*
X025521Y036469D02*
X027677Y036469D01*
X027677Y036788D02*
X025521Y036788D01*
X025521Y037106D02*
X027677Y037106D01*
X027435Y037425D02*
X025331Y037425D01*
X025012Y037743D02*
X026526Y037743D01*
X026207Y038062D02*
X024694Y038062D01*
X024634Y038380D02*
X025889Y038380D01*
X025620Y038699D02*
X024927Y038699D01*
X025167Y039017D02*
X025365Y039017D01*
X025365Y039336D02*
X025167Y039336D01*
X025225Y039654D02*
X025365Y039654D01*
X025191Y039973D02*
X029437Y039973D01*
X029118Y040291D02*
X016931Y040291D01*
X017249Y040610D02*
X022926Y040610D01*
X023351Y041146D02*
X017248Y041146D01*
X014788Y038685D01*
X014788Y025260D01*
X015186Y025322D02*
X027362Y025322D01*
X027362Y025640D02*
X015168Y025640D01*
X015168Y025959D02*
X021926Y025959D01*
X021912Y026596D02*
X021157Y026596D01*
X021091Y026914D02*
X026692Y026914D01*
X026594Y026596D02*
X022623Y026596D01*
X022666Y026277D02*
X026594Y026277D01*
X027362Y025959D02*
X022610Y025959D01*
X023566Y023729D02*
X023974Y023729D01*
X024317Y023729D02*
X024974Y023729D01*
X025317Y023729D02*
X025974Y023729D01*
X026317Y023729D02*
X026788Y023729D01*
X026637Y023411D02*
X027106Y023411D01*
X027425Y023092D02*
X026666Y023092D01*
X026666Y022774D02*
X028536Y022774D01*
X028381Y022455D02*
X026633Y022455D01*
X026296Y022137D02*
X028433Y022137D01*
X029236Y022137D02*
X029236Y022137D01*
X029236Y022382D02*
X029236Y022382D01*
X030137Y021181D02*
X030307Y021181D01*
X027362Y024366D02*
X027338Y024366D01*
X027362Y024685D02*
X027020Y024685D01*
X027362Y025003D02*
X015186Y025003D01*
X012513Y022137D02*
X020895Y022137D01*
X021146Y022137D02*
X021146Y022137D01*
X021397Y022137D02*
X021895Y022137D01*
X022146Y022137D02*
X022146Y022137D01*
X022397Y022137D02*
X022996Y022137D01*
X023296Y022137D02*
X023996Y022137D01*
X024296Y022137D02*
X024996Y022137D01*
X025296Y022137D02*
X025996Y022137D01*
X025658Y022455D02*
X025633Y022455D01*
X025637Y023411D02*
X025655Y023411D01*
X024655Y023411D02*
X024637Y023411D01*
X024633Y022455D02*
X024658Y022455D01*
X023658Y022455D02*
X023633Y022455D01*
X023637Y023411D02*
X023655Y023411D01*
X022146Y023411D02*
X022146Y023411D01*
X022146Y023092D02*
X022146Y023092D01*
X022146Y022774D02*
X022146Y022774D01*
X022146Y022455D02*
X022146Y022455D01*
X021146Y022455D02*
X021146Y022455D01*
X021146Y022774D02*
X021146Y022774D01*
X021146Y023092D02*
X021146Y023092D01*
X021146Y023411D02*
X021146Y023411D01*
X021283Y027870D02*
X026692Y027870D01*
X026692Y028188D02*
X021357Y028188D01*
X021357Y028507D02*
X026692Y028507D01*
X026692Y028825D02*
X021357Y028825D01*
X023526Y030418D02*
X026692Y030418D01*
X026692Y030736D02*
X023522Y030736D01*
X023522Y031055D02*
X026692Y031055D01*
X026692Y031373D02*
X024044Y031373D01*
X024044Y031692D02*
X026692Y031692D01*
X026692Y032010D02*
X023060Y032010D01*
X023060Y032329D02*
X026692Y032329D01*
X026692Y032647D02*
X020026Y032647D01*
X020345Y032329D02*
X022263Y032329D01*
X023650Y030099D02*
X026692Y030099D01*
X026692Y029781D02*
X023650Y029781D01*
X021123Y036151D02*
X020107Y036151D01*
X020107Y036469D02*
X021442Y036469D01*
X022806Y039017D02*
X015657Y039017D01*
X015975Y039336D02*
X022806Y039336D01*
X022806Y039654D02*
X016294Y039654D01*
X016612Y039973D02*
X024463Y039973D01*
X024429Y039654D02*
X023895Y039654D01*
X023895Y039336D02*
X024487Y039336D01*
X024284Y039017D02*
X023981Y039017D01*
X023775Y040610D02*
X025485Y040610D01*
X025494Y040601D02*
X026326Y040601D01*
X027152Y040601D01*
X027281Y040730D01*
X027281Y041562D01*
X027152Y041691D01*
X025494Y041691D01*
X025365Y041562D01*
X025365Y040730D01*
X025494Y040601D01*
X025365Y040928D02*
X023895Y040928D01*
X023895Y041247D02*
X025365Y041247D01*
X025368Y041565D02*
X023892Y041565D01*
X022809Y041565D02*
X007764Y041565D01*
X007764Y041247D02*
X016812Y041247D01*
X016493Y040928D02*
X010298Y040928D01*
X010276Y040980D02*
X010153Y041103D01*
X009993Y041170D01*
X009819Y041170D01*
X009658Y041103D01*
X009535Y040980D01*
X009469Y040819D01*
X009469Y040645D01*
X009535Y040485D01*
X009578Y040442D01*
X009468Y040332D01*
X009468Y039794D01*
X009597Y039665D01*
X009840Y039665D01*
X009893Y039612D01*
X010003Y039566D01*
X010766Y039566D01*
X012047Y038285D01*
X012047Y037478D01*
X011949Y037380D01*
X011949Y036841D01*
X012077Y036712D01*
X012616Y036712D01*
X012745Y036841D01*
X012745Y037380D01*
X012647Y037478D01*
X012647Y038469D01*
X012601Y038580D01*
X011144Y040036D01*
X011060Y040121D01*
X010950Y040166D01*
X010264Y040166D01*
X010264Y040332D01*
X010194Y040403D01*
X010276Y040485D01*
X010343Y040645D01*
X010343Y040819D01*
X010276Y040980D01*
X010328Y040610D02*
X016175Y040610D01*
X015856Y040291D02*
X010264Y040291D01*
X009851Y039654D02*
X007764Y039654D01*
X007764Y039336D02*
X009623Y039336D01*
X009658Y039371D02*
X009535Y039248D01*
X009469Y039087D01*
X009469Y038913D01*
X009535Y038753D01*
X009658Y038630D01*
X009819Y038563D01*
X009993Y038563D01*
X010153Y038630D01*
X010276Y038753D01*
X010343Y038913D01*
X010343Y039087D01*
X010276Y039248D01*
X010153Y039371D01*
X009993Y039437D01*
X009819Y039437D01*
X009658Y039371D01*
X009469Y039017D02*
X007764Y039017D01*
X007764Y038699D02*
X009589Y038699D01*
X010222Y038699D02*
X011633Y038699D01*
X011315Y039017D02*
X010343Y039017D01*
X010189Y039336D02*
X010996Y039336D01*
X011526Y039654D02*
X015219Y039654D01*
X014901Y039336D02*
X011845Y039336D01*
X012163Y039017D02*
X014582Y039017D01*
X014408Y038699D02*
X012482Y038699D01*
X012647Y038380D02*
X014408Y038380D01*
X014408Y038062D02*
X012647Y038062D01*
X012647Y037743D02*
X014408Y037743D01*
X014408Y037425D02*
X012700Y037425D01*
X012745Y037106D02*
X014408Y037106D01*
X014408Y036788D02*
X012691Y036788D01*
X012002Y036788D02*
X007764Y036788D01*
X007764Y037106D02*
X011949Y037106D01*
X011993Y037425D02*
X007764Y037425D01*
X007764Y037743D02*
X012047Y037743D01*
X012047Y038062D02*
X007764Y038062D01*
X007764Y038380D02*
X011952Y038380D01*
X011208Y039973D02*
X015538Y039973D01*
X013602Y044486D02*
X013447Y044550D01*
X013132Y044865D01*
X013132Y044865D01*
X013014Y044983D01*
X012950Y045137D01*
X012950Y048826D01*
X012566Y049210D01*
X010137Y049210D01*
X009983Y049274D01*
X009865Y049392D01*
X008014Y051243D01*
X007950Y051397D01*
X007950Y059950D01*
X008014Y060104D01*
X008132Y060222D01*
X008132Y060222D01*
X009707Y061797D01*
X009707Y061797D01*
X009746Y061836D01*
X009746Y061836D01*
X009865Y061955D01*
X009865Y061955D01*
X010140Y062230D01*
X010258Y062348D01*
X010298Y062388D01*
X010452Y062452D01*
X016288Y062452D01*
X016443Y062388D01*
X016561Y062270D01*
X016625Y062115D01*
X016625Y059428D01*
X016561Y059274D01*
X016550Y059263D01*
X020023Y059263D01*
X020048Y059273D01*
X023267Y059273D01*
X023440Y059202D01*
X023572Y059070D01*
X024753Y057888D01*
X026830Y055811D01*
X026830Y056238D01*
X026959Y056367D01*
X027498Y056367D01*
X027627Y056238D01*
X027627Y055699D01*
X027615Y055687D01*
X027815Y055687D01*
X027815Y056041D01*
X027943Y056169D01*
X027943Y057314D01*
X027866Y057391D01*
X026685Y058572D01*
X026644Y058671D01*
X026644Y061613D01*
X026673Y061684D01*
X026673Y061986D01*
X026802Y062115D01*
X027340Y062115D01*
X027358Y062097D01*
X030496Y062097D01*
X032185Y063785D01*
X032185Y063915D01*
X032314Y064044D01*
X032322Y064044D01*
X032322Y067249D01*
X032368Y067359D01*
X032452Y067443D01*
X032492Y067483D01*
X032570Y067562D01*
X032925Y067916D01*
X033035Y067962D01*
X034135Y067962D01*
X034074Y068022D01*
X034074Y068561D01*
X034173Y068659D01*
X034173Y070126D01*
X033855Y069809D01*
X033745Y069763D01*
X032529Y069763D01*
X032529Y067759D01*
X032483Y067649D01*
X032398Y067565D01*
X032123Y067289D01*
X032013Y067243D01*
X031421Y067243D01*
X031311Y067289D01*
X031226Y067374D01*
X030894Y067705D01*
X030894Y067235D01*
X030765Y067106D01*
X030227Y067106D01*
X030099Y067234D01*
X017608Y067234D01*
X017509Y067275D01*
X017442Y067342D01*
X017156Y067342D01*
X017027Y067471D01*
X017027Y068010D01*
X017156Y068138D01*
X017695Y068138D01*
X017823Y068010D01*
X017823Y067774D01*
X018230Y067774D01*
X017796Y068208D01*
X017510Y068208D01*
X017382Y068337D01*
X017382Y068876D01*
X017510Y069005D01*
X018049Y069005D01*
X018178Y068876D01*
X018178Y068590D01*
X018521Y068247D01*
X029328Y068247D01*
X029263Y068273D01*
X029179Y068358D01*
X028935Y068602D01*
X028573Y068602D01*
X028475Y068700D01*
X027478Y068700D01*
X027380Y068602D01*
X026841Y068602D01*
X026712Y068731D01*
X026712Y069269D01*
X026840Y069398D01*
X026840Y070650D01*
X026712Y070778D01*
X026712Y070787D01*
X025673Y070787D01*
X025563Y070832D01*
X025478Y070917D01*
X025006Y071389D01*
X024960Y071500D01*
X024960Y075713D01*
X025006Y075824D01*
X025090Y075908D01*
X026940Y077758D01*
X027051Y077804D01*
X027176Y077804D01*
X027274Y077902D01*
X027813Y077902D01*
X027942Y077773D01*
X027942Y077235D01*
X027813Y077106D01*
X027274Y077106D01*
X027205Y077175D01*
X025560Y075529D01*
X025560Y071683D01*
X025857Y071387D01*
X026782Y071387D01*
X026841Y071446D01*
X027380Y071446D01*
X027509Y071317D01*
X027509Y070778D01*
X027380Y070650D01*
X027380Y069398D01*
X027478Y069300D01*
X028475Y069300D01*
X028573Y069398D01*
X029112Y069398D01*
X029241Y069269D01*
X029241Y069144D01*
X029242Y069143D01*
X029242Y071298D01*
X029271Y071369D01*
X029271Y071671D01*
X029400Y071800D01*
X029939Y071800D01*
X030068Y071671D01*
X030068Y071132D01*
X029939Y071004D01*
X029782Y071004D01*
X029782Y069230D01*
X029821Y069191D01*
X031219Y069191D01*
X031290Y069162D01*
X031592Y069162D01*
X031721Y069033D01*
X031721Y068495D01*
X031592Y068366D01*
X031524Y068366D01*
X031524Y067944D01*
X031514Y067934D01*
X031605Y067843D01*
X031829Y067843D01*
X031929Y067943D01*
X031929Y069763D01*
X031690Y069763D01*
X031592Y069665D01*
X031054Y069665D01*
X030925Y069794D01*
X030925Y070332D01*
X031054Y070461D01*
X031592Y070461D01*
X031690Y070363D01*
X033561Y070363D01*
X034074Y070877D01*
X034074Y071120D01*
X034203Y071249D01*
X034742Y071249D01*
X034871Y071120D01*
X034871Y070581D01*
X034773Y070483D01*
X034773Y068659D01*
X034871Y068561D01*
X034871Y068022D01*
X034810Y067962D01*
X036868Y067962D01*
X037519Y068613D01*
X037519Y071664D01*
X037421Y071762D01*
X037421Y072301D01*
X037550Y072430D01*
X038088Y072430D01*
X038217Y072301D01*
X038217Y071762D01*
X038119Y071664D01*
X038119Y068429D01*
X038073Y068318D01*
X037247Y067492D01*
X037162Y067407D01*
X037052Y067362D01*
X033219Y067362D01*
X032995Y067137D01*
X032922Y067065D01*
X032922Y063974D01*
X032981Y063915D01*
X032981Y063377D01*
X032852Y063248D01*
X032722Y063248D01*
X030869Y061395D01*
X030729Y061337D01*
X027358Y061337D01*
X027340Y061319D01*
X027184Y061319D01*
X027184Y058836D01*
X028248Y057772D01*
X028326Y057694D01*
X028366Y057654D01*
X028442Y057578D01*
X028483Y057479D01*
X028483Y056169D01*
X028611Y056041D01*
X028611Y055687D01*
X031487Y055687D01*
X031515Y055716D01*
X031515Y056002D01*
X031644Y056131D01*
X032183Y056131D01*
X032312Y056002D01*
X032312Y055463D01*
X032303Y055454D01*
X036879Y055454D01*
X036822Y055511D01*
X036059Y055511D01*
X035934Y055562D01*
X035838Y055658D01*
X035759Y055737D01*
X035523Y055973D01*
X034952Y056544D01*
X034900Y056669D01*
X034900Y058496D01*
X034842Y058554D01*
X034842Y059092D01*
X034971Y059221D01*
X035510Y059221D01*
X035638Y059092D01*
X035638Y058554D01*
X035580Y058496D01*
X035580Y057237D01*
X035580Y056877D01*
X036004Y056454D01*
X036240Y056218D01*
X036267Y056191D01*
X036822Y056191D01*
X036881Y056249D01*
X037419Y056249D01*
X037548Y056120D01*
X037548Y055581D01*
X037421Y055454D01*
X040302Y055454D01*
X041200Y056353D01*
X041332Y056485D01*
X041332Y056485D01*
X041372Y056525D01*
X043419Y058572D01*
X043592Y058643D01*
X044850Y058643D01*
X044904Y058698D01*
X045695Y058698D01*
X045707Y058685D01*
X045707Y058842D01*
X045695Y058830D01*
X044904Y058830D01*
X044775Y058959D01*
X044775Y059750D01*
X044904Y059879D01*
X045695Y059879D01*
X045707Y059866D01*
X045707Y059880D01*
X041717Y059880D01*
X038908Y057071D01*
X038908Y056335D01*
X038926Y056317D01*
X038926Y055778D01*
X038797Y055649D01*
X038258Y055649D01*
X038130Y055778D01*
X038130Y056317D01*
X038148Y056335D01*
X038148Y057304D01*
X038206Y057444D01*
X041237Y060475D01*
X041344Y060582D01*
X041484Y060640D01*
X047383Y060640D01*
X047522Y060582D01*
X047629Y060475D01*
X047687Y060336D01*
X047687Y059213D01*
X047699Y059225D01*
X048012Y059355D01*
X048350Y059355D01*
X048663Y059225D01*
X048902Y058986D01*
X049032Y058673D01*
X049032Y058335D01*
X048902Y058022D01*
X048663Y057783D01*
X048350Y057654D01*
X048012Y057654D01*
X047699Y057783D01*
X047687Y057795D01*
X047687Y047914D01*
X047699Y047926D01*
X048012Y048055D01*
X048350Y048055D01*
X048663Y047926D01*
X048902Y047687D01*
X049032Y047374D01*
X049032Y047036D01*
X048902Y046723D01*
X048663Y046484D01*
X048350Y046354D01*
X048012Y046354D01*
X047699Y046484D01*
X047687Y046496D01*
X047687Y044791D01*
X047629Y044651D01*
X047522Y044544D01*
X047383Y044486D01*
X047314Y044486D01*
X047312Y044486D01*
X013602Y044486D01*
X013247Y044750D02*
X007764Y044750D01*
X007764Y044432D02*
X050551Y044432D01*
X050551Y044750D02*
X047670Y044750D01*
X047687Y045069D02*
X050551Y045069D01*
X050551Y045387D02*
X047687Y045387D01*
X047687Y045706D02*
X050551Y045706D01*
X050551Y046024D02*
X047687Y046024D01*
X047687Y046343D02*
X050551Y046343D01*
X050551Y046661D02*
X048840Y046661D01*
X049009Y046980D02*
X050551Y046980D01*
X050551Y047298D02*
X049032Y047298D01*
X048931Y047617D02*
X050551Y047617D01*
X050551Y047935D02*
X048641Y047935D01*
X047721Y047935D02*
X047687Y047935D01*
X047687Y048254D02*
X050551Y048254D01*
X050551Y048572D02*
X047687Y048572D01*
X047687Y048891D02*
X050551Y048891D01*
X050551Y049209D02*
X047687Y049209D01*
X047687Y049528D02*
X050551Y049528D01*
X050551Y049846D02*
X047687Y049846D01*
X047687Y050165D02*
X050551Y050165D01*
X050551Y050483D02*
X047687Y050483D01*
X047687Y050802D02*
X050551Y050802D01*
X050551Y051120D02*
X047687Y051120D01*
X047687Y051439D02*
X050551Y051439D01*
X050551Y051757D02*
X047687Y051757D01*
X047687Y052076D02*
X050551Y052076D01*
X050551Y052394D02*
X047687Y052394D01*
X047687Y052713D02*
X050551Y052713D01*
X050551Y053031D02*
X047687Y053031D01*
X047687Y053350D02*
X050551Y053350D01*
X050551Y053668D02*
X047687Y053668D01*
X047687Y053987D02*
X050551Y053987D01*
X050551Y054305D02*
X047687Y054305D01*
X047687Y054624D02*
X050551Y054624D01*
X050551Y054942D02*
X047687Y054942D01*
X047687Y055261D02*
X050551Y055261D01*
X050551Y055579D02*
X047687Y055579D01*
X047687Y055898D02*
X050551Y055898D01*
X050551Y056216D02*
X047687Y056216D01*
X047687Y056535D02*
X050551Y056535D01*
X050551Y056853D02*
X047687Y056853D01*
X047687Y057172D02*
X050551Y057172D01*
X050551Y057490D02*
X047687Y057490D01*
X048689Y057809D02*
X050551Y057809D01*
X050551Y058127D02*
X048946Y058127D01*
X049032Y058446D02*
X050551Y058446D01*
X050551Y058764D02*
X048994Y058764D01*
X048806Y059083D02*
X050551Y059083D01*
X050551Y059401D02*
X047687Y059401D01*
X047687Y059720D02*
X050551Y059720D01*
X050551Y060038D02*
X047687Y060038D01*
X047679Y060357D02*
X050551Y060357D01*
X050551Y060675D02*
X027184Y060675D01*
X027184Y060357D02*
X028012Y060357D01*
X028125Y060469D02*
X027885Y060230D01*
X027756Y059917D01*
X027756Y059579D01*
X027885Y059266D01*
X028125Y059027D01*
X028437Y058898D01*
X028776Y058898D01*
X029088Y059027D01*
X029328Y059266D01*
X029457Y059579D01*
X029457Y059917D01*
X029328Y060230D01*
X029088Y060469D01*
X028776Y060599D01*
X028437Y060599D01*
X028125Y060469D01*
X027806Y060038D02*
X027184Y060038D01*
X027184Y059720D02*
X027756Y059720D01*
X027830Y059401D02*
X027184Y059401D01*
X027184Y059083D02*
X028069Y059083D01*
X027574Y058446D02*
X034900Y058446D01*
X034900Y058127D02*
X027893Y058127D01*
X028211Y057809D02*
X034900Y057809D01*
X034900Y057490D02*
X028478Y057490D01*
X028483Y057172D02*
X034900Y057172D01*
X034900Y056853D02*
X028483Y056853D01*
X028483Y056535D02*
X034961Y056535D01*
X035280Y056216D02*
X028483Y056216D01*
X028611Y055898D02*
X031515Y055898D01*
X032312Y055898D02*
X035598Y055898D01*
X035917Y055579D02*
X032312Y055579D01*
X034842Y058764D02*
X027256Y058764D01*
X026811Y058446D02*
X024196Y058446D01*
X023877Y058764D02*
X026644Y058764D01*
X026644Y059083D02*
X023559Y059083D01*
X024514Y058127D02*
X027129Y058127D01*
X027448Y057809D02*
X024833Y057809D01*
X025151Y057490D02*
X027766Y057490D01*
X027943Y057172D02*
X025470Y057172D01*
X025788Y056853D02*
X027943Y056853D01*
X027943Y056535D02*
X026107Y056535D01*
X026425Y056216D02*
X026830Y056216D01*
X026830Y055898D02*
X026744Y055898D01*
X027627Y055898D02*
X027815Y055898D01*
X027943Y056216D02*
X027627Y056216D01*
X029144Y059083D02*
X034842Y059083D01*
X035638Y059083D02*
X038698Y059083D01*
X039016Y059401D02*
X029383Y059401D01*
X029457Y059720D02*
X039335Y059720D01*
X039626Y060011D02*
X037459Y057843D01*
X036375Y057843D01*
X036277Y057942D01*
X035739Y057942D01*
X035610Y057813D01*
X035610Y057274D01*
X035739Y057145D01*
X036277Y057145D01*
X036375Y057243D01*
X037643Y057243D01*
X037753Y057289D01*
X040050Y059586D01*
X040293Y059586D01*
X040422Y059715D01*
X040422Y060254D01*
X040293Y060383D01*
X039755Y060383D01*
X039626Y060254D01*
X039626Y060011D01*
X039626Y060038D02*
X029407Y060038D01*
X029201Y060357D02*
X039729Y060357D01*
X040319Y060357D02*
X041118Y060357D01*
X040800Y060038D02*
X040422Y060038D01*
X040422Y059720D02*
X040481Y059720D01*
X040163Y059401D02*
X039865Y059401D01*
X039844Y059083D02*
X039546Y059083D01*
X039526Y058764D02*
X039228Y058764D01*
X039207Y058446D02*
X038909Y058446D01*
X038889Y058127D02*
X038591Y058127D01*
X038570Y057809D02*
X038272Y057809D01*
X038252Y057490D02*
X037954Y057490D01*
X038148Y057172D02*
X036303Y057172D01*
X035713Y057172D02*
X035580Y057172D01*
X035580Y057490D02*
X035610Y057490D01*
X035610Y057809D02*
X035580Y057809D01*
X035580Y058127D02*
X037742Y058127D01*
X038061Y058446D02*
X035580Y058446D01*
X035638Y058764D02*
X038379Y058764D01*
X038528Y057229D02*
X041559Y060260D01*
X046047Y060260D01*
X046874Y060260D01*
X046874Y045299D01*
X047307Y044866D01*
X047307Y060221D01*
X047307Y060260D01*
X046087Y060260D01*
X046087Y045614D01*
X046166Y045614D01*
X046205Y045654D01*
X046205Y059945D01*
X046362Y060103D01*
X046362Y045890D01*
X046480Y045772D01*
X046480Y059906D01*
X046638Y060063D01*
X046638Y045732D01*
X047071Y045299D01*
X047071Y045358D01*
X047071Y060024D01*
X046480Y059827D01*
X046480Y059354D01*
X045707Y058764D02*
X040601Y058764D01*
X040919Y059083D02*
X044775Y059083D01*
X044775Y059401D02*
X041238Y059401D01*
X041556Y059720D02*
X044775Y059720D01*
X043293Y058446D02*
X040282Y058446D01*
X039964Y058127D02*
X042974Y058127D01*
X042656Y057809D02*
X039645Y057809D01*
X039327Y057490D02*
X042337Y057490D01*
X042019Y057172D02*
X039008Y057172D01*
X038908Y056853D02*
X041700Y056853D01*
X041382Y056535D02*
X038908Y056535D01*
X038926Y056216D02*
X041063Y056216D01*
X040745Y055898D02*
X038926Y055898D01*
X038528Y056047D02*
X038528Y057229D01*
X038148Y056853D02*
X035604Y056853D01*
X035923Y056535D02*
X038148Y056535D01*
X038130Y056216D02*
X037452Y056216D01*
X037548Y055898D02*
X038130Y055898D01*
X037546Y055579D02*
X040426Y055579D01*
X036848Y056216D02*
X036241Y056216D01*
X032060Y062586D02*
X046164Y062586D01*
X046252Y062498D02*
X046579Y062362D01*
X046933Y062362D01*
X047260Y062498D01*
X047511Y062748D01*
X047646Y063075D01*
X047646Y063429D01*
X047511Y063756D01*
X047260Y064007D01*
X046933Y064142D01*
X046579Y064142D01*
X046252Y064007D01*
X046002Y063756D01*
X045866Y063429D01*
X045866Y063075D01*
X046002Y062748D01*
X046252Y062498D01*
X045937Y062905D02*
X032379Y062905D01*
X032697Y063223D02*
X045866Y063223D01*
X045913Y063542D02*
X032981Y063542D01*
X032981Y063860D02*
X046105Y063860D01*
X045725Y064272D02*
X045854Y064401D01*
X045854Y065646D01*
X045725Y065775D01*
X044480Y065775D01*
X044351Y065646D01*
X044351Y064401D01*
X044480Y064272D01*
X045725Y064272D01*
X045854Y064497D02*
X050551Y064497D01*
X050551Y064179D02*
X032922Y064179D01*
X032922Y064497D02*
X042186Y064497D01*
X042186Y064401D02*
X042315Y064272D01*
X043560Y064272D01*
X043689Y064401D01*
X043689Y065646D01*
X043560Y065775D01*
X042315Y065775D01*
X042186Y065646D01*
X042186Y064401D01*
X042186Y064816D02*
X032922Y064816D01*
X032922Y065134D02*
X042186Y065134D01*
X042186Y065453D02*
X032922Y065453D01*
X032922Y065771D02*
X042310Y065771D01*
X042315Y065926D02*
X043560Y065926D01*
X043689Y066055D01*
X043689Y067300D01*
X043560Y067429D01*
X042315Y067429D01*
X042186Y067300D01*
X042186Y066055D01*
X042315Y065926D01*
X042186Y066090D02*
X032922Y066090D01*
X032922Y066408D02*
X042186Y066408D01*
X042186Y066727D02*
X032922Y066727D01*
X032922Y067045D02*
X042186Y067045D01*
X042249Y067364D02*
X041537Y067364D01*
X041552Y067379D02*
X041631Y067570D01*
X041631Y067777D01*
X041552Y067968D01*
X041406Y068114D01*
X041263Y068173D01*
X041406Y068233D01*
X041552Y068379D01*
X041631Y068570D01*
X041631Y068777D01*
X041552Y068968D01*
X041406Y069114D01*
X041215Y069193D01*
X040408Y069193D01*
X040217Y069114D01*
X040070Y068968D01*
X039991Y068777D01*
X039991Y068570D01*
X040070Y068379D01*
X040217Y068233D01*
X040359Y068173D01*
X040217Y068114D01*
X040070Y067968D01*
X039991Y067777D01*
X039991Y067570D01*
X040070Y067379D01*
X040217Y067233D01*
X040408Y067153D01*
X041215Y067153D01*
X041406Y067233D01*
X041552Y067379D01*
X041631Y067682D02*
X046282Y067682D01*
X046252Y067695D02*
X046579Y067559D01*
X046933Y067559D01*
X047260Y067695D01*
X047511Y067945D01*
X047646Y068272D01*
X047646Y068626D01*
X047511Y068953D01*
X047260Y069203D01*
X046933Y069339D01*
X046579Y069339D01*
X046252Y069203D01*
X046002Y068953D01*
X045866Y068626D01*
X045866Y068272D01*
X046002Y067945D01*
X046252Y067695D01*
X045979Y068001D02*
X041519Y068001D01*
X041492Y068319D02*
X045866Y068319D01*
X045871Y068638D02*
X041631Y068638D01*
X041557Y068956D02*
X046005Y068956D01*
X046424Y069275D02*
X038119Y069275D01*
X038119Y069593D02*
X050551Y069593D01*
X050551Y069275D02*
X047088Y069275D01*
X047508Y068956D02*
X050551Y068956D01*
X050551Y068638D02*
X047641Y068638D01*
X047646Y068319D02*
X050551Y068319D01*
X050551Y068001D02*
X047534Y068001D01*
X047230Y067682D02*
X050551Y067682D01*
X050551Y067364D02*
X045790Y067364D01*
X045854Y067300D02*
X045725Y067429D01*
X044480Y067429D01*
X044351Y067300D01*
X044351Y066055D01*
X044480Y065926D01*
X045725Y065926D01*
X045854Y066055D01*
X045854Y067300D01*
X045854Y067045D02*
X050551Y067045D01*
X050551Y066727D02*
X045854Y066727D01*
X045854Y066408D02*
X050551Y066408D01*
X050551Y066090D02*
X045854Y066090D01*
X045729Y065771D02*
X050551Y065771D01*
X050551Y065453D02*
X045854Y065453D01*
X045854Y065134D02*
X050551Y065134D01*
X050551Y064816D02*
X045854Y064816D01*
X044351Y064816D02*
X043689Y064816D01*
X043689Y065134D02*
X044351Y065134D01*
X044351Y065453D02*
X043689Y065453D01*
X043564Y065771D02*
X044476Y065771D01*
X044351Y066090D02*
X043689Y066090D01*
X043689Y066408D02*
X044351Y066408D01*
X044351Y066727D02*
X043689Y066727D01*
X043689Y067045D02*
X044351Y067045D01*
X044415Y067364D02*
X043625Y067364D01*
X043689Y064497D02*
X044351Y064497D01*
X047407Y063860D02*
X050551Y063860D01*
X050551Y063542D02*
X047599Y063542D01*
X047646Y063223D02*
X050551Y063223D01*
X050551Y062905D02*
X047575Y062905D01*
X047349Y062586D02*
X050551Y062586D01*
X050551Y062268D02*
X031742Y062268D01*
X031423Y061949D02*
X050551Y061949D01*
X050551Y061631D02*
X031105Y061631D01*
X030654Y061717D02*
X032583Y063646D01*
X032185Y063860D02*
X015894Y063860D01*
X015894Y064073D02*
X015765Y064201D01*
X015227Y064201D01*
X015169Y064143D01*
X014417Y064143D01*
X013895Y064665D01*
X013799Y064761D01*
X013674Y064813D01*
X009759Y064813D01*
X009634Y064761D01*
X009004Y064131D01*
X008909Y064035D01*
X008857Y063910D01*
X008857Y062871D01*
X008799Y062813D01*
X008799Y062274D01*
X008928Y062145D01*
X009466Y062145D01*
X009595Y062274D01*
X009595Y062813D01*
X009537Y062871D01*
X009537Y063702D01*
X009968Y064133D01*
X011468Y064133D01*
X011449Y064125D01*
X011198Y063874D01*
X011063Y063547D01*
X011063Y063193D01*
X011198Y062866D01*
X011449Y062616D01*
X011776Y062480D01*
X012130Y062480D01*
X012457Y062616D01*
X012707Y062866D01*
X012843Y063193D01*
X012843Y063547D01*
X012707Y063874D01*
X012457Y064125D01*
X012438Y064133D01*
X013466Y064133D01*
X014083Y063515D01*
X014208Y063463D01*
X014371Y063463D01*
X014350Y063443D01*
X014350Y062904D01*
X014479Y062775D01*
X015017Y062775D01*
X015076Y062833D01*
X020326Y062833D01*
X020384Y062775D01*
X020923Y062775D01*
X021052Y062904D01*
X021052Y063443D01*
X020923Y063571D01*
X020384Y063571D01*
X020326Y063513D01*
X015874Y063513D01*
X015894Y063534D01*
X015894Y064073D01*
X015788Y064179D02*
X032322Y064179D01*
X032322Y064497D02*
X014063Y064497D01*
X014381Y064179D02*
X015204Y064179D01*
X015894Y063542D02*
X020355Y063542D01*
X020953Y063542D02*
X026418Y063542D01*
X026378Y063502D02*
X026378Y063003D01*
X026409Y062972D01*
X025857Y062420D01*
X025579Y062420D01*
X025470Y062528D01*
X024971Y062528D01*
X024842Y062399D01*
X024842Y061900D01*
X024971Y061771D01*
X025470Y061771D01*
X025579Y061880D01*
X026022Y061880D01*
X026122Y061921D01*
X026909Y062708D01*
X026985Y062784D01*
X027026Y062883D01*
X027026Y062894D01*
X027134Y063003D01*
X027134Y063502D01*
X027006Y063631D01*
X026507Y063631D01*
X026378Y063502D01*
X026378Y063223D02*
X021052Y063223D01*
X021052Y062905D02*
X026342Y062905D01*
X026023Y062586D02*
X012385Y062586D01*
X012723Y062905D02*
X014350Y062905D01*
X014350Y063223D02*
X012843Y063223D01*
X012843Y063542D02*
X014057Y063542D01*
X013738Y063860D02*
X012713Y063860D01*
X011521Y062586D02*
X009595Y062586D01*
X009588Y062268D02*
X010178Y062268D01*
X009859Y061949D02*
X007764Y061949D01*
X007764Y061631D02*
X009541Y061631D01*
X009222Y061312D02*
X007764Y061312D01*
X007764Y060994D02*
X008904Y060994D01*
X008585Y060675D02*
X007764Y060675D01*
X007764Y060357D02*
X008267Y060357D01*
X007987Y060038D02*
X007764Y060038D01*
X007764Y059720D02*
X007950Y059720D01*
X007950Y059401D02*
X007764Y059401D01*
X007764Y059083D02*
X007950Y059083D01*
X007950Y058764D02*
X007764Y058764D01*
X007764Y058446D02*
X007950Y058446D01*
X007950Y058127D02*
X007764Y058127D01*
X007764Y057809D02*
X007950Y057809D01*
X007950Y057490D02*
X007764Y057490D01*
X007764Y057172D02*
X007950Y057172D01*
X007950Y056853D02*
X007764Y056853D01*
X007764Y056535D02*
X007950Y056535D01*
X007950Y056216D02*
X007764Y056216D01*
X007764Y055898D02*
X007950Y055898D01*
X007950Y055579D02*
X007764Y055579D01*
X007764Y055261D02*
X007950Y055261D01*
X007950Y054942D02*
X007764Y054942D01*
X007764Y054624D02*
X007950Y054624D01*
X007950Y054305D02*
X007764Y054305D01*
X007764Y053987D02*
X007950Y053987D01*
X007950Y053668D02*
X007764Y053668D01*
X007764Y053350D02*
X007950Y053350D01*
X007950Y053031D02*
X007764Y053031D01*
X007764Y052713D02*
X007950Y052713D01*
X007950Y052394D02*
X007764Y052394D01*
X007764Y052076D02*
X007950Y052076D01*
X007950Y051757D02*
X007764Y051757D01*
X007764Y051439D02*
X007950Y051439D01*
X007764Y051120D02*
X008137Y051120D01*
X008455Y050802D02*
X007764Y050802D01*
X007764Y050483D02*
X008774Y050483D01*
X009092Y050165D02*
X007764Y050165D01*
X007764Y049846D02*
X009411Y049846D01*
X009729Y049528D02*
X007764Y049528D01*
X007764Y049209D02*
X012567Y049209D01*
X012457Y049007D02*
X012130Y049142D01*
X011776Y049142D01*
X011449Y049007D01*
X011198Y048756D01*
X011063Y048429D01*
X011063Y048075D01*
X011198Y047748D01*
X011449Y047498D01*
X011776Y047362D01*
X012130Y047362D01*
X012457Y047498D01*
X012707Y047748D01*
X012843Y048075D01*
X012843Y048429D01*
X012707Y048756D01*
X012457Y049007D01*
X012573Y048891D02*
X012886Y048891D01*
X012950Y048572D02*
X012784Y048572D01*
X012843Y048254D02*
X012950Y048254D01*
X012950Y047935D02*
X012785Y047935D01*
X012950Y047617D02*
X012576Y047617D01*
X012950Y047298D02*
X007764Y047298D01*
X007764Y046980D02*
X012950Y046980D01*
X012950Y046661D02*
X007764Y046661D01*
X007764Y046343D02*
X012950Y046343D01*
X012950Y046024D02*
X007764Y046024D01*
X007764Y045706D02*
X012950Y045706D01*
X012950Y045387D02*
X007764Y045387D01*
X007764Y045069D02*
X012979Y045069D01*
X011330Y047617D02*
X007764Y047617D01*
X007764Y047935D02*
X011121Y047935D01*
X011063Y048254D02*
X007764Y048254D01*
X007764Y048572D02*
X011122Y048572D01*
X011333Y048891D02*
X007764Y048891D01*
X007764Y044113D02*
X050551Y044113D01*
X050551Y043795D02*
X007764Y043795D01*
X007764Y043764D02*
X007764Y078583D01*
X050551Y078583D01*
X050551Y043764D01*
X007764Y043764D01*
X007764Y040928D02*
X009514Y040928D01*
X009483Y040610D02*
X007764Y040610D01*
X007764Y040291D02*
X009468Y040291D01*
X009468Y039973D02*
X007764Y039973D01*
X007764Y020544D02*
X009298Y020544D01*
X008979Y020226D02*
X007764Y020226D01*
X007764Y019907D02*
X008661Y019907D01*
X008600Y019589D02*
X007764Y019589D01*
X007764Y019270D02*
X008600Y019270D01*
X008600Y018952D02*
X007764Y018952D01*
X007764Y018633D02*
X008600Y018633D01*
X008600Y018315D02*
X007764Y018315D01*
X007764Y017996D02*
X008600Y017996D01*
X008600Y017678D02*
X007764Y017678D01*
X007764Y017359D02*
X008600Y017359D01*
X008600Y017041D02*
X007764Y017041D01*
X007764Y016722D02*
X008600Y016722D01*
X008600Y016404D02*
X007764Y016404D01*
X007764Y016085D02*
X008600Y016085D01*
X008600Y015767D02*
X007764Y015767D01*
X007764Y015448D02*
X008600Y015448D01*
X008600Y015130D02*
X007764Y015130D01*
X007764Y014811D02*
X008600Y014811D01*
X008600Y014493D02*
X007764Y014493D01*
X007764Y014174D02*
X008600Y014174D01*
X008600Y013856D02*
X007764Y013856D01*
X007764Y013537D02*
X008600Y013537D01*
X008600Y013219D02*
X007764Y013219D01*
X007764Y012900D02*
X008600Y012900D01*
X008600Y012582D02*
X007764Y012582D01*
X007764Y012263D02*
X008600Y012263D01*
X008600Y011945D02*
X007764Y011945D01*
X007764Y011626D02*
X008600Y011626D01*
X008600Y011308D02*
X007764Y011308D01*
X007764Y010989D02*
X008600Y010989D01*
X008600Y010671D02*
X007764Y010671D01*
X007764Y010352D02*
X008600Y010352D01*
X008600Y010034D02*
X007764Y010034D01*
X007764Y009715D02*
X008600Y009715D01*
X008600Y009397D02*
X007764Y009397D01*
X007764Y009078D02*
X008600Y009078D01*
X008600Y008760D02*
X007764Y008760D01*
X007764Y008441D02*
X008600Y008441D01*
X008600Y008123D02*
X007764Y008123D01*
X007764Y007804D02*
X008812Y007804D01*
X009131Y007486D02*
X007764Y007486D01*
X007764Y007167D02*
X011145Y007167D01*
X010929Y006849D02*
X007764Y006849D01*
X007764Y006530D02*
X010866Y006530D01*
X010921Y006212D02*
X007764Y006212D01*
X007764Y005893D02*
X011124Y005893D01*
X012388Y005893D02*
X012791Y005893D01*
X012791Y005575D02*
X007764Y005575D01*
X007764Y005256D02*
X012791Y005256D01*
X012851Y004938D02*
X007764Y004938D01*
X007764Y004619D02*
X013147Y004619D01*
X013465Y004301D02*
X007764Y004301D01*
X007764Y003982D02*
X013784Y003982D01*
X014102Y003664D02*
X007764Y003664D01*
X007764Y003345D02*
X014421Y003345D01*
X014739Y003027D02*
X007764Y003027D01*
X007764Y002708D02*
X015058Y002708D01*
X015376Y002390D02*
X007764Y002390D01*
X012592Y006212D02*
X012791Y006212D01*
X012791Y006530D02*
X012646Y006530D01*
X012583Y006849D02*
X012791Y006849D01*
X012791Y007167D02*
X012367Y007167D01*
X020260Y007425D02*
X021087Y006599D01*
X023725Y006677D01*
X023646Y006756D01*
X021480Y006756D01*
X021362Y006638D01*
X020260Y006638D01*
X020260Y006441D01*
X024433Y006441D01*
X024433Y006599D01*
X024433Y008095D01*
X024433Y015732D01*
X025772Y015732D01*
X025772Y015496D01*
X024433Y015496D01*
X024433Y017465D01*
X023370Y017465D01*
X023213Y017465D01*
X020299Y017465D01*
X020260Y017465D01*
X020260Y008882D01*
X020260Y007583D01*
X020260Y007425D01*
X021756Y008016D02*
X021756Y016126D01*
X021835Y016205D01*
X023410Y016205D01*
X023370Y016992D02*
X024197Y017032D01*
X024276Y016953D01*
X024276Y007386D01*
X024158Y007268D01*
X023567Y007091D01*
X023370Y007110D01*
X023331Y007268D01*
X023370Y007110D02*
X023567Y007091D01*
X023370Y006638D02*
X024433Y006599D01*
X023370Y006638D01*
X023370Y007583D02*
X022032Y007740D01*
X021756Y008016D01*
X023331Y008094D02*
X023370Y008055D01*
X023331Y008016D02*
X023449Y008016D01*
X023488Y008055D01*
X023499Y008068D01*
X023508Y008084D01*
X023513Y008101D01*
X023514Y008118D01*
X023512Y008135D01*
X023506Y008152D01*
X023497Y008167D01*
X023485Y008180D01*
X023471Y008190D01*
X023455Y008197D01*
X023438Y008201D01*
X023420Y008201D01*
X023403Y008197D01*
X023387Y008190D01*
X023373Y008180D01*
X023361Y008167D01*
X023352Y008152D01*
X023346Y008135D01*
X023344Y008118D01*
X023345Y008101D01*
X023350Y008084D01*
X023359Y008068D01*
X023370Y008055D01*
X024813Y008123D02*
X029109Y008123D01*
X028996Y007804D02*
X024813Y007804D01*
X024813Y007486D02*
X028996Y007486D01*
X029679Y008123D02*
X031771Y008123D01*
X031771Y008441D02*
X024813Y008441D01*
X024813Y008760D02*
X031880Y008760D01*
X031880Y009715D02*
X024813Y009715D01*
X024813Y009397D02*
X028996Y009397D01*
X028996Y009078D02*
X024813Y009078D01*
X024813Y010034D02*
X031880Y010034D01*
X031880Y010352D02*
X024813Y010352D01*
X024813Y010671D02*
X031880Y010671D01*
X031880Y010989D02*
X024813Y010989D01*
X024813Y011308D02*
X031880Y011308D01*
X031880Y011626D02*
X024813Y011626D01*
X024813Y011945D02*
X031880Y011945D01*
X031771Y012900D02*
X024813Y012900D01*
X024813Y012582D02*
X028996Y012582D01*
X028996Y012263D02*
X024813Y012263D01*
X024813Y013219D02*
X031803Y013219D01*
X031434Y013537D02*
X029716Y013537D01*
X029769Y014174D02*
X031381Y014174D01*
X031880Y014493D02*
X024813Y014493D01*
X024813Y014811D02*
X031880Y014811D01*
X031880Y015130D02*
X025880Y015130D01*
X024813Y014174D02*
X029018Y014174D01*
X028996Y013856D02*
X024813Y013856D01*
X024813Y013537D02*
X029072Y013537D01*
X032095Y007804D02*
X033122Y007804D01*
X033021Y008123D02*
X032528Y008123D01*
X032809Y008441D02*
X033021Y008441D01*
X033021Y008760D02*
X032883Y008760D01*
X033440Y007486D02*
X032090Y007486D01*
X033759Y007167D02*
X024813Y007167D01*
X024813Y006849D02*
X039053Y006849D01*
X038889Y006530D02*
X024813Y006530D01*
X024741Y006212D02*
X038952Y006212D01*
X040364Y006849D02*
X040549Y006849D01*
X040529Y006530D02*
X040549Y006530D01*
X040549Y006212D02*
X040465Y006212D01*
X041389Y006212D02*
X043221Y006212D01*
X043363Y006556D02*
X043492Y006685D01*
X043492Y007930D01*
X043363Y008059D01*
X042118Y008059D01*
X041989Y007930D01*
X041989Y006685D01*
X042118Y006556D01*
X043363Y006556D01*
X043539Y006530D02*
X041389Y006530D01*
X041389Y006849D02*
X041989Y006849D01*
X041989Y007167D02*
X041389Y007167D01*
X041227Y007486D02*
X041989Y007486D01*
X041989Y007804D02*
X040908Y007804D01*
X040590Y008123D02*
X043815Y008123D01*
X043815Y008441D02*
X043492Y008441D01*
X043492Y008760D02*
X043815Y008760D01*
X043815Y009078D02*
X043492Y009078D01*
X043492Y009397D02*
X043815Y009397D01*
X043815Y009715D02*
X040954Y009715D01*
X040954Y010034D02*
X041989Y010034D01*
X041989Y009992D02*
X042118Y009863D01*
X043363Y009863D01*
X043492Y009992D01*
X043492Y011237D01*
X043363Y011366D01*
X042118Y011366D01*
X041989Y011237D01*
X041989Y009992D01*
X041989Y010352D02*
X040954Y010352D01*
X040954Y010671D02*
X041989Y010671D01*
X041989Y010989D02*
X040954Y010989D01*
X040954Y011308D02*
X042059Y011308D01*
X042008Y011626D02*
X040954Y011626D01*
X040954Y011945D02*
X041989Y011945D01*
X041989Y012582D02*
X041630Y012582D01*
X041466Y012900D02*
X041998Y012900D01*
X042118Y013170D02*
X041989Y013299D01*
X041989Y014544D01*
X042118Y014673D01*
X043363Y014673D01*
X043492Y014544D01*
X043492Y013299D01*
X043363Y013170D01*
X042118Y013170D01*
X042069Y013219D02*
X041466Y013219D01*
X041466Y013537D02*
X041989Y013537D01*
X041989Y013856D02*
X041475Y013856D01*
X041466Y014174D02*
X041989Y014174D01*
X041989Y014493D02*
X041466Y014493D01*
X041466Y014811D02*
X043815Y014811D01*
X043815Y014493D02*
X043492Y014493D01*
X043492Y014174D02*
X043815Y014174D01*
X043815Y013856D02*
X043492Y013856D01*
X043492Y013537D02*
X043815Y013537D01*
X043815Y013219D02*
X043412Y013219D01*
X043482Y012900D02*
X043815Y012900D01*
X043815Y012582D02*
X043492Y012582D01*
X043492Y012263D02*
X043815Y012263D01*
X043815Y011945D02*
X043492Y011945D01*
X043473Y011626D02*
X043815Y011626D01*
X043815Y011308D02*
X043421Y011308D01*
X043492Y010989D02*
X043815Y010989D01*
X043815Y010671D02*
X043492Y010671D01*
X043492Y010352D02*
X043815Y010352D01*
X043815Y010034D02*
X043492Y010034D01*
X043492Y007804D02*
X043815Y007804D01*
X043815Y007486D02*
X043492Y007486D01*
X043492Y007167D02*
X043815Y007167D01*
X043815Y006849D02*
X043492Y006849D01*
X041989Y008441D02*
X040271Y008441D01*
X039953Y008760D02*
X040864Y008760D01*
X040545Y009078D02*
X039893Y009078D01*
X039893Y009397D02*
X040354Y009397D01*
X040354Y009715D02*
X039893Y009715D01*
X039893Y010034D02*
X040354Y010034D01*
X040354Y010352D02*
X039893Y010352D01*
X039893Y010671D02*
X040354Y010671D01*
X040354Y010989D02*
X039893Y010989D01*
X039893Y011308D02*
X040354Y011308D01*
X040354Y011626D02*
X039893Y011626D01*
X039893Y011945D02*
X040354Y011945D01*
X040354Y012263D02*
X039893Y012263D01*
X039893Y012582D02*
X040354Y012582D01*
X040354Y012900D02*
X039893Y012900D01*
X039876Y013219D02*
X040354Y013219D01*
X040354Y013537D02*
X038828Y013537D01*
X038828Y013219D02*
X039069Y013219D01*
X039053Y012900D02*
X038828Y012900D01*
X038828Y012582D02*
X039053Y012582D01*
X039053Y012263D02*
X038828Y012263D01*
X038828Y011945D02*
X039053Y011945D01*
X039053Y011626D02*
X038828Y011626D01*
X038828Y011308D02*
X039053Y011308D01*
X039053Y010989D02*
X038828Y010989D01*
X038828Y010671D02*
X039053Y010671D01*
X039053Y010352D02*
X038828Y010352D01*
X038808Y010034D02*
X039053Y010034D01*
X039053Y009715D02*
X038525Y009715D01*
X038205Y009397D02*
X039053Y009397D01*
X039053Y009078D02*
X038245Y009078D01*
X038245Y008882D02*
X037670Y008882D01*
X037670Y008882D01*
X037670Y008267D01*
X038011Y008267D01*
X038061Y008277D01*
X038108Y008297D01*
X038151Y008325D01*
X038187Y008361D01*
X038216Y008404D01*
X038235Y008451D01*
X038245Y008502D01*
X038245Y008882D01*
X038245Y008760D02*
X039053Y008760D01*
X039103Y008441D02*
X038231Y008441D01*
X037670Y008441D02*
X037670Y008441D01*
X037670Y008760D02*
X037670Y008760D01*
X037670Y008882D02*
X037670Y008882D01*
X037095Y008760D02*
X037086Y008760D01*
X037086Y009078D02*
X037095Y009078D01*
X037086Y009397D02*
X037135Y009397D01*
X037135Y009715D02*
X037086Y009715D01*
X037086Y010034D02*
X037135Y010034D01*
X037095Y010352D02*
X037086Y010352D01*
X037086Y010671D02*
X037095Y010671D01*
X037086Y010989D02*
X037095Y010989D01*
X037086Y011308D02*
X037135Y011308D01*
X037135Y011626D02*
X037086Y011626D01*
X037086Y011945D02*
X037135Y011945D01*
X038205Y011945D02*
X038213Y011945D01*
X038228Y012263D02*
X035962Y012263D01*
X035973Y012582D02*
X038228Y012582D01*
X038228Y012900D02*
X035973Y012900D01*
X035973Y013219D02*
X038228Y013219D01*
X038228Y013537D02*
X035973Y013537D01*
X035973Y013856D02*
X038228Y013856D01*
X038228Y014174D02*
X035973Y014174D01*
X035973Y014493D02*
X038320Y014493D01*
X038639Y014811D02*
X035973Y014811D01*
X035973Y015130D02*
X038957Y015130D01*
X039276Y015448D02*
X035973Y015448D01*
X035973Y015767D02*
X039594Y015767D01*
X039388Y016004D02*
X039516Y016132D01*
X039516Y016671D01*
X039418Y016769D01*
X039418Y017131D01*
X039373Y017241D01*
X039288Y017325D01*
X039131Y017483D01*
X038414Y018200D01*
X038414Y018443D01*
X038285Y018571D01*
X037747Y018571D01*
X037618Y018443D01*
X037618Y017904D01*
X037747Y017775D01*
X037990Y017775D01*
X038706Y017059D01*
X038818Y016947D01*
X038818Y016769D01*
X038720Y016671D01*
X038720Y016132D01*
X038849Y016004D01*
X039388Y016004D01*
X039469Y016085D02*
X039684Y016085D01*
X039684Y016404D02*
X039516Y016404D01*
X039465Y016722D02*
X039684Y016722D01*
X039684Y017041D02*
X039418Y017041D01*
X039255Y017359D02*
X039684Y017359D01*
X039684Y017678D02*
X038936Y017678D01*
X038618Y017996D02*
X039684Y017996D01*
X039684Y018315D02*
X038414Y018315D01*
X038087Y017678D02*
X037272Y017678D01*
X037272Y017996D02*
X037618Y017996D01*
X037618Y018315D02*
X037272Y018315D01*
X037272Y018633D02*
X039684Y018633D01*
X039684Y018952D02*
X037272Y018952D01*
X037272Y019270D02*
X039684Y019270D01*
X039684Y019589D02*
X037272Y019589D01*
X037272Y019907D02*
X039684Y019907D01*
X039684Y020226D02*
X037272Y020226D01*
X037272Y020544D02*
X039684Y020544D01*
X039684Y020863D02*
X037272Y020863D01*
X037272Y021181D02*
X039684Y021181D01*
X039684Y021500D02*
X037272Y021500D01*
X037272Y021818D02*
X039684Y021818D01*
X039684Y022137D02*
X037272Y022137D01*
X037272Y022455D02*
X039684Y022455D01*
X039684Y022774D02*
X037272Y022774D01*
X037272Y023092D02*
X039684Y023092D01*
X039684Y023411D02*
X037272Y023411D01*
X037272Y023729D02*
X039684Y023729D01*
X039684Y024048D02*
X037272Y024048D01*
X037272Y024366D02*
X037369Y024366D01*
X037354Y024685D02*
X037272Y024685D01*
X037272Y025003D02*
X037354Y025003D01*
X037354Y025322D02*
X037272Y025322D01*
X037272Y025640D02*
X037354Y025640D01*
X037354Y025959D02*
X037272Y025959D01*
X038424Y024685D02*
X038434Y024685D01*
X038409Y024366D02*
X038456Y024366D01*
X039009Y024366D02*
X039009Y024366D01*
X039009Y024685D02*
X039009Y024685D01*
X039584Y024685D02*
X040245Y024685D01*
X040354Y025003D02*
X039584Y025003D01*
X039544Y025322D02*
X040354Y025322D01*
X039926Y024366D02*
X039561Y024366D01*
X040284Y023729D02*
X040354Y023729D01*
X040354Y023411D02*
X040284Y023411D01*
X040284Y023092D02*
X040354Y023092D01*
X040354Y022774D02*
X040284Y022774D01*
X040284Y022455D02*
X040354Y022455D01*
X040354Y022137D02*
X040284Y022137D01*
X040284Y021818D02*
X040354Y021818D01*
X040354Y021500D02*
X040284Y021500D01*
X040284Y021181D02*
X040354Y021181D01*
X040354Y020863D02*
X040284Y020863D01*
X040284Y020544D02*
X040354Y020544D01*
X040354Y020226D02*
X040284Y020226D01*
X040284Y019907D02*
X040354Y019907D01*
X040354Y019589D02*
X040284Y019589D01*
X040284Y019270D02*
X040354Y019270D01*
X040354Y018952D02*
X040284Y018952D01*
X040284Y018633D02*
X040354Y018633D01*
X040354Y018315D02*
X040284Y018315D01*
X040284Y017996D02*
X040354Y017996D01*
X040354Y017678D02*
X040284Y017678D01*
X040284Y017359D02*
X040354Y017359D01*
X040354Y017041D02*
X040284Y017041D01*
X040284Y016722D02*
X040354Y016722D01*
X040354Y016404D02*
X040284Y016404D01*
X040284Y016085D02*
X040354Y016085D01*
X040354Y015767D02*
X040284Y015767D01*
X040354Y015448D02*
X040124Y015448D01*
X040354Y015130D02*
X039806Y015130D01*
X039487Y014811D02*
X040354Y014811D01*
X040354Y014493D02*
X039169Y014493D01*
X038850Y014174D02*
X040354Y014174D01*
X040354Y013856D02*
X038828Y013856D01*
X038768Y016085D02*
X035973Y016085D01*
X036288Y016404D02*
X038720Y016404D01*
X038771Y016722D02*
X036606Y016722D01*
X036925Y017041D02*
X038724Y017041D01*
X038406Y017359D02*
X037235Y017359D01*
X036016Y011945D02*
X035687Y011945D01*
X035806Y008441D02*
X036016Y008441D01*
X035806Y008123D02*
X039402Y008123D01*
X039720Y007804D02*
X035806Y007804D01*
X035584Y007486D02*
X040039Y007486D01*
X040357Y007167D02*
X035265Y007167D01*
X037086Y008441D02*
X037110Y008441D01*
X041075Y009397D02*
X041989Y009397D01*
X041100Y012263D02*
X040954Y012263D01*
X042118Y014823D02*
X041989Y014952D01*
X041989Y016198D01*
X042118Y016326D01*
X043363Y016326D01*
X043492Y016198D01*
X043492Y014952D01*
X043363Y014823D01*
X042118Y014823D01*
X041989Y015130D02*
X041466Y015130D01*
X041466Y015448D02*
X041989Y015448D01*
X041989Y015767D02*
X041466Y015767D01*
X041466Y016085D02*
X041989Y016085D01*
X041466Y016404D02*
X043815Y016404D01*
X043815Y016722D02*
X043492Y016722D01*
X043492Y017041D02*
X043815Y017041D01*
X043815Y017359D02*
X043492Y017359D01*
X043492Y017678D02*
X043815Y017678D01*
X043815Y017996D02*
X041977Y017996D01*
X042118Y018131D02*
X041989Y018259D01*
X041989Y019505D01*
X042118Y019634D01*
X043363Y019634D01*
X043492Y019505D01*
X043492Y018259D01*
X043363Y018131D01*
X042118Y018131D01*
X041989Y018315D02*
X041977Y018315D01*
X041977Y018633D02*
X041989Y018633D01*
X041977Y018952D02*
X041989Y018952D01*
X041977Y019270D02*
X041989Y019270D01*
X041977Y019589D02*
X042073Y019589D01*
X041977Y019907D02*
X046047Y019907D01*
X045773Y020226D02*
X041977Y020226D01*
X041977Y020544D02*
X045669Y020544D01*
X045682Y020863D02*
X041977Y020863D01*
X041977Y021181D02*
X045828Y021181D01*
X046276Y021500D02*
X041977Y021500D01*
X041977Y021818D02*
X050551Y021818D01*
X050551Y021500D02*
X046843Y021500D01*
X047290Y021181D02*
X050551Y021181D01*
X050551Y020863D02*
X047436Y020863D01*
X047449Y020544D02*
X050551Y020544D01*
X050551Y020226D02*
X047345Y020226D01*
X047071Y019907D02*
X050551Y019907D01*
X050551Y019589D02*
X050287Y019589D01*
X050327Y019270D02*
X050551Y019270D01*
X050551Y018952D02*
X050326Y018952D01*
X050325Y018633D02*
X050551Y018633D01*
X050551Y018315D02*
X050324Y018315D01*
X050323Y017996D02*
X050551Y017996D01*
X050551Y017678D02*
X050322Y017678D01*
X050321Y017359D02*
X050551Y017359D01*
X050551Y017041D02*
X050320Y017041D01*
X050319Y016722D02*
X050551Y016722D01*
X050551Y016404D02*
X050318Y016404D01*
X050317Y016085D02*
X050551Y016085D01*
X050551Y015767D02*
X050316Y015767D01*
X050315Y015448D02*
X050551Y015448D01*
X050551Y015130D02*
X050314Y015130D01*
X050313Y014811D02*
X050551Y014811D01*
X050551Y014493D02*
X050312Y014493D01*
X050311Y014174D02*
X050551Y014174D01*
X050551Y013856D02*
X050310Y013856D01*
X050309Y013537D02*
X050551Y013537D01*
X050551Y013219D02*
X050308Y013219D01*
X050307Y012900D02*
X050551Y012900D01*
X050551Y012582D02*
X050306Y012582D01*
X050305Y012263D02*
X050551Y012263D01*
X050551Y011945D02*
X050304Y011945D01*
X050303Y011626D02*
X050551Y011626D01*
X050551Y011308D02*
X050302Y011308D01*
X050301Y010989D02*
X050551Y010989D01*
X050551Y010671D02*
X050300Y010671D01*
X050300Y010352D02*
X050551Y010352D01*
X050551Y010034D02*
X050299Y010034D01*
X050298Y009715D02*
X050551Y009715D01*
X050551Y009397D02*
X050297Y009397D01*
X050296Y009078D02*
X050551Y009078D01*
X050551Y008760D02*
X050295Y008760D01*
X050294Y008441D02*
X050551Y008441D01*
X050551Y008123D02*
X050293Y008123D01*
X050292Y007804D02*
X050551Y007804D01*
X050551Y007486D02*
X050291Y007486D01*
X050290Y007167D02*
X050551Y007167D01*
X050551Y006849D02*
X050289Y006849D01*
X050288Y006530D02*
X050551Y006530D01*
X050551Y006212D02*
X050331Y006212D01*
X050327Y005893D02*
X050551Y005893D01*
X050551Y005575D02*
X050327Y005575D01*
X050327Y005256D02*
X050551Y005256D01*
X050551Y004938D02*
X050327Y004938D01*
X050247Y004619D02*
X050551Y004619D01*
X050551Y004301D02*
X049929Y004301D01*
X049610Y003982D02*
X050551Y003982D01*
X050551Y003664D02*
X049292Y003664D01*
X048973Y003345D02*
X050551Y003345D01*
X050551Y003027D02*
X048655Y003027D01*
X048336Y002708D02*
X050551Y002708D01*
X050551Y002390D02*
X048018Y002390D01*
X043815Y015130D02*
X043492Y015130D01*
X043492Y015448D02*
X043815Y015448D01*
X043815Y015767D02*
X043492Y015767D01*
X043492Y016085D02*
X043815Y016085D01*
X043815Y018315D02*
X043492Y018315D01*
X043492Y018633D02*
X043815Y018633D01*
X043815Y018952D02*
X043492Y018952D01*
X043492Y019270D02*
X043815Y019270D01*
X043855Y019589D02*
X043408Y019589D01*
X041977Y022137D02*
X050551Y022137D01*
X050551Y022455D02*
X041977Y022455D01*
X041977Y022774D02*
X050551Y022774D01*
X050551Y023092D02*
X041977Y023092D01*
X042181Y023411D02*
X043387Y023411D01*
X043146Y023729D02*
X042500Y023729D01*
X042818Y024048D02*
X043071Y024048D01*
X043774Y025003D02*
X048912Y025003D01*
X049230Y024685D02*
X044519Y024685D01*
X044723Y024366D02*
X049549Y024366D01*
X049586Y024048D02*
X044772Y024048D01*
X044697Y023729D02*
X049588Y023729D01*
X050381Y023729D02*
X050551Y023729D01*
X050551Y023411D02*
X044456Y023411D01*
X042148Y025959D02*
X041304Y025959D01*
X041623Y026277D02*
X042467Y026277D01*
X042785Y026596D02*
X041941Y026596D01*
X042260Y026914D02*
X050551Y026914D01*
X050551Y026596D02*
X050383Y026596D01*
X050383Y026277D02*
X050551Y026277D01*
X050551Y025959D02*
X049789Y025959D01*
X050107Y025640D02*
X050551Y025640D01*
X050551Y025322D02*
X050383Y025322D01*
X050383Y025003D02*
X050551Y025003D01*
X050551Y024685D02*
X050079Y024685D01*
X050286Y024366D02*
X050551Y024366D01*
X050551Y024048D02*
X050383Y024048D01*
X050551Y027233D02*
X045093Y027233D01*
X044669Y027347D02*
X045024Y027701D01*
X049315Y027701D01*
X049713Y027551D02*
X050551Y027551D01*
X050551Y027870D02*
X049713Y027870D01*
X047165Y030418D02*
X045252Y030418D01*
X045208Y030736D02*
X047165Y030736D01*
X046515Y030099D02*
X045044Y030099D01*
X045190Y029781D02*
X046364Y029781D01*
X046046Y029462D02*
X045253Y029462D01*
X045088Y029144D02*
X045727Y029144D01*
X044655Y027870D02*
X043215Y027870D01*
X042897Y027551D02*
X044271Y027551D01*
X044271Y027233D02*
X042578Y027233D01*
X041411Y026914D02*
X041388Y026914D01*
X041093Y026596D02*
X041020Y026596D01*
X040774Y026277D02*
X039445Y026277D01*
X040986Y025640D02*
X041830Y025640D01*
X041511Y025322D02*
X040954Y025322D01*
X040954Y025003D02*
X041193Y025003D01*
X038570Y028825D02*
X038261Y028825D01*
X038374Y029144D02*
X038119Y029144D01*
X038119Y029462D02*
X038384Y029462D01*
X038558Y029781D02*
X038119Y029781D01*
X038119Y030099D02*
X038334Y030099D01*
X038334Y030236D02*
X038894Y030236D01*
X038894Y030236D01*
X038894Y030796D01*
X039126Y030796D01*
X039422Y030500D01*
X039594Y030672D01*
X039594Y033103D01*
X039640Y033213D01*
X039966Y033540D01*
X040039Y033613D01*
X040039Y033994D01*
X039880Y034153D01*
X039636Y034153D01*
X039508Y034282D01*
X039550Y034240D02*
X037292Y034240D01*
X037292Y034558D02*
X039508Y034558D01*
X039564Y034877D02*
X037264Y034877D01*
X036970Y035195D02*
X040177Y035195D01*
X040235Y035514D02*
X035194Y035514D01*
X034876Y035832D02*
X040235Y035832D01*
X040266Y036151D02*
X034557Y036151D01*
X034239Y036469D02*
X046534Y036469D01*
X046534Y036151D02*
X042223Y036151D01*
X042386Y036323D02*
X042386Y034748D01*
X042957Y034177D01*
X043744Y034177D01*
X044354Y034788D01*
X044833Y035216D02*
X045372Y035216D01*
X045501Y035345D01*
X045501Y035884D01*
X045372Y036012D01*
X044833Y036012D01*
X044705Y035884D01*
X043531Y035884D01*
X043403Y036012D01*
X042865Y036012D01*
X042736Y035884D01*
X042736Y035345D01*
X042865Y035216D01*
X043403Y035216D01*
X043531Y035344D01*
X044705Y035344D01*
X044833Y035216D01*
X045501Y035514D02*
X046534Y035514D01*
X046534Y035832D02*
X045501Y035832D01*
X046534Y035195D02*
X042254Y035195D01*
X042254Y034877D02*
X046659Y034877D01*
X046977Y034558D02*
X042058Y034558D01*
X042043Y034240D02*
X047109Y034240D01*
X047214Y036151D02*
X047263Y036151D01*
X047214Y036469D02*
X047518Y036469D01*
X047518Y036788D02*
X047214Y036788D01*
X047214Y037106D02*
X047518Y037106D01*
X047518Y037425D02*
X047194Y037425D01*
X046919Y037743D02*
X047518Y037743D01*
X047518Y038062D02*
X046601Y038062D01*
X046276Y037425D02*
X029699Y037425D01*
X030018Y037743D02*
X044311Y037743D01*
X044311Y038062D02*
X030336Y038062D01*
X029806Y038380D02*
X026737Y038380D01*
X026419Y038699D02*
X030125Y038699D01*
X030667Y039017D02*
X031145Y039017D01*
X031180Y039336D02*
X030667Y039336D01*
X030667Y039654D02*
X031015Y039654D01*
X031340Y040291D02*
X037960Y040291D01*
X037755Y039973D02*
X031658Y039973D01*
X031860Y039654D02*
X032136Y039654D01*
X032136Y039790D02*
X032265Y039919D01*
X033097Y039919D01*
X033226Y039790D01*
X033226Y038958D01*
X033097Y038829D01*
X032265Y038829D01*
X032136Y038958D01*
X032136Y039790D01*
X032136Y039336D02*
X031860Y039336D01*
X031895Y039017D02*
X032136Y039017D01*
X031918Y038699D02*
X047167Y038699D01*
X046849Y039017D02*
X038493Y039017D01*
X038493Y039336D02*
X046530Y039336D01*
X046212Y039654D02*
X038435Y039654D01*
X038603Y039973D02*
X045893Y039973D01*
X045575Y040291D02*
X038921Y040291D01*
X039240Y040610D02*
X045256Y040610D01*
X047486Y038380D02*
X031843Y038380D01*
X032036Y036469D02*
X032777Y036469D01*
X032459Y036151D02*
X032036Y036151D01*
X032140Y035832D02*
X031820Y035832D01*
X031820Y035514D02*
X031822Y035514D01*
X032624Y034877D02*
X034196Y034877D01*
X033877Y035195D02*
X032942Y035195D01*
X032930Y034558D02*
X032607Y034558D01*
X032647Y033284D02*
X032488Y033284D01*
X032169Y032966D02*
X033131Y032966D01*
X033531Y032966D02*
X035325Y032966D01*
X035007Y032647D02*
X031851Y032647D01*
X031532Y032329D02*
X034688Y032329D01*
X034383Y032010D02*
X032509Y032010D01*
X032509Y031692D02*
X034350Y031692D01*
X034350Y031373D02*
X032410Y031373D01*
X032410Y031055D02*
X034350Y031055D01*
X034350Y030736D02*
X032410Y030736D01*
X032410Y030418D02*
X034350Y030418D01*
X034350Y030099D02*
X032410Y030099D01*
X032410Y029781D02*
X034350Y029781D01*
X034350Y029462D02*
X032410Y029462D01*
X032410Y029144D02*
X034232Y029144D01*
X034232Y028825D02*
X032410Y028825D01*
X031810Y029144D02*
X030599Y029144D01*
X030599Y029462D02*
X031810Y029462D01*
X031810Y029781D02*
X030599Y029781D01*
X030599Y030099D02*
X031810Y030099D01*
X031810Y030418D02*
X030599Y030418D01*
X030599Y030736D02*
X031810Y030736D01*
X031810Y031055D02*
X030599Y031055D01*
X030599Y031373D02*
X031810Y031373D01*
X031712Y031692D02*
X030895Y031692D01*
X031214Y032010D02*
X031712Y032010D01*
X031622Y028825D02*
X030599Y028825D01*
X030599Y028507D02*
X031515Y028507D01*
X031515Y028188D02*
X030565Y028188D01*
X032110Y026126D02*
X032977Y026992D01*
X032799Y026277D02*
X033188Y026277D01*
X033188Y025959D02*
X032480Y025959D01*
X032110Y026126D02*
X028567Y026126D01*
X028449Y026008D01*
X028291Y025851D01*
X028449Y026008D01*
X028334Y034558D02*
X028277Y034558D01*
X028277Y034877D02*
X028334Y034877D01*
X028277Y035195D02*
X028582Y035195D01*
X028338Y035514D02*
X028277Y035514D01*
X028277Y035832D02*
X028334Y035832D01*
X028277Y036151D02*
X028537Y036151D01*
X028326Y036469D02*
X028277Y036469D01*
X028277Y036788D02*
X028294Y036788D01*
X028277Y037106D02*
X028436Y037106D01*
X028253Y037425D02*
X029054Y037425D01*
X029169Y037743D02*
X027965Y037743D01*
X027646Y038062D02*
X029488Y038062D01*
X028854Y037106D02*
X028854Y037106D01*
X028854Y036788D02*
X028854Y036788D01*
X030216Y037106D02*
X046534Y037106D01*
X046534Y036788D02*
X030374Y036788D01*
X030542Y036469D02*
X031240Y036469D01*
X033226Y039017D02*
X037697Y039017D01*
X037697Y039336D02*
X033226Y039336D01*
X033226Y039654D02*
X037755Y039654D01*
X038278Y040610D02*
X033158Y040610D01*
X033172Y040619D02*
X033208Y040655D01*
X033236Y040698D01*
X033256Y040745D01*
X033266Y040795D01*
X033266Y041146D01*
X033266Y041496D01*
X033256Y041546D01*
X033236Y041594D01*
X033208Y041636D01*
X033172Y041673D01*
X033129Y041701D01*
X033082Y041721D01*
X033032Y041731D01*
X032681Y041731D01*
X032331Y041731D01*
X032281Y041721D01*
X032233Y041701D01*
X032191Y041673D01*
X032155Y041636D01*
X032126Y041594D01*
X032106Y041546D01*
X032096Y041496D01*
X032096Y041146D01*
X032681Y041146D01*
X032681Y041146D01*
X032681Y041731D01*
X032681Y041146D01*
X032681Y041146D01*
X032096Y041146D01*
X032096Y040795D01*
X032106Y040745D01*
X032126Y040698D01*
X032155Y040655D01*
X032191Y040619D01*
X032233Y040591D01*
X032281Y040571D01*
X032331Y040561D01*
X032681Y040561D01*
X032681Y041146D01*
X032681Y041146D01*
X033266Y041146D01*
X032681Y041146D01*
X032681Y041146D01*
X032681Y040561D01*
X033032Y040561D01*
X033082Y040571D01*
X033129Y040591D01*
X033172Y040619D01*
X033266Y040928D02*
X038597Y040928D01*
X038915Y041247D02*
X033266Y041247D01*
X033248Y041565D02*
X039280Y041565D01*
X040299Y036638D02*
X042071Y036638D01*
X042386Y036323D01*
X042254Y035832D02*
X042736Y035832D01*
X042736Y035514D02*
X042254Y035514D01*
X040299Y036638D02*
X039040Y035378D01*
X039040Y035221D01*
X040039Y033921D02*
X038014Y033921D01*
X038060Y033603D02*
X040029Y033603D01*
X039710Y033284D02*
X038007Y033284D01*
X037721Y032966D02*
X039594Y032966D01*
X039594Y032647D02*
X035799Y032647D01*
X036117Y032966D02*
X036540Y032966D01*
X037488Y032329D02*
X035480Y032329D01*
X035162Y032010D02*
X037421Y032010D01*
X037452Y031692D02*
X034910Y031692D01*
X034910Y031373D02*
X037519Y031373D01*
X037519Y031055D02*
X034910Y031055D01*
X034910Y030736D02*
X037519Y030736D01*
X037519Y030418D02*
X034910Y030418D01*
X034910Y030099D02*
X037519Y030099D01*
X037519Y029781D02*
X034910Y029781D01*
X034910Y029462D02*
X037519Y029462D01*
X037519Y029144D02*
X035028Y029144D01*
X035028Y028825D02*
X037519Y028825D01*
X038119Y030418D02*
X038334Y030418D01*
X038334Y030468D02*
X038334Y030236D01*
X038334Y030468D02*
X038662Y030796D01*
X038894Y030796D01*
X038894Y030236D01*
X038894Y030418D02*
X038894Y030418D01*
X038894Y030736D02*
X038894Y030736D01*
X039186Y030736D02*
X039594Y030736D01*
X039594Y031055D02*
X038119Y031055D01*
X038119Y031373D02*
X039594Y031373D01*
X039594Y031692D02*
X038186Y031692D01*
X038217Y032010D02*
X039594Y032010D01*
X039594Y032329D02*
X038150Y032329D01*
X038119Y030736D02*
X038602Y030736D01*
X035644Y033284D02*
X034014Y033284D01*
X034168Y033603D02*
X035807Y033603D01*
X035151Y033921D02*
X034181Y033921D01*
X034071Y034240D02*
X034833Y034240D01*
X034514Y034558D02*
X033731Y034558D01*
X032681Y040610D02*
X032681Y040610D01*
X032681Y040928D02*
X032681Y040928D01*
X032681Y041247D02*
X032681Y041247D01*
X032681Y041565D02*
X032681Y041565D01*
X032114Y041565D02*
X030689Y041565D01*
X030707Y041247D02*
X032096Y041247D01*
X032096Y040928D02*
X030707Y040928D01*
X030707Y040795D02*
X030707Y041146D01*
X030122Y041146D01*
X030122Y041146D01*
X030122Y040561D01*
X030473Y040561D01*
X030523Y040571D01*
X030570Y040591D01*
X030613Y040619D01*
X030649Y040655D01*
X030677Y040698D01*
X030697Y040745D01*
X030707Y040795D01*
X030599Y040610D02*
X032205Y040610D01*
X030122Y040610D02*
X030122Y040610D01*
X030122Y040928D02*
X030122Y040928D01*
X030122Y041247D02*
X030122Y041247D01*
X030122Y041565D02*
X030122Y041565D01*
X028754Y041565D02*
X027278Y041565D01*
X027281Y041247D02*
X028751Y041247D01*
X028751Y040928D02*
X027281Y040928D01*
X027161Y040610D02*
X028871Y040610D01*
X028751Y039654D02*
X027281Y039654D01*
X027281Y039336D02*
X028751Y039336D01*
X028751Y039017D02*
X027281Y039017D01*
X026644Y059401D02*
X016614Y059401D01*
X016625Y059720D02*
X018971Y059720D01*
X018792Y059899D02*
X019214Y059477D01*
X019810Y059477D01*
X020232Y059899D01*
X020232Y060495D01*
X019810Y060917D01*
X019214Y060917D01*
X018792Y060495D01*
X018792Y059899D01*
X018792Y060038D02*
X016625Y060038D01*
X016625Y060357D02*
X018792Y060357D01*
X018972Y060675D02*
X016625Y060675D01*
X016625Y060994D02*
X026644Y060994D01*
X026644Y061312D02*
X016625Y061312D01*
X016625Y061631D02*
X026651Y061631D01*
X026673Y061949D02*
X026150Y061949D01*
X026468Y062268D02*
X030667Y062268D01*
X030986Y062586D02*
X026787Y062586D01*
X027036Y062905D02*
X031304Y062905D01*
X031623Y063223D02*
X027134Y063223D01*
X027095Y063542D02*
X031941Y063542D01*
X032322Y064816D02*
X027056Y064816D01*
X027056Y064774D02*
X027056Y065273D01*
X026927Y065402D01*
X026681Y065402D01*
X026416Y065667D01*
X026705Y065667D01*
X026723Y065649D01*
X027262Y065649D01*
X027390Y065778D01*
X027390Y066317D01*
X027262Y066446D01*
X026723Y066446D01*
X026705Y066427D01*
X023531Y066427D01*
X023391Y066370D01*
X022955Y065934D01*
X022825Y065934D01*
X022697Y065805D01*
X022697Y065266D01*
X022825Y065137D01*
X023364Y065137D01*
X023493Y065266D01*
X023493Y065396D01*
X023764Y065667D01*
X024842Y065667D01*
X024842Y065207D01*
X024971Y065078D01*
X025470Y065078D01*
X025579Y065187D01*
X026132Y065187D01*
X026299Y065020D01*
X026299Y064774D01*
X026428Y064645D01*
X026927Y064645D01*
X027056Y064774D01*
X027056Y065134D02*
X032322Y065134D01*
X032322Y065453D02*
X026630Y065453D01*
X026185Y065134D02*
X025526Y065134D01*
X024915Y065134D02*
X007764Y065134D01*
X007764Y064816D02*
X026299Y064816D01*
X026992Y066047D02*
X023606Y066047D01*
X023095Y065536D01*
X022697Y065453D02*
X007764Y065453D01*
X007764Y065771D02*
X022697Y065771D01*
X023111Y066090D02*
X007764Y066090D01*
X007764Y066408D02*
X023484Y066408D01*
X023549Y065453D02*
X024842Y065453D01*
X027383Y065771D02*
X032322Y065771D01*
X032322Y066090D02*
X027390Y066090D01*
X027299Y066408D02*
X032322Y066408D01*
X032322Y066727D02*
X007764Y066727D01*
X007764Y067045D02*
X032322Y067045D01*
X032372Y067364D02*
X032197Y067364D01*
X032496Y067682D02*
X032691Y067682D01*
X032529Y068001D02*
X034096Y068001D01*
X034074Y068319D02*
X032529Y068319D01*
X032529Y068638D02*
X034151Y068638D01*
X034173Y068956D02*
X032529Y068956D01*
X032529Y069275D02*
X034173Y069275D01*
X034173Y069593D02*
X032529Y069593D01*
X031929Y069593D02*
X029782Y069593D01*
X029782Y069275D02*
X031929Y069275D01*
X031929Y068956D02*
X031721Y068956D01*
X031721Y068638D02*
X031929Y068638D01*
X031929Y068319D02*
X031524Y068319D01*
X031524Y068001D02*
X031929Y068001D01*
X031236Y067364D02*
X030894Y067364D01*
X030894Y067682D02*
X030918Y067682D01*
X029218Y068319D02*
X018449Y068319D01*
X018178Y068638D02*
X026806Y068638D01*
X026712Y068956D02*
X018097Y068956D01*
X017730Y069275D02*
X026717Y069275D01*
X026840Y069593D02*
X018049Y069593D01*
X018367Y069912D02*
X026840Y069912D01*
X026840Y070230D02*
X018686Y070230D01*
X019004Y070549D02*
X026840Y070549D01*
X027380Y070549D02*
X029242Y070549D01*
X029242Y070867D02*
X027509Y070867D01*
X027509Y071186D02*
X029242Y071186D01*
X029271Y071504D02*
X029061Y071504D01*
X029033Y071476D02*
X029162Y071605D01*
X029162Y072143D01*
X029071Y072234D01*
X030374Y072234D01*
X030503Y072106D01*
X031041Y072106D01*
X031170Y072235D01*
X031170Y072773D01*
X031041Y072902D01*
X030503Y072902D01*
X030374Y072774D01*
X028679Y072774D01*
X028296Y073157D01*
X028296Y073443D01*
X028167Y073571D01*
X027629Y073571D01*
X027500Y073443D01*
X027500Y072904D01*
X027629Y072775D01*
X027914Y072775D01*
X028414Y072275D01*
X028473Y072251D01*
X028367Y072144D01*
X027143Y072144D01*
X026317Y072970D01*
X026317Y073445D01*
X026446Y073573D01*
X026446Y074112D01*
X026317Y074241D01*
X025778Y074241D01*
X025649Y074112D01*
X025649Y073573D01*
X025777Y073445D01*
X025777Y072805D01*
X025819Y072705D01*
X025894Y072630D01*
X026879Y071645D01*
X026978Y071604D01*
X028367Y071604D01*
X028495Y071476D01*
X029033Y071476D01*
X029162Y071823D02*
X037421Y071823D01*
X037421Y072141D02*
X031076Y072141D01*
X031170Y072460D02*
X050551Y072460D01*
X050551Y072778D02*
X031165Y072778D01*
X030378Y072778D02*
X028675Y072778D01*
X028356Y073097D02*
X029207Y073097D01*
X029241Y073063D02*
X029340Y073021D01*
X029448Y073021D01*
X029547Y073063D01*
X029620Y073136D01*
X029646Y073146D01*
X029649Y073150D01*
X029653Y073151D01*
X029684Y073185D01*
X029716Y073217D01*
X029718Y073221D01*
X029721Y073224D01*
X029737Y073267D01*
X029754Y073309D01*
X029754Y073313D01*
X029756Y073317D01*
X029754Y073363D01*
X029754Y073536D01*
X029871Y073652D01*
X029871Y074191D01*
X029743Y074319D01*
X029743Y077431D01*
X035374Y077431D01*
X035374Y077156D01*
X035503Y077027D01*
X036041Y077027D01*
X036170Y077156D01*
X036170Y077695D01*
X036079Y077785D01*
X036172Y077785D01*
X036279Y077678D01*
X036279Y077392D01*
X036408Y077263D01*
X036947Y077263D01*
X037075Y077392D01*
X037075Y077931D01*
X036947Y078060D01*
X036661Y078060D01*
X036437Y078284D01*
X036337Y078325D01*
X029183Y078325D01*
X029083Y078284D01*
X029007Y078208D01*
X028811Y078011D01*
X028770Y077912D01*
X028770Y074831D01*
X028641Y074702D01*
X028641Y074164D01*
X028770Y074035D01*
X029074Y074035D01*
X029074Y073652D01*
X029203Y073523D01*
X029244Y073523D01*
X029165Y073444D01*
X029124Y073345D01*
X029124Y073238D01*
X029165Y073139D01*
X029241Y073063D01*
X029581Y073097D02*
X050551Y073097D01*
X050551Y073415D02*
X048480Y073415D01*
X048457Y073406D02*
X048618Y073472D01*
X048741Y073595D01*
X048807Y073756D01*
X048807Y073930D01*
X048741Y074090D01*
X048618Y074213D01*
X048457Y074280D01*
X048283Y074280D01*
X048123Y074213D01*
X048000Y074090D01*
X047933Y073930D01*
X047933Y073756D01*
X048000Y073595D01*
X048123Y073472D01*
X048283Y073406D01*
X048457Y073406D01*
X048260Y073415D02*
X029754Y073415D01*
X029871Y073734D02*
X047942Y073734D01*
X047984Y074052D02*
X035264Y074052D01*
X035264Y074007D02*
X035136Y073878D01*
X034597Y073878D01*
X034468Y074007D01*
X034468Y074278D01*
X033448Y075298D01*
X032974Y075772D01*
X032950Y075748D01*
X032451Y075748D01*
X032323Y075877D01*
X032323Y076376D01*
X032451Y076505D01*
X032950Y076505D01*
X033049Y076406D01*
X033072Y076406D01*
X033175Y076364D01*
X033844Y075694D01*
X034864Y074674D01*
X035136Y074674D01*
X035264Y074545D01*
X035264Y074007D01*
X035264Y074371D02*
X050551Y074371D01*
X050551Y074689D02*
X034849Y074689D01*
X034530Y075008D02*
X050551Y075008D01*
X050551Y075326D02*
X048740Y075326D01*
X048741Y075327D02*
X048807Y075488D01*
X048807Y075662D01*
X048741Y075823D01*
X048618Y075946D01*
X048457Y076012D01*
X048283Y076012D01*
X048123Y075946D01*
X048000Y075823D01*
X047933Y075662D01*
X047933Y075488D01*
X048000Y075327D01*
X048123Y075204D01*
X048283Y075138D01*
X048457Y075138D01*
X048618Y075204D01*
X048741Y075327D01*
X048807Y075645D02*
X050551Y075645D01*
X050551Y075963D02*
X048576Y075963D01*
X048165Y075963D02*
X033575Y075963D01*
X033893Y075645D02*
X047933Y075645D01*
X048001Y075326D02*
X034212Y075326D01*
X033738Y075008D02*
X031288Y075008D01*
X031288Y075254D02*
X031190Y075352D01*
X031190Y076192D01*
X031288Y076290D01*
X031288Y076828D01*
X031159Y076957D01*
X030621Y076957D01*
X030492Y076828D01*
X030492Y076290D01*
X030590Y076192D01*
X030590Y075352D01*
X030492Y075254D01*
X030492Y074715D01*
X030621Y074586D01*
X031159Y074586D01*
X031288Y074715D01*
X031288Y075254D01*
X031216Y075326D02*
X033420Y075326D01*
X033101Y075645D02*
X031190Y075645D01*
X031190Y075963D02*
X032323Y075963D01*
X032323Y076282D02*
X031280Y076282D01*
X031288Y076600D02*
X050551Y076600D01*
X050551Y076282D02*
X033256Y076282D01*
X034057Y074689D02*
X031262Y074689D01*
X030518Y074689D02*
X029743Y074689D01*
X029743Y074371D02*
X034375Y074371D01*
X034468Y074052D02*
X029871Y074052D01*
X029743Y075008D02*
X030492Y075008D01*
X030564Y075326D02*
X029743Y075326D01*
X029743Y075645D02*
X030590Y075645D01*
X030590Y075963D02*
X029743Y075963D01*
X029743Y076282D02*
X030500Y076282D01*
X030492Y076600D02*
X029743Y076600D01*
X029743Y076919D02*
X030582Y076919D01*
X031198Y076919D02*
X050551Y076919D01*
X050551Y077237D02*
X036170Y077237D01*
X036170Y077556D02*
X036279Y077556D01*
X036528Y078193D02*
X050551Y078193D01*
X050551Y078511D02*
X007764Y078511D01*
X007764Y078193D02*
X011936Y078193D01*
X011947Y078197D02*
X011756Y078118D01*
X011610Y077972D01*
X011531Y077781D01*
X011531Y077574D01*
X011610Y077383D01*
X011756Y077236D01*
X011899Y077177D01*
X011756Y077118D01*
X011610Y076972D01*
X011531Y076781D01*
X011531Y076574D01*
X011610Y076383D01*
X011756Y076236D01*
X011899Y076177D01*
X011756Y076118D01*
X011610Y075972D01*
X011531Y075781D01*
X011531Y075574D01*
X011610Y075383D01*
X011756Y075236D01*
X011947Y075157D01*
X012754Y075157D01*
X012945Y075236D01*
X013091Y075383D01*
X013171Y075574D01*
X013171Y075781D01*
X013091Y075972D01*
X012945Y076118D01*
X012802Y076177D01*
X012945Y076236D01*
X013091Y076383D01*
X013171Y076574D01*
X013171Y076781D01*
X013091Y076972D01*
X012945Y077118D01*
X012802Y077177D01*
X012945Y077236D01*
X013091Y077383D01*
X013171Y077574D01*
X013171Y077781D01*
X013091Y077972D01*
X012945Y078118D01*
X012754Y078197D01*
X011947Y078197D01*
X011569Y077874D02*
X007764Y077874D01*
X007764Y077556D02*
X011538Y077556D01*
X011755Y077237D02*
X007764Y077237D01*
X007764Y076919D02*
X011588Y076919D01*
X011531Y076600D02*
X007764Y076600D01*
X007764Y076282D02*
X011711Y076282D01*
X011606Y075963D02*
X007764Y075963D01*
X007764Y075645D02*
X011531Y075645D01*
X011666Y075326D02*
X007764Y075326D01*
X007764Y075008D02*
X014448Y075008D01*
X014448Y075326D02*
X013035Y075326D01*
X013171Y075645D02*
X014350Y075645D01*
X014350Y075461D02*
X014448Y075363D01*
X014448Y072202D01*
X014350Y072104D01*
X014350Y071566D01*
X014448Y071467D01*
X014448Y068381D01*
X014350Y068283D01*
X014350Y067745D01*
X014479Y067616D01*
X015017Y067616D01*
X015116Y067714D01*
X016105Y067714D01*
X016215Y067760D01*
X016300Y067844D01*
X019381Y070925D01*
X019624Y070925D01*
X019753Y071054D01*
X019753Y071592D01*
X019624Y071721D01*
X019085Y071721D01*
X018956Y071592D01*
X018956Y071349D01*
X015921Y068314D01*
X015116Y068314D01*
X015048Y068381D01*
X015048Y071467D01*
X015146Y071566D01*
X015146Y072104D01*
X015048Y072202D01*
X015048Y075363D01*
X015146Y075461D01*
X015146Y076000D01*
X015017Y076129D01*
X014479Y076129D01*
X014350Y076000D01*
X014350Y075461D01*
X014350Y075963D02*
X013095Y075963D01*
X012990Y076282D02*
X025464Y076282D01*
X025782Y076600D02*
X013171Y076600D01*
X013113Y076919D02*
X026101Y076919D01*
X026419Y077237D02*
X012946Y077237D01*
X013163Y077556D02*
X026738Y077556D01*
X027246Y077874D02*
X013132Y077874D01*
X012765Y078193D02*
X028992Y078193D01*
X028770Y077874D02*
X027841Y077874D01*
X027942Y077556D02*
X028770Y077556D01*
X028770Y077237D02*
X027942Y077237D01*
X028770Y076919D02*
X026949Y076919D01*
X026631Y076600D02*
X028770Y076600D01*
X028770Y076282D02*
X026312Y076282D01*
X025994Y075963D02*
X027263Y075963D01*
X027263Y076080D02*
X027263Y075542D01*
X027362Y075444D01*
X027362Y074801D01*
X027263Y074702D01*
X027263Y074164D01*
X027392Y074035D01*
X027931Y074035D01*
X028060Y074164D01*
X028060Y074702D01*
X027962Y074801D01*
X027962Y075444D01*
X028060Y075542D01*
X028060Y076080D01*
X027931Y076209D01*
X027392Y076209D01*
X027263Y076080D01*
X027263Y075645D02*
X025675Y075645D01*
X025560Y075326D02*
X027362Y075326D01*
X027362Y075008D02*
X025560Y075008D01*
X025560Y074689D02*
X027263Y074689D01*
X027263Y074371D02*
X025560Y074371D01*
X025560Y074052D02*
X025649Y074052D01*
X025649Y073734D02*
X025560Y073734D01*
X025560Y073415D02*
X025777Y073415D01*
X025777Y073097D02*
X025560Y073097D01*
X025560Y072778D02*
X025788Y072778D01*
X025560Y072460D02*
X026064Y072460D01*
X026383Y072141D02*
X025560Y072141D01*
X025560Y071823D02*
X026701Y071823D01*
X026828Y072460D02*
X028230Y072460D01*
X027626Y072778D02*
X026510Y072778D01*
X026317Y073097D02*
X027500Y073097D01*
X027500Y073415D02*
X026317Y073415D01*
X026446Y073734D02*
X029074Y073734D01*
X029153Y073415D02*
X028296Y073415D01*
X027948Y074052D02*
X028753Y074052D01*
X028641Y074371D02*
X028060Y074371D01*
X028060Y074689D02*
X028641Y074689D01*
X028770Y075008D02*
X027962Y075008D01*
X027962Y075326D02*
X028770Y075326D01*
X028770Y075645D02*
X028060Y075645D01*
X028060Y075963D02*
X028770Y075963D01*
X029743Y077237D02*
X035374Y077237D01*
X037075Y077556D02*
X050551Y077556D01*
X050551Y077874D02*
X037075Y077874D01*
X038217Y072141D02*
X050551Y072141D01*
X050551Y071823D02*
X040391Y071823D01*
X040427Y071808D02*
X040114Y071937D01*
X039776Y071937D01*
X039463Y071808D01*
X039224Y071569D01*
X039094Y071256D01*
X039094Y070918D01*
X039224Y070605D01*
X039463Y070366D01*
X039776Y070236D01*
X040114Y070236D01*
X040427Y070366D01*
X040666Y070605D01*
X040796Y070918D01*
X040796Y071256D01*
X040666Y071569D01*
X040427Y071808D01*
X040693Y071504D02*
X050551Y071504D01*
X050551Y071186D02*
X040796Y071186D01*
X040775Y070867D02*
X050551Y070867D01*
X050551Y070549D02*
X040610Y070549D01*
X039280Y070549D02*
X038119Y070549D01*
X038119Y070867D02*
X039115Y070867D01*
X039094Y071186D02*
X038119Y071186D01*
X038119Y071504D02*
X039197Y071504D01*
X039499Y071823D02*
X038217Y071823D01*
X037519Y071504D02*
X030068Y071504D01*
X030068Y071186D02*
X034140Y071186D01*
X034065Y070867D02*
X029782Y070867D01*
X029782Y070549D02*
X033746Y070549D01*
X033958Y069912D02*
X034173Y069912D01*
X034773Y069912D02*
X037519Y069912D01*
X037519Y070230D02*
X034773Y070230D01*
X034838Y070549D02*
X037519Y070549D01*
X037519Y070867D02*
X034871Y070867D01*
X034805Y071186D02*
X037519Y071186D01*
X038119Y070230D02*
X050551Y070230D01*
X050551Y069912D02*
X038119Y069912D01*
X037519Y069593D02*
X034773Y069593D01*
X034773Y069275D02*
X037519Y069275D01*
X037519Y068956D02*
X034773Y068956D01*
X034794Y068638D02*
X037519Y068638D01*
X037226Y068319D02*
X034871Y068319D01*
X034849Y068001D02*
X036907Y068001D01*
X037437Y067682D02*
X039991Y067682D01*
X040086Y067364D02*
X037057Y067364D01*
X037756Y068001D02*
X040103Y068001D01*
X040130Y068319D02*
X038074Y068319D01*
X038119Y068638D02*
X039991Y068638D01*
X040065Y068956D02*
X038119Y068956D01*
X030925Y069912D02*
X029782Y069912D01*
X029782Y070230D02*
X030925Y070230D01*
X029242Y070230D02*
X027380Y070230D01*
X027380Y069912D02*
X029242Y069912D01*
X029242Y069593D02*
X027380Y069593D01*
X027415Y068638D02*
X028538Y068638D01*
X029236Y069275D02*
X029242Y069275D01*
X028467Y071504D02*
X025739Y071504D01*
X025209Y071186D02*
X019753Y071186D01*
X019753Y071504D02*
X024960Y071504D01*
X024960Y071823D02*
X023616Y071823D01*
X023498Y071704D02*
X023737Y071944D01*
X023866Y072256D01*
X023866Y072595D01*
X023737Y072907D01*
X023498Y073146D01*
X023185Y073276D01*
X022847Y073276D01*
X022534Y073146D01*
X022295Y072907D01*
X022165Y072595D01*
X022165Y072256D01*
X022295Y071944D01*
X022534Y071704D01*
X022847Y071575D01*
X023185Y071575D01*
X023498Y071704D01*
X023819Y072141D02*
X024960Y072141D01*
X024960Y072460D02*
X023866Y072460D01*
X023790Y072778D02*
X024960Y072778D01*
X024960Y073097D02*
X023548Y073097D01*
X022484Y073097D02*
X015048Y073097D01*
X015048Y073415D02*
X018853Y073415D01*
X018859Y073402D02*
X019005Y073255D01*
X019196Y073176D01*
X019403Y073176D01*
X019594Y073255D01*
X019740Y073402D01*
X019799Y073545D01*
X019859Y073402D01*
X020005Y073255D01*
X020196Y073176D01*
X020403Y073176D01*
X020594Y073255D01*
X020740Y073402D01*
X020799Y073545D01*
X020859Y073402D01*
X021005Y073255D01*
X021196Y073176D01*
X021403Y073176D01*
X021594Y073255D01*
X021740Y073402D01*
X021819Y073593D01*
X021819Y074400D01*
X021740Y074591D01*
X021594Y074737D01*
X021403Y074816D01*
X021196Y074816D01*
X021005Y074737D01*
X020859Y074591D01*
X020799Y074448D01*
X020740Y074591D01*
X020594Y074737D01*
X020403Y074816D01*
X020196Y074816D01*
X020005Y074737D01*
X019859Y074591D01*
X019799Y074448D01*
X019740Y074591D01*
X019594Y074737D01*
X019403Y074816D01*
X019196Y074816D01*
X019005Y074737D01*
X018859Y074591D01*
X018779Y074400D01*
X018779Y073593D01*
X018859Y073402D01*
X018779Y073734D02*
X015048Y073734D01*
X015048Y074052D02*
X018779Y074052D01*
X018779Y074371D02*
X015048Y074371D01*
X015048Y074689D02*
X018957Y074689D01*
X019642Y074689D02*
X019957Y074689D01*
X020642Y074689D02*
X020957Y074689D01*
X021642Y074689D02*
X024960Y074689D01*
X024960Y074371D02*
X021819Y074371D01*
X021819Y074052D02*
X024960Y074052D01*
X024960Y073734D02*
X021819Y073734D01*
X021746Y073415D02*
X024960Y073415D01*
X024960Y075008D02*
X015048Y075008D01*
X015048Y075326D02*
X024960Y075326D01*
X024960Y075645D02*
X015146Y075645D01*
X015146Y075963D02*
X025145Y075963D01*
X026446Y074052D02*
X027375Y074052D01*
X029162Y072141D02*
X030467Y072141D01*
X025528Y070867D02*
X019323Y070867D01*
X018793Y071186D02*
X015048Y071186D01*
X015048Y070867D02*
X018474Y070867D01*
X018156Y070549D02*
X015048Y070549D01*
X015048Y070230D02*
X017837Y070230D01*
X017519Y069912D02*
X015048Y069912D01*
X015048Y069593D02*
X017200Y069593D01*
X016882Y069275D02*
X015048Y069275D01*
X015048Y068956D02*
X016563Y068956D01*
X016245Y068638D02*
X015048Y068638D01*
X015110Y068319D02*
X015926Y068319D01*
X016456Y068001D02*
X017027Y068001D01*
X017027Y067682D02*
X015084Y067682D01*
X014413Y067682D02*
X013163Y067682D01*
X013171Y067700D02*
X013171Y067907D01*
X013091Y068098D01*
X012945Y068244D01*
X012802Y068303D01*
X012945Y068362D01*
X013091Y068509D01*
X013171Y068700D01*
X013171Y068907D01*
X013091Y069098D01*
X012945Y069244D01*
X012802Y069303D01*
X012945Y069362D01*
X013091Y069509D01*
X013171Y069700D01*
X013171Y069907D01*
X013091Y070098D01*
X012945Y070244D01*
X012754Y070323D01*
X011947Y070323D01*
X011756Y070244D01*
X011610Y070098D01*
X011531Y069907D01*
X011531Y069700D01*
X011610Y069509D01*
X011756Y069362D01*
X011899Y069303D01*
X011756Y069244D01*
X011610Y069098D01*
X011531Y068907D01*
X011531Y068700D01*
X011610Y068509D01*
X011756Y068362D01*
X011899Y068303D01*
X011756Y068244D01*
X011610Y068098D01*
X011531Y067907D01*
X011531Y067700D01*
X011610Y067509D01*
X011756Y067362D01*
X011947Y067283D01*
X012754Y067283D01*
X012945Y067362D01*
X013091Y067509D01*
X013171Y067700D01*
X013132Y068001D02*
X014350Y068001D01*
X014386Y068319D02*
X012840Y068319D01*
X013145Y068638D02*
X014448Y068638D01*
X014448Y068956D02*
X013150Y068956D01*
X012872Y069275D02*
X014448Y069275D01*
X014448Y069593D02*
X013126Y069593D01*
X013169Y069912D02*
X014448Y069912D01*
X014448Y070230D02*
X012959Y070230D01*
X012754Y071220D02*
X011947Y071220D01*
X011756Y071299D01*
X011610Y071446D01*
X011531Y071637D01*
X011531Y071844D01*
X011610Y072035D01*
X011756Y072181D01*
X011899Y072240D01*
X011756Y072299D01*
X011610Y072446D01*
X011531Y072637D01*
X011531Y072844D01*
X011610Y073035D01*
X011756Y073181D01*
X011899Y073240D01*
X011756Y073299D01*
X011610Y073446D01*
X011531Y073637D01*
X011531Y073844D01*
X011610Y074035D01*
X011756Y074181D01*
X011947Y074260D01*
X012754Y074260D01*
X012945Y074181D01*
X013091Y074035D01*
X013171Y073844D01*
X013171Y073637D01*
X013091Y073446D01*
X012945Y073299D01*
X012802Y073240D01*
X012945Y073181D01*
X013091Y073035D01*
X013171Y072844D01*
X013171Y072637D01*
X013091Y072446D01*
X012945Y072299D01*
X012802Y072240D01*
X012945Y072181D01*
X013091Y072035D01*
X013171Y071844D01*
X013171Y071637D01*
X013091Y071446D01*
X012945Y071299D01*
X012754Y071220D01*
X013116Y071504D02*
X014412Y071504D01*
X014448Y071186D02*
X007764Y071186D01*
X007764Y071504D02*
X011586Y071504D01*
X011531Y071823D02*
X007764Y071823D01*
X007764Y072141D02*
X011716Y072141D01*
X011604Y072460D02*
X007764Y072460D01*
X007764Y072778D02*
X011531Y072778D01*
X011671Y073097D02*
X007764Y073097D01*
X007764Y073415D02*
X011640Y073415D01*
X011531Y073734D02*
X007764Y073734D01*
X007764Y074052D02*
X011627Y074052D01*
X013074Y074052D02*
X014448Y074052D01*
X014448Y073734D02*
X013171Y073734D01*
X013061Y073415D02*
X014448Y073415D01*
X014448Y073097D02*
X013030Y073097D01*
X013171Y072778D02*
X014448Y072778D01*
X014448Y072460D02*
X013097Y072460D01*
X012985Y072141D02*
X014387Y072141D01*
X014350Y071823D02*
X013171Y071823D01*
X014448Y070867D02*
X007764Y070867D01*
X007764Y070549D02*
X014448Y070549D01*
X015085Y071504D02*
X018956Y071504D01*
X019746Y073415D02*
X019853Y073415D01*
X020746Y073415D02*
X020853Y073415D01*
X022241Y072778D02*
X015048Y072778D01*
X015048Y072460D02*
X022165Y072460D01*
X022213Y072141D02*
X015109Y072141D01*
X015146Y071823D02*
X022416Y071823D01*
X018004Y068001D02*
X017823Y068001D01*
X017400Y068319D02*
X016775Y068319D01*
X017093Y068638D02*
X017382Y068638D01*
X017412Y068956D02*
X017462Y068956D01*
X017135Y067364D02*
X012946Y067364D01*
X011861Y068319D02*
X007764Y068319D01*
X007764Y068001D02*
X011569Y068001D01*
X011538Y067682D02*
X007764Y067682D01*
X007764Y067364D02*
X011755Y067364D01*
X011556Y068638D02*
X007764Y068638D01*
X007764Y068956D02*
X011551Y068956D01*
X011829Y069275D02*
X007764Y069275D01*
X007764Y069593D02*
X011575Y069593D01*
X011533Y069912D02*
X007764Y069912D01*
X007764Y070230D02*
X011742Y070230D01*
X014448Y074371D02*
X007764Y074371D01*
X007764Y074689D02*
X014448Y074689D01*
X009371Y064497D02*
X007764Y064497D01*
X007764Y064179D02*
X009052Y064179D01*
X008857Y063860D02*
X007764Y063860D01*
X007764Y063542D02*
X008857Y063542D01*
X008857Y063223D02*
X007764Y063223D01*
X007764Y062905D02*
X008857Y062905D01*
X008799Y062586D02*
X007764Y062586D01*
X007764Y062268D02*
X008806Y062268D01*
X009537Y062905D02*
X011183Y062905D01*
X011063Y063223D02*
X009537Y063223D01*
X009537Y063542D02*
X011063Y063542D01*
X011193Y063860D02*
X009695Y063860D01*
X016562Y062268D02*
X024842Y062268D01*
X024842Y061949D02*
X016625Y061949D01*
X020052Y060675D02*
X026644Y060675D01*
X026644Y060357D02*
X020232Y060357D01*
X020232Y060038D02*
X026644Y060038D01*
X026644Y059720D02*
X020053Y059720D01*
X027184Y060994D02*
X050551Y060994D01*
X050551Y061312D02*
X027184Y061312D01*
X027071Y061717D02*
X030654Y061717D01*
X048757Y074052D02*
X050551Y074052D01*
X050551Y073734D02*
X048798Y073734D01*
X041516Y017359D02*
X041466Y017359D01*
X041466Y017041D02*
X041835Y017041D01*
X041989Y016722D02*
X041466Y016722D01*
X023370Y017465D02*
X023213Y017465D01*
D24*
X025536Y020969D02*
X019236Y020969D01*
X018921Y020654D01*
X018921Y020181D01*
X019118Y020181D01*
X019394Y020457D01*
X029551Y020457D01*
X029630Y020457D01*
X029630Y020969D01*
X028961Y020969D01*
X028646Y020654D01*
X029354Y020969D01*
X028882Y020969D01*
X028843Y020929D01*
X020811Y020929D01*
X019669Y019788D01*
X018921Y020063D01*
X025536Y020969D02*
X029079Y020969D01*
X029354Y020969D02*
X029630Y020969D01*
X029630Y020457D01*
X029354Y020969D01*
D25*
X019591Y007740D02*
X019591Y006126D01*
X020142Y005575D01*
X019984Y005732D01*
X020103Y005614D01*
X044906Y005614D01*
X042347Y005614D01*
X043528Y005614D01*
X044512Y006599D01*
X044315Y006599D01*
X043331Y005614D01*
X044315Y006599D01*
X044315Y006835D01*
X044315Y019118D01*
X045969Y019118D01*
X046323Y018764D01*
X046953Y019079D01*
X046914Y019040D01*
X046914Y008882D01*
X047032Y008764D01*
X047032Y008449D01*
X047307Y008725D01*
X047307Y019394D01*
X046638Y019394D01*
X046323Y019079D01*
X046323Y008567D01*
X044984Y007229D01*
X044984Y007268D01*
X044788Y007465D01*
X044788Y018685D01*
X044748Y018725D01*
X045772Y018725D01*
X045969Y018528D01*
X045969Y008803D01*
X045181Y008016D01*
X045181Y018213D01*
X045378Y018410D01*
X045378Y018370D01*
X045614Y018134D01*
X045614Y008055D01*
X045536Y007977D01*
X045536Y017110D01*
X044315Y018331D01*
X044315Y019394D01*
X046677Y019394D01*
X046677Y007583D01*
X044315Y005221D01*
X044315Y005811D01*
X044315Y006559D01*
X046047Y008291D01*
X046047Y007701D01*
X046244Y007504D01*
X045654Y007504D01*
X044197Y006047D01*
X044433Y005811D01*
X044827Y005811D01*
X046441Y007425D01*
X046047Y007425D01*
X045890Y007268D01*
X045772Y007268D01*
X045024Y006520D01*
X045024Y005732D01*
X044394Y005103D01*
X044394Y005142D01*
X046402Y007150D01*
X046087Y007150D01*
X045575Y006638D01*
X045339Y006638D01*
X044591Y005890D01*
X044591Y005693D01*
X046441Y003843D01*
X046323Y003843D01*
X045181Y004984D01*
X045181Y004748D01*
X045221Y004709D01*
X045221Y004473D01*
X045221Y004394D01*
X045260Y004354D01*
X045260Y006126D01*
X045024Y006362D01*
X046480Y007977D01*
X046480Y007583D01*
X048646Y005417D01*
X048252Y005417D01*
X047071Y004236D01*
X043331Y004236D01*
X043134Y004040D01*
X043134Y003646D01*
X043331Y003449D01*
X047858Y003449D01*
X049827Y005417D01*
X049827Y006205D01*
X048095Y018843D01*
X048055Y018803D01*
X048055Y007977D01*
X047662Y008370D01*
X047662Y019118D01*
X048173Y019118D01*
X048331Y018961D01*
X048331Y007268D01*
X048646Y007583D01*
X048646Y019118D01*
X049079Y018685D01*
X049079Y006599D01*
X048843Y006835D01*
X048843Y019040D01*
X048921Y019118D01*
X049315Y019118D01*
X049473Y018961D01*
X049473Y007150D01*
X049433Y007110D01*
X049433Y006047D01*
X049788Y006402D01*
X049827Y019394D01*
X049788Y019394D01*
X049788Y019354D01*
X049748Y019394D01*
X047307Y019394D01*
X046284Y018370D01*
X046284Y009748D01*
X046284Y007189D01*
X045890Y006795D01*
X047465Y006795D01*
X047465Y006599D01*
X048055Y006008D01*
X048055Y004827D01*
X047858Y005024D01*
X047858Y006402D01*
X047465Y006402D01*
X046874Y006992D01*
X048252Y005614D01*
X048252Y006599D01*
X046874Y007977D01*
X046874Y008567D01*
X049433Y006008D01*
X049433Y005614D01*
X048291Y004473D01*
X048803Y004473D01*
X049827Y005496D01*
X049827Y004906D01*
X048410Y003488D01*
X048370Y003449D01*
X047662Y003449D01*
X047662Y003803D01*
X048213Y004354D01*
X048921Y004354D01*
X049709Y005142D01*
X049709Y005024D01*
X048173Y003488D01*
X047662Y003843D01*
X047662Y004433D01*
X049040Y005811D01*
X048449Y006402D01*
X048449Y005024D01*
X047465Y004040D01*
X043331Y004040D01*
X047071Y004040D01*
X047465Y003646D01*
X014866Y003646D01*
X013331Y005181D01*
X013291Y005181D01*
X013291Y007977D01*
X019040Y007977D01*
X019591Y007425D01*
X018843Y005181D01*
X018961Y005299D01*
X044276Y005299D01*
X044158Y005417D01*
X041008Y005417D01*
X020142Y005417D01*
X020024Y005299D01*
X020024Y004906D01*
X020142Y005024D01*
X044591Y005024D01*
X044788Y004827D01*
X045063Y004827D01*
X045142Y004906D01*
X045142Y006126D01*
X044748Y005732D01*
X044748Y005417D01*
X045851Y004315D01*
X045536Y004630D01*
X020732Y004630D01*
X020772Y004591D01*
X020772Y004315D01*
X020890Y004197D01*
X046914Y004197D01*
X046717Y004000D01*
X020339Y004000D01*
X020339Y005299D01*
X019748Y004709D01*
X019748Y004276D01*
X019709Y004236D01*
X015457Y004236D01*
X015103Y004591D01*
X015103Y004630D01*
X015181Y004551D01*
X019945Y004551D01*
X020024Y004473D01*
X020024Y004000D01*
X019866Y003843D01*
X015260Y003843D01*
X014276Y004827D01*
X014197Y004827D01*
X014276Y004906D01*
X019984Y004906D01*
X019709Y005181D01*
X013725Y005181D01*
X013882Y005339D01*
X019984Y005339D01*
X019473Y005851D01*
X014197Y005851D01*
X013803Y005457D01*
X013567Y005457D01*
X013803Y005693D01*
X013803Y006284D01*
X013685Y006166D01*
X013488Y006166D01*
X013725Y005929D01*
X013803Y005929D01*
X014079Y006205D01*
X019394Y006205D01*
X019000Y006599D01*
X013567Y006599D01*
X013921Y006953D01*
X019433Y006953D01*
X019040Y007347D01*
X013606Y007347D01*
X013331Y007071D01*
X013331Y005142D01*
X015024Y003449D01*
X015890Y002583D01*
X047504Y002583D01*
X048882Y003961D01*
X048213Y003961D01*
X047307Y003055D01*
X015929Y003055D01*
X015614Y003370D01*
X016914Y003370D01*
X016953Y003410D01*
X046402Y003410D01*
X046638Y003646D01*
X044040Y003449D01*
X044906Y004315D01*
X044906Y007307D01*
X019591Y007740D02*
X013331Y007740D01*
X013331Y007858D01*
X012662Y007858D01*
X012622Y007819D01*
D26*
X019394Y021914D02*
X016756Y024551D01*
X016756Y028882D01*
X019394Y021914D02*
X027977Y021914D01*
X028445Y022382D01*
X029236Y022382D01*
X029236Y023382D02*
X029209Y023410D01*
X027701Y023410D01*
X027603Y023508D01*
X026677Y024433D01*
X023449Y024433D01*
X023146Y024130D01*
X023146Y022937D01*
X028854Y036732D02*
X028854Y038016D01*
X028331Y038540D01*
X028331Y041559D01*
X028725Y041953D01*
X029827Y041953D01*
X030043Y041736D01*
X030122Y041658D01*
X030122Y041146D01*
X029984Y045142D02*
X029669Y045457D01*
X029669Y046166D01*
X030417Y045417D01*
X030417Y045142D01*
X029945Y045614D01*
X029945Y046166D01*
X030732Y045378D01*
X030732Y045221D01*
X030221Y045732D01*
X030221Y046166D01*
X031166Y045221D01*
X031166Y045181D01*
X030536Y045811D01*
X030536Y046205D01*
X031402Y045339D01*
X031402Y045221D01*
X031284Y045339D01*
X031284Y045654D01*
X031756Y045181D01*
X031795Y045181D01*
X031677Y045299D01*
X031677Y045536D01*
X032071Y045142D01*
X032150Y045142D01*
X032071Y045221D01*
X032071Y045575D01*
X032504Y045142D01*
X032662Y045299D01*
X032662Y045575D01*
X032622Y045536D01*
X032425Y045536D01*
X032780Y045181D01*
X032819Y045181D01*
X032898Y045260D01*
X032898Y045575D01*
X033213Y045260D01*
X033213Y045181D01*
X033567Y045536D01*
X033606Y045536D01*
X033410Y045339D01*
X033410Y045181D01*
X033331Y045260D01*
X033331Y045575D01*
X033685Y045221D01*
X034000Y045221D01*
X033882Y045339D01*
X033882Y045575D01*
X034315Y045142D01*
X034473Y045142D01*
X034354Y045260D01*
X034354Y045536D01*
X034709Y045181D01*
X034748Y045181D01*
X034669Y045260D01*
X034669Y045536D01*
X035024Y045181D01*
X035181Y045181D01*
X035063Y045299D01*
X035063Y045575D01*
X035457Y045181D01*
X035693Y045181D01*
X035496Y045378D01*
X035496Y045536D01*
X035851Y045181D01*
X036047Y045181D01*
X036047Y045299D01*
X035929Y045417D01*
X035929Y045654D01*
X036402Y045181D01*
X036520Y045181D01*
X036402Y045299D01*
X036402Y045614D01*
X036756Y045260D01*
X037032Y045260D01*
X036795Y045496D01*
X036795Y045614D01*
X037268Y045142D01*
X037583Y045142D01*
X037307Y045417D01*
X037307Y045654D01*
X037701Y045260D01*
X037780Y045260D01*
X037662Y045378D01*
X037662Y045614D01*
X038095Y045181D01*
X038331Y045181D01*
X038095Y045417D01*
X038095Y045693D01*
X038528Y045260D01*
X038528Y045181D01*
X038370Y045339D01*
X038370Y045693D01*
X038882Y045181D01*
X038882Y045142D01*
X038764Y045260D01*
X038764Y045457D01*
X039040Y045181D01*
X039315Y045181D01*
X039040Y045457D01*
X039040Y045614D01*
X039040Y045417D01*
X039197Y045575D01*
X040103Y045575D01*
X039709Y045181D01*
X039512Y045181D01*
X039669Y045339D01*
X039669Y045536D01*
X039945Y045260D01*
X040536Y045260D01*
X040299Y045496D01*
X040299Y045693D01*
X040732Y045260D01*
X040851Y045260D01*
X040575Y045536D01*
X040536Y045536D01*
X040654Y045654D01*
X042032Y045654D01*
X041638Y045260D01*
X041638Y045142D01*
X041205Y045575D01*
X040969Y045575D01*
X041323Y045221D01*
X041795Y045221D01*
X041441Y045575D01*
X041362Y045575D01*
X041835Y045103D01*
X042504Y045103D01*
X042268Y045339D01*
X042268Y045575D01*
X042307Y045536D01*
X042937Y045536D01*
X043213Y045260D01*
X043331Y045260D01*
X043213Y045142D01*
X042858Y045142D01*
X043213Y045496D01*
X043567Y045496D01*
X043488Y045417D01*
X043488Y045142D01*
X043725Y045378D01*
X044000Y045378D01*
X043961Y045339D01*
X043961Y045103D01*
X044354Y045496D01*
X044551Y045496D01*
X044433Y045378D01*
X044433Y045103D01*
X044788Y045457D01*
X044906Y045457D01*
X044827Y045378D01*
X044827Y045024D01*
X045181Y045378D01*
X045260Y045378D01*
X045339Y045299D01*
X045339Y044984D01*
X045693Y045339D01*
X045693Y045378D01*
X045732Y045339D01*
X045732Y044906D01*
X046008Y045181D01*
X046008Y045339D01*
X046323Y045024D01*
X046717Y045024D01*
X046205Y045536D01*
X042977Y045536D01*
X046756Y045536D01*
X046599Y045536D01*
X046890Y045244D01*
X047229Y044906D01*
X013685Y044906D01*
X013370Y045221D01*
X013370Y049000D01*
X012701Y049669D01*
X012740Y051677D01*
X012189Y052229D01*
X012189Y059276D01*
X012858Y059945D01*
X010811Y059866D01*
X010614Y059669D01*
X010614Y052347D01*
X011402Y051559D01*
X013646Y051559D01*
X014197Y051008D01*
X015299Y051008D01*
X015181Y050890D01*
X010299Y050890D01*
X009984Y051205D01*
X009945Y051205D01*
X010024Y051126D01*
X015142Y051126D01*
X015339Y050929D01*
X015339Y050654D01*
X010221Y050654D01*
X009591Y051284D01*
X009433Y051284D01*
X009512Y051362D01*
X015142Y051362D01*
X015457Y051047D01*
X015457Y050417D01*
X015811Y050772D01*
X015811Y051126D01*
X014945Y051992D01*
X012307Y051992D01*
X012504Y051795D01*
X015851Y051795D01*
X015969Y051677D01*
X015969Y050221D01*
X015811Y050063D01*
X013567Y050063D01*
X013488Y049984D01*
X013488Y049906D01*
X013528Y049866D01*
X016047Y049866D01*
X016047Y050299D01*
X010142Y050299D01*
X008764Y051677D01*
X008606Y051677D01*
X008725Y051559D01*
X012504Y051559D01*
X012150Y051914D01*
X008567Y051914D01*
X008803Y052150D01*
X012032Y052150D01*
X011835Y052347D01*
X008567Y052347D01*
X008803Y052583D01*
X012032Y052583D01*
X011835Y052780D01*
X008528Y052780D01*
X008882Y053134D01*
X011992Y053134D01*
X011914Y053213D01*
X008528Y053213D01*
X008606Y053291D01*
X008606Y053606D01*
X008764Y053449D01*
X012110Y053449D01*
X011835Y053725D01*
X011835Y054000D01*
X011795Y054040D01*
X008488Y054040D01*
X008685Y053843D01*
X012071Y053843D01*
X011638Y054276D01*
X008606Y054276D01*
X008646Y054315D01*
X012071Y054315D01*
X011795Y054591D01*
X008528Y054591D01*
X008725Y054788D01*
X012150Y054788D01*
X011953Y054984D01*
X008528Y054984D01*
X008803Y055260D01*
X011677Y055260D01*
X011441Y055496D01*
X008606Y055496D01*
X008961Y055142D01*
X012071Y055142D01*
X011520Y055693D01*
X008646Y055693D01*
X008685Y055654D01*
X012071Y055654D01*
X011717Y056008D01*
X008567Y056008D01*
X008646Y056087D01*
X012071Y056087D01*
X011756Y056402D01*
X008528Y056402D01*
X008646Y056520D01*
X012110Y056520D01*
X011756Y056874D01*
X008646Y056874D01*
X008843Y057071D01*
X012071Y057071D01*
X011874Y057268D01*
X008646Y057268D01*
X008882Y057504D01*
X012071Y057504D01*
X011835Y057740D01*
X008646Y057740D01*
X008882Y057977D01*
X012150Y057977D01*
X011953Y058173D01*
X008725Y058173D01*
X008646Y058095D01*
X008646Y058016D01*
X008606Y058055D01*
X008606Y058567D01*
X008764Y058410D01*
X012032Y058410D01*
X011638Y058803D01*
X008606Y058803D01*
X009276Y059473D01*
X009551Y059473D01*
X009748Y059669D01*
X012110Y059669D01*
X011992Y059551D01*
X011992Y058843D01*
X011717Y059118D01*
X008528Y059118D01*
X008764Y059354D01*
X011992Y059354D01*
X012386Y059748D01*
X012543Y059748D01*
X012504Y059788D01*
X009394Y059788D01*
X009040Y059433D01*
X008685Y059433D01*
X009276Y060024D01*
X012701Y060024D01*
X012504Y060221D01*
X009433Y060221D01*
X009591Y060378D01*
X012819Y060378D01*
X012347Y060851D01*
X010339Y060851D01*
X010378Y060890D01*
X012701Y060890D01*
X012543Y060732D01*
X009866Y060732D01*
X010299Y061166D01*
X012780Y061166D01*
X012622Y061323D01*
X010299Y061323D01*
X010811Y061835D01*
X012662Y061835D01*
X012937Y061559D01*
X012937Y059748D01*
X013055Y059866D01*
X013055Y061795D01*
X013331Y061520D01*
X013331Y059709D01*
X013449Y059827D01*
X013449Y061835D01*
X013764Y061520D01*
X013764Y059709D01*
X013921Y059866D01*
X013921Y061835D01*
X014197Y061559D01*
X014197Y059748D01*
X014315Y059866D01*
X014315Y061874D01*
X014591Y061599D01*
X014591Y059709D01*
X014788Y059906D01*
X014788Y061795D01*
X014984Y061599D01*
X014984Y059709D01*
X015142Y059866D01*
X015142Y061795D01*
X015417Y061520D01*
X015417Y059709D01*
X015457Y059748D01*
X015457Y061835D01*
X015654Y061638D01*
X015654Y059748D01*
X015732Y059827D01*
X015732Y061874D01*
X015969Y061638D01*
X015969Y059748D01*
X016205Y059512D01*
X015772Y059945D01*
X013606Y059945D01*
X013016Y058843D02*
X013016Y056717D01*
X013449Y056284D01*
X018921Y056284D01*
X019866Y057229D01*
X019866Y058449D01*
X019788Y058528D01*
X013370Y058528D01*
X013252Y058410D01*
X013252Y056717D01*
X013488Y056480D01*
X018843Y056480D01*
X019630Y057268D01*
X019630Y058134D01*
X019473Y058291D01*
X013764Y058291D01*
X013370Y057898D01*
X013370Y057032D01*
X013764Y056638D01*
X018606Y056638D01*
X019433Y057465D01*
X019433Y057819D01*
X019197Y058055D01*
X013843Y058055D01*
X013646Y057858D01*
X013646Y057071D01*
X013843Y056874D01*
X018449Y056874D01*
X019197Y057622D01*
X019158Y057622D01*
X018961Y057819D01*
X014000Y057819D01*
X013882Y057701D01*
X013882Y057347D01*
X014079Y057150D01*
X018449Y057150D01*
X018921Y057622D01*
X014197Y057622D01*
X014079Y057504D01*
X014158Y057504D01*
X014276Y057386D01*
X018449Y057386D01*
X018488Y057425D01*
X015772Y058291D01*
X016205Y059512D02*
X012858Y059512D01*
X012425Y059079D01*
X012425Y052504D01*
X012740Y052189D01*
X012819Y052110D01*
X016205Y052110D01*
X016205Y049630D01*
X010221Y049630D01*
X008370Y051480D01*
X008370Y059512D01*
X010260Y061402D01*
X010221Y061402D01*
X010063Y061559D01*
X010378Y061874D01*
X010496Y061992D01*
X010536Y062032D01*
X016166Y062032D01*
X016205Y062032D01*
X016205Y059512D01*
X013606Y058291D02*
X013567Y058291D01*
X013016Y058843D01*
X020103Y058843D01*
X020103Y056992D01*
X019118Y056008D01*
X013016Y056008D01*
X013016Y058843D01*
X013606Y061599D02*
X010103Y061599D01*
X008370Y059866D01*
X008370Y051559D01*
X009748Y050181D01*
X009906Y050024D01*
X013606Y050024D01*
X013134Y049551D02*
X013095Y049551D01*
X013134Y049512D01*
X016008Y049512D01*
X019945Y049512D01*
X019669Y049788D01*
X016480Y049788D01*
X019945Y049788D01*
X019669Y050063D01*
X016402Y050063D01*
X016480Y050142D01*
X019866Y050142D01*
X020103Y050378D01*
X019906Y050575D01*
X016599Y050575D01*
X016756Y050417D01*
X019748Y050417D01*
X019433Y050732D01*
X018725Y050732D01*
X018843Y050851D01*
X019394Y050851D01*
X019591Y050654D01*
X019827Y050654D01*
X019394Y051087D01*
X018803Y051087D01*
X018567Y050851D01*
X016638Y050851D01*
X016914Y051126D01*
X018370Y051126D01*
X018606Y051362D01*
X019591Y051362D01*
X019709Y051244D01*
X019827Y051244D01*
X019394Y051677D01*
X018606Y051677D01*
X018252Y051323D01*
X016795Y051323D01*
X016441Y050969D01*
X016441Y049591D01*
X016402Y049630D01*
X016402Y051599D01*
X016717Y051914D01*
X019630Y051914D01*
X019906Y051638D01*
X019906Y048291D01*
X022898Y045299D01*
X022898Y045221D01*
X022189Y045929D01*
X022189Y046244D01*
X023252Y045181D01*
X023291Y045181D01*
X022583Y045890D01*
X022583Y046205D01*
X023646Y045142D01*
X023764Y045142D01*
X023095Y045811D01*
X023095Y046244D01*
X024197Y045142D01*
X023606Y045732D01*
X023606Y046205D01*
X024630Y045181D01*
X024630Y045142D01*
X023921Y045851D01*
X023921Y046126D01*
X024827Y045221D01*
X024906Y045221D01*
X024276Y045851D01*
X024276Y046166D01*
X025221Y045221D01*
X025260Y045221D01*
X024591Y045890D01*
X024591Y046205D01*
X025575Y045221D01*
X025614Y045221D01*
X024906Y045929D01*
X024906Y046244D01*
X026008Y045142D01*
X026087Y045142D01*
X025378Y045851D01*
X025378Y046284D01*
X026441Y045221D01*
X026441Y045181D01*
X025969Y045654D01*
X025969Y046126D01*
X026874Y045221D01*
X026914Y045221D01*
X026323Y045811D01*
X026323Y046244D01*
X027386Y045181D01*
X027543Y045181D01*
X026835Y045890D01*
X026835Y046244D01*
X027937Y045142D01*
X027347Y045732D01*
X027347Y046284D01*
X028252Y045378D01*
X028252Y045181D01*
X027819Y045614D01*
X027819Y046284D01*
X028685Y045417D01*
X028685Y045142D01*
X028213Y045614D01*
X028213Y046284D01*
X028803Y045693D01*
X028803Y045654D01*
X028961Y045496D01*
X028961Y045181D01*
X028567Y045575D01*
X028567Y046244D01*
X029236Y045575D01*
X029236Y045221D01*
X029040Y045417D01*
X029040Y046205D01*
X029591Y045654D01*
X029591Y045221D01*
X029394Y045417D01*
X029394Y046244D01*
X029984Y045654D01*
X029984Y045142D01*
X030654Y046441D02*
X031284Y045811D01*
X043016Y045811D01*
X043291Y045536D01*
X042465Y045221D01*
X042229Y045457D01*
X018646Y045457D01*
X017543Y046559D01*
X014788Y046559D01*
X014827Y046599D01*
X018843Y046599D01*
X019236Y046205D01*
X019394Y046205D01*
X014591Y046205D01*
X014551Y046244D01*
X014551Y046677D01*
X014669Y046795D01*
X019118Y046795D01*
X019984Y045929D01*
X020221Y045929D01*
X014433Y045929D01*
X014354Y046008D01*
X014354Y046992D01*
X014433Y047071D01*
X019276Y047071D01*
X020693Y045654D01*
X014118Y045654D01*
X014079Y045693D01*
X014079Y047229D01*
X014158Y047307D01*
X019354Y047307D01*
X021244Y045417D01*
X021441Y045417D01*
X021402Y045378D01*
X013961Y045378D01*
X013803Y045536D01*
X013803Y047347D01*
X013961Y047504D01*
X019630Y047504D01*
X021992Y045142D01*
X022032Y045142D01*
X013803Y045142D01*
X013567Y045378D01*
X013567Y047662D01*
X013685Y047780D01*
X019709Y047780D01*
X022268Y045221D01*
X022701Y045221D01*
X019866Y048055D01*
X013567Y048055D01*
X013803Y048291D01*
X019945Y048291D01*
X019788Y048449D01*
X013488Y048449D01*
X013725Y048685D01*
X019866Y048685D01*
X019709Y048843D01*
X013606Y048843D01*
X013961Y049197D01*
X019748Y049197D01*
X019709Y049236D01*
X013685Y049236D01*
X013567Y049118D01*
X013134Y049551D01*
X013606Y051677D02*
X015772Y051677D01*
X018213Y051677D01*
X018252Y051638D01*
X016441Y051638D01*
X015969Y052110D01*
X019945Y052110D01*
X020181Y051874D01*
X020181Y048370D01*
X022110Y046441D01*
X030654Y046441D01*
X030969Y047032D02*
X031559Y046441D01*
X043410Y046441D01*
X043646Y046205D01*
X045457Y046205D01*
X045457Y047358D01*
X045457Y052465D01*
X045457Y052543D01*
X042898Y052543D01*
X042347Y051992D01*
X042740Y051992D01*
X043095Y052347D01*
X043725Y052347D01*
X043685Y052347D01*
X042110Y050772D01*
X024433Y050378D01*
X021402Y055378D01*
X021284Y055260D01*
X021284Y055142D01*
X015929Y055142D01*
X015614Y054827D01*
X013882Y054827D01*
X013646Y054591D01*
X013646Y053449D01*
X013803Y053291D01*
X020063Y053291D01*
X021441Y051914D01*
X021441Y051638D01*
X021323Y051520D01*
X021323Y049040D01*
X022740Y047622D01*
X031441Y047622D01*
X031992Y047071D01*
X044394Y047071D01*
X044669Y047347D01*
X044669Y052032D01*
X024000Y052032D01*
X021126Y054906D01*
X016087Y054906D01*
X015772Y054591D01*
X013961Y054591D01*
X013882Y054512D01*
X013882Y053764D01*
X014079Y053567D01*
X020024Y053567D01*
X021599Y051992D01*
X021599Y049197D01*
X021756Y049040D01*
X022977Y047819D01*
X031756Y047819D01*
X032189Y047386D01*
X044236Y047386D01*
X044394Y047543D01*
X044394Y051756D01*
X044315Y051835D01*
X023803Y051835D01*
X021008Y054630D01*
X014394Y054630D01*
X014158Y054394D01*
X014158Y054040D01*
X014354Y053843D01*
X020181Y053843D01*
X021953Y052071D01*
X021953Y049315D01*
X023134Y048134D01*
X031914Y048134D01*
X032386Y047662D01*
X044040Y047662D01*
X044158Y047780D01*
X044158Y051402D01*
X044000Y051559D01*
X023606Y051559D01*
X020772Y054394D01*
X014669Y054394D01*
X014433Y054158D01*
X020221Y054158D01*
X022229Y052150D01*
X022229Y049433D01*
X023213Y048449D01*
X031992Y048449D01*
X032504Y047937D01*
X043961Y047937D01*
X043961Y051166D01*
X043803Y051323D01*
X023449Y051323D01*
X022543Y052229D01*
X022543Y049591D01*
X023370Y048764D01*
X032150Y048764D01*
X032740Y048173D01*
X043685Y048173D01*
X043685Y050969D01*
X043646Y051008D01*
X023291Y051008D01*
X022819Y051480D01*
X022819Y049669D01*
X023528Y048961D01*
X032386Y048961D01*
X032937Y048410D01*
X043291Y048410D01*
X043488Y048606D01*
X043488Y050693D01*
X043410Y050772D01*
X023134Y050772D01*
X023055Y050851D01*
X023055Y051402D01*
X022780Y051677D01*
X022780Y050260D01*
X023803Y049236D01*
X032662Y049236D01*
X033173Y048725D01*
X043213Y048725D01*
X043291Y048803D01*
X043291Y050457D01*
X043173Y050575D01*
X023252Y050575D01*
X023055Y050378D01*
X023921Y049512D01*
X032937Y049512D01*
X033410Y049040D01*
X042977Y049040D01*
X043055Y049118D01*
X043055Y050221D01*
X042977Y050299D01*
X023370Y050299D01*
X023606Y050299D01*
X024079Y049827D01*
X033213Y049827D01*
X033725Y049315D01*
X042662Y049315D01*
X042780Y049433D01*
X042780Y049984D01*
X024354Y049984D01*
X024315Y049945D01*
X032819Y049945D01*
X033685Y049079D01*
X033685Y049591D01*
X033725Y049630D01*
X042662Y049630D01*
X042701Y049591D01*
X042583Y049591D01*
X042386Y049788D01*
X033528Y049788D01*
X033488Y049748D01*
X025024Y049748D01*
X020496Y054276D01*
X015299Y054276D01*
X014748Y053725D01*
X015772Y053331D01*
X015772Y054984D02*
X013410Y054984D01*
X013016Y055378D01*
X013173Y055378D01*
X013370Y055181D01*
X013370Y053095D01*
X013410Y053055D01*
X020103Y053055D01*
X021244Y051914D01*
X021244Y051795D01*
X021047Y051599D01*
X021047Y048803D01*
X022583Y047268D01*
X031284Y047268D01*
X031795Y046756D01*
X043606Y046756D01*
X043843Y046520D01*
X044984Y046520D01*
X044984Y052229D01*
X044906Y052307D01*
X024315Y049669D01*
X041914Y051520D01*
X041402Y052032D01*
X024709Y052032D01*
X024079Y051402D01*
X024079Y050890D01*
X024236Y050732D01*
X024236Y050496D01*
X024433Y050693D01*
X024433Y051284D01*
X024118Y050969D01*
X024079Y050969D01*
X021402Y053646D01*
X021402Y054906D01*
X024197Y052110D01*
X024394Y052110D01*
X024788Y051717D01*
X025063Y051717D01*
X021402Y055378D01*
X013016Y055378D01*
X013016Y052858D01*
X020024Y052858D01*
X021244Y051638D01*
X020693Y052189D01*
X020811Y052071D01*
X020811Y048606D01*
X022386Y047032D01*
X030969Y047032D01*
X042425Y041914D02*
X043410Y041914D01*
X049551Y041914D01*
X050221Y041244D01*
X050221Y037583D01*
X039473Y013095D02*
X039473Y009748D01*
X039473Y008646D01*
X040969Y007150D01*
X040969Y005457D01*
X013528Y054906D02*
X013410Y054906D01*
X013488Y054984D01*
X013606Y054984D01*
X013528Y054906D01*
D27*
X009197Y062543D02*
X009197Y063843D01*
X009827Y064473D01*
X012150Y064473D01*
X013606Y064473D01*
X014276Y063803D01*
X015496Y063803D01*
X014748Y063173D02*
X020654Y063173D01*
X021677Y061126D02*
X021677Y065260D01*
X020732Y066205D01*
X014748Y066205D01*
X013764Y067189D01*
X013764Y076480D01*
X014394Y077110D01*
X015221Y077110D01*
X035240Y058823D02*
X035240Y057169D01*
X035240Y056736D01*
X035811Y056166D01*
X036047Y055929D01*
X036126Y055851D01*
X037150Y055851D01*
X045299Y055811D02*
X045299Y054630D01*
X045299Y053449D01*
X045299Y055811D02*
X045299Y056992D01*
X045103Y041244D02*
X039394Y041244D01*
X038606Y040457D01*
X038213Y040063D01*
X038095Y039945D01*
X038095Y039354D01*
X038095Y039158D01*
X040575Y036008D02*
X040575Y034984D01*
X040614Y034984D01*
X040732Y035103D01*
X041717Y035103D01*
X041795Y035024D01*
X041795Y035260D01*
X041756Y035299D01*
X040732Y035299D01*
X040693Y035260D01*
X040693Y035457D01*
X041756Y035457D01*
X041756Y035654D01*
X040654Y035654D01*
X040654Y035851D01*
X040693Y035890D01*
X041717Y035890D01*
X041795Y035811D01*
X041178Y035063D01*
X041323Y034957D01*
X041756Y034866D02*
X040575Y034866D01*
X040575Y035339D01*
X040575Y035063D01*
X040575Y036008D02*
X041914Y036008D01*
X041914Y034866D01*
X041756Y034866D01*
X044709Y037898D02*
X046284Y037898D01*
X046874Y037307D01*
X046874Y035142D01*
X047465Y034551D01*
X047662Y035929D02*
X047858Y036126D01*
X047858Y038488D01*
X045103Y041244D01*
X040851Y028252D02*
X040103Y027504D01*
X038449Y027504D01*
X037583Y028370D01*
X033882Y028370D01*
X033528Y028016D01*
X033528Y023921D01*
X030536Y020929D01*
X030299Y020693D01*
X030299Y020103D01*
X030260Y020063D01*
X029709Y019512D01*
X024669Y019512D01*
X024236Y019079D01*
X024236Y017465D01*
X024118Y017347D01*
X023488Y017347D01*
X023370Y017465D01*
X030732Y019591D02*
X030732Y020378D01*
X033016Y019591D01*
X033016Y020417D01*
X032937Y020417D01*
X032937Y019591D01*
X030811Y019591D01*
X030811Y019669D01*
X031166Y019709D01*
X031205Y019748D01*
X030772Y020142D01*
X030772Y019945D01*
X032937Y019945D01*
X032858Y020221D01*
X032937Y020142D01*
X032898Y020142D01*
X032858Y020142D01*
X032740Y020260D01*
X033016Y020260D01*
X030890Y020221D01*
X030811Y019669D01*
X030732Y019788D01*
X032858Y020221D01*
X032858Y020063D02*
X033016Y020221D01*
X033016Y019709D01*
X030772Y020142D01*
X030732Y020063D01*
X032858Y020063D01*
X032937Y019906D02*
X032858Y019748D01*
X032937Y019709D01*
X030811Y019669D01*
X030772Y019709D01*
X030772Y019945D01*
X030890Y020221D01*
X030732Y020378D01*
X032977Y020378D01*
X033016Y020417D01*
X030732Y020417D01*
X030732Y020221D01*
X031126Y019827D01*
X032937Y019906D01*
X033016Y020142D02*
X033016Y020260D01*
X033016Y020142D01*
X030890Y020221D02*
X030772Y019945D01*
X030772Y019630D01*
X030732Y019591D01*
X040969Y005457D02*
X041008Y005417D01*
X031520Y038725D02*
X031520Y039630D01*
X030929Y040221D01*
X029669Y040221D01*
X029315Y040575D01*
X029315Y041126D01*
X029295Y041146D01*
X024827Y039669D02*
X024827Y039079D01*
X024236Y038488D01*
D28*
X024236Y038095D01*
X024433Y037898D01*
X024630Y037701D01*
X025221Y037110D01*
X025221Y036914D01*
X025221Y033567D01*
X026992Y032977D02*
X026992Y026480D01*
X027662Y026166D02*
X027662Y023567D01*
X027603Y023508D01*
X027662Y026166D02*
X028173Y026677D01*
X029788Y026677D01*
X029197Y027150D02*
X029197Y027622D01*
X029315Y027740D01*
X029709Y027740D01*
X030299Y028331D01*
X030299Y031520D01*
X032307Y033528D01*
X032307Y034984D01*
X033134Y035811D01*
X033685Y035811D01*
X035063Y034433D01*
X035378Y034118D01*
X036480Y034118D01*
X036599Y034000D01*
X036599Y033331D01*
X036756Y033173D01*
X037504Y033173D01*
X037662Y033331D01*
X037662Y033606D01*
X036992Y033606D02*
X036992Y034748D01*
X036638Y035103D01*
X035181Y035103D01*
X034040Y036244D01*
X032977Y036244D01*
X032465Y035732D01*
X031914Y035181D01*
X031914Y033764D01*
X030181Y032032D01*
X029866Y031717D01*
X029866Y028528D01*
X029473Y028134D01*
X028882Y028134D01*
X028646Y027898D01*
X028646Y027150D01*
X028173Y027622D02*
X028173Y032583D01*
X028370Y032780D01*
X030339Y032780D01*
X031323Y033764D01*
X031520Y033961D01*
X031520Y035536D01*
X031520Y036205D01*
X031638Y036323D01*
X031126Y035929D02*
X031126Y034158D01*
X030142Y033173D01*
X028370Y033173D01*
X027780Y033173D01*
X027386Y032780D01*
X027386Y027465D01*
X029354Y028843D02*
X029354Y031008D01*
X029551Y033567D02*
X027583Y033567D01*
X026992Y032977D01*
X027977Y034354D02*
X028370Y033961D01*
X029551Y033961D01*
X029748Y034158D01*
X029854Y034264D01*
X029854Y034732D01*
X030732Y034354D02*
X029945Y033567D01*
X029551Y033567D01*
X030732Y034354D02*
X030732Y035854D01*
X029854Y036732D01*
X029354Y036232D02*
X028854Y035732D01*
X029354Y036232D02*
X029354Y037504D01*
X030339Y038488D01*
X031284Y038488D01*
X031520Y038725D01*
X033410Y039512D02*
X033410Y040339D01*
X032681Y041067D01*
X032681Y041146D01*
X027977Y037307D02*
X027977Y034354D01*
X027977Y037307D02*
X027386Y037898D01*
X026795Y037898D01*
X025910Y038784D01*
X025910Y039374D01*
X019709Y036323D02*
X017937Y036323D01*
X015811Y036402D02*
X015811Y032858D01*
X015811Y032662D01*
X015811Y029118D01*
X019040Y029788D02*
X019040Y029945D01*
X021480Y028606D02*
X022071Y029197D01*
X031914Y028449D02*
X032110Y028646D01*
X032110Y031795D01*
X034079Y032386D02*
X034079Y030614D01*
X033882Y030417D01*
X034079Y032386D02*
X034079Y032977D01*
X034276Y033173D01*
X037819Y031992D02*
X037819Y028843D01*
X038016Y028646D01*
X038425Y028236D01*
X038894Y028236D01*
X039894Y030236D02*
X039894Y032295D01*
X039894Y033043D01*
X040221Y033370D01*
X040339Y033488D01*
X040339Y034118D01*
X039906Y034551D01*
X043291Y028370D02*
X045378Y028370D01*
X046914Y029906D01*
X047268Y029906D01*
X047465Y030103D01*
X047465Y034551D01*
X043291Y028370D02*
X040732Y025811D01*
X040654Y025732D01*
X040654Y024669D01*
X039984Y024000D01*
X039984Y015732D01*
X038528Y014276D01*
X038528Y011835D01*
X038291Y011599D01*
X037670Y011599D01*
X038291Y011599D01*
X038528Y011835D01*
X038528Y010142D01*
X038173Y009788D01*
X037670Y009788D01*
X037670Y010693D02*
X037189Y010693D01*
X037110Y010772D01*
X037110Y010929D01*
X037110Y013488D01*
X039551Y015929D01*
X039551Y024512D01*
X039866Y024827D01*
X039009Y024827D01*
X039009Y025732D02*
X040654Y025732D01*
X040732Y025811D01*
X040654Y024040D02*
X040654Y009394D01*
X041087Y008961D01*
X042740Y008961D01*
X042740Y012268D02*
X041520Y012268D01*
X041166Y012622D01*
X041166Y013685D01*
X041166Y013764D01*
X041166Y013685D01*
X041166Y013764D02*
X041166Y023685D01*
X042701Y025221D01*
X043488Y026008D01*
X049315Y026008D01*
X049984Y025339D01*
X049984Y025221D01*
X049984Y024354D02*
X049984Y024000D01*
X049984Y024354D02*
X048843Y025496D01*
X043843Y025496D01*
X042347Y024000D01*
X041677Y023331D01*
X041677Y017622D01*
X042071Y017229D01*
X042740Y017229D01*
X039118Y017071D02*
X039118Y016402D01*
X039118Y017071D02*
X038961Y017229D01*
X038016Y018173D01*
X040654Y024040D02*
X043055Y026441D01*
X049984Y026441D01*
X037670Y008882D02*
X037189Y008882D01*
X037110Y008961D01*
X037110Y010772D01*
X012347Y037110D02*
X012347Y038410D01*
X010890Y039866D01*
X010063Y039866D01*
X009866Y040063D01*
X019591Y051362D02*
X019512Y051441D01*
X019512Y051465D01*
X018921Y056284D02*
X020772Y058134D01*
X020772Y058173D01*
X024669Y068370D02*
X021181Y071858D01*
X020004Y071858D01*
X020004Y071874D02*
X018803Y071874D01*
X016992Y070063D01*
X015221Y070063D01*
X015221Y073882D01*
X015221Y077110D01*
X015417Y077307D01*
X023213Y077307D01*
X024512Y076008D01*
X024512Y075063D01*
X025260Y075654D02*
X025260Y071559D01*
X025732Y071087D01*
X027071Y071087D01*
X027110Y071047D01*
X027110Y069000D02*
X028843Y069000D01*
X028961Y069000D01*
X029433Y068528D01*
X030811Y068528D01*
X031126Y068213D01*
X031126Y067898D01*
X031480Y067543D01*
X031953Y067543D01*
X032229Y067819D01*
X032229Y070063D01*
X033685Y070063D01*
X034473Y070851D01*
X034473Y068410D01*
X034473Y068291D01*
X033095Y067662D02*
X032740Y067307D01*
X032662Y067229D01*
X032622Y067189D01*
X032622Y063685D01*
X032583Y063646D01*
X033095Y067662D02*
X036992Y067662D01*
X037819Y068488D01*
X037819Y072032D01*
X032229Y070063D02*
X031323Y070063D01*
X030890Y074984D02*
X030890Y076559D01*
X027662Y075811D02*
X027662Y074433D01*
X025260Y075654D02*
X027110Y077504D01*
X027543Y077504D01*
X020536Y071559D02*
X020221Y071874D01*
X020004Y071874D01*
X019354Y071323D02*
X016045Y068014D01*
X014748Y068014D01*
X014748Y071835D01*
X014748Y075730D01*
X036008Y057543D02*
X037583Y057543D01*
X040024Y059984D01*
D29*
X034866Y074276D02*
X033606Y075536D01*
X033016Y076126D01*
X032701Y076126D01*
X033291Y075851D02*
X033606Y075536D01*
X036205Y033567D02*
X036205Y033449D01*
X035851Y033095D01*
X034630Y031874D01*
X034630Y028921D01*
X034630Y026480D02*
X034630Y018921D01*
X034630Y018882D01*
X034000Y018252D01*
X034000Y017662D02*
X035103Y018764D01*
X035103Y026480D01*
X035575Y026480D02*
X035575Y018016D01*
X034079Y016520D01*
X034079Y013370D01*
X034079Y013331D01*
X034709Y012977D02*
X034709Y012937D01*
X034709Y012977D02*
X034709Y016402D01*
X036008Y017701D01*
X036047Y017740D01*
X036047Y026480D01*
X036520Y026480D02*
X036520Y017622D01*
X035221Y016323D01*
X035221Y012543D01*
X033961Y011284D01*
X033961Y008685D01*
X034433Y008488D02*
X034630Y008291D01*
X034433Y008488D02*
X034433Y011087D01*
X035004Y011658D01*
X035693Y012347D01*
X035693Y016205D01*
X036992Y017504D01*
X036992Y026480D01*
D30*
X046890Y045244D02*
X047004Y045358D01*
X047071Y045358D01*
X045504Y047358D02*
X045457Y047358D01*
X045504Y047358D02*
X045299Y047543D01*
X045299Y053213D02*
X045504Y053358D01*
X045299Y053449D01*
X029504Y073358D02*
X029473Y073370D01*
X029504Y073358D02*
X029504Y073858D01*
X029473Y073921D01*
X020004Y071874D02*
X020004Y071858D01*
X021504Y034858D02*
X023504Y032858D01*
X023555Y032807D01*
D31*
X021504Y034858D03*
D32*
X025024Y052662D02*
X042071Y052662D01*
X042583Y053173D01*
X042583Y053252D01*
X042307Y053528D01*
X041441Y053528D01*
X041402Y053567D01*
X027307Y053567D01*
X026992Y053882D01*
X026835Y053882D01*
X041244Y053882D01*
X041402Y054040D01*
X041402Y054118D01*
X041284Y054236D01*
X025457Y054236D01*
X025811Y054591D01*
X043095Y054591D01*
X043606Y055103D01*
X043606Y055496D01*
X043646Y055457D01*
X043646Y054276D01*
X043606Y054315D01*
X042819Y054315D01*
X042819Y055063D01*
X043961Y056205D01*
X043961Y056362D01*
X044000Y056323D01*
X044000Y054158D01*
X043764Y053921D01*
X042622Y053921D01*
X042425Y054118D01*
X042425Y055181D01*
X044197Y056953D01*
X044197Y057229D01*
X044315Y057110D01*
X044315Y053961D01*
X044079Y053725D01*
X042307Y053725D01*
X042189Y053843D01*
X042189Y055536D01*
X044276Y057622D01*
X044315Y057622D01*
X044591Y057347D01*
X044591Y053685D01*
X044354Y053449D01*
X042189Y053449D01*
X041874Y053764D01*
X041874Y055851D01*
X043843Y057819D01*
X044827Y057819D01*
X044866Y057780D01*
X044866Y053528D01*
X045299Y053961D01*
X045299Y054945D01*
X031244Y054945D01*
X027032Y054945D01*
X026441Y055536D01*
X024354Y057622D01*
X023173Y058803D01*
X020142Y058803D01*
X020339Y058606D01*
X020339Y056756D01*
X019827Y056244D01*
X018882Y056244D01*
X019059Y056067D01*
X023232Y056067D01*
X023252Y056087D01*
X023213Y056087D02*
X022425Y056087D01*
X022406Y056067D01*
X023331Y057229D01*
X025142Y055417D01*
X025142Y055221D01*
X027071Y053291D01*
X032898Y053291D01*
X032819Y054315D01*
X032780Y054276D01*
X026717Y054276D01*
X023725Y057268D01*
X022740Y057268D01*
X022701Y057229D01*
X021599Y057229D01*
X021480Y057347D01*
X021480Y057386D01*
X021559Y057465D01*
X022622Y057465D01*
X023213Y056874D01*
X023095Y056992D01*
X021441Y056992D01*
X021244Y057189D01*
X021244Y057740D01*
X021284Y057780D01*
X022819Y057780D01*
X025063Y055536D01*
X025063Y055142D01*
X023606Y056599D01*
X021166Y056599D01*
X021087Y056677D01*
X021087Y058055D01*
X021126Y058016D01*
X022819Y058016D01*
X025969Y054866D01*
X026677Y054866D01*
X023095Y058449D01*
X020693Y058449D01*
X020772Y058370D01*
X020772Y058173D01*
X020772Y056795D01*
X020378Y056402D01*
X020339Y056402D01*
X020457Y056284D01*
X023449Y056284D01*
X026205Y053528D01*
X024276Y054512D01*
X025693Y053095D01*
X042150Y053095D01*
X041914Y052858D01*
X025260Y052858D01*
X022150Y055969D01*
X022071Y055969D01*
X021599Y056441D01*
X021244Y056441D01*
X025024Y052662D01*
X025221Y053213D02*
X022268Y056166D01*
X021992Y056166D01*
X022071Y056087D01*
X023213Y056087D01*
X023173Y056126D01*
X023213Y056087D01*
X023134Y056008D02*
X023331Y056008D01*
X025969Y053370D01*
X026008Y053370D01*
X025851Y053213D01*
X025221Y053213D01*
X025417Y053488D02*
X023095Y055811D01*
X023095Y055969D01*
X023134Y056008D01*
X025024Y054433D02*
X025693Y053764D01*
X041559Y053764D01*
X042937Y055142D01*
X042937Y056087D01*
X042268Y055417D01*
X042268Y054788D01*
X042071Y054984D01*
X027071Y054984D01*
X025575Y053488D01*
X025417Y053488D01*
X026087Y053213D02*
X025024Y054433D01*
X026087Y053213D02*
X045299Y053213D01*
X045299Y053449D01*
X045299Y058173D01*
X043685Y058173D01*
X041638Y056126D01*
X041638Y053331D01*
X040811Y054709D02*
X040221Y054709D01*
X041599Y056087D01*
X042268Y055417D01*
X041520Y055417D01*
X040811Y054709D01*
X045299Y052268D02*
X045299Y051087D01*
X045299Y049906D01*
X045299Y048725D01*
X045299Y047543D01*
X045299Y046992D01*
X045260Y046953D01*
X042858Y046953D01*
X045299Y046992D02*
X045299Y046362D01*
M02*
