%
M48
M72
T01C0.0120
T02C0.0197
T03C0.0236
T04C0.0354
T05C0.0400
T06C0.0406
T07C0.0433
T08C0.0709
T09C0.1181
T10C0.1260
%
T01
X21504Y34858
T02
X31756Y18764
X32504Y18291
X32150Y17819
X31756Y17307
X32819Y17307
X32819Y13882
X32504Y13410
X32150Y12937
X31717Y12386
X32819Y12386
X31717Y13882
X31717Y9236
X32504Y8764
X32819Y9236
X32150Y8291
X31717Y7740
X25221Y62150
X26756Y63252
X26677Y65024
X25221Y65457
X32701Y76126
T03
X30890Y76559
X30890Y74984
X29473Y73921
X29040Y74433
X27662Y74433
X27898Y73173
X28764Y71874
X29669Y71402
X30772Y72504
X31323Y70063
X31323Y68764
X31126Y68213
X30457Y67977
X30496Y67504
X28843Y69000
X27110Y69000
X27110Y71047
X26047Y73843
X24512Y75063
X27662Y75811
X27543Y77504
X24669Y68370
X23095Y65536
X20732Y66205
X20654Y63173
X21677Y61126
X17425Y67740
X17780Y68606
X15221Y70063
X14748Y71835
X15221Y73882
X14748Y75730
X15221Y77110
X19354Y71323
X20536Y71559
X15496Y63803
X14748Y63173
X14748Y68014
X9197Y62543
X9866Y40063
X12347Y37110
X15811Y36402
X17937Y36323
X19709Y36323
X19906Y34158
X20496Y33370
X19512Y32780
X19276Y31402
X19040Y29945
X19118Y29040
X20693Y28252
X21087Y29433
X21480Y28606
X22071Y29236
X22071Y29827
X23252Y30024
X23646Y31599
X22662Y32189
X25221Y33567
X26638Y33488
X29354Y31008
X29354Y28843
X28173Y27622
X28646Y27150
X29197Y27150
X29788Y26677
X28291Y25851
X26992Y26480
X27386Y27465
X31914Y28449
X32977Y26992
X34040Y27425
X34630Y26480
X35103Y26480
X35575Y26480
X36047Y26480
X36520Y26480
X36992Y26480
X34630Y28921
X33882Y30417
X32110Y31795
X34276Y33173
X36205Y33567
X36992Y33606
X37662Y33606
X39040Y34236
X39040Y35221
X39906Y34551
X39945Y33764
X40575Y35063
X43134Y35614
X44354Y34788
X45103Y35614
X44709Y37898
X47465Y34551
X47662Y35929
X50221Y37583
X46914Y29906
X49315Y27701
X49984Y26441
X49984Y25221
X49984Y24000
X44669Y27347
X40851Y28252
X39866Y24827
X38016Y18173
X39118Y16402
X39473Y13095
X39473Y9748
X34630Y8291
X33961Y8685
X34709Y12937
X34079Y13331
X34000Y17662
X34000Y18252
X32858Y19748
X32858Y20221
X30890Y20221
X30890Y19748
X29551Y20457
X29079Y20969
X29394Y18646
X29394Y17110
X29394Y13882
X29394Y12386
X29394Y9236
X29394Y7740
X25732Y15536
X26323Y17662
X23370Y17465
X23370Y16992
X23370Y16520
X23370Y16047
X23370Y12740
X23370Y12268
X23370Y11795
X23370Y11362
X23370Y8055
X23370Y7583
X23370Y7110
X23370Y6638
X19118Y20063
X19118Y26677
X20693Y26677
X22268Y26284
X15811Y29118
X15811Y32858
X14788Y25260
X22858Y38095
X23646Y38685
X24236Y38488
X24827Y39669
X31126Y35929
X31638Y36323
X31520Y38725
X33410Y39512
X38095Y39158
X42425Y41914
X42858Y46953
X41638Y53331
X38528Y56047
X37150Y55851
X36008Y57543
X35240Y58823
X31914Y55732
X28213Y55772
X27229Y55969
X27071Y61717
X26992Y66047
X32583Y63646
X34473Y68291
X34473Y70851
X34866Y74276
X35772Y77425
X36677Y77662
X37819Y72032
X40024Y59984
X37819Y31992
T04
X9906Y39000
X9906Y40732
X48370Y73843
X48370Y75575
T05
X40811Y68673
X40811Y67673
X21299Y73996
X20299Y73996
X19299Y73996
X12351Y73740
X12351Y72740
X12351Y71740
X12351Y69803
X12351Y68803
X12351Y67803
X12351Y75677
X12351Y76677
X12351Y77677
X19512Y60197
X19512Y58197
X19512Y53465
X19512Y51465
X28854Y36732
X28854Y35732
X28854Y34732
X29854Y34732
X29854Y35732
X29854Y36732
X29236Y25382
X29236Y24382
X29236Y23382
X29236Y22382
X26146Y22937
X25146Y22937
X24146Y22937
X23146Y22937
X22146Y22937
X21146Y22937
X19315Y17835
X19315Y15835
X19315Y12126
X19315Y10126
X12351Y26858
X12351Y27858
X12351Y28858
X12351Y30402
X12351Y31402
X12351Y32402
X12351Y33945
X12351Y34945
X12351Y35945
X38894Y30236
X38894Y29236
X38894Y28236
X39894Y28236
X39894Y29236
X39894Y30236
X44433Y30524
X44433Y29524
X39709Y6469
X39709Y5469
T06
X45299Y46362
X45299Y47543
X45299Y48725
X45299Y49906
X45299Y51087
X45299Y52268
X45299Y53449
X45299Y54630
X45299Y55811
X45299Y56992
X45299Y58173
X46480Y58173
X46480Y56992
X46480Y55811
X46480Y54630
X46480Y53449
X46480Y52268
X46480Y51087
X46480Y49906
X46480Y48725
X46480Y47543
X46480Y46362
X46480Y59354
X45299Y59354
T07
X32681Y41146
X32681Y39374
X30122Y39374
X29295Y39374
X29295Y41146
X30122Y41146
X26736Y41146
X25910Y41146
X25910Y39374
X26736Y39374
X23351Y39374
X23351Y41146
T08
X15772Y50024
X15772Y51677
X15772Y53331
X15772Y54984
X15772Y56638
X15772Y58291
X15772Y59945
X15772Y61599
X13606Y61599
X13606Y59945
X13606Y58291
X13606Y56638
X13606Y54984
X13606Y53331
X13606Y51677
X13606Y50024
X13410Y19866
X13410Y18213
X13410Y16559
X13410Y14906
X13410Y13252
X13410Y11599
X13410Y9945
X13410Y8291
X15575Y8291
X15575Y9945
X15575Y11599
X15575Y13252
X15575Y14906
X15575Y16559
X15575Y18213
X15575Y19866
X42740Y18882
X42740Y17229
X42740Y15575
X42740Y13921
X42740Y12268
X42740Y10614
X42740Y8961
X42740Y7307
X44906Y7307
X44906Y8961
X44906Y10614
X44906Y12268
X44906Y13921
X44906Y15575
X44906Y17229
X44906Y18882
X45103Y65024
X45103Y66677
X42937Y66677
X42937Y65024
T09
X39945Y71087
X48181Y58504
X48181Y47205
X33331Y33803
X43921Y24079
X28606Y59748
X23016Y72425
X13173Y25181
T10
X11756Y6520
X11756Y21638
X11953Y48252
X11953Y63370
X46756Y63252
X46756Y68449
X46559Y20654
X46559Y5536
M30
