G75*
G70*
%OFA0B0*%
%FSLAX24Y24*%
%IPPOS*%
%LPD*%
%AMOC8*
5,1,8,0,0,1.08239X$1,22.5*
%
%ADD10C,0.1221*%
%ADD11R,0.1103X0.1103*%
%ADD12C,0.1300*%
%ADD13C,0.0394*%
%ADD14C,0.1040*%
%ADD15OC8,0.1040*%
%ADD16R,0.0690X0.0690*%
%ADD17C,0.0640*%
%ADD18OC8,0.0640*%
%ADD19R,0.0648X0.0648*%
%ADD20R,0.0670X0.0750*%
%ADD21R,0.1040X0.1209*%
%ADD22R,0.0697X0.0497*%
D10*
X013173Y025181D03*
X033331Y033803D03*
X043921Y024079D03*
X048181Y047205D03*
X048181Y058504D03*
X039945Y071087D03*
X028606Y059748D03*
X023016Y072425D03*
D11*
X015772Y061599D03*
X015772Y059945D03*
X015772Y058291D03*
X015772Y056638D03*
X015772Y054984D03*
X015772Y053331D03*
X015772Y051677D03*
X015772Y050024D03*
X013606Y050024D03*
X013606Y051677D03*
X013606Y053331D03*
X013606Y054984D03*
X013606Y056638D03*
X013606Y058291D03*
X013606Y059945D03*
X013606Y061599D03*
X013410Y019866D03*
X013410Y018213D03*
X013410Y016559D03*
X013410Y014906D03*
X013410Y013252D03*
X013410Y011599D03*
X013410Y009945D03*
X013410Y008291D03*
X015575Y008291D03*
X015575Y009945D03*
X015575Y011599D03*
X015575Y013252D03*
X015575Y014906D03*
X015575Y016559D03*
X015575Y018213D03*
X015575Y019866D03*
X042740Y018882D03*
X042740Y017229D03*
X042740Y015575D03*
X042740Y013921D03*
X042740Y012268D03*
X042740Y010614D03*
X042740Y008961D03*
X042740Y007307D03*
X044906Y007307D03*
X044906Y008961D03*
X044906Y010614D03*
X044906Y012268D03*
X044906Y013921D03*
X044906Y015575D03*
X044906Y017229D03*
X044906Y018882D03*
X045103Y065024D03*
X045103Y066677D03*
X042937Y066677D03*
X042937Y065024D03*
D12*
X011756Y006520D03*
X011756Y021638D03*
X011953Y048252D03*
X011953Y063370D03*
X046756Y063252D03*
X046756Y068449D03*
X046559Y020654D03*
X046559Y005536D03*
D13*
X009906Y039000D03*
X009906Y040732D03*
X048370Y073843D03*
X048370Y075575D03*
D14*
X019512Y058197D03*
X019512Y053465D03*
X019315Y015835D03*
X019315Y012126D03*
D15*
X019315Y010126D03*
X019315Y017835D03*
X019512Y051465D03*
X019512Y060197D03*
D16*
X023351Y041146D03*
X023351Y039374D03*
X025910Y039374D03*
X026736Y039374D03*
X026736Y041146D03*
X025910Y041146D03*
X029295Y041146D03*
X030122Y041146D03*
X030122Y039374D03*
X029295Y039374D03*
X032681Y039374D03*
X032681Y041146D03*
D17*
X029536Y025382D02*
X028936Y025382D01*
X028936Y024382D02*
X029536Y024382D01*
X029536Y023382D02*
X028936Y023382D01*
X028936Y022382D02*
X029536Y022382D01*
X026146Y022637D02*
X026146Y023237D01*
X025146Y023237D02*
X025146Y022637D01*
X024146Y022637D02*
X024146Y023237D01*
X023146Y023237D02*
X023146Y022637D01*
X022146Y022637D02*
X022146Y023237D01*
X021146Y023237D02*
X021146Y022637D01*
X012651Y026858D02*
X012051Y026858D01*
X012051Y027858D02*
X012651Y027858D01*
X012651Y028858D02*
X012051Y028858D01*
X012051Y030402D02*
X012651Y030402D01*
X012651Y031402D02*
X012051Y031402D01*
X012051Y032402D02*
X012651Y032402D01*
X012651Y033945D02*
X012051Y033945D01*
X012051Y034945D02*
X012651Y034945D01*
X012651Y035945D02*
X012051Y035945D01*
X012051Y067803D02*
X012651Y067803D01*
X012651Y068803D02*
X012051Y068803D01*
X012051Y069803D02*
X012651Y069803D01*
X012651Y071740D02*
X012051Y071740D01*
X012051Y072740D02*
X012651Y072740D01*
X012651Y073740D02*
X012051Y073740D01*
X012051Y075677D02*
X012651Y075677D01*
X012651Y076677D02*
X012051Y076677D01*
X012051Y077677D02*
X012651Y077677D01*
X019299Y074296D02*
X019299Y073696D01*
X020299Y073696D02*
X020299Y074296D01*
X021299Y074296D02*
X021299Y073696D01*
X040511Y068673D02*
X041111Y068673D01*
X041111Y067673D02*
X040511Y067673D01*
X044133Y030524D02*
X044733Y030524D01*
X044733Y029524D02*
X044133Y029524D01*
X040009Y006469D02*
X039409Y006469D01*
X039409Y005469D02*
X040009Y005469D01*
D18*
X039894Y028236D03*
X039894Y029236D03*
X039894Y030236D03*
X038894Y030236D03*
X038894Y029236D03*
X038894Y028236D03*
X029854Y034732D03*
X028854Y034732D03*
X028854Y035732D03*
X028854Y036732D03*
X029854Y036732D03*
X029854Y035732D03*
D19*
X045299Y046362D03*
X045299Y047543D03*
X045299Y048725D03*
X045299Y049906D03*
X045299Y051087D03*
X045299Y052268D03*
X045299Y053449D03*
X045299Y054630D03*
X045299Y055811D03*
X045299Y056992D03*
X045299Y058173D03*
X046480Y058173D03*
X046480Y056992D03*
X046480Y055811D03*
X046480Y054630D03*
X046480Y053449D03*
X046480Y052268D03*
X046480Y051087D03*
X046480Y049906D03*
X046480Y048725D03*
X046480Y047543D03*
X046480Y046362D03*
X046480Y059354D03*
X045299Y059354D03*
D20*
X039009Y025732D03*
X039009Y024827D03*
X037889Y024827D03*
X037889Y025732D03*
X037670Y011599D03*
X037670Y010693D03*
X037670Y009788D03*
X037670Y008882D03*
X036551Y008882D03*
X036551Y009788D03*
X036551Y010693D03*
X036551Y011599D03*
D21*
X041323Y033921D03*
D22*
X041323Y034957D03*
M02*
