%
M48
M72
T01C0.0157
T02C0.0197
T03C0.0236
T04C0.0320
T05C0.0354
T06C0.0400
T07C0.0433
T08C0.0472
T09C0.0709
T10C0.1260
%
T01
X10590Y7440
X10590Y9930
X14940Y10920
X15300Y11280
X16140Y12990
X16140Y14370
X15300Y16050
X14940Y16410
X10590Y17370
X10590Y19830
X26400Y17640
T02
X25860Y16290
X25350Y16290
X24750Y15540
X23340Y15870
X21900Y15540
X22710Y14760
X23220Y14610
X22710Y13800
X24390Y14040
X24360Y13290
X24750Y12810
X24780Y12300
X24300Y12090
X25530Y12150
X26010Y12150
X26130Y12630
X26130Y13290
X27900Y13770
X29550Y14520
X30660Y14520
X26850Y11340
X26850Y10650
X25380Y10410
X22770Y11940
X22260Y11940
X21000Y10920
X19920Y9990
X16710Y11730
X16260Y10500
X14160Y9990
X13200Y9990
X18000Y13260
X18480Y14040
X20490Y15480
X22080Y17070
X21810Y20280
X21270Y21300
X29280Y5670
T03
X32370Y5640
X34290Y6960
X29550Y7830
X29520Y8970
X29520Y10140
X29520Y11250
X29520Y12360
X30270Y13541
X30660Y15930
X28440Y18240
X29010Y19050
X30960Y20070
X31500Y21810
X33036Y21804
X35280Y21480
X34950Y19350
X25380Y22230
X24120Y20160
X24120Y19500
X18480Y21300
X18540Y23160
X19890Y15810
X17670Y11880
X16770Y10500
X23520Y9480
X24150Y10170
X23460Y6690
X34620Y10110
X35130Y11250
X35610Y12360
T04
X30000Y17430
X29000Y17430
X28000Y17430
X27000Y17430
X27000Y20430
X28000Y20430
X29000Y20430
X30000Y20430
T05
X36375Y18577
X36375Y17593
X36375Y16609
X36375Y15625
X36375Y14640
X36375Y13656
X36375Y12672
X36375Y10651
X36375Y9666
X36375Y8682
X36375Y7698
X36375Y6714
X36375Y5729
X36375Y4745
T06
X26140Y4720
X25140Y4720
X24140Y4720
X24140Y5720
X25140Y5720
X26140Y5720
X18310Y4980
X17310Y4980
X16310Y4980
X15310Y4980
X14310Y4980
X13310Y4980
X19980Y17080
X19980Y18080
X19980Y19390
X19980Y20390
X21690Y22230
X22690Y22230
X23690Y22230
X24690Y22230
X26070Y22230
X27070Y22230
X28070Y22230
X29070Y22230
X25780Y18080
X24780Y18080
X23780Y18080
X23780Y17080
X24780Y17080
X25780Y17080
T07
X34030Y20624
X36590Y20624
X36590Y22396
X34030Y22396
X30560Y6556
X28000Y6556
X28000Y4784
X30560Y4784
T08
X18252Y18109
X17252Y18109
X16252Y18109
X15252Y18109
X13252Y18109
X13252Y20109
X15252Y20109
X16252Y20109
X17252Y20109
X18252Y20109
T09
X11675Y19437
X9510Y19437
X9510Y17784
X11675Y17784
X11675Y16130
X9510Y16130
X9510Y14477
X11675Y14477
X11675Y12823
X9510Y12823
X9510Y11170
X11675Y11170
X11675Y9516
X9510Y9516
X9510Y7863
X11675Y7863
T10
X7856Y6091
X7856Y21209
M30
