G75*
G70*
%OFA0B0*%
%FSLAX24Y24*%
%IPPOS*%
%LPD*%
%AMOC8*
5,1,8,0,0,1.08239X$1,22.5*
%
%ADD10R,0.0580X0.0200*%
%ADD11R,0.0200X0.0580*%
%ADD12R,0.0560X0.0110*%
%ADD13R,0.0787X0.0787*%
%ADD14R,0.0551X0.1181*%
%ADD15R,0.0350X0.0165*%
%ADD16R,0.0650X0.0650*%
%ADD17R,0.0661X0.1161*%
%ADD18R,0.0512X0.0512*%
%ADD19R,0.1516X0.0512*%
%ADD20C,0.0600*%
%ADD21R,0.0710X0.0630*%
%ADD22R,0.0531X0.0531*%
%ADD23OC8,0.0600*%
%ADD24R,0.0630X0.0710*%
%ADD25R,0.0709X0.0630*%
%ADD26R,0.0551X0.0472*%
%ADD27R,0.0480X0.0358*%
%ADD28C,0.0480*%
%ADD29R,0.1063X0.1063*%
%ADD30C,0.1660*%
%ADD31R,0.0551X0.0709*%
%ADD32R,0.0630X0.0709*%
%ADD33R,0.1669X0.1500*%
%ADD34R,0.0217X0.0433*%
%ADD35R,0.2799X0.1252*%
%ADD36C,0.0240*%
%ADD37C,0.0160*%
%ADD38R,0.0376X0.0376*%
%ADD39R,0.0337X0.0337*%
%ADD40R,0.0297X0.0297*%
%ADD41C,0.0100*%
%ADD42C,0.0120*%
%ADD43C,0.1000*%
%ADD44C,0.1500*%
D10*
X023583Y012018D03*
X023583Y012328D03*
X023583Y012648D03*
X023583Y012958D03*
X023583Y013278D03*
X023583Y013588D03*
X023583Y013908D03*
X023583Y014218D03*
X026823Y014218D03*
X026823Y013908D03*
X026823Y013588D03*
X026823Y013278D03*
X026823Y012958D03*
X026823Y012648D03*
X026823Y012328D03*
X026823Y012018D03*
D11*
X026303Y011498D03*
X025993Y011498D03*
X025673Y011498D03*
X025363Y011498D03*
X025043Y011498D03*
X024733Y011498D03*
X024413Y011498D03*
X024103Y011498D03*
X024103Y014738D03*
X024413Y014738D03*
X024733Y014738D03*
X025043Y014738D03*
X025363Y014738D03*
X025673Y014738D03*
X025993Y014738D03*
X026303Y014738D03*
D12*
X021620Y014100D03*
X021620Y013910D03*
X021620Y013710D03*
X021620Y013510D03*
X021620Y013320D03*
X019900Y013320D03*
X019900Y013510D03*
X019900Y013710D03*
X019900Y013910D03*
X019900Y014100D03*
D13*
X018252Y018109D03*
X017252Y018109D03*
X016252Y018109D03*
X015252Y018109D03*
X013252Y018109D03*
X013252Y020109D03*
X015252Y020109D03*
X016252Y020109D03*
X017252Y020109D03*
X018252Y020109D03*
D14*
X029220Y015934D03*
X032520Y015934D03*
X032520Y013571D03*
X029220Y013571D03*
D15*
X019010Y013588D03*
X019010Y013332D03*
X019010Y013844D03*
X019010Y014100D03*
X017400Y014100D03*
X017400Y013844D03*
X017400Y013588D03*
X017400Y013332D03*
D16*
X028000Y006556D03*
X030560Y006556D03*
X030560Y004784D03*
X028000Y004784D03*
X034030Y020624D03*
X036590Y020624D03*
X036590Y022396D03*
X034030Y022396D03*
D17*
X019421Y022170D03*
X017539Y022170D03*
D18*
X031224Y022470D03*
X032130Y022470D03*
X033036Y022470D03*
D19*
X032130Y020068D03*
D20*
X029070Y021930D02*
X029070Y022530D01*
X028070Y022530D02*
X028070Y021930D01*
X027070Y021930D02*
X027070Y022530D01*
X026070Y022530D02*
X026070Y021930D01*
X024690Y021930D02*
X024690Y022530D01*
X023690Y022530D02*
X023690Y021930D01*
X022690Y021930D02*
X022690Y022530D01*
X021690Y022530D02*
X021690Y021930D01*
X020280Y020390D02*
X019680Y020390D01*
X019680Y019390D02*
X020280Y019390D01*
X020280Y018080D02*
X019680Y018080D01*
X019680Y017080D02*
X020280Y017080D01*
X018310Y005280D02*
X018310Y004680D01*
X017310Y004680D02*
X017310Y005280D01*
X016310Y005280D02*
X016310Y004680D01*
X015310Y004680D02*
X015310Y005280D01*
X014310Y005280D02*
X014310Y004680D01*
X013310Y004680D02*
X013310Y005280D01*
D21*
X013200Y006160D03*
X014160Y006160D03*
X015120Y006160D03*
X016080Y006160D03*
X017040Y006160D03*
X018000Y006160D03*
X018960Y006160D03*
X019920Y006160D03*
X020880Y006160D03*
X021840Y006160D03*
X022800Y006160D03*
X022800Y007280D03*
X021840Y007280D03*
X020880Y007280D03*
X019920Y007280D03*
X018960Y007280D03*
X018000Y007280D03*
X017040Y007280D03*
X016080Y007280D03*
X015120Y007280D03*
X014160Y007280D03*
X013200Y007280D03*
X027690Y007420D03*
X027690Y008540D03*
X021150Y017110D03*
X021150Y018230D03*
X021150Y019270D03*
X021150Y020390D03*
X031110Y018650D03*
X032100Y018650D03*
X033090Y018650D03*
X034080Y018650D03*
X034080Y017530D03*
X033090Y017530D03*
X032100Y017530D03*
X031110Y017530D03*
D22*
X036375Y017593D03*
X036375Y016609D03*
X036375Y015625D03*
X036375Y014640D03*
X036375Y013656D03*
X036375Y012672D03*
X036375Y010651D03*
X036375Y009666D03*
X036375Y008682D03*
X036375Y007698D03*
X036375Y006714D03*
X036375Y005729D03*
X036375Y004745D03*
X036375Y018577D03*
D23*
X025780Y018080D03*
X024780Y018080D03*
X023780Y018080D03*
X023780Y017080D03*
X024780Y017080D03*
X025780Y017080D03*
X026140Y005720D03*
X025140Y005720D03*
X024140Y005720D03*
X024140Y004720D03*
X025140Y004720D03*
X026140Y004720D03*
D24*
X022610Y004890D03*
X021490Y004890D03*
X024820Y009780D03*
X025940Y009780D03*
X030280Y010110D03*
X031400Y010110D03*
X032590Y010110D03*
X033710Y010110D03*
X033710Y008970D03*
X032590Y008970D03*
X031400Y008970D03*
X030280Y008970D03*
X030280Y007830D03*
X031400Y007830D03*
X032590Y007830D03*
X033710Y007830D03*
X033710Y011250D03*
X032590Y011250D03*
X031400Y011250D03*
X030280Y011250D03*
X030280Y012360D03*
X031400Y012360D03*
X032590Y012360D03*
X033710Y012360D03*
X021050Y012540D03*
X019930Y012540D03*
X018740Y012540D03*
X017620Y012540D03*
X017590Y014880D03*
X018710Y014880D03*
X019900Y014880D03*
X021020Y014880D03*
X024790Y019710D03*
X025910Y019710D03*
X025910Y020670D03*
X024790Y020670D03*
D25*
X022560Y018821D03*
X022560Y017719D03*
X024000Y008531D03*
X024000Y007429D03*
X026760Y007429D03*
X026760Y008531D03*
X028620Y008531D03*
X028620Y007429D03*
X031620Y006221D03*
X031620Y005119D03*
D26*
X022800Y008169D03*
X021840Y008169D03*
X020880Y008169D03*
X019920Y008169D03*
X018960Y008169D03*
X018000Y008169D03*
X017040Y008169D03*
X016080Y008169D03*
X015120Y008169D03*
X014160Y008169D03*
X013200Y008169D03*
X013200Y009351D03*
X014160Y009351D03*
X015120Y009351D03*
X016080Y009351D03*
X017040Y009351D03*
X018000Y009351D03*
X018960Y009351D03*
X019920Y009351D03*
X020880Y009351D03*
X021840Y009351D03*
X022800Y009351D03*
D27*
X020580Y021436D03*
X020580Y022724D03*
D28*
X027000Y020670D02*
X027000Y020190D01*
X028000Y020190D02*
X028000Y020670D01*
X029000Y020670D02*
X029000Y020190D01*
X030000Y020190D02*
X030000Y020670D01*
X030000Y017670D02*
X030000Y017190D01*
X029000Y017190D02*
X029000Y017670D01*
X028000Y017670D02*
X028000Y017190D01*
X027000Y017190D02*
X027000Y017670D01*
D29*
X011675Y017784D03*
X009510Y017784D03*
X009510Y019437D03*
X011675Y019437D03*
X011675Y016130D03*
X009510Y016130D03*
X009510Y014477D03*
X011675Y014477D03*
X011675Y012823D03*
X009510Y012823D03*
X009510Y011170D03*
X011675Y011170D03*
X011675Y009516D03*
X009510Y009516D03*
X009510Y007863D03*
X011675Y007863D03*
D30*
X007856Y006091D03*
X007856Y021209D03*
D31*
X024908Y008756D03*
X025852Y008756D03*
X025852Y007024D03*
X024908Y007024D03*
D32*
X020441Y004890D03*
X019339Y004890D03*
D33*
X016076Y022020D03*
X013564Y022020D03*
D34*
X022212Y020674D03*
X022704Y020674D03*
X023196Y020674D03*
X023688Y020674D03*
X023688Y019886D03*
X023196Y019886D03*
X022704Y019886D03*
X022212Y019886D03*
D35*
X014130Y014940D03*
X014130Y012420D03*
D36*
X014130Y012750D01*
X014700Y013320D01*
X014730Y013350D01*
X015780Y013350D01*
X016140Y012990D01*
X015780Y014010D02*
X014730Y014010D01*
X014250Y014490D01*
X015780Y014010D02*
X016140Y014370D01*
X014940Y016410D02*
X016252Y017722D01*
X016252Y018109D01*
X016252Y018562D01*
X016440Y018750D01*
X021150Y018750D01*
X021150Y018230D01*
X021150Y018750D02*
X021150Y019270D01*
X020150Y019390D02*
X021150Y020390D01*
X020150Y019390D02*
X019980Y019390D01*
X018252Y020109D02*
X018252Y020688D01*
X018120Y020820D01*
X016350Y020820D01*
X016260Y020730D01*
X016260Y020117D01*
X016252Y020109D01*
X016260Y020730D02*
X016200Y020790D01*
X016170Y020820D01*
X013530Y020820D01*
X013252Y020542D01*
X013252Y020109D01*
X011670Y019800D02*
X011670Y020820D01*
X012870Y022020D01*
X013564Y022020D01*
X012870Y022020D01*
X011670Y020820D01*
X011670Y019443D01*
X011675Y019437D01*
X011640Y019770D02*
X007920Y019770D01*
X006720Y018570D01*
X006720Y018090D01*
X005370Y016740D01*
X005370Y012840D01*
X010560Y007650D01*
X010560Y007470D01*
X010590Y007440D01*
X013200Y006160D02*
X013310Y006050D01*
X013310Y004980D01*
X014310Y004980D02*
X014310Y006010D01*
X014160Y006160D01*
X015120Y006160D01*
X016080Y006160D01*
X017040Y006160D01*
X018000Y006160D01*
X018960Y006160D01*
X019920Y006160D01*
X023380Y006160D01*
X023430Y006210D01*
X023460Y006240D01*
X023460Y006690D01*
X023460Y006240D02*
X024000Y006780D01*
X024390Y006780D01*
X024634Y007024D01*
X024908Y007024D01*
X024000Y006780D02*
X024000Y007429D01*
X023460Y006240D02*
X023430Y006210D01*
X023380Y006160D01*
X022800Y006160D01*
X021840Y006160D01*
X020880Y006160D01*
X019920Y006160D01*
X014160Y006160D02*
X013200Y006160D01*
X011675Y009516D02*
X011261Y009930D01*
X010590Y009930D01*
X016770Y010500D02*
X016770Y010980D01*
X017670Y011880D01*
X020430Y011880D01*
X021050Y012500D01*
X021050Y012540D01*
X019900Y014880D02*
X019890Y014890D01*
X019890Y015810D01*
X019920Y014900D02*
X019900Y014880D01*
X011675Y017784D02*
X011261Y017370D01*
X010590Y017370D01*
X009510Y019437D02*
X009903Y019830D01*
X010590Y019830D01*
X011640Y019770D02*
X011670Y019800D01*
X016076Y020914D02*
X016200Y020790D01*
X016076Y020914D02*
X016076Y022020D01*
X017539Y022170D02*
X018480Y022170D01*
X018480Y021300D01*
X019421Y022170D02*
X019846Y022170D01*
X020580Y021436D01*
X020580Y022724D02*
X021046Y023190D01*
X022230Y023190D01*
X030390Y023190D01*
X037200Y023190D01*
X037230Y023160D01*
X037410Y022980D01*
X037410Y019950D01*
X037170Y019710D01*
X036120Y019710D01*
X035610Y019200D01*
X035610Y016950D01*
X034804Y016144D01*
X034564Y015904D01*
X032550Y015904D01*
X032520Y015934D01*
X030660Y015930D02*
X030656Y015934D01*
X029220Y015934D01*
X030000Y017430D02*
X030100Y017530D01*
X031110Y017530D01*
X032100Y017530D01*
X033090Y017530D01*
X034080Y017530D02*
X034840Y017530D01*
X034840Y019240D01*
X034950Y019350D01*
X034080Y018650D02*
X034080Y020575D01*
X034030Y020624D01*
X036590Y020624D01*
X035280Y021480D02*
X033360Y021480D01*
X033180Y021660D01*
X033036Y021804D01*
X033180Y021660D01*
X033036Y021804D02*
X033036Y022470D01*
X032130Y022470D02*
X032130Y020068D01*
X030962Y020068D01*
X030960Y020070D01*
X031470Y021810D02*
X029490Y021810D01*
X029070Y022230D01*
X030390Y023190D02*
X030504Y023190D01*
X031224Y022470D01*
X031470Y021810D02*
X031500Y021810D01*
X034030Y022396D02*
X036590Y022396D01*
X027000Y020430D02*
X026760Y020670D01*
X025910Y020670D01*
X025910Y019710D01*
X023688Y019886D02*
X023688Y020674D01*
X023690Y020676D01*
X029550Y014520D02*
X030600Y014520D01*
X030630Y014520D01*
X030660Y014520D01*
X030270Y013541D02*
X032490Y013541D01*
X032520Y013571D01*
X030270Y013541D02*
X030030Y013541D01*
X029250Y013541D01*
X029220Y013571D01*
X030030Y013541D02*
X030270Y013541D01*
X030280Y012360D02*
X029520Y012360D01*
X029520Y011250D02*
X030280Y011250D01*
X030280Y010110D02*
X029550Y010110D01*
X029520Y010140D01*
X029520Y008970D02*
X030280Y008970D01*
X028620Y007429D02*
X028611Y007420D01*
X027690Y007420D01*
X027690Y006866D01*
X028000Y006556D01*
X030560Y006556D01*
X031890Y005160D02*
X032370Y005640D01*
X031890Y005160D02*
X031750Y005160D01*
X030560Y004784D02*
X028000Y004784D01*
X027690Y007420D02*
X027681Y007429D01*
X026760Y007429D01*
X025852Y008336D01*
X025852Y008756D01*
X036375Y009666D02*
X036396Y009666D01*
X037410Y010680D01*
X037410Y012621D01*
X036375Y013656D01*
X036375Y012672D02*
X036960Y012087D01*
X036960Y011220D01*
X036391Y010651D01*
X036375Y010651D01*
D37*
X004010Y003920D02*
X004010Y023444D01*
X020964Y023459D01*
X020888Y023427D01*
X020809Y023349D01*
X020523Y023063D01*
X020274Y023063D01*
X020180Y022969D01*
X020180Y022478D01*
X020274Y022385D01*
X020886Y022385D01*
X020980Y022478D01*
X020980Y022728D01*
X021162Y022910D01*
X021419Y022910D01*
X021300Y022791D01*
X021230Y022621D01*
X021230Y021838D01*
X021300Y021669D01*
X021429Y021540D01*
X021450Y021532D01*
X021450Y021148D01*
X021487Y021060D01*
X021944Y020603D01*
X021944Y020391D01*
X022037Y020297D01*
X022386Y020297D01*
X022458Y020369D01*
X022529Y020297D01*
X022878Y020297D01*
X022950Y020369D01*
X023022Y020297D01*
X023371Y020297D01*
X023408Y020335D01*
X023408Y020251D01*
X023374Y020271D01*
X023328Y020283D01*
X023196Y020283D01*
X023064Y020283D01*
X023018Y020271D01*
X022977Y020247D01*
X022944Y020213D01*
X022938Y020203D01*
X022878Y020263D01*
X022529Y020263D01*
X022458Y020191D01*
X022386Y020263D01*
X022037Y020263D01*
X021944Y020169D01*
X021944Y019643D01*
X021794Y019493D01*
X021727Y019426D01*
X021690Y019338D01*
X021690Y017172D01*
X021727Y017084D01*
X021752Y017059D01*
X021752Y016835D01*
X021845Y016742D01*
X022315Y016742D01*
X022403Y016830D01*
X023379Y016830D01*
X023589Y016620D01*
X023971Y016620D01*
X024181Y016830D01*
X024379Y016830D01*
X024589Y016620D01*
X024971Y016620D01*
X025181Y016830D01*
X025379Y016830D01*
X025589Y016620D01*
X025971Y016620D01*
X026240Y016889D01*
X026240Y017141D01*
X026431Y017331D01*
X026600Y017331D01*
X026600Y017110D01*
X026661Y016963D01*
X026773Y016851D01*
X026920Y016790D01*
X027080Y016790D01*
X027227Y016851D01*
X027339Y016963D01*
X027400Y017110D01*
X027400Y017750D01*
X027339Y017897D01*
X027227Y018009D01*
X027104Y018060D01*
X027711Y018060D01*
X027750Y018021D01*
X027750Y017986D01*
X027661Y017897D01*
X027600Y017750D01*
X027600Y017110D01*
X027661Y016963D01*
X027773Y016851D01*
X027920Y016790D01*
X028080Y016790D01*
X028227Y016851D01*
X028339Y016963D01*
X028400Y017110D01*
X028400Y017750D01*
X028346Y017880D01*
X028368Y017880D01*
X028396Y017892D01*
X028659Y017892D01*
X028600Y017750D01*
X028600Y017110D01*
X028661Y016963D01*
X028773Y016851D01*
X028920Y016790D01*
X029080Y016790D01*
X029227Y016851D01*
X029339Y016963D01*
X029400Y017110D01*
X029400Y017750D01*
X029339Y017897D01*
X029240Y017996D01*
X029240Y018241D01*
X029449Y018450D01*
X030595Y018450D01*
X030595Y018269D01*
X030689Y018175D01*
X031531Y018175D01*
X031605Y018249D01*
X031679Y018175D01*
X032521Y018175D01*
X032595Y018249D01*
X032669Y018175D01*
X033511Y018175D01*
X033585Y018249D01*
X033659Y018175D01*
X034501Y018175D01*
X034595Y018269D01*
X034595Y019031D01*
X034501Y019125D01*
X034360Y019125D01*
X034360Y020139D01*
X034422Y020139D01*
X034515Y020233D01*
X034515Y020344D01*
X036105Y020344D01*
X036105Y020233D01*
X036198Y020139D01*
X036981Y020139D01*
X037074Y020233D01*
X037074Y021015D01*
X036981Y021109D01*
X036198Y021109D01*
X036105Y021015D01*
X036105Y020904D01*
X034515Y020904D01*
X034515Y021015D01*
X034422Y021109D01*
X033639Y021109D01*
X033546Y021015D01*
X033546Y020233D01*
X033639Y020139D01*
X033800Y020139D01*
X033800Y019125D01*
X033659Y019125D01*
X033585Y019051D01*
X033511Y019125D01*
X033330Y019125D01*
X033330Y019338D01*
X033293Y019426D01*
X033023Y019696D01*
X033011Y019709D01*
X033048Y019746D01*
X033048Y020391D01*
X032954Y020484D01*
X032410Y020484D01*
X032410Y022054D01*
X032452Y022054D01*
X032546Y022148D01*
X032546Y022792D01*
X032452Y022886D01*
X031808Y022886D01*
X031714Y022792D01*
X031714Y022148D01*
X031808Y022054D01*
X031850Y022054D01*
X031850Y020484D01*
X031306Y020484D01*
X031227Y020405D01*
X031214Y020418D01*
X030706Y020418D01*
X030612Y020324D01*
X030612Y019816D01*
X030628Y019800D01*
X030104Y019800D01*
X030227Y019851D01*
X030339Y019963D01*
X030400Y020110D01*
X030400Y020750D01*
X030339Y020897D01*
X030227Y021009D01*
X030080Y021070D01*
X029920Y021070D01*
X029773Y021009D01*
X029661Y020897D01*
X029600Y020750D01*
X029600Y020110D01*
X029661Y019963D01*
X029773Y019851D01*
X029896Y019800D01*
X029104Y019800D01*
X029227Y019851D01*
X029339Y019963D01*
X029400Y020110D01*
X029400Y020750D01*
X029339Y020897D01*
X029250Y020986D01*
X029250Y021018D01*
X029213Y021106D01*
X029146Y021173D01*
X029116Y021203D01*
X028756Y021563D01*
X028668Y021600D01*
X028391Y021600D01*
X028460Y021669D01*
X028530Y021838D01*
X028530Y022621D01*
X028460Y022791D01*
X028341Y022910D01*
X028776Y022910D01*
X028757Y022896D01*
X028704Y022843D01*
X028659Y022782D01*
X028625Y022714D01*
X028602Y022642D01*
X028590Y022568D01*
X028590Y022250D01*
X029050Y022250D01*
X029050Y022210D01*
X029090Y022210D01*
X029090Y022250D01*
X029550Y022250D01*
X029550Y022568D01*
X029538Y022642D01*
X029515Y022714D01*
X029481Y022782D01*
X029436Y022843D01*
X029383Y022896D01*
X029364Y022910D01*
X030389Y022910D01*
X030809Y022490D01*
X030809Y022148D01*
X030902Y022054D01*
X031547Y022054D01*
X031640Y022148D01*
X031640Y022792D01*
X031547Y022886D01*
X031205Y022886D01*
X031180Y022910D01*
X037084Y022910D01*
X037130Y022864D01*
X037130Y020066D01*
X037054Y019990D01*
X036064Y019990D01*
X035961Y019947D01*
X035883Y019869D01*
X035373Y019359D01*
X035330Y019256D01*
X035330Y017066D01*
X034645Y016381D01*
X034448Y016184D01*
X032956Y016184D01*
X032956Y016591D01*
X032862Y016684D01*
X032178Y016684D01*
X032084Y016591D01*
X032084Y015277D01*
X032178Y015183D01*
X032862Y015183D01*
X032956Y015277D01*
X032956Y015624D01*
X034619Y015624D01*
X034722Y015666D01*
X035041Y015985D01*
X035041Y015985D01*
X035769Y016713D01*
X035847Y016791D01*
X035890Y016894D01*
X035890Y019084D01*
X036236Y019430D01*
X037226Y019430D01*
X037329Y019473D01*
X037569Y019713D01*
X037647Y019791D01*
X037690Y019894D01*
X037690Y023036D01*
X037647Y023139D01*
X037467Y023319D01*
X037437Y023349D01*
X037359Y023427D01*
X037256Y023470D01*
X033624Y023470D01*
X037905Y023474D01*
X037905Y003950D01*
X031374Y003944D01*
X031756Y004327D01*
X031823Y004394D01*
X031860Y004482D01*
X031860Y004644D01*
X032041Y004644D01*
X032134Y004738D01*
X032134Y005008D01*
X032418Y005292D01*
X032624Y005292D01*
X032718Y005386D01*
X032718Y005894D01*
X032624Y005988D01*
X032154Y005988D01*
X032154Y006144D01*
X031697Y006144D01*
X031697Y005726D01*
X031998Y005726D01*
X032022Y005733D01*
X032022Y005688D01*
X031928Y005594D01*
X031199Y005594D01*
X031106Y005500D01*
X031106Y004738D01*
X031199Y004644D01*
X031380Y004644D01*
X031380Y004629D01*
X031101Y004350D01*
X031001Y004350D01*
X031044Y004393D01*
X031044Y005175D01*
X030951Y005269D01*
X030168Y005269D01*
X030075Y005175D01*
X030075Y005064D01*
X028485Y005064D01*
X028485Y005175D01*
X028392Y005269D01*
X027609Y005269D01*
X027516Y005175D01*
X027516Y004393D01*
X027559Y004350D01*
X026589Y004350D01*
X026505Y004434D01*
X026600Y004529D01*
X026600Y004911D01*
X026531Y004980D01*
X027108Y004980D01*
X027196Y005017D01*
X027609Y005430D01*
X028957Y005430D01*
X029045Y005342D01*
X029515Y005342D01*
X029608Y005435D01*
X029608Y005905D01*
X029515Y005998D01*
X029045Y005998D01*
X028957Y005910D01*
X027462Y005910D01*
X027374Y005873D01*
X027307Y005806D01*
X027277Y005776D01*
X026961Y005460D01*
X026531Y005460D01*
X026600Y005529D01*
X026600Y005911D01*
X026331Y006180D01*
X025949Y006180D01*
X025680Y005911D01*
X025680Y005529D01*
X025750Y005459D01*
X025664Y005423D01*
X025597Y005356D01*
X025567Y005326D01*
X025376Y005135D01*
X025331Y005180D01*
X024949Y005180D01*
X024680Y004911D01*
X024680Y004529D01*
X024859Y004350D01*
X024449Y004350D01*
X024620Y004521D01*
X024620Y004700D01*
X024160Y004700D01*
X024160Y004740D01*
X024120Y004740D01*
X024120Y005200D01*
X023941Y005200D01*
X023660Y004919D01*
X023660Y004740D01*
X024120Y004740D01*
X024120Y004700D01*
X023660Y004700D01*
X023660Y004521D01*
X023831Y004350D01*
X022779Y004350D01*
X022804Y004375D01*
X022991Y004375D01*
X023085Y004469D01*
X023085Y005250D01*
X023358Y005250D01*
X023446Y005287D01*
X023513Y005354D01*
X023639Y005480D01*
X023729Y005480D01*
X023949Y005260D01*
X024331Y005260D01*
X024600Y005529D01*
X024600Y005911D01*
X024331Y006180D01*
X023949Y006180D01*
X023729Y005960D01*
X023492Y005960D01*
X023404Y005923D01*
X023335Y005854D01*
X023335Y006083D01*
X022877Y006083D01*
X022877Y006238D01*
X022723Y006238D01*
X022723Y006655D01*
X022421Y006655D01*
X022376Y006643D01*
X022335Y006619D01*
X022320Y006605D01*
X022305Y006619D01*
X022264Y006643D01*
X022219Y006655D01*
X021917Y006655D01*
X021917Y006238D01*
X021763Y006238D01*
X021763Y006655D01*
X021461Y006655D01*
X021416Y006643D01*
X021375Y006619D01*
X021360Y006605D01*
X021345Y006619D01*
X021304Y006643D01*
X021259Y006655D01*
X020957Y006655D01*
X020957Y006238D01*
X020803Y006238D01*
X020803Y006655D01*
X020501Y006655D01*
X020456Y006643D01*
X020415Y006619D01*
X020400Y006605D01*
X020385Y006619D01*
X020344Y006643D01*
X020299Y006655D01*
X019997Y006655D01*
X019997Y006238D01*
X019843Y006238D01*
X019843Y006655D01*
X019541Y006655D01*
X019496Y006643D01*
X019455Y006619D01*
X019440Y006605D01*
X019425Y006619D01*
X019384Y006643D01*
X019339Y006655D01*
X019037Y006655D01*
X019037Y006238D01*
X018883Y006238D01*
X018883Y006655D01*
X018581Y006655D01*
X018536Y006643D01*
X018495Y006619D01*
X018480Y006605D01*
X018465Y006619D01*
X018424Y006643D01*
X018379Y006655D01*
X018077Y006655D01*
X018077Y006238D01*
X017923Y006238D01*
X017923Y006655D01*
X017621Y006655D01*
X017576Y006643D01*
X017535Y006619D01*
X017520Y006605D01*
X017505Y006619D01*
X017464Y006643D01*
X017419Y006655D01*
X017117Y006655D01*
X017117Y006238D01*
X016963Y006238D01*
X016963Y006655D01*
X016661Y006655D01*
X016616Y006643D01*
X016575Y006619D01*
X016560Y006605D01*
X016545Y006619D01*
X016504Y006643D01*
X016459Y006655D01*
X016157Y006655D01*
X016157Y006238D01*
X016003Y006238D01*
X016003Y006655D01*
X015701Y006655D01*
X015656Y006643D01*
X015615Y006619D01*
X015600Y006605D01*
X015585Y006619D01*
X015544Y006643D01*
X015499Y006655D01*
X015197Y006655D01*
X015197Y006238D01*
X015043Y006238D01*
X015043Y006655D01*
X014741Y006655D01*
X014696Y006643D01*
X014655Y006619D01*
X014640Y006605D01*
X014625Y006619D01*
X014584Y006643D01*
X014539Y006655D01*
X014237Y006655D01*
X014237Y006238D01*
X014083Y006238D01*
X014083Y006655D01*
X013781Y006655D01*
X013736Y006643D01*
X013695Y006619D01*
X013680Y006605D01*
X013665Y006619D01*
X013624Y006643D01*
X013579Y006655D01*
X013277Y006655D01*
X013277Y006238D01*
X013123Y006238D01*
X013123Y006655D01*
X012821Y006655D01*
X012776Y006643D01*
X012735Y006619D01*
X012701Y006586D01*
X012677Y006545D01*
X012665Y006499D01*
X012665Y006238D01*
X013123Y006238D01*
X013123Y006083D01*
X012665Y006083D01*
X012665Y005821D01*
X012677Y005776D01*
X012701Y005735D01*
X012735Y005701D01*
X012776Y005677D01*
X012821Y005665D01*
X013024Y005665D01*
X012997Y005646D01*
X012944Y005593D01*
X012899Y005532D01*
X012865Y005464D01*
X012842Y005392D01*
X012830Y005318D01*
X012830Y005000D01*
X013290Y005000D01*
X013290Y004960D01*
X013330Y004960D01*
X013330Y005000D01*
X013790Y005000D01*
X013790Y005318D01*
X013778Y005392D01*
X013755Y005464D01*
X013721Y005532D01*
X013676Y005593D01*
X013623Y005646D01*
X013592Y005669D01*
X013624Y005677D01*
X013665Y005701D01*
X013680Y005716D01*
X013695Y005701D01*
X013736Y005677D01*
X013781Y005665D01*
X014024Y005665D01*
X013997Y005646D01*
X013944Y005593D01*
X013899Y005532D01*
X013865Y005464D01*
X013842Y005392D01*
X013830Y005318D01*
X013830Y005000D01*
X014290Y005000D01*
X014290Y004960D01*
X014330Y004960D01*
X014330Y005000D01*
X014790Y005000D01*
X014790Y005318D01*
X014778Y005392D01*
X014755Y005464D01*
X014721Y005532D01*
X014676Y005593D01*
X014623Y005646D01*
X014581Y005677D01*
X014584Y005677D01*
X014625Y005701D01*
X014640Y005716D01*
X014655Y005701D01*
X014696Y005677D01*
X014741Y005665D01*
X015043Y005665D01*
X015043Y006083D01*
X015197Y006083D01*
X015197Y005731D01*
X015049Y005670D01*
X014920Y005541D01*
X014850Y005371D01*
X014850Y004588D01*
X014920Y004419D01*
X015049Y004290D01*
X015060Y004286D01*
X015060Y004152D01*
X015097Y004064D01*
X015187Y003974D01*
X015231Y003930D01*
X004010Y003920D01*
X004010Y003977D02*
X015184Y003977D01*
X015067Y004136D02*
X004010Y004136D01*
X004010Y004294D02*
X013025Y004294D01*
X012997Y004314D02*
X013058Y004269D01*
X013126Y004235D01*
X013198Y004212D01*
X013272Y004200D01*
X013290Y004200D01*
X013290Y004960D01*
X012830Y004960D01*
X012830Y004642D01*
X012842Y004568D01*
X012865Y004496D01*
X012899Y004428D01*
X012944Y004367D01*
X012997Y004314D01*
X012887Y004453D02*
X004010Y004453D01*
X004010Y004611D02*
X012835Y004611D01*
X012830Y004770D02*
X004010Y004770D01*
X004010Y004928D02*
X012830Y004928D01*
X012830Y005087D02*
X004010Y005087D01*
X004010Y005245D02*
X007312Y005245D01*
X007296Y005252D02*
X007660Y005101D01*
X008053Y005101D01*
X008417Y005252D01*
X008696Y005530D01*
X008846Y005894D01*
X008846Y006288D01*
X008696Y006652D01*
X008417Y006930D01*
X008369Y006950D01*
X011851Y006950D01*
X012185Y007089D01*
X012186Y007089D01*
X012191Y007091D01*
X012271Y007171D01*
X012273Y007171D01*
X012367Y007265D01*
X012367Y007267D01*
X012447Y007347D01*
X012585Y007682D01*
X012585Y009697D01*
X012447Y010032D01*
X012367Y010112D01*
X012367Y010114D01*
X012273Y010208D01*
X012271Y010208D01*
X012191Y010288D01*
X011856Y010426D01*
X009329Y010426D01*
X009314Y010420D01*
X008597Y010420D01*
X007630Y011387D01*
X007630Y015883D01*
X008584Y016837D01*
X009516Y016850D01*
X011851Y016850D01*
X012185Y016989D01*
X012441Y017245D01*
X012580Y017579D01*
X012580Y017590D01*
X012585Y017603D01*
X012585Y017965D01*
X012580Y017978D01*
X012580Y019243D01*
X012585Y019256D01*
X012585Y019618D01*
X012447Y019953D01*
X012441Y019958D01*
X012367Y020033D01*
X012367Y020035D01*
X012273Y020129D01*
X012271Y020129D01*
X012185Y020214D01*
X011950Y020312D01*
X011950Y020704D01*
X012569Y021323D01*
X012569Y021204D01*
X012663Y021110D01*
X014465Y021110D01*
X014559Y021204D01*
X014559Y022836D01*
X014465Y022930D01*
X012663Y022930D01*
X012569Y022836D01*
X012569Y022115D01*
X011511Y021057D01*
X011433Y020979D01*
X011390Y020876D01*
X011390Y020347D01*
X009907Y020347D01*
X009901Y020350D01*
X009653Y020350D01*
X009632Y020357D01*
X009521Y020350D01*
X008369Y020350D01*
X008417Y020370D01*
X008696Y020648D01*
X008846Y021012D01*
X008846Y021406D01*
X008696Y021770D01*
X008417Y022048D01*
X008053Y022199D01*
X007660Y022199D01*
X007296Y022048D01*
X007017Y021770D01*
X006867Y021406D01*
X006867Y021012D01*
X007017Y020648D01*
X007296Y020370D01*
X007344Y020350D01*
X006839Y020350D01*
X006505Y020211D01*
X004825Y018531D01*
X004765Y018471D01*
X004760Y018467D01*
X004754Y018464D01*
X004632Y018339D01*
X004509Y018215D01*
X004506Y018209D01*
X004501Y018204D01*
X004437Y018042D01*
X004370Y017881D01*
X004370Y017874D01*
X004368Y017868D01*
X004370Y017694D01*
X004370Y009749D01*
X004509Y009415D01*
X006579Y007345D01*
X006835Y007089D01*
X007169Y006950D01*
X007344Y006950D01*
X007296Y006930D01*
X007017Y006652D01*
X006867Y006288D01*
X006867Y005894D01*
X007017Y005530D01*
X007296Y005252D01*
X007144Y005404D02*
X004010Y005404D01*
X004010Y005562D02*
X007004Y005562D01*
X006938Y005721D02*
X004010Y005721D01*
X004010Y005879D02*
X006873Y005879D01*
X006867Y006038D02*
X004010Y006038D01*
X004010Y006196D02*
X006867Y006196D01*
X006894Y006355D02*
X004010Y006355D01*
X004010Y006513D02*
X006960Y006513D01*
X007037Y006672D02*
X004010Y006672D01*
X004010Y006830D02*
X007196Y006830D01*
X007076Y006989D02*
X004010Y006989D01*
X004010Y007147D02*
X006776Y007147D01*
X006618Y007306D02*
X004010Y007306D01*
X004010Y007464D02*
X006459Y007464D01*
X006301Y007623D02*
X004010Y007623D01*
X004010Y007781D02*
X006142Y007781D01*
X005984Y007940D02*
X004010Y007940D01*
X004010Y008098D02*
X005825Y008098D01*
X005667Y008257D02*
X004010Y008257D01*
X004010Y008415D02*
X005508Y008415D01*
X005350Y008574D02*
X004010Y008574D01*
X004010Y008732D02*
X005191Y008732D01*
X005033Y008891D02*
X004010Y008891D01*
X004010Y009049D02*
X004874Y009049D01*
X004716Y009208D02*
X004010Y009208D01*
X004010Y009366D02*
X004557Y009366D01*
X004463Y009525D02*
X004010Y009525D01*
X004010Y009683D02*
X004397Y009683D01*
X004370Y009842D02*
X004010Y009842D01*
X004010Y010000D02*
X004370Y010000D01*
X004370Y010159D02*
X004010Y010159D01*
X004010Y010317D02*
X004370Y010317D01*
X004370Y010476D02*
X004010Y010476D01*
X004010Y010634D02*
X004370Y010634D01*
X004370Y010793D02*
X004010Y010793D01*
X004010Y010951D02*
X004370Y010951D01*
X004370Y011110D02*
X004010Y011110D01*
X004010Y011268D02*
X004370Y011268D01*
X004370Y011427D02*
X004010Y011427D01*
X004010Y011585D02*
X004370Y011585D01*
X004370Y011744D02*
X004010Y011744D01*
X004010Y011902D02*
X004370Y011902D01*
X004370Y012061D02*
X004010Y012061D01*
X004010Y012219D02*
X004370Y012219D01*
X004370Y012378D02*
X004010Y012378D01*
X004010Y012536D02*
X004370Y012536D01*
X004370Y012695D02*
X004010Y012695D01*
X004010Y012853D02*
X004370Y012853D01*
X004370Y013012D02*
X004010Y013012D01*
X004010Y013170D02*
X004370Y013170D01*
X004370Y013329D02*
X004010Y013329D01*
X004010Y013487D02*
X004370Y013487D01*
X004370Y013646D02*
X004010Y013646D01*
X004010Y013804D02*
X004370Y013804D01*
X004370Y013963D02*
X004010Y013963D01*
X004010Y014121D02*
X004370Y014121D01*
X004370Y014280D02*
X004010Y014280D01*
X004010Y014438D02*
X004370Y014438D01*
X004370Y014597D02*
X004010Y014597D01*
X004010Y014755D02*
X004370Y014755D01*
X004370Y014914D02*
X004010Y014914D01*
X004010Y015072D02*
X004370Y015072D01*
X004370Y015231D02*
X004010Y015231D01*
X004010Y015389D02*
X004370Y015389D01*
X004370Y015548D02*
X004010Y015548D01*
X004010Y015706D02*
X004370Y015706D01*
X004370Y015865D02*
X004010Y015865D01*
X004010Y016023D02*
X004370Y016023D01*
X004370Y016182D02*
X004010Y016182D01*
X004010Y016340D02*
X004370Y016340D01*
X004370Y016499D02*
X004010Y016499D01*
X004010Y016657D02*
X004370Y016657D01*
X004370Y016816D02*
X004010Y016816D01*
X004010Y016974D02*
X004370Y016974D01*
X004370Y017133D02*
X004010Y017133D01*
X004010Y017291D02*
X004370Y017291D01*
X004370Y017450D02*
X004010Y017450D01*
X004010Y017608D02*
X004370Y017608D01*
X004369Y017767D02*
X004010Y017767D01*
X004010Y017925D02*
X004388Y017925D01*
X004453Y018084D02*
X004010Y018084D01*
X004010Y018242D02*
X004535Y018242D01*
X004692Y018401D02*
X004010Y018401D01*
X004010Y018559D02*
X004852Y018559D01*
X005011Y018718D02*
X004010Y018718D01*
X004010Y018876D02*
X005169Y018876D01*
X005328Y019035D02*
X004010Y019035D01*
X004010Y019193D02*
X005486Y019193D01*
X005645Y019352D02*
X004010Y019352D01*
X004010Y019510D02*
X005803Y019510D01*
X005962Y019669D02*
X004010Y019669D01*
X004010Y019827D02*
X006120Y019827D01*
X006279Y019986D02*
X004010Y019986D01*
X004010Y020144D02*
X006437Y020144D01*
X006724Y020303D02*
X004010Y020303D01*
X004010Y020461D02*
X007205Y020461D01*
X007046Y020620D02*
X004010Y020620D01*
X004010Y020778D02*
X006964Y020778D01*
X006898Y020937D02*
X004010Y020937D01*
X004010Y021095D02*
X006867Y021095D01*
X006867Y021254D02*
X004010Y021254D01*
X004010Y021412D02*
X006869Y021412D01*
X006935Y021571D02*
X004010Y021571D01*
X004010Y021729D02*
X007000Y021729D01*
X007135Y021888D02*
X004010Y021888D01*
X004010Y022046D02*
X007293Y022046D01*
X008419Y022046D02*
X012500Y022046D01*
X012569Y022205D02*
X004010Y022205D01*
X004010Y022363D02*
X012569Y022363D01*
X012569Y022522D02*
X004010Y022522D01*
X004010Y022680D02*
X012569Y022680D01*
X012572Y022839D02*
X004010Y022839D01*
X004010Y022997D02*
X020208Y022997D01*
X020180Y022839D02*
X019890Y022839D01*
X019912Y022817D02*
X019818Y022911D01*
X019024Y022911D01*
X018930Y022817D01*
X018930Y021523D01*
X019024Y021429D01*
X019818Y021429D01*
X019912Y021523D01*
X019912Y021709D01*
X020180Y021440D01*
X020180Y021191D01*
X020274Y021097D01*
X020886Y021097D01*
X020980Y021191D01*
X020980Y021682D01*
X020886Y021775D01*
X020637Y021775D01*
X020005Y022407D01*
X019912Y022446D01*
X019912Y022817D01*
X020010Y022890D02*
X020010Y022530D01*
X020250Y022290D01*
X020400Y022140D01*
X020910Y022140D01*
X021090Y021960D01*
X021090Y021480D01*
X021150Y021420D01*
X021270Y021300D01*
X021450Y021254D02*
X020980Y021254D01*
X020980Y021412D02*
X021450Y021412D01*
X021399Y021571D02*
X020980Y021571D01*
X020933Y021729D02*
X021275Y021729D01*
X021230Y021888D02*
X020525Y021888D01*
X020366Y022046D02*
X021230Y022046D01*
X021230Y022205D02*
X020208Y022205D01*
X020049Y022363D02*
X021230Y022363D01*
X021230Y022522D02*
X020980Y022522D01*
X020980Y022680D02*
X021254Y022680D01*
X021348Y022839D02*
X021091Y022839D01*
X020774Y023314D02*
X004010Y023314D01*
X004010Y023156D02*
X020616Y023156D01*
X020010Y022890D02*
X019860Y023040D01*
X019740Y023160D01*
X018540Y023160D01*
X018030Y022817D02*
X017936Y022911D01*
X017142Y022911D01*
X017069Y022838D01*
X016977Y022930D01*
X015175Y022930D01*
X015081Y022836D01*
X015081Y021204D01*
X015175Y021110D01*
X015796Y021110D01*
X015796Y021100D01*
X013474Y021100D01*
X013371Y021057D01*
X013293Y020979D01*
X013015Y020701D01*
X012999Y020663D01*
X012792Y020663D01*
X012699Y020569D01*
X012699Y019649D01*
X012792Y019555D01*
X013426Y019555D01*
X013124Y019253D01*
X013057Y019186D01*
X013020Y019098D01*
X013020Y018663D01*
X012792Y018663D01*
X012699Y018569D01*
X012699Y017649D01*
X012792Y017555D01*
X013712Y017555D01*
X013806Y017649D01*
X013806Y018569D01*
X013712Y018663D01*
X013500Y018663D01*
X013500Y018951D01*
X013689Y019140D01*
X018948Y019140D01*
X019036Y019177D01*
X019220Y019361D01*
X019220Y019298D01*
X019290Y019129D01*
X019389Y019030D01*
X016384Y019030D01*
X016281Y018987D01*
X016203Y018909D01*
X016015Y018721D01*
X015991Y018663D01*
X015792Y018663D01*
X015752Y018623D01*
X015712Y018663D01*
X014792Y018663D01*
X014699Y018569D01*
X014699Y017649D01*
X014792Y017555D01*
X015689Y017555D01*
X014964Y016830D01*
X009349Y016830D01*
X009329Y016822D01*
X008912Y016822D01*
X008819Y016728D01*
X008819Y015533D01*
X008820Y015531D01*
X008820Y015076D01*
X008819Y015075D01*
X008819Y013879D01*
X008912Y013785D01*
X010108Y013785D01*
X010122Y013800D01*
X011063Y013800D01*
X011078Y013785D01*
X012273Y013785D01*
X012288Y013800D01*
X013781Y013800D01*
X014024Y013900D01*
X014041Y013917D01*
X014234Y014110D01*
X014571Y013773D01*
X014674Y013730D01*
X015836Y013730D01*
X015939Y013773D01*
X016017Y013851D01*
X016168Y014002D01*
X016274Y013897D01*
X016362Y013860D01*
X017065Y013860D01*
X017065Y013572D01*
X016435Y013572D01*
X016346Y013536D01*
X016168Y013358D01*
X015939Y013587D01*
X015836Y013630D01*
X014674Y013630D01*
X014571Y013587D01*
X014493Y013509D01*
X014463Y013479D01*
X014234Y013250D01*
X014101Y013383D01*
X013858Y013483D01*
X012305Y013483D01*
X012273Y013515D01*
X011078Y013515D01*
X011033Y013470D01*
X010152Y013470D01*
X010108Y013515D01*
X008912Y013515D01*
X008819Y013421D01*
X008819Y012225D01*
X008820Y012224D01*
X008820Y011769D01*
X008819Y011767D01*
X008819Y010572D01*
X008912Y010478D01*
X010108Y010478D01*
X010130Y010500D01*
X011056Y010500D01*
X011078Y010478D01*
X012273Y010478D01*
X012295Y010500D01*
X013399Y010500D01*
X013310Y010411D01*
X013217Y010318D01*
X012965Y010318D01*
X012872Y010225D01*
X012872Y009755D01*
X012880Y009747D01*
X012858Y009747D01*
X012764Y009653D01*
X012764Y009048D01*
X012858Y008954D01*
X013542Y008954D01*
X013636Y009048D01*
X013636Y009653D01*
X013542Y009747D01*
X013520Y009747D01*
X013528Y009755D01*
X013528Y010007D01*
X013621Y010100D01*
X013832Y010100D01*
X013832Y009755D01*
X013840Y009747D01*
X013818Y009747D01*
X013724Y009653D01*
X013724Y009048D01*
X013818Y008954D01*
X014502Y008954D01*
X014596Y009048D01*
X014596Y009653D01*
X014502Y009747D01*
X014480Y009747D01*
X014488Y009755D01*
X014488Y010100D01*
X015069Y010100D01*
X015050Y010081D01*
X014900Y009931D01*
X014900Y009747D01*
X014778Y009747D01*
X014684Y009653D01*
X014684Y009048D01*
X014778Y008954D01*
X015462Y008954D01*
X015556Y009048D01*
X015556Y009653D01*
X015462Y009747D01*
X015340Y009747D01*
X015340Y009749D01*
X015361Y009770D01*
X015860Y009770D01*
X015860Y009747D01*
X015738Y009747D01*
X015644Y009653D01*
X015644Y009048D01*
X015738Y008954D01*
X016422Y008954D01*
X016516Y009048D01*
X016516Y009650D01*
X016604Y009650D01*
X016604Y009048D01*
X016698Y008954D01*
X017382Y008954D01*
X017476Y009048D01*
X017476Y009653D01*
X017425Y009704D01*
X017551Y009830D01*
X017761Y010040D01*
X017780Y010059D01*
X017780Y009747D01*
X017658Y009747D01*
X017564Y009653D01*
X017564Y009048D01*
X017658Y008954D01*
X018342Y008954D01*
X018436Y009048D01*
X018436Y009653D01*
X018342Y009747D01*
X018220Y009747D01*
X018220Y010469D01*
X018451Y010700D01*
X020672Y010700D01*
X020672Y010685D01*
X020697Y010660D01*
X019139Y010660D01*
X019010Y010531D01*
X018950Y010471D01*
X018740Y010261D01*
X018740Y009747D01*
X018618Y009747D01*
X018524Y009653D01*
X018524Y009048D01*
X018618Y008954D01*
X019302Y008954D01*
X019396Y009048D01*
X019396Y009653D01*
X019302Y009747D01*
X019180Y009747D01*
X019180Y010079D01*
X019261Y010160D01*
X019321Y010220D01*
X019592Y010220D01*
X019592Y009755D01*
X019600Y009747D01*
X019578Y009747D01*
X019484Y009653D01*
X019484Y009048D01*
X019578Y008954D01*
X020262Y008954D01*
X020356Y009048D01*
X020356Y009653D01*
X020262Y009747D01*
X020240Y009747D01*
X020248Y009755D01*
X020248Y010220D01*
X021438Y010220D01*
X020965Y009747D01*
X020538Y009747D01*
X020444Y009653D01*
X020444Y009048D01*
X020538Y008954D01*
X021222Y008954D01*
X021316Y009048D01*
X021316Y009475D01*
X021404Y009564D01*
X021404Y009048D01*
X021498Y008954D01*
X022182Y008954D01*
X022276Y009048D01*
X022276Y009475D01*
X022364Y009564D01*
X022364Y009048D01*
X022458Y008954D01*
X023142Y008954D01*
X023236Y009048D01*
X023236Y009162D01*
X023266Y009132D01*
X023760Y009132D01*
X023760Y009006D01*
X023579Y009006D01*
X023486Y008912D01*
X023486Y008150D01*
X023579Y008056D01*
X023824Y008056D01*
X023864Y008017D01*
X024077Y007803D01*
X024077Y007506D01*
X023923Y007506D01*
X023923Y007924D01*
X023622Y007924D01*
X023576Y007912D01*
X023535Y007888D01*
X023502Y007854D01*
X023478Y007813D01*
X023466Y007767D01*
X023466Y007506D01*
X023923Y007506D01*
X023923Y007351D01*
X024077Y007351D01*
X024077Y006934D01*
X024378Y006934D01*
X024424Y006946D01*
X024452Y006962D01*
X024452Y006646D01*
X024464Y006600D01*
X024488Y006559D01*
X024521Y006525D01*
X024562Y006502D01*
X024608Y006490D01*
X024850Y006490D01*
X024850Y006966D01*
X024965Y006966D01*
X024965Y006490D01*
X025207Y006490D01*
X025253Y006502D01*
X025294Y006525D01*
X025327Y006559D01*
X025351Y006600D01*
X025363Y006646D01*
X025363Y006966D01*
X024965Y006966D01*
X024965Y007082D01*
X024850Y007082D01*
X024850Y007558D01*
X024608Y007558D01*
X024562Y007546D01*
X024534Y007530D01*
X024534Y007740D01*
X025161Y007740D01*
X025244Y007657D01*
X025436Y007464D01*
X025341Y007464D01*
X025351Y007448D02*
X025327Y007489D01*
X025294Y007522D01*
X025253Y007546D01*
X025207Y007558D01*
X024965Y007558D01*
X024965Y007082D01*
X025363Y007082D01*
X025363Y007402D01*
X025351Y007448D01*
X025417Y007444D02*
X025417Y006603D01*
X025511Y006510D01*
X026194Y006510D01*
X026288Y006603D01*
X026288Y006977D01*
X026295Y006970D01*
X026336Y006946D01*
X026382Y006934D01*
X026683Y006934D01*
X026683Y007351D01*
X026837Y007351D01*
X026837Y006934D01*
X027138Y006934D01*
X027184Y006946D01*
X027219Y006967D01*
X027225Y006961D01*
X027266Y006937D01*
X027311Y006925D01*
X027501Y006925D01*
X027496Y006904D01*
X027496Y006584D01*
X027972Y006584D01*
X027972Y006528D01*
X027496Y006528D01*
X027496Y006207D01*
X027508Y006162D01*
X027532Y006121D01*
X027565Y006087D01*
X027606Y006063D01*
X027652Y006051D01*
X027972Y006051D01*
X027972Y006528D01*
X028029Y006528D01*
X028029Y006584D01*
X028505Y006584D01*
X028505Y006904D01*
X028497Y006934D01*
X028543Y006934D01*
X028543Y007351D01*
X028697Y007351D01*
X028697Y006934D01*
X028998Y006934D01*
X029044Y006946D01*
X029085Y006970D01*
X029118Y007003D01*
X029142Y007044D01*
X029154Y007090D01*
X029154Y007351D01*
X028697Y007351D01*
X028697Y007506D01*
X029154Y007506D01*
X029154Y007767D01*
X029154Y007768D01*
X029176Y007777D01*
X029202Y007802D01*
X029202Y007576D01*
X029296Y007482D01*
X029804Y007482D01*
X029805Y007483D01*
X029805Y007409D01*
X029899Y007315D01*
X030661Y007315D01*
X030755Y007409D01*
X030755Y008160D01*
X030925Y008160D01*
X030925Y007409D01*
X031019Y007315D01*
X031316Y007315D01*
X031627Y007004D01*
X031694Y006937D01*
X031782Y006900D01*
X033942Y006900D01*
X033942Y006706D01*
X034036Y006612D01*
X034544Y006612D01*
X034638Y006706D01*
X034638Y007214D01*
X034544Y007308D01*
X034281Y007308D01*
X034246Y007343D01*
X034158Y007380D01*
X034156Y007380D01*
X034185Y007409D01*
X034185Y007590D01*
X034668Y007590D01*
X034756Y007627D01*
X035746Y008617D01*
X035813Y008684D01*
X035850Y008772D01*
X035850Y009390D01*
X035949Y009390D01*
X035949Y009334D01*
X036043Y009241D01*
X036707Y009241D01*
X036801Y009334D01*
X036801Y009675D01*
X037569Y010443D01*
X037647Y010521D01*
X037690Y010624D01*
X037690Y012677D01*
X037647Y012780D01*
X036801Y013626D01*
X036801Y013988D01*
X036707Y014082D01*
X036043Y014082D01*
X035949Y013988D01*
X035949Y013324D01*
X036043Y013230D01*
X036405Y013230D01*
X036537Y013098D01*
X036043Y013098D01*
X035949Y013004D01*
X035949Y012623D01*
X035864Y012708D01*
X035356Y012708D01*
X035262Y012614D01*
X035262Y012600D01*
X034185Y012600D01*
X034185Y012781D01*
X034091Y012875D01*
X033444Y012875D01*
X033533Y012964D01*
X033570Y013052D01*
X033570Y014538D01*
X033533Y014626D01*
X033466Y014693D01*
X033143Y015016D01*
X033076Y015083D01*
X032988Y015120D01*
X028869Y015120D01*
X028680Y015309D01*
X028680Y015618D01*
X028643Y015706D01*
X028784Y015706D01*
X028643Y015706D02*
X028576Y015773D01*
X028216Y016133D01*
X028128Y016170D01*
X026292Y016170D01*
X026204Y016133D01*
X026188Y016118D01*
X026188Y016525D01*
X026095Y016618D01*
X025625Y016618D01*
X025605Y016598D01*
X025585Y016618D01*
X025115Y016618D01*
X025022Y016525D01*
X025022Y016500D01*
X023013Y016500D01*
X022890Y016377D01*
X022800Y016287D01*
X022800Y016047D01*
X022228Y015475D01*
X022228Y015775D01*
X022135Y015868D01*
X021665Y015868D01*
X021572Y015775D01*
X021572Y015760D01*
X020773Y015760D01*
X020725Y015808D01*
X020255Y015808D01*
X020162Y015715D01*
X020162Y015415D01*
X019978Y015415D01*
X019978Y014957D01*
X020395Y014957D01*
X020395Y015152D01*
X020545Y015152D01*
X020545Y014459D01*
X020639Y014365D01*
X020820Y014365D01*
X020820Y013767D01*
X020773Y013720D01*
X020360Y013720D01*
X020360Y013789D01*
X020348Y013834D01*
X020340Y013848D01*
X020340Y013962D01*
X020348Y013976D01*
X020360Y014021D01*
X020360Y014100D01*
X020360Y014179D01*
X020348Y014224D01*
X020324Y014266D01*
X020291Y014299D01*
X020249Y014323D01*
X020204Y014335D01*
X019900Y014335D01*
X019900Y014125D01*
X019900Y014125D01*
X019900Y014335D01*
X019596Y014335D01*
X019551Y014323D01*
X019509Y014299D01*
X019476Y014266D01*
X019452Y014224D01*
X019440Y014179D01*
X019440Y014100D01*
X019529Y014100D01*
X019529Y014100D01*
X019440Y014100D01*
X019440Y014021D01*
X019452Y013976D01*
X019460Y013962D01*
X019460Y013848D01*
X019452Y013834D01*
X019440Y013789D01*
X019440Y013720D01*
X019393Y013720D01*
X019345Y013672D01*
X019345Y013934D01*
X019353Y013948D01*
X019365Y013994D01*
X019365Y014100D01*
X019365Y014206D01*
X019353Y014252D01*
X019329Y014293D01*
X019295Y014327D01*
X019254Y014350D01*
X019209Y014363D01*
X019010Y014363D01*
X019010Y014100D01*
X019365Y014100D01*
X019010Y014100D01*
X019010Y014100D01*
X019010Y014100D01*
X019010Y014363D01*
X018930Y014363D01*
X018930Y014365D01*
X019091Y014365D01*
X019185Y014459D01*
X019185Y015301D01*
X019091Y015395D01*
X018329Y015395D01*
X018235Y015301D01*
X018235Y014459D01*
X018322Y014372D01*
X018319Y014368D01*
X018245Y014368D01*
X018152Y014275D01*
X018152Y014073D01*
X018124Y014084D01*
X017735Y014084D01*
X017735Y014249D01*
X017641Y014343D01*
X017159Y014343D01*
X017156Y014340D01*
X016509Y014340D01*
X016479Y014370D01*
X016749Y014640D01*
X017115Y014640D01*
X017115Y014459D01*
X017209Y014365D01*
X017971Y014365D01*
X018065Y014459D01*
X018065Y015301D01*
X017971Y015395D01*
X017209Y015395D01*
X017115Y015301D01*
X017115Y015120D01*
X016602Y015120D01*
X016514Y015083D01*
X016109Y014679D01*
X015925Y014679D01*
X015831Y014585D01*
X015831Y014457D01*
X015690Y014316D01*
X015690Y014615D01*
X015720Y014689D01*
X015720Y016301D01*
X015620Y016544D01*
X015545Y016619D01*
X016481Y017555D01*
X016712Y017555D01*
X016752Y017595D01*
X016792Y017555D01*
X017712Y017555D01*
X017752Y017595D01*
X017792Y017555D01*
X018705Y017555D01*
X019220Y017041D01*
X019220Y016988D01*
X019290Y016819D01*
X019419Y016690D01*
X019588Y016620D01*
X020371Y016620D01*
X020541Y016690D01*
X020635Y016785D01*
X020635Y016729D01*
X020729Y016635D01*
X021571Y016635D01*
X021665Y016729D01*
X021665Y017491D01*
X021571Y017585D01*
X021014Y017585D01*
X020845Y017755D01*
X021571Y017755D01*
X021665Y017849D01*
X021665Y018611D01*
X021571Y018705D01*
X021430Y018705D01*
X021430Y018795D01*
X021571Y018795D01*
X021665Y018889D01*
X021665Y019651D01*
X021571Y019745D01*
X020901Y019745D01*
X021071Y019915D01*
X021571Y019915D01*
X021665Y020009D01*
X021665Y020771D01*
X021571Y020865D01*
X020729Y020865D01*
X020635Y020771D01*
X020635Y020685D01*
X020541Y020780D01*
X020371Y020850D01*
X019588Y020850D01*
X019419Y020780D01*
X019290Y020651D01*
X019220Y020481D01*
X019220Y020298D01*
X019290Y020129D01*
X019300Y020119D01*
X018801Y019620D01*
X018777Y019620D01*
X018806Y019649D01*
X018806Y020569D01*
X018712Y020663D01*
X018532Y020663D01*
X018532Y020743D01*
X018490Y020846D01*
X018384Y020952D01*
X018734Y020952D01*
X018828Y021046D01*
X018828Y021554D01*
X018760Y021622D01*
X018760Y022226D01*
X018717Y022329D01*
X018639Y022407D01*
X018536Y022450D01*
X018030Y022450D01*
X018030Y022817D01*
X018008Y022839D02*
X018952Y022839D01*
X018930Y022680D02*
X018030Y022680D01*
X018030Y022522D02*
X018930Y022522D01*
X018930Y022363D02*
X018683Y022363D01*
X018760Y022205D02*
X018930Y022205D01*
X018930Y022046D02*
X018760Y022046D01*
X018760Y021888D02*
X018930Y021888D01*
X018930Y021729D02*
X018760Y021729D01*
X018812Y021571D02*
X018930Y021571D01*
X018828Y021412D02*
X020180Y021412D01*
X020180Y021254D02*
X018828Y021254D01*
X018828Y021095D02*
X021472Y021095D01*
X021610Y020937D02*
X018399Y020937D01*
X018518Y020778D02*
X019417Y020778D01*
X019277Y020620D02*
X018755Y020620D01*
X018806Y020461D02*
X019220Y020461D01*
X019220Y020303D02*
X018806Y020303D01*
X018806Y020144D02*
X019284Y020144D01*
X019166Y019986D02*
X018806Y019986D01*
X018806Y019827D02*
X019008Y019827D01*
X018849Y019669D02*
X018806Y019669D01*
X018900Y019380D02*
X019910Y020390D01*
X019980Y020390D01*
X020543Y020778D02*
X020642Y020778D01*
X021658Y020778D02*
X021768Y020778D01*
X021665Y020620D02*
X021927Y020620D01*
X021944Y020461D02*
X021665Y020461D01*
X021665Y020303D02*
X022032Y020303D01*
X021944Y020144D02*
X021665Y020144D01*
X021642Y019986D02*
X021944Y019986D01*
X021944Y019827D02*
X020983Y019827D01*
X021648Y019669D02*
X021944Y019669D01*
X021811Y019510D02*
X021665Y019510D01*
X021665Y019352D02*
X021696Y019352D01*
X021690Y019193D02*
X021665Y019193D01*
X021665Y019035D02*
X021690Y019035D01*
X021690Y018876D02*
X021652Y018876D01*
X021690Y018718D02*
X021430Y018718D01*
X021665Y018559D02*
X021690Y018559D01*
X021690Y018401D02*
X021665Y018401D01*
X021665Y018242D02*
X021690Y018242D01*
X021690Y018084D02*
X021665Y018084D01*
X021665Y017925D02*
X021690Y017925D01*
X021690Y017767D02*
X021583Y017767D01*
X021690Y017608D02*
X020992Y017608D01*
X021665Y017450D02*
X021690Y017450D01*
X021690Y017291D02*
X021665Y017291D01*
X021665Y017133D02*
X021706Y017133D01*
X021665Y016974D02*
X021752Y016974D01*
X021771Y016816D02*
X021665Y016816D01*
X021593Y016657D02*
X023552Y016657D01*
X023394Y016816D02*
X022389Y016816D01*
X022080Y017070D02*
X025830Y017070D01*
X026400Y017640D01*
X026091Y017671D02*
X025961Y017540D01*
X025589Y017540D01*
X025369Y017320D01*
X025191Y017320D01*
X024971Y017540D01*
X024589Y017540D01*
X024369Y017320D01*
X024191Y017320D01*
X023971Y017540D01*
X023589Y017540D01*
X023359Y017310D01*
X023068Y017310D01*
X023082Y017334D01*
X023094Y017380D01*
X023094Y017641D01*
X022637Y017641D01*
X022637Y017796D01*
X022483Y017796D01*
X022483Y018214D01*
X022182Y018214D01*
X022170Y018211D01*
X022170Y018346D01*
X022981Y018346D01*
X023074Y018440D01*
X023074Y019202D01*
X022981Y019296D01*
X022944Y019296D01*
X022944Y019559D01*
X022977Y019526D01*
X023018Y019502D01*
X023064Y019490D01*
X023196Y019490D01*
X023196Y019886D01*
X023196Y019886D01*
X023196Y019490D01*
X023328Y019490D01*
X023374Y019502D01*
X023415Y019526D01*
X023448Y019559D01*
X023454Y019569D01*
X023514Y019510D01*
X023772Y019510D01*
X023772Y019246D01*
X023829Y019188D01*
X023827Y019186D01*
X023577Y018936D01*
X023540Y018848D01*
X023540Y018491D01*
X023320Y018271D01*
X023320Y017889D01*
X023589Y017620D01*
X023971Y017620D01*
X024240Y017889D01*
X024240Y018271D01*
X024020Y018491D01*
X024020Y018701D01*
X024129Y018810D01*
X024951Y018810D01*
X024937Y018796D01*
X024681Y018540D01*
X024589Y018540D01*
X024320Y018271D01*
X024320Y017889D01*
X024589Y017620D01*
X024971Y017620D01*
X025240Y017889D01*
X025240Y018271D01*
X025165Y018346D01*
X025269Y018450D01*
X025499Y018450D01*
X025320Y018271D01*
X025320Y017889D01*
X025589Y017620D01*
X025971Y017620D01*
X026091Y017741D01*
X026091Y017671D01*
X026029Y017608D02*
X023094Y017608D01*
X023094Y017450D02*
X023499Y017450D01*
X023500Y017070D02*
X023770Y017070D01*
X023780Y017080D01*
X024780Y017080D01*
X025780Y017080D01*
X026240Y017133D02*
X026600Y017133D01*
X026600Y017291D02*
X026390Y017291D01*
X026240Y016974D02*
X026657Y016974D01*
X026859Y016816D02*
X026166Y016816D01*
X026008Y016657D02*
X028851Y016657D01*
X028878Y016684D02*
X028784Y016591D01*
X028784Y015277D01*
X028878Y015183D01*
X029562Y015183D01*
X029656Y015277D01*
X029656Y015654D01*
X030334Y015654D01*
X030406Y015582D01*
X030914Y015582D01*
X031008Y015676D01*
X031008Y016184D01*
X030914Y016278D01*
X030406Y016278D01*
X030341Y016214D01*
X029656Y016214D01*
X029656Y016591D01*
X029562Y016684D01*
X028878Y016684D01*
X028859Y016816D02*
X028141Y016816D01*
X028343Y016974D02*
X028657Y016974D01*
X028600Y017133D02*
X028400Y017133D01*
X028400Y017291D02*
X028600Y017291D01*
X028600Y017450D02*
X028400Y017450D01*
X028400Y017608D02*
X028600Y017608D01*
X028607Y017767D02*
X028393Y017767D01*
X028320Y018120D02*
X027990Y018120D01*
X027990Y017440D01*
X028000Y017430D01*
X027600Y017450D02*
X027400Y017450D01*
X027400Y017608D02*
X027600Y017608D01*
X027607Y017767D02*
X027393Y017767D01*
X027311Y017925D02*
X027689Y017925D01*
X027990Y018120D02*
X027810Y018300D01*
X026280Y018300D01*
X026060Y018080D01*
X025780Y018080D01*
X025320Y018084D02*
X025240Y018084D01*
X025240Y018242D02*
X025320Y018242D01*
X025220Y018401D02*
X025450Y018401D01*
X025170Y018690D02*
X028650Y018690D01*
X029000Y018340D01*
X029350Y018690D01*
X030240Y018690D01*
X031070Y018690D01*
X031110Y018650D01*
X030595Y018401D02*
X029400Y018401D01*
X029241Y018242D02*
X030622Y018242D01*
X030686Y018013D02*
X030645Y017989D01*
X030611Y017956D01*
X030587Y017915D01*
X030575Y017869D01*
X030575Y017608D01*
X030420Y017608D01*
X030420Y017703D02*
X030410Y017768D01*
X030389Y017831D01*
X030359Y017890D01*
X030320Y017944D01*
X030274Y017990D01*
X030220Y018029D01*
X030161Y018059D01*
X030098Y018080D01*
X030033Y018090D01*
X030000Y018090D01*
X030000Y017430D01*
X030420Y017430D01*
X030420Y017703D01*
X030410Y017767D02*
X030575Y017767D01*
X030593Y017925D02*
X030334Y017925D01*
X030074Y018084D02*
X035330Y018084D01*
X035330Y018242D02*
X034568Y018242D01*
X034595Y018401D02*
X035330Y018401D01*
X035330Y018559D02*
X034595Y018559D01*
X034595Y018718D02*
X035330Y018718D01*
X035330Y018876D02*
X034595Y018876D01*
X034591Y019035D02*
X035330Y019035D01*
X035330Y019193D02*
X034360Y019193D01*
X034360Y019352D02*
X035370Y019352D01*
X035524Y019510D02*
X034360Y019510D01*
X034360Y019669D02*
X035683Y019669D01*
X035841Y019827D02*
X034360Y019827D01*
X034360Y019986D02*
X036054Y019986D01*
X036194Y020144D02*
X034426Y020144D01*
X034515Y020303D02*
X036105Y020303D01*
X036105Y020937D02*
X034515Y020937D01*
X034435Y021095D02*
X036185Y021095D01*
X036995Y021095D02*
X037130Y021095D01*
X037130Y020937D02*
X037074Y020937D01*
X037074Y020778D02*
X037130Y020778D01*
X037130Y020620D02*
X037074Y020620D01*
X037074Y020461D02*
X037130Y020461D01*
X037130Y020303D02*
X037074Y020303D01*
X037130Y020144D02*
X036985Y020144D01*
X037690Y020144D02*
X037905Y020144D01*
X037905Y019986D02*
X037690Y019986D01*
X037662Y019827D02*
X037905Y019827D01*
X037905Y019669D02*
X037525Y019669D01*
X037366Y019510D02*
X037905Y019510D01*
X037905Y019352D02*
X036158Y019352D01*
X035999Y019193D02*
X037905Y019193D01*
X037905Y019035D02*
X035890Y019035D01*
X035949Y018909D02*
X035949Y018245D01*
X036043Y018152D01*
X036707Y018152D01*
X036801Y018245D01*
X036801Y018909D01*
X036707Y019003D01*
X036043Y019003D01*
X035949Y018909D01*
X035949Y018876D02*
X035890Y018876D01*
X035890Y018718D02*
X035949Y018718D01*
X035949Y018559D02*
X035890Y018559D01*
X035890Y018401D02*
X035949Y018401D01*
X035952Y018242D02*
X035890Y018242D01*
X035890Y018084D02*
X037905Y018084D01*
X037905Y018242D02*
X036797Y018242D01*
X036801Y018401D02*
X037905Y018401D01*
X037905Y018559D02*
X036801Y018559D01*
X036801Y018718D02*
X037905Y018718D01*
X037905Y018876D02*
X036801Y018876D01*
X036707Y018019D02*
X036043Y018019D01*
X035949Y017925D01*
X035890Y017925D01*
X035949Y017925D02*
X035949Y017261D01*
X036043Y017167D01*
X036707Y017167D01*
X036801Y017261D01*
X036801Y017925D01*
X037905Y017925D01*
X037905Y017767D02*
X036801Y017767D01*
X036801Y017925D02*
X036707Y018019D01*
X036801Y017608D02*
X037905Y017608D01*
X037905Y017450D02*
X036801Y017450D01*
X036801Y017291D02*
X037905Y017291D01*
X037905Y017133D02*
X035890Y017133D01*
X035890Y017291D02*
X035949Y017291D01*
X035949Y017450D02*
X035890Y017450D01*
X035890Y017608D02*
X035949Y017608D01*
X035949Y017767D02*
X035890Y017767D01*
X035330Y017767D02*
X034615Y017767D01*
X034615Y017869D02*
X034603Y017915D01*
X034579Y017956D01*
X034545Y017989D01*
X034504Y018013D01*
X034459Y018025D01*
X034157Y018025D01*
X034157Y017608D01*
X034003Y017608D01*
X034003Y018025D01*
X033701Y018025D01*
X033656Y018013D01*
X033615Y017989D01*
X033585Y017960D01*
X033555Y017989D01*
X033514Y018013D01*
X033469Y018025D01*
X033167Y018025D01*
X033167Y017608D01*
X033013Y017608D01*
X033013Y018025D01*
X032711Y018025D01*
X032666Y018013D01*
X032625Y017989D01*
X032595Y017960D01*
X032565Y017989D01*
X032524Y018013D01*
X032479Y018025D01*
X032177Y018025D01*
X032177Y017608D01*
X032023Y017608D01*
X032023Y018025D01*
X031721Y018025D01*
X031676Y018013D01*
X031635Y017989D01*
X031605Y017960D01*
X031575Y017989D01*
X031534Y018013D01*
X031489Y018025D01*
X031187Y018025D01*
X031187Y017608D01*
X031033Y017608D01*
X031033Y018025D01*
X030731Y018025D01*
X030686Y018013D01*
X031033Y017925D02*
X031187Y017925D01*
X031187Y017767D02*
X031033Y017767D01*
X031033Y017608D02*
X031187Y017608D01*
X031565Y017608D01*
X032023Y017608D01*
X032177Y017608D01*
X033013Y017608D01*
X033167Y017608D01*
X034003Y017608D01*
X034157Y017608D01*
X034615Y017608D01*
X035330Y017608D01*
X035330Y017450D02*
X034615Y017450D01*
X034615Y017453D02*
X034615Y017191D01*
X034603Y017146D01*
X034579Y017105D01*
X034545Y017071D01*
X034504Y017047D01*
X034459Y017035D01*
X034157Y017035D01*
X034157Y017453D01*
X034003Y017453D01*
X034003Y017035D01*
X033701Y017035D01*
X033656Y017047D01*
X033615Y017071D01*
X033585Y017101D01*
X033555Y017071D01*
X033514Y017047D01*
X033469Y017035D01*
X033167Y017035D01*
X033167Y017453D01*
X033013Y017453D01*
X033013Y017035D01*
X032711Y017035D01*
X032666Y017047D01*
X032625Y017071D01*
X032595Y017101D01*
X032565Y017071D01*
X032524Y017047D01*
X032479Y017035D01*
X032177Y017035D01*
X032177Y017453D01*
X032023Y017453D01*
X032023Y017035D01*
X031721Y017035D01*
X031676Y017047D01*
X031635Y017071D01*
X031605Y017101D01*
X031575Y017071D01*
X031534Y017047D01*
X031489Y017035D01*
X031187Y017035D01*
X031187Y017453D01*
X031033Y017453D01*
X031033Y017035D01*
X030731Y017035D01*
X030686Y017047D01*
X030645Y017071D01*
X030611Y017105D01*
X030587Y017146D01*
X030575Y017191D01*
X030575Y017453D01*
X031033Y017453D01*
X031033Y017608D01*
X030575Y017608D01*
X030575Y017450D02*
X030420Y017450D01*
X030420Y017430D02*
X030000Y017430D01*
X030000Y017430D01*
X030000Y017430D01*
X030000Y016770D01*
X030033Y016770D01*
X030098Y016780D01*
X030161Y016801D01*
X030220Y016831D01*
X030274Y016870D01*
X030320Y016916D01*
X030359Y016970D01*
X030389Y017029D01*
X030410Y017092D01*
X030420Y017157D01*
X030420Y017430D01*
X030420Y017291D02*
X030575Y017291D01*
X030595Y017133D02*
X030416Y017133D01*
X030361Y016974D02*
X035238Y016974D01*
X035330Y017133D02*
X034595Y017133D01*
X034615Y017291D02*
X035330Y017291D01*
X034615Y017453D02*
X034157Y017453D01*
X034157Y017608D01*
X034003Y017608D02*
X034003Y017453D01*
X033545Y017453D01*
X033167Y017453D01*
X033167Y017608D01*
X033013Y017608D02*
X033013Y017453D01*
X032635Y017453D01*
X032177Y017453D01*
X032177Y017608D01*
X032023Y017608D02*
X032023Y017453D01*
X031187Y017453D01*
X031187Y017608D01*
X031187Y017450D02*
X031033Y017450D01*
X031033Y017291D02*
X031187Y017291D01*
X031187Y017133D02*
X031033Y017133D01*
X030190Y016816D02*
X035080Y016816D01*
X034921Y016657D02*
X032889Y016657D01*
X032956Y016499D02*
X034763Y016499D01*
X034645Y016381D02*
X034645Y016381D01*
X034604Y016340D02*
X032956Y016340D01*
X032151Y016657D02*
X029589Y016657D01*
X029656Y016499D02*
X032084Y016499D01*
X032084Y016340D02*
X029656Y016340D01*
X029839Y016801D02*
X029902Y016780D01*
X029967Y016770D01*
X030000Y016770D01*
X030000Y017430D01*
X030000Y017430D01*
X030000Y017430D01*
X029580Y017430D01*
X029580Y017703D01*
X029590Y017768D01*
X029611Y017831D01*
X029641Y017890D01*
X029680Y017944D01*
X029726Y017990D01*
X029780Y018029D01*
X029839Y018059D01*
X029902Y018080D01*
X029967Y018090D01*
X030000Y018090D01*
X030000Y017430D01*
X029580Y017430D01*
X029580Y017157D01*
X029590Y017092D01*
X029611Y017029D01*
X029641Y016970D01*
X029680Y016916D01*
X029726Y016870D01*
X029780Y016831D01*
X029839Y016801D01*
X029810Y016816D02*
X029141Y016816D01*
X029343Y016974D02*
X029639Y016974D01*
X029584Y017133D02*
X029400Y017133D01*
X029400Y017291D02*
X029580Y017291D01*
X029580Y017450D02*
X029400Y017450D01*
X029400Y017608D02*
X029580Y017608D01*
X029590Y017767D02*
X029393Y017767D01*
X029311Y017925D02*
X029666Y017925D01*
X029926Y018084D02*
X029240Y018084D01*
X029000Y018340D02*
X029000Y017430D01*
X028980Y017450D01*
X030000Y017450D02*
X030000Y017450D01*
X030000Y017608D02*
X030000Y017608D01*
X030000Y017767D02*
X030000Y017767D01*
X030000Y017925D02*
X030000Y017925D01*
X030000Y018084D02*
X030000Y018084D01*
X030000Y017291D02*
X030000Y017291D01*
X030000Y017133D02*
X030000Y017133D01*
X030000Y016974D02*
X030000Y016974D01*
X030000Y016816D02*
X030000Y016816D01*
X028784Y016499D02*
X026188Y016499D01*
X026188Y016340D02*
X028784Y016340D01*
X028784Y016182D02*
X026188Y016182D01*
X026340Y015930D02*
X028080Y015930D01*
X028440Y015570D01*
X028440Y015210D01*
X028770Y014880D01*
X032940Y014880D01*
X033330Y014490D01*
X033330Y013100D01*
X032590Y012360D01*
X031400Y012360D01*
X030925Y012378D02*
X030358Y012378D01*
X030358Y012437D02*
X030358Y012283D01*
X030775Y012283D01*
X030775Y012030D01*
X030925Y012030D01*
X030925Y012781D01*
X031019Y012875D01*
X031781Y012875D01*
X031875Y012781D01*
X031875Y012600D01*
X032115Y012600D01*
X032115Y012781D01*
X032157Y012823D01*
X032134Y012837D01*
X032100Y012870D01*
X032077Y012911D01*
X032064Y012957D01*
X032064Y013514D01*
X032462Y013514D01*
X032462Y013629D01*
X032064Y013629D01*
X032064Y014186D01*
X032077Y014232D01*
X032100Y014273D01*
X032134Y014306D01*
X032175Y014330D01*
X032221Y014342D01*
X032462Y014342D01*
X032462Y013629D01*
X032578Y013629D01*
X032976Y013629D01*
X032976Y014186D01*
X032963Y014232D01*
X032940Y014273D01*
X032906Y014306D01*
X032865Y014330D01*
X032819Y014342D01*
X032578Y014342D01*
X032578Y013629D01*
X032578Y013514D01*
X032976Y013514D01*
X032976Y013085D01*
X033090Y013199D01*
X033090Y014391D01*
X032841Y014640D01*
X030988Y014640D01*
X030988Y014285D01*
X030895Y014192D01*
X030425Y014192D01*
X030377Y014240D01*
X029833Y014240D01*
X029785Y014192D01*
X029674Y014192D01*
X029676Y014186D01*
X029676Y013629D01*
X029278Y013629D01*
X029278Y013514D01*
X029676Y013514D01*
X029676Y012957D01*
X029663Y012911D01*
X029640Y012870D01*
X029606Y012837D01*
X029565Y012813D01*
X029519Y012801D01*
X029278Y012801D01*
X029278Y013514D01*
X029162Y013514D01*
X029162Y012801D01*
X028921Y012801D01*
X028875Y012813D01*
X028860Y012822D01*
X028860Y012579D01*
X029386Y012053D01*
X029409Y012030D01*
X029785Y012030D01*
X029785Y012283D01*
X030203Y012283D01*
X030203Y012437D01*
X029785Y012437D01*
X029785Y012739D01*
X029797Y012784D01*
X029821Y012825D01*
X029855Y012859D01*
X029896Y012883D01*
X029941Y012895D01*
X030203Y012895D01*
X030203Y012437D01*
X030358Y012437D01*
X030775Y012437D01*
X030775Y012739D01*
X030763Y012784D01*
X030739Y012825D01*
X030706Y012859D01*
X030665Y012883D01*
X030619Y012895D01*
X030358Y012895D01*
X030358Y012437D01*
X030358Y012536D02*
X030203Y012536D01*
X030203Y012378D02*
X029062Y012378D01*
X028903Y012536D02*
X029785Y012536D01*
X029785Y012695D02*
X028860Y012695D01*
X028620Y012480D02*
X029250Y011850D01*
X029280Y011820D01*
X029310Y011790D01*
X031110Y011790D01*
X031380Y011520D01*
X031380Y011270D01*
X031400Y011250D01*
X032590Y011250D01*
X033710Y011250D02*
X035130Y011250D01*
X035310Y010650D02*
X036374Y010650D01*
X036375Y010651D01*
X037126Y010000D02*
X037905Y010000D01*
X037905Y009842D02*
X036967Y009842D01*
X036809Y009683D02*
X037905Y009683D01*
X037905Y009525D02*
X036801Y009525D01*
X036801Y009366D02*
X037905Y009366D01*
X037905Y009208D02*
X035850Y009208D01*
X035850Y009366D02*
X035949Y009366D01*
X036043Y009108D02*
X035949Y009014D01*
X035949Y008350D01*
X036043Y008256D01*
X036707Y008256D01*
X036801Y008350D01*
X036801Y009014D01*
X036707Y009108D01*
X036043Y009108D01*
X035984Y009049D02*
X035850Y009049D01*
X035850Y008891D02*
X035949Y008891D01*
X035949Y008732D02*
X035833Y008732D01*
X035949Y008574D02*
X035703Y008574D01*
X035544Y008415D02*
X035949Y008415D01*
X036043Y008257D02*
X035386Y008257D01*
X035227Y008098D02*
X036017Y008098D01*
X036043Y008124D02*
X035949Y008030D01*
X035949Y007366D01*
X036043Y007272D01*
X036707Y007272D01*
X036801Y007366D01*
X036801Y008030D01*
X036707Y008124D01*
X036043Y008124D01*
X035949Y007940D02*
X035069Y007940D01*
X034910Y007781D02*
X035949Y007781D01*
X035949Y007623D02*
X034746Y007623D01*
X034620Y007830D02*
X035610Y008820D01*
X035610Y009510D01*
X035730Y009630D01*
X036339Y009630D01*
X036375Y009666D01*
X036766Y009049D02*
X037905Y009049D01*
X037905Y008891D02*
X036801Y008891D01*
X036801Y008732D02*
X037905Y008732D01*
X037905Y008574D02*
X036801Y008574D01*
X036801Y008415D02*
X037905Y008415D01*
X037905Y008257D02*
X036707Y008257D01*
X036733Y008098D02*
X037905Y008098D01*
X037905Y007940D02*
X036801Y007940D01*
X036801Y007781D02*
X037905Y007781D01*
X037905Y007623D02*
X036801Y007623D01*
X036801Y007464D02*
X037905Y007464D01*
X037905Y007306D02*
X036740Y007306D01*
X036707Y007139D02*
X036043Y007139D01*
X035949Y007046D01*
X035949Y006382D01*
X036043Y006288D01*
X036707Y006288D01*
X036801Y006382D01*
X036801Y007046D01*
X036707Y007139D01*
X036801Y006989D02*
X037905Y006989D01*
X037905Y007147D02*
X034638Y007147D01*
X034638Y006989D02*
X035949Y006989D01*
X035949Y006830D02*
X034638Y006830D01*
X034604Y006672D02*
X035949Y006672D01*
X035949Y006513D02*
X032154Y006513D01*
X032154Y006560D02*
X032142Y006606D01*
X032118Y006647D01*
X032085Y006680D01*
X032044Y006704D01*
X031998Y006716D01*
X031697Y006716D01*
X031697Y006299D01*
X031543Y006299D01*
X031543Y006716D01*
X031242Y006716D01*
X031196Y006704D01*
X031155Y006680D01*
X031122Y006647D01*
X031098Y006606D01*
X031086Y006560D01*
X031086Y006299D01*
X031543Y006299D01*
X031543Y006144D01*
X031697Y006144D01*
X031697Y006299D01*
X032154Y006299D01*
X032154Y006560D01*
X032094Y006672D02*
X033976Y006672D01*
X033942Y006830D02*
X031064Y006830D01*
X031064Y006904D02*
X031052Y006950D01*
X031028Y006991D01*
X030995Y007025D01*
X030954Y007048D01*
X030908Y007061D01*
X030588Y007061D01*
X030588Y006584D01*
X031064Y006584D01*
X031064Y006904D01*
X031030Y006989D02*
X031642Y006989D01*
X031484Y007147D02*
X029154Y007147D01*
X029154Y007306D02*
X031325Y007306D01*
X031400Y007570D02*
X031830Y007140D01*
X034110Y007140D01*
X034290Y006960D01*
X034547Y007306D02*
X036010Y007306D01*
X035949Y007464D02*
X034185Y007464D01*
X034620Y007830D02*
X033710Y007830D01*
X032590Y007830D02*
X032580Y007830D01*
X032040Y008370D01*
X032010Y008400D01*
X029730Y008400D01*
X029460Y008400D01*
X029040Y007980D01*
X028020Y007980D01*
X027690Y008310D01*
X027690Y008540D01*
X027690Y009390D01*
X027390Y009690D01*
X027390Y012510D01*
X027252Y012648D01*
X027222Y012648D01*
X026823Y012648D01*
X026823Y012958D02*
X027482Y012958D01*
X027572Y012958D01*
X027720Y012810D01*
X027720Y010140D01*
X028620Y009240D01*
X028620Y008531D01*
X029134Y008574D02*
X029294Y008574D01*
X029324Y008603D02*
X029257Y008536D01*
X029134Y008414D01*
X029134Y008912D01*
X029041Y009006D01*
X028860Y009006D01*
X028860Y009288D01*
X028823Y009376D01*
X027960Y010239D01*
X027960Y010251D01*
X028784Y009427D01*
X028807Y009404D01*
X028874Y009337D01*
X028962Y009300D01*
X029785Y009300D01*
X029785Y009047D01*
X030203Y009047D01*
X030203Y008893D01*
X029785Y008893D01*
X029785Y008640D01*
X029412Y008640D01*
X029324Y008603D01*
X029134Y008732D02*
X029785Y008732D01*
X029785Y008891D02*
X029134Y008891D01*
X028860Y009049D02*
X029785Y009049D01*
X029785Y009208D02*
X028860Y009208D01*
X028845Y009366D02*
X028828Y009366D01*
X028784Y009427D02*
X028784Y009427D01*
X028686Y009525D02*
X028675Y009525D01*
X028528Y009683D02*
X028516Y009683D01*
X028369Y009842D02*
X028358Y009842D01*
X028211Y010000D02*
X028199Y010000D01*
X028052Y010159D02*
X028041Y010159D01*
X028414Y010476D02*
X029147Y010476D01*
X029144Y010477D02*
X029114Y010507D01*
X029114Y010507D01*
X028260Y011361D01*
X028260Y010629D01*
X029109Y009780D01*
X029785Y009780D01*
X029785Y010033D01*
X030203Y010033D01*
X030203Y010187D01*
X029785Y010187D01*
X029785Y010440D01*
X029232Y010440D01*
X029144Y010477D01*
X028987Y010634D02*
X028260Y010634D01*
X028260Y010793D02*
X028828Y010793D01*
X028670Y010951D02*
X028260Y010951D01*
X028260Y011110D02*
X028511Y011110D01*
X028353Y011268D02*
X028260Y011268D01*
X028873Y011427D02*
X029785Y011427D01*
X029785Y011327D02*
X030203Y011327D01*
X030203Y011173D01*
X029785Y011173D01*
X029785Y010920D01*
X029379Y010920D01*
X028560Y011739D01*
X028560Y012018D01*
X028560Y012201D01*
X029047Y011714D01*
X029077Y011684D01*
X029107Y011654D01*
X029174Y011587D01*
X029262Y011550D01*
X029785Y011550D01*
X029785Y011327D01*
X029785Y011110D02*
X029190Y011110D01*
X029031Y011268D02*
X030203Y011268D01*
X030358Y011268D02*
X030925Y011268D01*
X030925Y011110D02*
X030775Y011110D01*
X030775Y011173D02*
X030775Y010920D01*
X030925Y010920D01*
X030925Y011550D01*
X030775Y011550D01*
X030775Y011327D01*
X030358Y011327D01*
X030358Y011173D01*
X030775Y011173D01*
X030775Y010951D02*
X030925Y010951D01*
X031020Y010680D02*
X031380Y010320D01*
X031380Y010130D01*
X031400Y010110D01*
X032590Y010110D01*
X033710Y010110D02*
X034620Y010110D01*
X035130Y010470D02*
X035310Y010650D01*
X035130Y010470D02*
X035130Y009300D01*
X034800Y008970D01*
X033710Y008970D01*
X032590Y008970D02*
X031400Y008970D01*
X031410Y008980D01*
X031410Y009240D01*
X031110Y009540D01*
X029010Y009540D01*
X028980Y009570D01*
X028920Y009630D01*
X028020Y010530D01*
X028020Y013290D01*
X027930Y013380D01*
X027660Y013380D01*
X027452Y013588D01*
X026823Y013588D01*
X026823Y013278D02*
X026353Y013278D01*
X026353Y013402D01*
X026366Y013447D01*
X026373Y013461D01*
X026373Y014288D01*
X025291Y014288D01*
X025329Y014250D01*
X025578Y014250D01*
X025666Y014213D01*
X025733Y014146D01*
X025770Y014058D01*
X025770Y012473D01*
X025775Y012478D01*
X025802Y012478D01*
X025802Y012865D01*
X025895Y012958D01*
X026365Y012958D01*
X026373Y012950D01*
X026373Y013095D01*
X026366Y013108D01*
X026353Y013154D01*
X026353Y013278D01*
X026823Y013278D01*
X026823Y013278D01*
X026142Y013278D01*
X026130Y013290D01*
X026353Y013329D02*
X025770Y013329D01*
X025770Y013487D02*
X026373Y013487D01*
X026373Y013646D02*
X025770Y013646D01*
X025770Y013804D02*
X026373Y013804D01*
X026373Y013963D02*
X025770Y013963D01*
X025744Y014121D02*
X026373Y014121D01*
X026373Y014280D02*
X025300Y014280D01*
X025043Y014197D02*
X025230Y014010D01*
X025530Y014010D01*
X025530Y012150D01*
X025202Y012190D02*
X025108Y012283D01*
X025108Y012535D01*
X025073Y012570D01*
X025078Y012575D01*
X025078Y013045D01*
X024985Y013138D01*
X024515Y013138D01*
X024422Y013045D01*
X024422Y013033D01*
X024374Y013013D01*
X024261Y012900D01*
X024053Y012900D01*
X024053Y012958D01*
X024053Y013082D01*
X024041Y013127D01*
X024033Y013141D01*
X024033Y013405D01*
X024041Y013418D01*
X024053Y013464D01*
X024053Y013588D01*
X024053Y013712D01*
X024041Y013757D01*
X024033Y013771D01*
X024033Y014057D01*
X024062Y014029D01*
X024062Y013805D01*
X024155Y013712D01*
X024625Y013712D01*
X024718Y013805D01*
X024718Y014275D01*
X024705Y014288D01*
X024803Y014288D01*
X024803Y014149D01*
X024840Y014061D01*
X025027Y013874D01*
X025094Y013807D01*
X025182Y013770D01*
X025290Y013770D01*
X025290Y012473D01*
X025202Y012385D01*
X025202Y012190D01*
X025202Y012219D02*
X025172Y012219D01*
X025202Y012378D02*
X025108Y012378D01*
X025107Y012536D02*
X025290Y012536D01*
X025290Y012695D02*
X025078Y012695D01*
X025078Y012853D02*
X025290Y012853D01*
X025290Y013012D02*
X025078Y013012D01*
X025290Y013170D02*
X024033Y013170D01*
X024033Y013329D02*
X025290Y013329D01*
X025290Y013487D02*
X024053Y013487D01*
X024053Y013588D02*
X023583Y013588D01*
X024062Y013588D01*
X024360Y013290D01*
X024028Y012958D01*
X023583Y012958D01*
X024053Y012958D01*
X023583Y012958D01*
X023583Y012958D01*
X023583Y012660D02*
X024360Y012660D01*
X024510Y012810D01*
X024750Y012810D01*
X024372Y013012D02*
X024053Y013012D01*
X023583Y013278D02*
X023268Y013278D01*
X023010Y013020D01*
X023010Y012870D01*
X023220Y012660D01*
X023571Y012660D01*
X023583Y012648D01*
X023583Y012660D01*
X023581Y012330D02*
X022530Y012330D01*
X022320Y012120D01*
X022260Y012060D01*
X022260Y011940D01*
X022770Y011940D02*
X022848Y012018D01*
X023583Y012018D01*
X023583Y012328D02*
X023581Y012330D01*
X022489Y013170D02*
X022031Y013170D01*
X022060Y013199D02*
X021966Y013105D01*
X021274Y013105D01*
X021180Y013199D01*
X021180Y013533D01*
X021117Y013470D01*
X020947Y013300D01*
X020340Y013300D01*
X020340Y013199D01*
X020246Y013105D01*
X020116Y013105D01*
X020150Y013071D01*
X020150Y013055D01*
X020311Y013055D01*
X020405Y012961D01*
X020405Y012119D01*
X020311Y012025D01*
X019549Y012025D01*
X019455Y012119D01*
X019455Y012860D01*
X019215Y012860D01*
X019215Y012119D01*
X019121Y012025D01*
X018359Y012025D01*
X018265Y012119D01*
X018265Y012676D01*
X018187Y012754D01*
X018150Y012842D01*
X018150Y012932D01*
X018095Y012932D01*
X018095Y012119D01*
X018001Y012025D01*
X017239Y012025D01*
X017145Y012119D01*
X017145Y012300D01*
X016542Y012300D01*
X016454Y012337D01*
X016109Y012681D01*
X015925Y012681D01*
X015831Y012775D01*
X015831Y012903D01*
X015690Y013044D01*
X015690Y012745D01*
X015720Y012671D01*
X015720Y012669D01*
X015721Y012666D01*
X015720Y012537D01*
X015720Y011089D01*
X015715Y011076D01*
X016079Y011440D01*
X016349Y011440D01*
X016393Y011484D01*
X016382Y011495D01*
X016382Y011965D01*
X016475Y012058D01*
X016945Y012058D01*
X017038Y011965D01*
X017038Y011495D01*
X016945Y011402D01*
X016930Y011402D01*
X016930Y011399D01*
X016660Y011129D01*
X016531Y011000D01*
X016261Y011000D01*
X016120Y010859D01*
X016120Y010828D01*
X016495Y010828D01*
X016588Y010735D01*
X016588Y010265D01*
X016495Y010172D01*
X016453Y010172D01*
X016371Y010090D01*
X016709Y010090D01*
X017120Y010501D01*
X017120Y010831D01*
X017870Y011581D01*
X017999Y011710D01*
X020459Y011710D01*
X020754Y012005D01*
X020711Y012005D01*
X020665Y012017D01*
X020624Y012041D01*
X020591Y012075D01*
X020567Y012116D01*
X020555Y012161D01*
X020555Y012463D01*
X020972Y012463D01*
X020972Y012617D01*
X020555Y012617D01*
X020555Y012919D01*
X020567Y012964D01*
X020591Y013005D01*
X020624Y013039D01*
X020665Y013063D01*
X020711Y013075D01*
X020972Y013075D01*
X020972Y012617D01*
X021127Y012617D01*
X021127Y013075D01*
X021389Y013075D01*
X021434Y013063D01*
X021475Y013039D01*
X021509Y013005D01*
X021533Y012964D01*
X021545Y012919D01*
X021545Y012826D01*
X021659Y012940D01*
X022259Y012940D01*
X022790Y013472D01*
X022475Y013472D01*
X022382Y013565D01*
X022382Y013715D01*
X022167Y013500D01*
X022060Y013500D01*
X022060Y013199D01*
X022060Y013329D02*
X022647Y013329D01*
X022460Y013487D02*
X022060Y013487D01*
X022312Y013646D02*
X022382Y013646D01*
X022330Y013012D02*
X021503Y013012D01*
X021545Y012853D02*
X021572Y012853D01*
X021127Y012853D02*
X020972Y012853D01*
X020972Y012695D02*
X021127Y012695D01*
X020972Y012536D02*
X020405Y012536D01*
X020405Y012378D02*
X020555Y012378D01*
X020555Y012219D02*
X020405Y012219D01*
X020347Y012061D02*
X020605Y012061D01*
X020651Y011902D02*
X017038Y011902D01*
X017038Y011744D02*
X020492Y011744D01*
X019513Y012061D02*
X019157Y012061D01*
X019215Y012219D02*
X019455Y012219D01*
X019455Y012378D02*
X019215Y012378D01*
X019215Y012536D02*
X019455Y012536D01*
X019455Y012695D02*
X019215Y012695D01*
X019215Y012853D02*
X019455Y012853D01*
X020311Y013170D02*
X021209Y013170D01*
X021180Y013329D02*
X020975Y013329D01*
X021134Y013487D02*
X021180Y013487D01*
X020820Y013804D02*
X020356Y013804D01*
X020340Y013963D02*
X020820Y013963D01*
X020820Y014121D02*
X020360Y014121D01*
X020360Y014100D02*
X020271Y014100D01*
X020271Y014100D01*
X020360Y014100D01*
X020310Y014280D02*
X020820Y014280D01*
X020566Y014438D02*
X020373Y014438D01*
X020383Y014456D02*
X020395Y014501D01*
X020395Y014803D01*
X019978Y014803D01*
X019978Y014957D01*
X019823Y014957D01*
X019823Y014803D01*
X019405Y014803D01*
X019405Y014501D01*
X019417Y014456D01*
X019441Y014415D01*
X019475Y014381D01*
X019516Y014357D01*
X019561Y014345D01*
X019823Y014345D01*
X019823Y014803D01*
X019978Y014803D01*
X019978Y014345D01*
X020239Y014345D01*
X020285Y014357D01*
X020326Y014381D01*
X020359Y014415D01*
X020383Y014456D01*
X020395Y014597D02*
X020545Y014597D01*
X020545Y014755D02*
X020395Y014755D01*
X020545Y014914D02*
X019978Y014914D01*
X019823Y014914D02*
X019185Y014914D01*
X019185Y015072D02*
X019405Y015072D01*
X019405Y014957D02*
X019405Y015259D01*
X019417Y015304D01*
X019441Y015345D01*
X019475Y015379D01*
X019516Y015403D01*
X019561Y015415D01*
X019823Y015415D01*
X019823Y014957D01*
X019405Y014957D01*
X019405Y014755D02*
X019185Y014755D01*
X019185Y014597D02*
X019405Y014597D01*
X019428Y014438D02*
X019164Y014438D01*
X019010Y014280D02*
X019010Y014280D01*
X019010Y014121D02*
X019010Y014121D01*
X019365Y014121D02*
X019440Y014121D01*
X019460Y013963D02*
X019357Y013963D01*
X019345Y013804D02*
X019444Y013804D01*
X019490Y014280D02*
X019337Y014280D01*
X019823Y014438D02*
X019978Y014438D01*
X019978Y014597D02*
X019823Y014597D01*
X019823Y014755D02*
X019978Y014755D01*
X019900Y014280D02*
X019900Y014280D01*
X019823Y015072D02*
X019978Y015072D01*
X019978Y015231D02*
X019823Y015231D01*
X019823Y015389D02*
X019978Y015389D01*
X020162Y015548D02*
X015720Y015548D01*
X015720Y015706D02*
X020162Y015706D01*
X019492Y015389D02*
X019097Y015389D01*
X019185Y015231D02*
X019405Y015231D01*
X018710Y014880D02*
X018690Y014860D01*
X018690Y014400D01*
X018480Y014190D01*
X018480Y014040D01*
X018152Y014121D02*
X017735Y014121D01*
X017704Y014280D02*
X018156Y014280D01*
X018256Y014438D02*
X018044Y014438D01*
X018065Y014597D02*
X018235Y014597D01*
X018235Y014755D02*
X018065Y014755D01*
X018065Y014914D02*
X018235Y014914D01*
X018235Y015072D02*
X018065Y015072D01*
X018065Y015231D02*
X018235Y015231D01*
X018323Y015389D02*
X017977Y015389D01*
X017590Y014880D02*
X016650Y014880D01*
X016140Y014370D01*
X016410Y014100D01*
X017400Y014100D01*
X017400Y013844D02*
X018046Y013844D01*
X018076Y013844D01*
X018390Y013530D01*
X018390Y012890D01*
X018740Y012540D01*
X018265Y012536D02*
X018095Y012536D01*
X018095Y012378D02*
X018265Y012378D01*
X018265Y012219D02*
X018095Y012219D01*
X018037Y012061D02*
X018323Y012061D01*
X017874Y011585D02*
X017038Y011585D01*
X016970Y011427D02*
X017715Y011427D01*
X017557Y011268D02*
X016799Y011268D01*
X016641Y011110D02*
X017398Y011110D01*
X017240Y010951D02*
X016212Y010951D01*
X016531Y010793D02*
X017120Y010793D01*
X017120Y010634D02*
X016588Y010634D01*
X016588Y010476D02*
X017094Y010476D01*
X016936Y010317D02*
X016588Y010317D01*
X016440Y010159D02*
X016777Y010159D01*
X016604Y009525D02*
X016516Y009525D01*
X016516Y009366D02*
X016604Y009366D01*
X016604Y009208D02*
X016516Y009208D01*
X016516Y009049D02*
X016604Y009049D01*
X016698Y008566D02*
X016604Y008472D01*
X016604Y007867D01*
X016698Y007773D01*
X016800Y007773D01*
X016800Y007755D01*
X016619Y007755D01*
X016560Y007696D01*
X016501Y007755D01*
X016320Y007755D01*
X016320Y007773D01*
X016422Y007773D01*
X016516Y007867D01*
X016516Y008472D01*
X016422Y008566D01*
X015738Y008566D01*
X015644Y008472D01*
X015644Y007867D01*
X015738Y007773D01*
X015840Y007773D01*
X015840Y007755D01*
X015659Y007755D01*
X015600Y007696D01*
X015541Y007755D01*
X015360Y007755D01*
X015360Y007773D01*
X015462Y007773D01*
X015556Y007867D01*
X015556Y008472D01*
X015462Y008566D01*
X014778Y008566D01*
X014684Y008472D01*
X014684Y007867D01*
X014778Y007773D01*
X014880Y007773D01*
X014880Y007755D01*
X014699Y007755D01*
X014640Y007696D01*
X014581Y007755D01*
X014400Y007755D01*
X014400Y007773D01*
X014502Y007773D01*
X014596Y007867D01*
X014596Y008472D01*
X014502Y008566D01*
X013818Y008566D01*
X013724Y008472D01*
X013724Y007867D01*
X013818Y007773D01*
X013920Y007773D01*
X013920Y007755D01*
X013739Y007755D01*
X013680Y007696D01*
X013621Y007755D01*
X013440Y007755D01*
X013440Y007773D01*
X013542Y007773D01*
X013636Y007867D01*
X013636Y008472D01*
X013542Y008566D01*
X012858Y008566D01*
X012764Y008472D01*
X012764Y007867D01*
X012858Y007773D01*
X012960Y007773D01*
X012960Y007755D01*
X012779Y007755D01*
X012685Y007661D01*
X012685Y006899D01*
X012779Y006805D01*
X013621Y006805D01*
X013680Y006864D01*
X013739Y006805D01*
X014581Y006805D01*
X014640Y006864D01*
X014699Y006805D01*
X015541Y006805D01*
X015600Y006864D01*
X015659Y006805D01*
X016501Y006805D01*
X016560Y006864D01*
X016619Y006805D01*
X017461Y006805D01*
X017520Y006864D01*
X017579Y006805D01*
X018421Y006805D01*
X018480Y006864D01*
X018539Y006805D01*
X019381Y006805D01*
X019440Y006864D01*
X019499Y006805D01*
X020341Y006805D01*
X020400Y006864D01*
X020459Y006805D01*
X021301Y006805D01*
X021360Y006864D01*
X021419Y006805D01*
X022261Y006805D01*
X022320Y006864D01*
X022379Y006805D01*
X023221Y006805D01*
X023315Y006899D01*
X023315Y007661D01*
X023221Y007755D01*
X023040Y007755D01*
X023040Y007773D01*
X023142Y007773D01*
X023236Y007867D01*
X023236Y008472D01*
X023142Y008566D01*
X022458Y008566D01*
X022364Y008472D01*
X022364Y007867D01*
X022458Y007773D01*
X022560Y007773D01*
X022560Y007755D01*
X022379Y007755D01*
X022320Y007696D01*
X022261Y007755D01*
X022080Y007755D01*
X022080Y007773D01*
X022182Y007773D01*
X022276Y007867D01*
X022276Y008472D01*
X022182Y008566D01*
X021498Y008566D01*
X021404Y008472D01*
X021404Y007867D01*
X021498Y007773D01*
X021600Y007773D01*
X021600Y007755D01*
X021419Y007755D01*
X021360Y007696D01*
X021301Y007755D01*
X021120Y007755D01*
X021120Y007773D01*
X021222Y007773D01*
X021316Y007867D01*
X021316Y008472D01*
X021222Y008566D01*
X020538Y008566D01*
X020444Y008472D01*
X020444Y007867D01*
X020538Y007773D01*
X020640Y007773D01*
X020640Y007755D01*
X020459Y007755D01*
X020400Y007696D01*
X020341Y007755D01*
X020160Y007755D01*
X020160Y007773D01*
X020262Y007773D01*
X020356Y007867D01*
X020356Y008472D01*
X020262Y008566D01*
X019578Y008566D01*
X019484Y008472D01*
X019484Y007867D01*
X019578Y007773D01*
X019680Y007773D01*
X019680Y007755D01*
X019499Y007755D01*
X019440Y007696D01*
X019381Y007755D01*
X019200Y007755D01*
X019200Y007773D01*
X019302Y007773D01*
X019396Y007867D01*
X019396Y008472D01*
X019302Y008566D01*
X018618Y008566D01*
X018524Y008472D01*
X018524Y007867D01*
X018618Y007773D01*
X018720Y007773D01*
X018720Y007755D01*
X018539Y007755D01*
X018480Y007696D01*
X018421Y007755D01*
X018240Y007755D01*
X018240Y007773D01*
X018342Y007773D01*
X018436Y007867D01*
X018436Y008472D01*
X018342Y008566D01*
X017658Y008566D01*
X017564Y008472D01*
X017564Y007867D01*
X017658Y007773D01*
X017760Y007773D01*
X017760Y007755D01*
X017579Y007755D01*
X017520Y007696D01*
X017461Y007755D01*
X017280Y007755D01*
X017280Y007773D01*
X017382Y007773D01*
X017476Y007867D01*
X017476Y008472D01*
X017382Y008566D01*
X016698Y008566D01*
X016604Y008415D02*
X016516Y008415D01*
X016516Y008257D02*
X016604Y008257D01*
X016604Y008098D02*
X016516Y008098D01*
X016516Y007940D02*
X016604Y007940D01*
X016690Y007781D02*
X016430Y007781D01*
X016080Y008169D02*
X016080Y007280D01*
X015730Y007781D02*
X015470Y007781D01*
X015556Y007940D02*
X015644Y007940D01*
X015644Y008098D02*
X015556Y008098D01*
X015556Y008257D02*
X015644Y008257D01*
X015644Y008415D02*
X015556Y008415D01*
X015120Y008169D02*
X015120Y007280D01*
X014770Y007781D02*
X014510Y007781D01*
X014596Y007940D02*
X014684Y007940D01*
X014684Y008098D02*
X014596Y008098D01*
X014596Y008257D02*
X014684Y008257D01*
X014684Y008415D02*
X014596Y008415D01*
X014160Y008169D02*
X014160Y007280D01*
X013810Y007781D02*
X013550Y007781D01*
X013636Y007940D02*
X013724Y007940D01*
X013724Y008098D02*
X013636Y008098D01*
X013636Y008257D02*
X013724Y008257D01*
X013724Y008415D02*
X013636Y008415D01*
X013200Y008169D02*
X013200Y007280D01*
X012685Y007306D02*
X012405Y007306D01*
X012495Y007464D02*
X012685Y007464D01*
X012685Y007623D02*
X012561Y007623D01*
X012585Y007781D02*
X012850Y007781D01*
X012764Y007940D02*
X012585Y007940D01*
X012585Y008098D02*
X012764Y008098D01*
X012764Y008257D02*
X012585Y008257D01*
X012585Y008415D02*
X012764Y008415D01*
X012585Y008574D02*
X023486Y008574D01*
X023486Y008732D02*
X012585Y008732D01*
X012585Y008891D02*
X023486Y008891D01*
X023236Y009049D02*
X023760Y009049D01*
X024000Y009240D02*
X024540Y009780D01*
X024820Y009780D01*
X023880Y009780D01*
X023820Y009780D01*
X023520Y009480D01*
X024000Y009240D02*
X024000Y008531D01*
X024000Y008220D01*
X024240Y007980D01*
X025260Y007980D01*
X025380Y007860D01*
X025852Y007388D01*
X025852Y007024D01*
X025417Y006989D02*
X024965Y006989D01*
X024850Y006989D02*
X024484Y006989D01*
X024498Y007003D02*
X024465Y006970D01*
X024458Y006966D01*
X024850Y006966D01*
X024850Y007082D01*
X024532Y007082D01*
X024522Y007044D01*
X024498Y007003D01*
X024452Y006830D02*
X023246Y006830D01*
X023315Y006989D02*
X023516Y006989D01*
X023502Y007003D02*
X023535Y006970D01*
X023576Y006946D01*
X023622Y006934D01*
X023923Y006934D01*
X023923Y007351D01*
X023466Y007351D01*
X023466Y007090D01*
X023478Y007044D01*
X023502Y007003D01*
X023466Y007147D02*
X023315Y007147D01*
X023315Y007306D02*
X023466Y007306D01*
X023315Y007464D02*
X023923Y007464D01*
X023923Y007306D02*
X024077Y007306D01*
X024077Y007147D02*
X023923Y007147D01*
X023923Y006989D02*
X024077Y006989D01*
X024452Y006672D02*
X008676Y006672D01*
X008753Y006513D02*
X012669Y006513D01*
X012665Y006355D02*
X008819Y006355D01*
X008846Y006196D02*
X013123Y006196D01*
X013277Y006196D02*
X014083Y006196D01*
X014083Y006238D02*
X014083Y006083D01*
X013277Y006083D01*
X013277Y006238D01*
X013625Y006238D01*
X014083Y006238D01*
X014083Y006355D02*
X014237Y006355D01*
X014237Y006238D02*
X015043Y006238D01*
X015043Y006083D01*
X014585Y006083D01*
X014237Y006083D01*
X014237Y006238D01*
X014237Y006196D02*
X015043Y006196D01*
X015197Y006196D02*
X016003Y006196D01*
X016003Y006238D02*
X016003Y006083D01*
X016157Y006083D01*
X016157Y005715D01*
X016049Y005670D01*
X015920Y005541D01*
X015850Y005371D01*
X015850Y004588D01*
X015920Y004419D01*
X015989Y004350D01*
X015631Y004350D01*
X015700Y004419D01*
X015770Y004588D01*
X015770Y005371D01*
X015700Y005541D01*
X015571Y005670D01*
X015548Y005679D01*
X015585Y005701D01*
X015600Y005716D01*
X015615Y005701D01*
X015656Y005677D01*
X015701Y005665D01*
X016003Y005665D01*
X016003Y006083D01*
X015545Y006083D01*
X015197Y006083D01*
X015197Y006238D01*
X016003Y006238D01*
X016003Y006355D02*
X016157Y006355D01*
X016157Y006238D02*
X016963Y006238D01*
X016963Y006083D01*
X017117Y006083D01*
X017117Y005698D01*
X017049Y005670D01*
X016920Y005541D01*
X016850Y005371D01*
X016850Y004588D01*
X016920Y004419D01*
X016989Y004350D01*
X016631Y004350D01*
X016700Y004419D01*
X016770Y004588D01*
X016770Y005371D01*
X016700Y005541D01*
X016571Y005670D01*
X016524Y005689D01*
X016545Y005701D01*
X016560Y005716D01*
X016575Y005701D01*
X016616Y005677D01*
X016661Y005665D01*
X016963Y005665D01*
X016963Y006083D01*
X016505Y006083D01*
X016157Y006083D01*
X016157Y006238D01*
X016157Y006196D02*
X016963Y006196D01*
X017117Y006196D02*
X017923Y006196D01*
X017923Y006238D02*
X017923Y006083D01*
X018077Y006083D01*
X018077Y005682D01*
X018049Y005670D01*
X017920Y005541D01*
X017850Y005371D01*
X017850Y004588D01*
X017920Y004419D01*
X017989Y004350D01*
X017631Y004350D01*
X017700Y004419D01*
X017770Y004588D01*
X017770Y005371D01*
X017700Y005541D01*
X017571Y005670D01*
X017501Y005699D01*
X017505Y005701D01*
X017520Y005716D01*
X017535Y005701D01*
X017576Y005677D01*
X017621Y005665D01*
X017923Y005665D01*
X017923Y006083D01*
X017465Y006083D01*
X017117Y006083D01*
X017117Y006238D01*
X017923Y006238D01*
X017923Y006355D02*
X018077Y006355D01*
X018077Y006238D02*
X018883Y006238D01*
X018883Y006083D01*
X019037Y006083D01*
X019037Y005665D01*
X019339Y005665D01*
X019384Y005677D01*
X019425Y005701D01*
X019440Y005716D01*
X019455Y005701D01*
X019496Y005677D01*
X019541Y005665D01*
X019843Y005665D01*
X019843Y006083D01*
X019997Y006083D01*
X019997Y005665D01*
X020299Y005665D01*
X020344Y005677D01*
X020385Y005701D01*
X020400Y005716D01*
X020415Y005701D01*
X020456Y005677D01*
X020501Y005665D01*
X020803Y005665D01*
X020803Y006083D01*
X020957Y006083D01*
X020957Y005665D01*
X021259Y005665D01*
X021304Y005677D01*
X021345Y005701D01*
X021360Y005716D01*
X021375Y005701D01*
X021416Y005677D01*
X021461Y005665D01*
X021763Y005665D01*
X021763Y006083D01*
X021917Y006083D01*
X021917Y005667D01*
X021877Y005626D01*
X021847Y005596D01*
X021656Y005405D01*
X021109Y005405D01*
X021015Y005311D01*
X021015Y005130D01*
X020916Y005130D01*
X020916Y005311D01*
X020822Y005404D01*
X020060Y005404D01*
X019966Y005311D01*
X019966Y004469D01*
X020060Y004376D01*
X020822Y004376D01*
X020916Y004469D01*
X020916Y004650D01*
X021015Y004650D01*
X021015Y004469D01*
X021109Y004375D01*
X021871Y004375D01*
X021965Y004469D01*
X021965Y005036D01*
X022135Y005205D01*
X022135Y004469D01*
X022177Y004427D01*
X022101Y004350D01*
X018631Y004350D01*
X018700Y004419D01*
X018770Y004588D01*
X018770Y004740D01*
X018864Y004740D01*
X018864Y004469D01*
X018958Y004376D01*
X019720Y004376D01*
X019814Y004469D01*
X019814Y005311D01*
X019720Y005404D01*
X018958Y005404D01*
X018864Y005311D01*
X018864Y005220D01*
X018770Y005220D01*
X018770Y005371D01*
X018700Y005541D01*
X018573Y005667D01*
X018581Y005665D01*
X018883Y005665D01*
X018883Y006083D01*
X018425Y006083D01*
X018077Y006083D01*
X018077Y006238D01*
X018077Y006196D02*
X018883Y006196D01*
X019037Y006196D02*
X019843Y006196D01*
X019843Y006238D02*
X019843Y006083D01*
X019385Y006083D01*
X019037Y006083D01*
X019037Y006238D01*
X019843Y006238D01*
X019843Y006355D02*
X019997Y006355D01*
X019997Y006238D02*
X020803Y006238D01*
X020803Y006083D01*
X020345Y006083D01*
X019997Y006083D01*
X019997Y006238D01*
X019997Y006196D02*
X020803Y006196D01*
X020957Y006196D02*
X021763Y006196D01*
X021763Y006238D02*
X021763Y006083D01*
X021305Y006083D01*
X020957Y006083D01*
X020957Y006238D01*
X021763Y006238D01*
X021763Y006355D02*
X021917Y006355D01*
X021917Y006238D02*
X022723Y006238D01*
X022723Y006083D01*
X022265Y006083D01*
X021917Y006083D01*
X021917Y006238D01*
X021917Y006196D02*
X022723Y006196D01*
X022877Y006196D02*
X027499Y006196D01*
X027496Y006355D02*
X023335Y006355D01*
X023335Y006238D02*
X023335Y006499D01*
X023323Y006545D01*
X023299Y006586D01*
X023265Y006619D01*
X023224Y006643D01*
X023179Y006655D01*
X022877Y006655D01*
X022877Y006238D01*
X023335Y006238D01*
X023335Y006038D02*
X023807Y006038D01*
X023540Y005720D02*
X023310Y005490D01*
X022080Y005490D01*
X022050Y005460D01*
X021490Y004900D01*
X021490Y004890D01*
X020441Y004890D01*
X019966Y004928D02*
X019814Y004928D01*
X019814Y004770D02*
X019966Y004770D01*
X019966Y004611D02*
X019814Y004611D01*
X019797Y004453D02*
X019983Y004453D01*
X019380Y004110D02*
X022080Y004110D01*
X025770Y004110D01*
X025800Y004140D01*
X026130Y004470D01*
X026490Y004110D01*
X031200Y004110D01*
X031620Y004530D01*
X031620Y005119D01*
X031661Y005160D01*
X031750Y005160D01*
X032134Y004928D02*
X035949Y004928D01*
X035949Y005077D02*
X035949Y004413D01*
X036043Y004319D01*
X036707Y004319D01*
X036801Y004413D01*
X036801Y005077D01*
X036707Y005171D01*
X036043Y005171D01*
X035949Y005077D01*
X035959Y005087D02*
X032212Y005087D01*
X032371Y005245D02*
X037905Y005245D01*
X037905Y005087D02*
X036791Y005087D01*
X036801Y004928D02*
X037905Y004928D01*
X037905Y004770D02*
X036801Y004770D01*
X036801Y004611D02*
X037905Y004611D01*
X037905Y004453D02*
X036801Y004453D01*
X035949Y004453D02*
X031848Y004453D01*
X031860Y004611D02*
X035949Y004611D01*
X035949Y004770D02*
X032134Y004770D01*
X031723Y004294D02*
X037905Y004294D01*
X037905Y004136D02*
X031565Y004136D01*
X031406Y003977D02*
X037905Y003977D01*
X036707Y005304D02*
X036043Y005304D01*
X035949Y005397D01*
X035949Y006061D01*
X036043Y006155D01*
X036707Y006155D01*
X036801Y006061D01*
X036801Y005397D01*
X036707Y005304D01*
X036801Y005404D02*
X037905Y005404D01*
X037905Y005562D02*
X036801Y005562D01*
X036801Y005721D02*
X037905Y005721D01*
X037905Y005879D02*
X036801Y005879D01*
X036801Y006038D02*
X037905Y006038D01*
X037905Y006196D02*
X031697Y006196D01*
X031620Y006221D02*
X031285Y006556D01*
X030560Y006556D01*
X030588Y006584D02*
X030531Y006584D01*
X030531Y006528D01*
X030055Y006528D01*
X030055Y006207D01*
X030067Y006162D01*
X030091Y006121D01*
X030124Y006087D01*
X030165Y006063D01*
X030211Y006051D01*
X030531Y006051D01*
X030531Y006528D01*
X030588Y006528D01*
X030588Y006584D01*
X030588Y006528D02*
X031064Y006528D01*
X031064Y006207D01*
X031052Y006162D01*
X031028Y006121D01*
X030995Y006087D01*
X030954Y006063D01*
X030908Y006051D01*
X030588Y006051D01*
X030588Y006528D01*
X030588Y006513D02*
X030531Y006513D01*
X030531Y006584D02*
X030055Y006584D01*
X030055Y006904D01*
X030067Y006950D01*
X030091Y006991D01*
X030124Y007025D01*
X030165Y007048D01*
X030211Y007061D01*
X030531Y007061D01*
X030531Y006584D01*
X030531Y006672D02*
X030588Y006672D01*
X030588Y006830D02*
X030531Y006830D01*
X030531Y006989D02*
X030588Y006989D01*
X030089Y006989D02*
X029104Y006989D01*
X028697Y006989D02*
X028543Y006989D01*
X028543Y007147D02*
X028697Y007147D01*
X028697Y007306D02*
X028543Y007306D01*
X028543Y007351D02*
X028086Y007351D01*
X028086Y007343D01*
X027767Y007343D01*
X027767Y007498D01*
X027613Y007498D01*
X027613Y007915D01*
X027311Y007915D01*
X027266Y007903D01*
X027230Y007882D01*
X027225Y007888D01*
X027184Y007912D01*
X027138Y007924D01*
X026837Y007924D01*
X026837Y007506D01*
X026683Y007506D01*
X026683Y007924D01*
X026382Y007924D01*
X026336Y007912D01*
X026295Y007888D01*
X026262Y007854D01*
X026238Y007813D01*
X026226Y007767D01*
X026226Y007507D01*
X026194Y007538D01*
X026041Y007538D01*
X025583Y007996D01*
X025463Y008116D01*
X025396Y008183D01*
X025308Y008220D01*
X024514Y008220D01*
X024514Y008293D01*
X024566Y008242D01*
X025249Y008242D01*
X025343Y008336D01*
X025343Y008852D01*
X025397Y008906D01*
X025397Y008814D01*
X025795Y008814D01*
X025795Y008698D01*
X025910Y008698D01*
X025910Y008222D01*
X026152Y008222D01*
X026198Y008234D01*
X026239Y008258D01*
X026246Y008265D01*
X026246Y008150D01*
X026339Y008056D01*
X027181Y008056D01*
X027229Y008105D01*
X027269Y008065D01*
X027596Y008065D01*
X027767Y007893D01*
X027767Y007498D01*
X028225Y007498D01*
X028225Y007506D01*
X028543Y007506D01*
X028543Y007351D01*
X028543Y007464D02*
X027767Y007464D01*
X027613Y007464D02*
X026837Y007464D01*
X026837Y007506D02*
X027155Y007506D01*
X027155Y007498D01*
X027613Y007498D01*
X027613Y007343D01*
X027294Y007343D01*
X027294Y007351D01*
X026837Y007351D01*
X026837Y007506D01*
X026837Y007623D02*
X026683Y007623D01*
X026683Y007781D02*
X026837Y007781D01*
X026837Y007306D02*
X026683Y007306D01*
X026683Y007147D02*
X026837Y007147D01*
X026837Y006989D02*
X026683Y006989D01*
X026288Y006830D02*
X027496Y006830D01*
X027496Y006672D02*
X026288Y006672D01*
X026198Y006513D02*
X027496Y006513D01*
X027972Y006513D02*
X028029Y006513D01*
X028029Y006528D02*
X028029Y006051D01*
X028349Y006051D01*
X028395Y006063D01*
X028436Y006087D01*
X028469Y006121D01*
X028493Y006162D01*
X028505Y006207D01*
X028505Y006528D01*
X028029Y006528D01*
X028029Y006355D02*
X027972Y006355D01*
X027972Y006196D02*
X028029Y006196D01*
X028502Y006196D02*
X030058Y006196D01*
X030055Y006355D02*
X028505Y006355D01*
X028505Y006513D02*
X030055Y006513D01*
X030055Y006672D02*
X028505Y006672D01*
X028505Y006830D02*
X030055Y006830D01*
X030531Y006355D02*
X030588Y006355D01*
X030588Y006196D02*
X030531Y006196D01*
X031061Y006196D02*
X031543Y006196D01*
X031543Y006144D02*
X031086Y006144D01*
X031086Y005883D01*
X031098Y005837D01*
X031122Y005796D01*
X031155Y005762D01*
X031196Y005738D01*
X031242Y005726D01*
X031543Y005726D01*
X031543Y006144D01*
X031543Y006038D02*
X031697Y006038D01*
X031697Y005879D02*
X031543Y005879D01*
X031087Y005879D02*
X029608Y005879D01*
X029608Y005721D02*
X032022Y005721D01*
X032154Y006038D02*
X035949Y006038D01*
X035949Y005879D02*
X032718Y005879D01*
X032718Y005721D02*
X035949Y005721D01*
X035949Y005562D02*
X032718Y005562D01*
X032718Y005404D02*
X035949Y005404D01*
X035976Y006355D02*
X032154Y006355D01*
X031697Y006355D02*
X031543Y006355D01*
X031543Y006513D02*
X031697Y006513D01*
X031697Y006672D02*
X031543Y006672D01*
X031146Y006672D02*
X031064Y006672D01*
X031064Y006513D02*
X031086Y006513D01*
X031086Y006355D02*
X031064Y006355D01*
X031086Y006038D02*
X026473Y006038D01*
X026600Y005879D02*
X027387Y005879D01*
X027221Y005721D02*
X026600Y005721D01*
X026600Y005562D02*
X027063Y005562D01*
X027060Y005220D02*
X027480Y005640D01*
X027510Y005670D01*
X029280Y005670D01*
X029608Y005562D02*
X031168Y005562D01*
X031106Y005404D02*
X029577Y005404D01*
X030144Y005245D02*
X028416Y005245D01*
X028485Y005087D02*
X030075Y005087D01*
X030975Y005245D02*
X031106Y005245D01*
X031106Y005087D02*
X031044Y005087D01*
X031044Y004928D02*
X031106Y004928D01*
X031106Y004770D02*
X031044Y004770D01*
X031044Y004611D02*
X031362Y004611D01*
X031203Y004453D02*
X031044Y004453D01*
X028983Y005404D02*
X027583Y005404D01*
X027585Y005245D02*
X027424Y005245D01*
X027516Y005087D02*
X027266Y005087D01*
X027060Y005220D02*
X025800Y005220D01*
X025770Y005190D01*
X025300Y004720D01*
X025140Y004720D01*
X024680Y004770D02*
X024620Y004770D01*
X024620Y004740D02*
X024620Y004919D01*
X024339Y005200D01*
X024160Y005200D01*
X024160Y004740D01*
X024620Y004740D01*
X024620Y004611D02*
X024680Y004611D01*
X024757Y004453D02*
X024551Y004453D01*
X024160Y004770D02*
X024120Y004770D01*
X024120Y004928D02*
X024160Y004928D01*
X024160Y005087D02*
X024120Y005087D01*
X023828Y005087D02*
X023085Y005087D01*
X023085Y005245D02*
X025486Y005245D01*
X025331Y005260D02*
X025600Y005529D01*
X025600Y005911D01*
X025331Y006180D01*
X024949Y006180D01*
X024680Y005911D01*
X024680Y005529D01*
X024949Y005260D01*
X025331Y005260D01*
X025474Y005404D02*
X025644Y005404D01*
X025680Y005562D02*
X025600Y005562D01*
X025600Y005721D02*
X025680Y005721D01*
X025680Y005879D02*
X025600Y005879D01*
X025473Y006038D02*
X025807Y006038D01*
X025507Y006513D02*
X025272Y006513D01*
X025363Y006672D02*
X025417Y006672D01*
X025417Y006830D02*
X025363Y006830D01*
X025363Y007147D02*
X025417Y007147D01*
X025417Y007306D02*
X025363Y007306D01*
X025417Y007444D02*
X025436Y007464D01*
X025278Y007623D02*
X024534Y007623D01*
X024850Y007464D02*
X024965Y007464D01*
X024965Y007306D02*
X024850Y007306D01*
X024850Y007147D02*
X024965Y007147D01*
X024965Y006830D02*
X024850Y006830D01*
X024850Y006672D02*
X024965Y006672D01*
X024965Y006513D02*
X024850Y006513D01*
X024543Y006513D02*
X023331Y006513D01*
X022877Y006513D02*
X022723Y006513D01*
X022723Y006355D02*
X022877Y006355D01*
X023335Y005879D02*
X023360Y005879D01*
X023540Y005720D02*
X024140Y005720D01*
X024600Y005721D02*
X024680Y005721D01*
X024680Y005879D02*
X024600Y005879D01*
X024473Y006038D02*
X024807Y006038D01*
X024680Y005562D02*
X024600Y005562D01*
X024474Y005404D02*
X024806Y005404D01*
X024856Y005087D02*
X024452Y005087D01*
X024611Y004928D02*
X024697Y004928D01*
X023806Y005404D02*
X023563Y005404D01*
X023669Y004928D02*
X023085Y004928D01*
X023085Y004770D02*
X023660Y004770D01*
X023660Y004611D02*
X023085Y004611D01*
X023068Y004453D02*
X023729Y004453D01*
X022610Y004520D02*
X022610Y004890D01*
X022135Y004928D02*
X021965Y004928D01*
X021965Y004770D02*
X022135Y004770D01*
X022135Y004611D02*
X021965Y004611D01*
X021949Y004453D02*
X022151Y004453D01*
X022200Y004110D02*
X022610Y004520D01*
X022200Y004110D02*
X022080Y004110D01*
X021031Y004453D02*
X020899Y004453D01*
X020916Y004611D02*
X021015Y004611D01*
X021015Y005245D02*
X020916Y005245D01*
X020823Y005404D02*
X021108Y005404D01*
X020957Y005721D02*
X020803Y005721D01*
X020803Y005879D02*
X020957Y005879D01*
X020957Y006038D02*
X020803Y006038D01*
X020803Y006355D02*
X020957Y006355D01*
X020957Y006513D02*
X020803Y006513D01*
X020434Y006830D02*
X020366Y006830D01*
X019997Y006513D02*
X019843Y006513D01*
X019474Y006830D02*
X019406Y006830D01*
X019037Y006513D02*
X018883Y006513D01*
X018883Y006355D02*
X019037Y006355D01*
X019037Y006038D02*
X018883Y006038D01*
X018883Y005879D02*
X019037Y005879D01*
X019037Y005721D02*
X018883Y005721D01*
X018679Y005562D02*
X021813Y005562D01*
X021877Y005626D02*
X021877Y005626D01*
X021917Y005721D02*
X021763Y005721D01*
X021763Y005879D02*
X021917Y005879D01*
X021917Y006038D02*
X021763Y006038D01*
X021763Y006513D02*
X021917Y006513D01*
X022286Y006830D02*
X022354Y006830D01*
X022800Y007280D02*
X022800Y008169D01*
X023236Y008098D02*
X023538Y008098D01*
X023486Y008257D02*
X023236Y008257D01*
X023236Y008415D02*
X023486Y008415D01*
X023236Y007940D02*
X023941Y007940D01*
X023923Y007781D02*
X024077Y007781D01*
X024077Y007623D02*
X023923Y007623D01*
X023466Y007623D02*
X023315Y007623D01*
X023469Y007781D02*
X023150Y007781D01*
X022450Y007781D02*
X022190Y007781D01*
X022276Y007940D02*
X022364Y007940D01*
X022364Y008098D02*
X022276Y008098D01*
X022276Y008257D02*
X022364Y008257D01*
X022364Y008415D02*
X022276Y008415D01*
X021840Y008169D02*
X021840Y007280D01*
X021490Y007781D02*
X021230Y007781D01*
X021316Y007940D02*
X021404Y007940D01*
X021404Y008098D02*
X021316Y008098D01*
X021316Y008257D02*
X021404Y008257D01*
X021404Y008415D02*
X021316Y008415D01*
X020880Y008169D02*
X020880Y007280D01*
X020530Y007781D02*
X020270Y007781D01*
X020356Y007940D02*
X020444Y007940D01*
X020444Y008098D02*
X020356Y008098D01*
X020356Y008257D02*
X020444Y008257D01*
X020444Y008415D02*
X020356Y008415D01*
X019920Y008169D02*
X019920Y007280D01*
X019570Y007781D02*
X019310Y007781D01*
X019396Y007940D02*
X019484Y007940D01*
X019484Y008098D02*
X019396Y008098D01*
X019396Y008257D02*
X019484Y008257D01*
X019484Y008415D02*
X019396Y008415D01*
X018960Y008169D02*
X018960Y007280D01*
X018610Y007781D02*
X018350Y007781D01*
X018436Y007940D02*
X018524Y007940D01*
X018524Y008098D02*
X018436Y008098D01*
X018436Y008257D02*
X018524Y008257D01*
X018524Y008415D02*
X018436Y008415D01*
X018000Y008169D02*
X018000Y007280D01*
X017650Y007781D02*
X017390Y007781D01*
X017476Y007940D02*
X017564Y007940D01*
X017564Y008098D02*
X017476Y008098D01*
X017476Y008257D02*
X017564Y008257D01*
X017564Y008415D02*
X017476Y008415D01*
X017040Y008169D02*
X017040Y007280D01*
X017486Y006830D02*
X017554Y006830D01*
X017923Y006513D02*
X018077Y006513D01*
X018446Y006830D02*
X018514Y006830D01*
X018077Y006038D02*
X017923Y006038D01*
X017923Y005879D02*
X018077Y005879D01*
X018077Y005721D02*
X017923Y005721D01*
X017941Y005562D02*
X017679Y005562D01*
X017757Y005404D02*
X017863Y005404D01*
X017850Y005245D02*
X017770Y005245D01*
X017770Y005087D02*
X017850Y005087D01*
X017850Y004928D02*
X017770Y004928D01*
X017770Y004770D02*
X017850Y004770D01*
X017850Y004611D02*
X017770Y004611D01*
X017714Y004453D02*
X017906Y004453D01*
X018310Y004980D02*
X019249Y004980D01*
X019267Y004978D01*
X019283Y004973D01*
X019299Y004965D01*
X019313Y004954D01*
X019324Y004940D01*
X019332Y004924D01*
X019337Y004908D01*
X019339Y004890D01*
X019814Y005087D02*
X019966Y005087D01*
X019966Y005245D02*
X019814Y005245D01*
X019721Y005404D02*
X020059Y005404D01*
X019997Y005721D02*
X019843Y005721D01*
X019843Y005879D02*
X019997Y005879D01*
X019997Y006038D02*
X019843Y006038D01*
X018957Y005404D02*
X018757Y005404D01*
X018770Y005245D02*
X018864Y005245D01*
X018864Y004611D02*
X018770Y004611D01*
X018714Y004453D02*
X018881Y004453D01*
X019380Y004110D02*
X015390Y004110D01*
X015300Y004200D01*
X015300Y004970D01*
X015310Y004980D01*
X015770Y004928D02*
X015850Y004928D01*
X015850Y004770D02*
X015770Y004770D01*
X015770Y004611D02*
X015850Y004611D01*
X015906Y004453D02*
X015714Y004453D01*
X015045Y004294D02*
X014595Y004294D01*
X014623Y004314D02*
X014562Y004269D01*
X014494Y004235D01*
X014422Y004212D01*
X014348Y004200D01*
X014330Y004200D01*
X014330Y004960D01*
X014790Y004960D01*
X014790Y004642D01*
X014778Y004568D01*
X014755Y004496D01*
X014721Y004428D01*
X014676Y004367D01*
X014623Y004314D01*
X014733Y004453D02*
X014906Y004453D01*
X014850Y004611D02*
X014785Y004611D01*
X014790Y004770D02*
X014850Y004770D01*
X014850Y004928D02*
X014790Y004928D01*
X014790Y005087D02*
X014850Y005087D01*
X014850Y005245D02*
X014790Y005245D01*
X014775Y005404D02*
X014863Y005404D01*
X014941Y005562D02*
X014698Y005562D01*
X015043Y005721D02*
X015171Y005721D01*
X015197Y005879D02*
X015043Y005879D01*
X015043Y006038D02*
X015197Y006038D01*
X015197Y006355D02*
X015043Y006355D01*
X015043Y006513D02*
X015197Y006513D01*
X015566Y006830D02*
X015634Y006830D01*
X016003Y006513D02*
X016157Y006513D01*
X016526Y006830D02*
X016594Y006830D01*
X016963Y006513D02*
X017117Y006513D01*
X017117Y006355D02*
X016963Y006355D01*
X016963Y006038D02*
X017117Y006038D01*
X017117Y005879D02*
X016963Y005879D01*
X016963Y005721D02*
X017117Y005721D01*
X016941Y005562D02*
X016679Y005562D01*
X016757Y005404D02*
X016863Y005404D01*
X016850Y005245D02*
X016770Y005245D01*
X016770Y005087D02*
X016850Y005087D01*
X016850Y004928D02*
X016770Y004928D01*
X016770Y004770D02*
X016850Y004770D01*
X016850Y004611D02*
X016770Y004611D01*
X016714Y004453D02*
X016906Y004453D01*
X015850Y005087D02*
X015770Y005087D01*
X015770Y005245D02*
X015850Y005245D01*
X015863Y005404D02*
X015757Y005404D01*
X015679Y005562D02*
X015941Y005562D01*
X016003Y005721D02*
X016157Y005721D01*
X016157Y005879D02*
X016003Y005879D01*
X016003Y006038D02*
X016157Y006038D01*
X014674Y006830D02*
X014606Y006830D01*
X014237Y006513D02*
X014083Y006513D01*
X013714Y006830D02*
X013646Y006830D01*
X013277Y006513D02*
X013123Y006513D01*
X013123Y006355D02*
X013277Y006355D01*
X012665Y006038D02*
X008846Y006038D01*
X008840Y005879D02*
X012665Y005879D01*
X012715Y005721D02*
X008774Y005721D01*
X008709Y005562D02*
X012922Y005562D01*
X012845Y005404D02*
X008569Y005404D01*
X008401Y005245D02*
X012830Y005245D01*
X013290Y004928D02*
X013330Y004928D01*
X013330Y004960D02*
X013330Y004200D01*
X013348Y004200D01*
X013422Y004212D01*
X013494Y004235D01*
X013562Y004269D01*
X013623Y004314D01*
X013676Y004367D01*
X013721Y004428D01*
X013755Y004496D01*
X013778Y004568D01*
X013790Y004642D01*
X013790Y004960D01*
X013330Y004960D01*
X013330Y004770D02*
X013290Y004770D01*
X013290Y004611D02*
X013330Y004611D01*
X013330Y004453D02*
X013290Y004453D01*
X013290Y004294D02*
X013330Y004294D01*
X013595Y004294D02*
X014025Y004294D01*
X013997Y004314D02*
X014058Y004269D01*
X014126Y004235D01*
X014198Y004212D01*
X014272Y004200D01*
X014290Y004200D01*
X014290Y004960D01*
X013830Y004960D01*
X013830Y004642D01*
X013842Y004568D01*
X013865Y004496D01*
X013899Y004428D01*
X013944Y004367D01*
X013997Y004314D01*
X013887Y004453D02*
X013733Y004453D01*
X013785Y004611D02*
X013835Y004611D01*
X013830Y004770D02*
X013790Y004770D01*
X013790Y004928D02*
X013830Y004928D01*
X013830Y005087D02*
X013790Y005087D01*
X013790Y005245D02*
X013830Y005245D01*
X013845Y005404D02*
X013775Y005404D01*
X013698Y005562D02*
X013922Y005562D01*
X014290Y004928D02*
X014330Y004928D01*
X014330Y004770D02*
X014290Y004770D01*
X014290Y004611D02*
X014330Y004611D01*
X014330Y004453D02*
X014290Y004453D01*
X014290Y004294D02*
X014330Y004294D01*
X012754Y006830D02*
X008517Y006830D01*
X011944Y006989D02*
X012685Y006989D01*
X012685Y007147D02*
X012247Y007147D01*
X012585Y009049D02*
X012764Y009049D01*
X012764Y009208D02*
X012585Y009208D01*
X012585Y009366D02*
X012764Y009366D01*
X012764Y009525D02*
X012585Y009525D01*
X012585Y009683D02*
X012794Y009683D01*
X012872Y009842D02*
X012526Y009842D01*
X012460Y010000D02*
X012872Y010000D01*
X012872Y010159D02*
X012322Y010159D01*
X012120Y010317D02*
X012964Y010317D01*
X013310Y010411D02*
X013310Y010411D01*
X013374Y010476D02*
X008541Y010476D01*
X008383Y010634D02*
X008819Y010634D01*
X008819Y010793D02*
X008224Y010793D01*
X008066Y010951D02*
X008819Y010951D01*
X008819Y011110D02*
X007907Y011110D01*
X007749Y011268D02*
X008819Y011268D01*
X008819Y011427D02*
X007630Y011427D01*
X007630Y011585D02*
X008819Y011585D01*
X008819Y011744D02*
X007630Y011744D01*
X007630Y011902D02*
X008820Y011902D01*
X008820Y012061D02*
X007630Y012061D01*
X007630Y012219D02*
X008820Y012219D01*
X008819Y012378D02*
X007630Y012378D01*
X007630Y012536D02*
X008819Y012536D01*
X008819Y012695D02*
X007630Y012695D01*
X007630Y012853D02*
X008819Y012853D01*
X008819Y013012D02*
X007630Y013012D01*
X007630Y013170D02*
X008819Y013170D01*
X008819Y013329D02*
X007630Y013329D01*
X007630Y013487D02*
X008885Y013487D01*
X008893Y013804D02*
X007630Y013804D01*
X007630Y013646D02*
X017065Y013646D01*
X017065Y013804D02*
X015970Y013804D01*
X016128Y013963D02*
X016208Y013963D01*
X016298Y013487D02*
X016039Y013487D01*
X016482Y013332D02*
X016140Y012990D01*
X016590Y012540D01*
X017620Y012540D01*
X017620Y012420D01*
X017145Y012219D02*
X015720Y012219D01*
X015720Y012061D02*
X017203Y012061D01*
X016382Y011902D02*
X015720Y011902D01*
X015720Y011744D02*
X016382Y011744D01*
X016382Y011585D02*
X015720Y011585D01*
X015720Y011427D02*
X016065Y011427D01*
X015907Y011268D02*
X015720Y011268D01*
X015720Y011110D02*
X015748Y011110D01*
X015300Y011280D02*
X015090Y011280D01*
X015030Y011220D01*
X015030Y011160D02*
X014940Y011070D01*
X014940Y010920D01*
X014969Y010000D02*
X014488Y010000D01*
X014488Y009842D02*
X014900Y009842D01*
X014714Y009683D02*
X014566Y009683D01*
X014596Y009525D02*
X014684Y009525D01*
X014684Y009366D02*
X014596Y009366D01*
X014596Y009208D02*
X014684Y009208D01*
X014684Y009049D02*
X014596Y009049D01*
X014160Y009351D02*
X014160Y009990D01*
X013832Y010000D02*
X013528Y010000D01*
X013528Y009842D02*
X013832Y009842D01*
X013754Y009683D02*
X013606Y009683D01*
X013636Y009525D02*
X013724Y009525D01*
X013724Y009366D02*
X013636Y009366D01*
X013636Y009208D02*
X013724Y009208D01*
X013724Y009049D02*
X013636Y009049D01*
X013200Y009351D02*
X013200Y009990D01*
X015526Y009683D02*
X015674Y009683D01*
X015644Y009525D02*
X015556Y009525D01*
X015556Y009366D02*
X015644Y009366D01*
X015644Y009208D02*
X015556Y009208D01*
X015556Y009049D02*
X015644Y009049D01*
X017476Y009049D02*
X017564Y009049D01*
X017564Y009208D02*
X017476Y009208D01*
X017476Y009366D02*
X017564Y009366D01*
X017564Y009525D02*
X017476Y009525D01*
X017446Y009683D02*
X017594Y009683D01*
X017563Y009842D02*
X017780Y009842D01*
X017780Y010000D02*
X017721Y010000D01*
X018220Y010000D02*
X018740Y010000D01*
X018740Y009842D02*
X018220Y009842D01*
X018406Y009683D02*
X018554Y009683D01*
X018524Y009525D02*
X018436Y009525D01*
X018436Y009366D02*
X018524Y009366D01*
X018524Y009208D02*
X018436Y009208D01*
X018436Y009049D02*
X018524Y009049D01*
X019396Y009049D02*
X019484Y009049D01*
X019484Y009208D02*
X019396Y009208D01*
X019396Y009366D02*
X019484Y009366D01*
X019484Y009525D02*
X019396Y009525D01*
X019366Y009683D02*
X019514Y009683D01*
X019592Y009842D02*
X019180Y009842D01*
X019180Y010000D02*
X019592Y010000D01*
X019592Y010159D02*
X019260Y010159D01*
X018954Y010476D02*
X018227Y010476D01*
X018220Y010317D02*
X018796Y010317D01*
X018740Y010159D02*
X018220Y010159D01*
X018385Y010634D02*
X019113Y010634D01*
X020248Y010159D02*
X021377Y010159D01*
X021218Y010000D02*
X020248Y010000D01*
X020248Y009842D02*
X021060Y009842D01*
X021365Y009525D02*
X021404Y009525D01*
X021404Y009366D02*
X021316Y009366D01*
X021316Y009208D02*
X021404Y009208D01*
X021404Y009049D02*
X021316Y009049D01*
X020444Y009049D02*
X020356Y009049D01*
X020356Y009208D02*
X020444Y009208D01*
X020444Y009366D02*
X020356Y009366D01*
X020356Y009525D02*
X020444Y009525D01*
X020474Y009683D02*
X020326Y009683D01*
X022276Y009366D02*
X022364Y009366D01*
X022364Y009208D02*
X022276Y009208D01*
X022276Y009049D02*
X022364Y009049D01*
X022800Y009351D02*
X022800Y009480D01*
X023490Y010170D01*
X023619Y010170D01*
X024150Y010170D01*
X025380Y010340D02*
X025940Y009780D01*
X026760Y008960D01*
X026760Y008531D01*
X026246Y008257D02*
X026236Y008257D01*
X026298Y008098D02*
X025481Y008098D01*
X025507Y008234D02*
X025553Y008222D01*
X025795Y008222D01*
X025795Y008698D01*
X025397Y008698D01*
X025397Y008378D01*
X025409Y008332D01*
X025433Y008291D01*
X025466Y008258D01*
X025507Y008234D01*
X025469Y008257D02*
X025264Y008257D01*
X025343Y008415D02*
X025397Y008415D01*
X025397Y008574D02*
X025343Y008574D01*
X025343Y008732D02*
X025795Y008732D01*
X025795Y008574D02*
X025910Y008574D01*
X025910Y008415D02*
X025795Y008415D01*
X025795Y008257D02*
X025910Y008257D01*
X025640Y007940D02*
X027721Y007940D01*
X027767Y007781D02*
X027613Y007781D01*
X027613Y007623D02*
X027767Y007623D01*
X027236Y008098D02*
X027222Y008098D01*
X026229Y007781D02*
X025798Y007781D01*
X025957Y007623D02*
X026226Y007623D01*
X024908Y008756D02*
X025931Y009780D01*
X025940Y009780D01*
X025380Y010340D02*
X025380Y010410D01*
X026303Y011197D02*
X026303Y011498D01*
X026303Y011197D02*
X026850Y010650D01*
X026850Y011340D02*
X026850Y011984D01*
X026820Y012014D01*
X026823Y012018D01*
X026823Y012328D02*
X026821Y012330D01*
X026460Y012330D01*
X026160Y012630D01*
X026130Y012630D01*
X025802Y012695D02*
X025770Y012695D01*
X025770Y012853D02*
X025802Y012853D01*
X025770Y013012D02*
X026373Y013012D01*
X026353Y013170D02*
X025770Y013170D01*
X025770Y012536D02*
X025802Y012536D01*
X026010Y012150D02*
X025993Y012133D01*
X025993Y011498D01*
X026821Y012330D02*
X026823Y012328D01*
X028320Y011970D02*
X028320Y011640D01*
X029250Y010710D01*
X029280Y010680D01*
X031020Y010680D01*
X030921Y010440D02*
X030925Y010436D01*
X030925Y009780D01*
X030775Y009780D01*
X030775Y010033D01*
X030358Y010033D01*
X030358Y010187D01*
X030775Y010187D01*
X030775Y010440D01*
X030921Y010440D01*
X030925Y010317D02*
X030775Y010317D01*
X030925Y010159D02*
X030358Y010159D01*
X030203Y010159D02*
X028731Y010159D01*
X028572Y010317D02*
X029785Y010317D01*
X029785Y010000D02*
X028889Y010000D01*
X029048Y009842D02*
X029785Y009842D01*
X030775Y009842D02*
X030925Y009842D01*
X030925Y010000D02*
X030775Y010000D01*
X030775Y009300D02*
X030925Y009300D01*
X030925Y008640D01*
X030775Y008640D01*
X030775Y008893D01*
X030358Y008893D01*
X030358Y009047D01*
X030775Y009047D01*
X030775Y009300D01*
X030775Y009208D02*
X030925Y009208D01*
X030925Y009049D02*
X030775Y009049D01*
X030775Y008891D02*
X030925Y008891D01*
X030925Y008732D02*
X030775Y008732D01*
X030755Y008098D02*
X030925Y008098D01*
X030925Y007940D02*
X030755Y007940D01*
X030755Y007781D02*
X030925Y007781D01*
X030925Y007623D02*
X030755Y007623D01*
X030755Y007464D02*
X030925Y007464D01*
X031400Y007570D02*
X031400Y007830D01*
X030280Y007830D02*
X029550Y007830D01*
X029202Y007781D02*
X029180Y007781D01*
X029202Y007623D02*
X029154Y007623D01*
X028697Y007464D02*
X029805Y007464D01*
X029136Y008415D02*
X029134Y008415D01*
X025397Y008891D02*
X025381Y008891D01*
X024551Y008257D02*
X024514Y008257D01*
X022364Y009525D02*
X022325Y009525D01*
X021394Y006830D02*
X021326Y006830D01*
X022016Y005087D02*
X022135Y005087D01*
X026130Y004710D02*
X026130Y004470D01*
X026130Y004710D02*
X026140Y004720D01*
X026600Y004770D02*
X027516Y004770D01*
X027516Y004928D02*
X026583Y004928D01*
X026600Y004611D02*
X027516Y004611D01*
X027516Y004453D02*
X026523Y004453D01*
X036774Y006355D02*
X037905Y006355D01*
X037905Y006513D02*
X036801Y006513D01*
X036801Y006672D02*
X037905Y006672D01*
X037905Y006830D02*
X036801Y006830D01*
X037284Y010159D02*
X037905Y010159D01*
X037905Y010317D02*
X037443Y010317D01*
X037601Y010476D02*
X037905Y010476D01*
X037905Y010634D02*
X037690Y010634D01*
X037690Y010793D02*
X037905Y010793D01*
X037905Y010951D02*
X037690Y010951D01*
X037690Y011110D02*
X037905Y011110D01*
X037905Y011268D02*
X037690Y011268D01*
X037690Y011427D02*
X037905Y011427D01*
X037905Y011585D02*
X037690Y011585D01*
X037690Y011744D02*
X037905Y011744D01*
X037905Y011902D02*
X037690Y011902D01*
X037690Y012061D02*
X037905Y012061D01*
X037905Y012219D02*
X037690Y012219D01*
X037690Y012378D02*
X037905Y012378D01*
X037905Y012536D02*
X037690Y012536D01*
X037683Y012695D02*
X037905Y012695D01*
X037905Y012853D02*
X037574Y012853D01*
X037415Y013012D02*
X037905Y013012D01*
X037905Y013170D02*
X037257Y013170D01*
X037098Y013329D02*
X037905Y013329D01*
X037905Y013487D02*
X036940Y013487D01*
X036801Y013646D02*
X037905Y013646D01*
X037905Y013804D02*
X036801Y013804D01*
X036801Y013963D02*
X037905Y013963D01*
X037905Y014121D02*
X033570Y014121D01*
X033570Y013963D02*
X035949Y013963D01*
X035949Y013804D02*
X033570Y013804D01*
X033570Y013646D02*
X035949Y013646D01*
X035949Y013487D02*
X033570Y013487D01*
X033570Y013329D02*
X035949Y013329D01*
X035957Y013012D02*
X033553Y013012D01*
X033570Y013170D02*
X036465Y013170D01*
X035949Y012853D02*
X034113Y012853D01*
X034185Y012695D02*
X035342Y012695D01*
X035610Y012360D02*
X033710Y012360D01*
X033061Y013170D02*
X032976Y013170D01*
X032976Y013329D02*
X033090Y013329D01*
X033090Y013487D02*
X032976Y013487D01*
X032976Y013646D02*
X033090Y013646D01*
X033090Y013804D02*
X032976Y013804D01*
X032976Y013963D02*
X033090Y013963D01*
X033090Y014121D02*
X032976Y014121D01*
X032933Y014280D02*
X033090Y014280D01*
X033043Y014438D02*
X030988Y014438D01*
X030988Y014597D02*
X032884Y014597D01*
X032578Y014280D02*
X032462Y014280D01*
X032462Y014121D02*
X032578Y014121D01*
X032578Y013963D02*
X032462Y013963D01*
X032462Y013804D02*
X032578Y013804D01*
X032578Y013646D02*
X032462Y013646D01*
X032064Y013646D02*
X029676Y013646D01*
X029676Y013804D02*
X032064Y013804D01*
X032064Y013963D02*
X029676Y013963D01*
X029676Y014121D02*
X032064Y014121D01*
X032107Y014280D02*
X030983Y014280D01*
X032064Y013487D02*
X029676Y013487D01*
X029676Y013329D02*
X032064Y013329D01*
X032064Y013170D02*
X029676Y013170D01*
X029676Y013012D02*
X032064Y013012D01*
X032118Y012853D02*
X031803Y012853D01*
X031875Y012695D02*
X032115Y012695D01*
X030997Y012853D02*
X030712Y012853D01*
X030775Y012695D02*
X030925Y012695D01*
X030925Y012536D02*
X030775Y012536D01*
X030775Y012219D02*
X030925Y012219D01*
X030925Y012061D02*
X030775Y012061D01*
X030775Y011427D02*
X030925Y011427D01*
X029785Y010951D02*
X029348Y010951D01*
X029178Y011585D02*
X028714Y011585D01*
X028560Y011744D02*
X029017Y011744D01*
X028859Y011902D02*
X028560Y011902D01*
X028560Y012061D02*
X028700Y012061D01*
X028320Y011970D02*
X028320Y014010D01*
X028112Y014218D01*
X026823Y014218D01*
X026823Y013908D02*
X027762Y013908D01*
X027900Y013770D01*
X027457Y013244D02*
X027457Y013244D01*
X027503Y013198D01*
X027293Y013198D01*
X027293Y013278D01*
X027293Y013348D01*
X027353Y013348D01*
X027457Y013244D01*
X027372Y013329D02*
X027293Y013329D01*
X027293Y013278D02*
X026823Y013278D01*
X026823Y013278D01*
X027293Y013278D01*
X028620Y012480D02*
X028620Y014400D01*
X028050Y014970D01*
X028050Y015360D01*
X027840Y015570D01*
X026580Y015570D01*
X026303Y015293D01*
X026303Y014738D01*
X025993Y014738D02*
X025993Y015583D01*
X026340Y015930D01*
X025860Y016080D02*
X025860Y016290D01*
X025860Y016080D02*
X025650Y015870D01*
X025650Y014761D01*
X025673Y014738D01*
X025363Y014738D02*
X025350Y014751D01*
X025350Y016290D01*
X025552Y016657D02*
X025008Y016657D01*
X025166Y016816D02*
X025394Y016816D01*
X025499Y017450D02*
X025061Y017450D01*
X024499Y017450D02*
X024061Y017450D01*
X023500Y017070D02*
X022080Y017070D01*
X021930Y017220D01*
X021930Y019290D01*
X022212Y019572D01*
X022212Y019886D01*
X022212Y019572D01*
X021930Y019290D01*
X021930Y017220D01*
X022080Y017070D01*
X022560Y017719D02*
X022819Y017719D01*
X023160Y018060D01*
X023196Y018096D01*
X023196Y019886D01*
X023196Y020283D01*
X023196Y019886D01*
X023196Y019886D01*
X023196Y019827D02*
X023196Y019827D01*
X023196Y019669D02*
X023196Y019669D01*
X023196Y019510D02*
X023196Y019510D01*
X023004Y019510D02*
X022944Y019510D01*
X022944Y019352D02*
X023772Y019352D01*
X023824Y019193D02*
X023074Y019193D01*
X023074Y019035D02*
X023675Y019035D01*
X023552Y018876D02*
X023074Y018876D01*
X023074Y018718D02*
X023540Y018718D01*
X023540Y018559D02*
X023074Y018559D01*
X023035Y018401D02*
X023450Y018401D01*
X023320Y018242D02*
X022170Y018242D01*
X022483Y018084D02*
X022637Y018084D01*
X022637Y018214D02*
X022637Y017796D01*
X023094Y017796D01*
X023094Y018057D01*
X023082Y018103D01*
X023058Y018144D01*
X023025Y018178D01*
X022984Y018202D01*
X022938Y018214D01*
X022637Y018214D01*
X022637Y017925D02*
X022483Y017925D01*
X022637Y017767D02*
X023443Y017767D01*
X023320Y017925D02*
X023094Y017925D01*
X023087Y018084D02*
X023320Y018084D01*
X023780Y018080D02*
X023780Y018800D01*
X024030Y019050D01*
X027420Y019050D01*
X027990Y019620D01*
X028050Y019560D01*
X028410Y019560D01*
X032820Y019560D01*
X033090Y019290D01*
X033090Y018650D01*
X033330Y019193D02*
X033800Y019193D01*
X033800Y019352D02*
X033324Y019352D01*
X033209Y019510D02*
X033800Y019510D01*
X033800Y019669D02*
X033051Y019669D01*
X033048Y019827D02*
X033800Y019827D01*
X033800Y019986D02*
X033048Y019986D01*
X033048Y020144D02*
X033635Y020144D01*
X033546Y020303D02*
X033048Y020303D01*
X032977Y020461D02*
X033546Y020461D01*
X033546Y020620D02*
X032410Y020620D01*
X032410Y020778D02*
X033546Y020778D01*
X033546Y020937D02*
X032410Y020937D01*
X032410Y021095D02*
X033625Y021095D01*
X033639Y021911D02*
X034422Y021911D01*
X034515Y022005D01*
X034515Y022116D01*
X036105Y022116D01*
X036105Y022005D01*
X036198Y021911D01*
X036981Y021911D01*
X037074Y022005D01*
X037074Y022787D01*
X036981Y022881D01*
X036198Y022881D01*
X036105Y022787D01*
X036105Y022676D01*
X034515Y022676D01*
X034515Y022787D01*
X034422Y022881D01*
X033639Y022881D01*
X033546Y022787D01*
X033546Y022005D01*
X033639Y021911D01*
X033546Y022046D02*
X033360Y022046D01*
X033361Y022046D02*
X033402Y022070D01*
X033435Y022104D01*
X033459Y022145D01*
X033471Y022190D01*
X033471Y022422D01*
X033083Y022422D01*
X033083Y022034D01*
X033315Y022034D01*
X033361Y022046D01*
X033471Y022205D02*
X033546Y022205D01*
X033546Y022363D02*
X033471Y022363D01*
X033471Y022518D02*
X033471Y022750D01*
X033459Y022795D01*
X033435Y022836D01*
X033402Y022870D01*
X033361Y022894D01*
X033315Y022906D01*
X033083Y022906D01*
X033083Y022518D01*
X032988Y022518D01*
X032988Y022906D01*
X032756Y022906D01*
X032710Y022894D01*
X032669Y022870D01*
X032636Y022836D01*
X032612Y022795D01*
X032600Y022750D01*
X032600Y022518D01*
X032988Y022518D01*
X032988Y022422D01*
X033083Y022422D01*
X033083Y022518D01*
X033471Y022518D01*
X033471Y022522D02*
X033546Y022522D01*
X033546Y022680D02*
X033471Y022680D01*
X033433Y022839D02*
X033597Y022839D01*
X033083Y022839D02*
X032988Y022839D01*
X032988Y022680D02*
X033083Y022680D01*
X033083Y022522D02*
X032988Y022522D01*
X032988Y022422D02*
X032600Y022422D01*
X032600Y022190D01*
X032612Y022145D01*
X032636Y022104D01*
X032669Y022070D01*
X032710Y022046D01*
X032756Y022034D01*
X032988Y022034D01*
X032988Y022422D01*
X032988Y022363D02*
X033083Y022363D01*
X033083Y022205D02*
X032988Y022205D01*
X032988Y022046D02*
X033083Y022046D01*
X032711Y022046D02*
X032410Y022046D01*
X032410Y021888D02*
X037130Y021888D01*
X037130Y022046D02*
X037074Y022046D01*
X037074Y022205D02*
X037130Y022205D01*
X037130Y022363D02*
X037074Y022363D01*
X037074Y022522D02*
X037130Y022522D01*
X037130Y022680D02*
X037074Y022680D01*
X037023Y022839D02*
X037130Y022839D01*
X037690Y022839D02*
X037905Y022839D01*
X037905Y022997D02*
X037690Y022997D01*
X037630Y023156D02*
X037905Y023156D01*
X037905Y023314D02*
X037472Y023314D01*
X037905Y023473D02*
X036524Y023473D01*
X036156Y022839D02*
X034464Y022839D01*
X034515Y022680D02*
X036105Y022680D01*
X036105Y022046D02*
X034515Y022046D01*
X032600Y022205D02*
X032546Y022205D01*
X032546Y022363D02*
X032600Y022363D01*
X032600Y022522D02*
X032546Y022522D01*
X032546Y022680D02*
X032600Y022680D01*
X032638Y022839D02*
X032500Y022839D01*
X031760Y022839D02*
X031594Y022839D01*
X031640Y022680D02*
X031714Y022680D01*
X031714Y022522D02*
X031640Y022522D01*
X031640Y022363D02*
X031714Y022363D01*
X031714Y022205D02*
X031640Y022205D01*
X031850Y022046D02*
X029550Y022046D01*
X029550Y021892D02*
X029550Y022210D01*
X029090Y022210D01*
X029090Y021450D01*
X029108Y021450D01*
X029182Y021462D01*
X029254Y021485D01*
X029322Y021519D01*
X029383Y021564D01*
X029436Y021617D01*
X029481Y021678D01*
X029515Y021746D01*
X029538Y021818D01*
X029550Y021892D01*
X029549Y021888D02*
X031850Y021888D01*
X031850Y021729D02*
X029506Y021729D01*
X029389Y021571D02*
X031850Y021571D01*
X031850Y021412D02*
X028907Y021412D01*
X028958Y021462D02*
X029032Y021450D01*
X029050Y021450D01*
X029050Y022210D01*
X028590Y022210D01*
X028590Y021892D01*
X028602Y021818D01*
X028625Y021746D01*
X028659Y021678D01*
X028704Y021617D01*
X028757Y021564D01*
X028818Y021519D01*
X028886Y021485D01*
X028958Y021462D01*
X029050Y021571D02*
X029090Y021571D01*
X029090Y021729D02*
X029050Y021729D01*
X029050Y021888D02*
X029090Y021888D01*
X029090Y022046D02*
X029050Y022046D01*
X029050Y022205D02*
X029090Y022205D01*
X029550Y022205D02*
X030809Y022205D01*
X030809Y022363D02*
X029550Y022363D01*
X029550Y022522D02*
X030777Y022522D01*
X030618Y022680D02*
X029526Y022680D01*
X029439Y022839D02*
X030460Y022839D01*
X028701Y022839D02*
X028412Y022839D01*
X028506Y022680D02*
X028614Y022680D01*
X028590Y022522D02*
X028530Y022522D01*
X028530Y022363D02*
X028590Y022363D01*
X028590Y022205D02*
X028530Y022205D01*
X028530Y022046D02*
X028590Y022046D01*
X028591Y021888D02*
X028530Y021888D01*
X028485Y021729D02*
X028634Y021729D01*
X028739Y021571D02*
X028751Y021571D01*
X028620Y021360D02*
X028980Y021000D01*
X029010Y020970D01*
X029010Y020440D01*
X029000Y020430D01*
X029400Y020461D02*
X029600Y020461D01*
X029600Y020303D02*
X029400Y020303D01*
X029400Y020144D02*
X029600Y020144D01*
X029652Y019986D02*
X029348Y019986D01*
X029169Y019827D02*
X029831Y019827D01*
X030169Y019827D02*
X030612Y019827D01*
X030612Y019986D02*
X030348Y019986D01*
X030400Y020144D02*
X030612Y020144D01*
X030612Y020303D02*
X030400Y020303D01*
X030400Y020461D02*
X031283Y020461D01*
X031850Y020620D02*
X030400Y020620D01*
X030388Y020778D02*
X031850Y020778D01*
X031850Y020937D02*
X030299Y020937D01*
X029701Y020937D02*
X029299Y020937D01*
X029218Y021095D02*
X031850Y021095D01*
X031850Y021254D02*
X029066Y021254D01*
X028620Y021360D02*
X026820Y021360D01*
X026550Y021360D01*
X026070Y021840D01*
X025920Y021690D01*
X025620Y021390D01*
X025410Y021390D01*
X025350Y021330D01*
X025350Y020190D01*
X025320Y020160D01*
X024870Y019710D01*
X024330Y019710D01*
X024150Y019530D01*
X024120Y019500D01*
X023513Y019510D02*
X023388Y019510D01*
X023196Y019986D02*
X023196Y019986D01*
X023196Y020144D02*
X023196Y020144D01*
X023016Y020303D02*
X022884Y020303D01*
X022524Y020303D02*
X022392Y020303D01*
X022212Y020674D02*
X021690Y021196D01*
X021690Y022230D01*
X022690Y022230D02*
X022690Y020688D01*
X022704Y020674D01*
X022950Y020979D02*
X022930Y020999D01*
X022930Y021532D01*
X022951Y021540D01*
X023080Y021669D01*
X023150Y021838D01*
X023150Y022621D01*
X023080Y022791D01*
X022961Y022910D01*
X023419Y022910D01*
X023300Y022791D01*
X023230Y022621D01*
X023230Y021838D01*
X023300Y021669D01*
X023429Y021540D01*
X023598Y021470D01*
X023781Y021470D01*
X023951Y021540D01*
X024080Y021669D01*
X024150Y021838D01*
X024150Y022621D01*
X024080Y022791D01*
X023961Y022910D01*
X024396Y022910D01*
X024377Y022896D01*
X024324Y022843D01*
X024279Y022782D01*
X024245Y022714D01*
X024222Y022642D01*
X024210Y022568D01*
X024210Y022250D01*
X024670Y022250D01*
X024670Y022210D01*
X024210Y022210D01*
X024210Y021892D01*
X024222Y021818D01*
X024245Y021746D01*
X024279Y021678D01*
X024324Y021617D01*
X024377Y021564D01*
X024438Y021519D01*
X024506Y021485D01*
X024522Y021480D01*
X024282Y021480D01*
X024194Y021443D01*
X024127Y021376D01*
X024037Y021286D01*
X024000Y021198D01*
X024000Y020949D01*
X023966Y020916D01*
X023956Y020916D01*
X023956Y020957D01*
X023863Y021050D01*
X023514Y021050D01*
X023442Y020979D01*
X023371Y021050D01*
X023022Y021050D01*
X022950Y020979D01*
X022930Y021095D02*
X024000Y021095D01*
X023987Y020937D02*
X023956Y020937D01*
X024066Y020676D02*
X023690Y020676D01*
X024066Y020676D02*
X024240Y020850D01*
X024240Y021150D01*
X024330Y021240D01*
X024900Y021240D01*
X025320Y021660D01*
X025350Y021690D01*
X025380Y021720D01*
X025380Y022230D01*
X026070Y022230D02*
X026070Y021840D01*
X024371Y021571D02*
X023981Y021571D01*
X024105Y021729D02*
X024254Y021729D01*
X024211Y021888D02*
X024150Y021888D01*
X024150Y022046D02*
X024210Y022046D01*
X024210Y022205D02*
X024150Y022205D01*
X024150Y022363D02*
X024210Y022363D01*
X024210Y022522D02*
X024150Y022522D01*
X024126Y022680D02*
X024234Y022680D01*
X024321Y022839D02*
X024032Y022839D01*
X023348Y022839D02*
X023032Y022839D01*
X023126Y022680D02*
X023254Y022680D01*
X023230Y022522D02*
X023150Y022522D01*
X023150Y022363D02*
X023230Y022363D01*
X023230Y022205D02*
X023150Y022205D01*
X023150Y022046D02*
X023230Y022046D01*
X023230Y021888D02*
X023150Y021888D01*
X023105Y021729D02*
X023275Y021729D01*
X023399Y021571D02*
X022981Y021571D01*
X022930Y021412D02*
X024163Y021412D01*
X024023Y021254D02*
X022930Y021254D01*
X023376Y020303D02*
X023408Y020303D01*
X024120Y020160D02*
X024630Y020670D01*
X024790Y020670D01*
X024790Y019710D02*
X024870Y019710D01*
X024858Y018718D02*
X024037Y018718D01*
X024020Y018559D02*
X024700Y018559D01*
X024780Y018300D02*
X025140Y018660D01*
X025170Y018690D01*
X024780Y018300D02*
X024780Y018080D01*
X024320Y018084D02*
X024240Y018084D01*
X024240Y018242D02*
X024320Y018242D01*
X024450Y018401D02*
X024110Y018401D01*
X024240Y017925D02*
X024320Y017925D01*
X024443Y017767D02*
X024117Y017767D01*
X025117Y017767D02*
X025443Y017767D01*
X025320Y017925D02*
X025240Y017925D01*
X024394Y016816D02*
X024166Y016816D01*
X024008Y016657D02*
X024552Y016657D01*
X023012Y016499D02*
X015638Y016499D01*
X015583Y016657D02*
X019499Y016657D01*
X019294Y016816D02*
X015741Y016816D01*
X015900Y016974D02*
X019226Y016974D01*
X019128Y017133D02*
X016058Y017133D01*
X016217Y017291D02*
X018970Y017291D01*
X018811Y017450D02*
X016375Y017450D01*
X015584Y017450D02*
X012526Y017450D01*
X012585Y017608D02*
X012739Y017608D01*
X012699Y017767D02*
X012585Y017767D01*
X012585Y017925D02*
X012699Y017925D01*
X012699Y018084D02*
X012580Y018084D01*
X012580Y018242D02*
X012699Y018242D01*
X012699Y018401D02*
X012580Y018401D01*
X012580Y018559D02*
X012699Y018559D01*
X012580Y018718D02*
X013020Y018718D01*
X013020Y018876D02*
X012580Y018876D01*
X012580Y019035D02*
X013020Y019035D01*
X013064Y019193D02*
X012580Y019193D01*
X012585Y019352D02*
X013222Y019352D01*
X013381Y019510D02*
X012585Y019510D01*
X012565Y019669D02*
X012699Y019669D01*
X012699Y019827D02*
X012499Y019827D01*
X012414Y019986D02*
X012699Y019986D01*
X012699Y020144D02*
X012256Y020144D01*
X011972Y020303D02*
X012699Y020303D01*
X012699Y020461D02*
X011950Y020461D01*
X011950Y020620D02*
X012749Y020620D01*
X013092Y020778D02*
X012024Y020778D01*
X012183Y020937D02*
X013251Y020937D01*
X013462Y021095D02*
X012341Y021095D01*
X012500Y021254D02*
X012569Y021254D01*
X011866Y021412D02*
X008844Y021412D01*
X008846Y021254D02*
X011708Y021254D01*
X011549Y021095D02*
X008846Y021095D01*
X008815Y020937D02*
X011415Y020937D01*
X011390Y020778D02*
X008749Y020778D01*
X008667Y020620D02*
X011390Y020620D01*
X011390Y020461D02*
X008508Y020461D01*
X008778Y021571D02*
X012025Y021571D01*
X012183Y021729D02*
X008713Y021729D01*
X008578Y021888D02*
X012342Y021888D01*
X014559Y021888D02*
X015081Y021888D01*
X015081Y022046D02*
X014559Y022046D01*
X014559Y022205D02*
X015081Y022205D01*
X015081Y022363D02*
X014559Y022363D01*
X014559Y022522D02*
X015081Y022522D01*
X015081Y022680D02*
X014559Y022680D01*
X014556Y022839D02*
X015084Y022839D01*
X015081Y021729D02*
X014559Y021729D01*
X014559Y021571D02*
X015081Y021571D01*
X015081Y021412D02*
X014559Y021412D01*
X014559Y021254D02*
X015081Y021254D01*
X013590Y019380D02*
X013260Y019050D01*
X013260Y018117D01*
X013252Y018109D01*
X013806Y018084D02*
X014699Y018084D01*
X014699Y018242D02*
X013806Y018242D01*
X013806Y018401D02*
X014699Y018401D01*
X014699Y018559D02*
X013806Y018559D01*
X013500Y018718D02*
X016014Y018718D01*
X016170Y018876D02*
X013500Y018876D01*
X013584Y019035D02*
X019385Y019035D01*
X019264Y019193D02*
X019052Y019193D01*
X019211Y019352D02*
X019220Y019352D01*
X018900Y019380D02*
X013590Y019380D01*
X013806Y017925D02*
X014699Y017925D01*
X014699Y017767D02*
X013806Y017767D01*
X013765Y017608D02*
X014739Y017608D01*
X015425Y017291D02*
X012461Y017291D01*
X012329Y017133D02*
X015267Y017133D01*
X015108Y016974D02*
X012150Y016974D01*
X014940Y016410D02*
X014940Y016230D01*
X015000Y016170D01*
X015060Y016170D02*
X015180Y016170D01*
X015300Y016050D01*
X015720Y016023D02*
X022776Y016023D01*
X022800Y016182D02*
X015720Y016182D01*
X015704Y016340D02*
X022853Y016340D01*
X022618Y015865D02*
X022139Y015865D01*
X022228Y015706D02*
X022459Y015706D01*
X022301Y015548D02*
X022228Y015548D01*
X021661Y015865D02*
X015720Y015865D01*
X015720Y015389D02*
X017203Y015389D01*
X017115Y015231D02*
X015720Y015231D01*
X015720Y015072D02*
X016503Y015072D01*
X016344Y014914D02*
X015720Y014914D01*
X015720Y014755D02*
X016186Y014755D01*
X015843Y014597D02*
X015690Y014597D01*
X015690Y014438D02*
X015812Y014438D01*
X016547Y014438D02*
X017136Y014438D01*
X017115Y014597D02*
X016706Y014597D01*
X017400Y013588D02*
X017672Y013588D01*
X018000Y013260D01*
X018095Y012853D02*
X018150Y012853D01*
X018095Y012695D02*
X018246Y012695D01*
X017400Y013332D02*
X016482Y013332D01*
X015831Y012853D02*
X015690Y012853D01*
X015690Y013012D02*
X015723Y013012D01*
X015710Y012695D02*
X015912Y012695D01*
X015720Y012536D02*
X016255Y012536D01*
X016413Y012378D02*
X015720Y012378D01*
X014313Y013329D02*
X014155Y013329D01*
X014471Y013487D02*
X012301Y013487D01*
X011050Y013487D02*
X010135Y013487D01*
X008819Y013963D02*
X007630Y013963D01*
X007630Y014121D02*
X008819Y014121D01*
X008819Y014280D02*
X007630Y014280D01*
X007630Y014438D02*
X008819Y014438D01*
X008819Y014597D02*
X007630Y014597D01*
X007630Y014755D02*
X008819Y014755D01*
X008819Y014914D02*
X007630Y014914D01*
X007630Y015072D02*
X008819Y015072D01*
X008820Y015231D02*
X007630Y015231D01*
X007630Y015389D02*
X008820Y015389D01*
X008819Y015548D02*
X007630Y015548D01*
X007630Y015706D02*
X008819Y015706D01*
X008819Y015865D02*
X007630Y015865D01*
X007770Y016023D02*
X008819Y016023D01*
X008819Y016182D02*
X007928Y016182D01*
X008087Y016340D02*
X008819Y016340D01*
X008819Y016499D02*
X008245Y016499D01*
X008404Y016657D02*
X008819Y016657D01*
X008906Y016816D02*
X008562Y016816D01*
X013791Y013804D02*
X014540Y013804D01*
X014382Y013963D02*
X014086Y013963D01*
X014041Y013917D02*
X014041Y013917D01*
X018510Y018090D02*
X019520Y017080D01*
X019980Y017080D01*
X020461Y016657D02*
X020707Y016657D01*
X021150Y017110D02*
X020180Y018080D01*
X019980Y018080D01*
X018510Y018090D02*
X018271Y018090D01*
X018252Y018109D01*
X022560Y018821D02*
X022704Y018965D01*
X022704Y019886D01*
X020050Y021571D02*
X019912Y021571D01*
X019912Y022522D02*
X020180Y022522D01*
X020180Y022680D02*
X019912Y022680D01*
X017070Y022839D02*
X017068Y022839D01*
X027400Y017291D02*
X027600Y017291D01*
X027600Y017133D02*
X027400Y017133D01*
X027343Y016974D02*
X027657Y016974D01*
X027859Y016816D02*
X027141Y016816D01*
X028326Y016023D02*
X028784Y016023D01*
X028784Y015865D02*
X028485Y015865D01*
X028680Y015548D02*
X028784Y015548D01*
X028784Y015389D02*
X028680Y015389D01*
X028759Y015231D02*
X028831Y015231D01*
X028717Y014642D02*
X028722Y014640D01*
X029222Y014640D01*
X029222Y014285D01*
X029278Y014229D01*
X029278Y013629D01*
X029162Y013629D01*
X029162Y014342D01*
X028921Y014342D01*
X028875Y014330D01*
X028860Y014321D01*
X028860Y014448D01*
X028823Y014536D01*
X028756Y014603D01*
X028717Y014642D01*
X028763Y014597D02*
X029222Y014597D01*
X029222Y014438D02*
X028860Y014438D01*
X029162Y014280D02*
X029227Y014280D01*
X029278Y014121D02*
X029162Y014121D01*
X029162Y013963D02*
X029278Y013963D01*
X029278Y013804D02*
X029162Y013804D01*
X029162Y013646D02*
X029278Y013646D01*
X029278Y013487D02*
X029162Y013487D01*
X029162Y013329D02*
X029278Y013329D01*
X029278Y013170D02*
X029162Y013170D01*
X029162Y013012D02*
X029278Y013012D01*
X029278Y012853D02*
X029162Y012853D01*
X029622Y012853D02*
X029849Y012853D01*
X030203Y012853D02*
X030358Y012853D01*
X030358Y012695D02*
X030203Y012695D01*
X029785Y012219D02*
X029220Y012219D01*
X029379Y012061D02*
X029785Y012061D01*
X033570Y014280D02*
X035978Y014280D01*
X035949Y014308D02*
X036043Y014215D01*
X036707Y014215D01*
X036801Y014308D01*
X036801Y014972D01*
X036707Y015066D01*
X036043Y015066D01*
X035949Y014972D01*
X035949Y014308D01*
X035949Y014438D02*
X033570Y014438D01*
X033546Y014597D02*
X035949Y014597D01*
X035949Y014755D02*
X033404Y014755D01*
X033466Y014693D02*
X033466Y014693D01*
X033246Y014914D02*
X035949Y014914D01*
X036043Y015199D02*
X036707Y015199D01*
X036801Y015293D01*
X036801Y015957D01*
X036707Y016050D01*
X036043Y016050D01*
X035949Y015957D01*
X035949Y015293D01*
X036043Y015199D01*
X036011Y015231D02*
X032909Y015231D01*
X032956Y015389D02*
X035949Y015389D01*
X035949Y015548D02*
X032956Y015548D01*
X033087Y015072D02*
X037905Y015072D01*
X037905Y014914D02*
X036801Y014914D01*
X036801Y014755D02*
X037905Y014755D01*
X037905Y014597D02*
X036801Y014597D01*
X036801Y014438D02*
X037905Y014438D01*
X037905Y014280D02*
X036772Y014280D01*
X036739Y015231D02*
X037905Y015231D01*
X037905Y015389D02*
X036801Y015389D01*
X036801Y015548D02*
X037905Y015548D01*
X037905Y015706D02*
X036801Y015706D01*
X036801Y015865D02*
X037905Y015865D01*
X037905Y016023D02*
X036734Y016023D01*
X036707Y016183D02*
X036043Y016183D01*
X035949Y016277D01*
X035949Y016941D01*
X036043Y017035D01*
X036707Y017035D01*
X036801Y016941D01*
X036801Y016277D01*
X036707Y016183D01*
X036801Y016340D02*
X037905Y016340D01*
X037905Y016182D02*
X035237Y016182D01*
X035079Y016023D02*
X036016Y016023D01*
X035949Y015865D02*
X034920Y015865D01*
X034762Y015706D02*
X035949Y015706D01*
X035949Y016340D02*
X035396Y016340D01*
X035554Y016499D02*
X035949Y016499D01*
X035949Y016657D02*
X035713Y016657D01*
X035857Y016816D02*
X035949Y016816D01*
X035982Y016974D02*
X035890Y016974D01*
X036768Y016974D02*
X037905Y016974D01*
X037905Y016816D02*
X036801Y016816D01*
X036801Y016657D02*
X037905Y016657D01*
X037905Y016499D02*
X036801Y016499D01*
X035330Y017925D02*
X034597Y017925D01*
X034615Y017869D02*
X034615Y017608D01*
X034157Y017450D02*
X034003Y017450D01*
X034003Y017291D02*
X034157Y017291D01*
X034157Y017133D02*
X034003Y017133D01*
X033167Y017133D02*
X033013Y017133D01*
X033013Y017291D02*
X033167Y017291D01*
X033167Y017450D02*
X033013Y017450D01*
X033013Y017767D02*
X033167Y017767D01*
X033167Y017925D02*
X033013Y017925D01*
X032602Y018242D02*
X032588Y018242D01*
X032177Y017925D02*
X032023Y017925D01*
X032023Y017767D02*
X032177Y017767D01*
X031612Y018242D02*
X031598Y018242D01*
X032100Y018650D02*
X032100Y019170D01*
X032010Y019260D01*
X030600Y019260D01*
X030450Y019110D01*
X030390Y019050D01*
X029010Y019050D01*
X027990Y019620D02*
X027990Y020420D01*
X028000Y020430D01*
X029400Y020620D02*
X029600Y020620D01*
X029612Y020778D02*
X029388Y020778D01*
X032410Y021254D02*
X037130Y021254D01*
X037130Y021412D02*
X032410Y021412D01*
X032410Y021571D02*
X037130Y021571D01*
X037130Y021729D02*
X032410Y021729D01*
X037690Y021729D02*
X037905Y021729D01*
X037905Y021571D02*
X037690Y021571D01*
X037690Y021412D02*
X037905Y021412D01*
X037905Y021254D02*
X037690Y021254D01*
X037690Y021095D02*
X037905Y021095D01*
X037905Y020937D02*
X037690Y020937D01*
X037690Y020778D02*
X037905Y020778D01*
X037905Y020620D02*
X037690Y020620D01*
X037690Y020461D02*
X037905Y020461D01*
X037905Y020303D02*
X037690Y020303D01*
X037690Y021888D02*
X037905Y021888D01*
X037905Y022046D02*
X037690Y022046D01*
X037690Y022205D02*
X037905Y022205D01*
X037905Y022363D02*
X037690Y022363D01*
X037690Y022522D02*
X037905Y022522D01*
X037905Y022680D02*
X037690Y022680D01*
X033592Y018242D02*
X033578Y018242D01*
X034003Y017925D02*
X034157Y017925D01*
X034157Y017767D02*
X034003Y017767D01*
X032177Y017450D02*
X032023Y017450D01*
X032023Y017291D02*
X032177Y017291D01*
X032177Y017133D02*
X032023Y017133D01*
X032084Y016182D02*
X031008Y016182D01*
X031008Y016023D02*
X032084Y016023D01*
X032084Y015865D02*
X031008Y015865D01*
X031008Y015706D02*
X032084Y015706D01*
X032084Y015548D02*
X029656Y015548D01*
X029656Y015389D02*
X032084Y015389D01*
X032131Y015231D02*
X029609Y015231D01*
X033143Y015016D02*
X033143Y015016D01*
X035878Y012695D02*
X035949Y012695D01*
X028440Y018240D02*
X028320Y018120D01*
X025043Y014738D02*
X025043Y014197D01*
X024815Y014121D02*
X024718Y014121D01*
X024718Y013963D02*
X024938Y013963D01*
X025100Y013804D02*
X024717Y013804D01*
X024390Y014040D02*
X024103Y014327D01*
X024103Y014738D01*
X024714Y014280D02*
X024803Y014280D01*
X024062Y013963D02*
X024033Y013963D01*
X024033Y013804D02*
X024063Y013804D01*
X024053Y013646D02*
X025290Y013646D01*
X024053Y013588D02*
X023583Y013588D01*
X023583Y013588D01*
X021127Y013012D02*
X020972Y013012D01*
X020597Y013012D02*
X020355Y013012D01*
X020405Y012853D02*
X020555Y012853D01*
X020555Y012695D02*
X020405Y012695D01*
X020395Y015072D02*
X020545Y015072D01*
D38*
X019890Y015810D03*
X017670Y011880D03*
X016770Y010500D03*
X023520Y009480D03*
X024150Y010170D03*
X029520Y010140D03*
X029520Y011250D03*
X029520Y012360D03*
X030270Y013541D03*
X030660Y015930D03*
X028440Y018240D03*
X029010Y019050D03*
X030960Y020070D03*
X031500Y021810D03*
X033036Y021804D03*
X035280Y021480D03*
X034950Y019350D03*
X025380Y022230D03*
X024120Y020160D03*
X024120Y019500D03*
X018480Y021300D03*
X018540Y023160D03*
X035610Y012360D03*
X035130Y011250D03*
X034620Y010110D03*
X029550Y007830D03*
X029520Y008970D03*
X034290Y006960D03*
X032370Y005640D03*
X023460Y006690D03*
D39*
X029280Y005670D03*
X025380Y010410D03*
X026850Y010650D03*
X026850Y011340D03*
X026010Y012150D03*
X025530Y012150D03*
X024780Y012300D03*
X024300Y012090D03*
X024750Y012810D03*
X024360Y013290D03*
X024390Y014040D03*
X023220Y014610D03*
X022710Y014760D03*
X022710Y013800D03*
X021900Y015540D03*
X020490Y015480D03*
X018480Y014040D03*
X018000Y013260D03*
X016710Y011730D03*
X016260Y010500D03*
X014160Y009990D03*
X013200Y009990D03*
X019920Y009990D03*
X021000Y010920D03*
X022260Y011940D03*
X022770Y011940D03*
X026130Y012630D03*
X026130Y013290D03*
X027900Y013770D03*
X029550Y014520D03*
X030660Y014520D03*
X025860Y016290D03*
X025350Y016290D03*
X024750Y015540D03*
X023340Y015870D03*
X022080Y017070D03*
X021810Y020280D03*
X021270Y021300D03*
D40*
X026400Y017640D03*
X016140Y014370D03*
X016140Y012990D03*
X015300Y011280D03*
X014940Y010920D03*
X010590Y009930D03*
X010590Y007440D03*
X015300Y016050D03*
X014940Y016410D03*
X010590Y017370D03*
X010590Y019830D03*
D41*
X019900Y014880D02*
X019900Y014100D01*
X019900Y014100D01*
X019010Y014100D01*
X019480Y013510D02*
X019900Y013510D01*
X020860Y013510D01*
X021030Y013680D01*
X021030Y014870D01*
X021020Y014880D01*
X021870Y014820D02*
X021870Y014280D01*
X021690Y014100D01*
X021620Y014100D01*
X021620Y013910D02*
X021950Y013910D01*
X022080Y014040D01*
X022080Y014670D01*
X022350Y014940D01*
X023251Y015841D01*
X023321Y015870D02*
X023340Y015870D01*
X023321Y015870D02*
X023301Y015868D01*
X023283Y015862D01*
X023265Y015853D01*
X023250Y015841D01*
X023010Y015960D02*
X023010Y016001D01*
X023010Y016200D01*
X023100Y016290D01*
X023141Y016290D01*
X025350Y016290D01*
X023010Y015960D02*
X022981Y015931D01*
X022320Y015270D01*
X021870Y014820D01*
X022320Y014370D02*
X022710Y014760D01*
X022320Y014370D02*
X022320Y013950D01*
X022080Y013710D01*
X021620Y013710D01*
X020460Y013800D02*
X020370Y013710D01*
X019900Y013710D01*
X019900Y013320D02*
X019900Y013150D01*
X019830Y013080D01*
X019480Y013510D02*
X019320Y013350D01*
X019028Y013350D01*
X019010Y013332D01*
X019900Y014100D02*
X020340Y014100D01*
X020460Y013980D01*
X020460Y013800D01*
X022980Y015930D02*
X022981Y015931D01*
D42*
X021900Y015540D02*
X020550Y015540D01*
X020490Y015480D01*
X022770Y013860D02*
X023130Y014220D01*
X023581Y014220D01*
X023583Y014218D01*
X023583Y013908D02*
X023238Y013908D01*
X023100Y013770D01*
X023100Y013470D01*
X022350Y012720D01*
X021780Y012720D01*
X021750Y012720D01*
X021600Y012570D01*
X021600Y012060D01*
X021480Y011940D01*
X021000Y011940D01*
X020550Y011490D01*
X018090Y011490D01*
X017340Y010740D01*
X017340Y010410D01*
X016800Y009870D01*
X016200Y009870D01*
X016080Y009750D01*
X016080Y009351D01*
X015120Y009351D02*
X015120Y009840D01*
X015270Y009990D01*
X015960Y009990D01*
X016260Y010290D01*
X016260Y010500D01*
X015900Y010470D02*
X015900Y010950D01*
X016170Y011220D01*
X016440Y011220D01*
X016710Y011490D01*
X016710Y011730D01*
X017670Y010680D02*
X018210Y011220D01*
X020700Y011220D01*
X020978Y011498D01*
X024103Y011498D01*
X024413Y011498D02*
X024413Y012037D01*
X024360Y012090D01*
X024300Y012090D01*
X024780Y012300D02*
X025043Y012037D01*
X025043Y011498D01*
X024750Y011481D02*
X024733Y011498D01*
X024750Y011481D02*
X024750Y011130D01*
X024630Y011010D01*
X021960Y011010D01*
X021390Y010440D01*
X019230Y010440D01*
X019170Y010380D01*
X018960Y010170D01*
X018960Y009351D01*
X018000Y009351D02*
X018000Y010560D01*
X018360Y010920D01*
X020670Y010920D01*
X021000Y010920D01*
X022269Y010740D02*
X020880Y009351D01*
X019920Y009351D02*
X019920Y009990D01*
X021840Y009351D02*
X022989Y010500D01*
X024900Y010500D01*
X024990Y010590D01*
X025170Y010770D01*
X025410Y010770D01*
X025673Y011033D01*
X025673Y011498D01*
X025363Y011498D02*
X025363Y011113D01*
X025260Y011010D01*
X025050Y011010D01*
X024780Y010740D01*
X022269Y010740D01*
X019930Y012540D02*
X019930Y012980D01*
X019830Y013080D01*
X018750Y013080D01*
X018660Y013170D01*
X018660Y013530D01*
X018718Y013588D01*
X019010Y013588D01*
X022710Y013800D02*
X022740Y013830D01*
X022770Y013860D01*
X023220Y014610D02*
X023911Y015301D01*
X023940Y015330D01*
X023981Y015330D01*
X024180Y015330D01*
X024413Y015097D01*
X024413Y014738D01*
X024733Y014738D02*
X024733Y015523D01*
X024750Y015540D01*
X023196Y019886D02*
X023190Y019892D01*
X023190Y020160D01*
X023070Y020280D01*
X023040Y020280D01*
X021930Y020280D01*
X021810Y020280D01*
X021930Y020280D01*
X017670Y010680D02*
X017670Y010260D01*
X017460Y010050D01*
X017040Y009630D01*
X017040Y009351D01*
X015900Y010470D02*
X015750Y010320D01*
X013530Y010320D01*
X013200Y009990D01*
D43*
X011675Y011170D02*
X015060Y012540D01*
X015060Y011220D01*
X014700Y011580D01*
X014430Y011580D01*
X014280Y011730D01*
X010320Y011730D01*
X009600Y012450D01*
X009540Y012450D01*
X009480Y012390D01*
X009480Y011160D01*
X015030Y011160D01*
X015030Y011220D01*
X015030Y012000D01*
X014940Y012090D01*
X014460Y012090D01*
X013740Y012810D01*
X009480Y012810D01*
X009870Y012420D01*
X012926Y012420D01*
X014130Y012420D01*
X013727Y012823D01*
X011675Y012823D01*
X011675Y014477D02*
X012930Y014970D01*
X013080Y014820D01*
X015060Y014820D01*
X015060Y016170D01*
X015030Y016140D01*
X009480Y016140D01*
X011143Y014477D01*
X013667Y014477D01*
X014130Y014940D01*
X013980Y014790D02*
X013650Y014460D01*
X009480Y014460D01*
X009480Y016170D01*
X015000Y016170D01*
X015060Y016170D01*
X014280Y015390D01*
X010950Y015390D01*
X011550Y014790D01*
X013980Y014790D01*
D44*
X011670Y017760D02*
X009510Y017760D01*
X009510Y019437D01*
X011675Y019437D01*
X011670Y019443D02*
X011670Y017789D01*
X011675Y017784D01*
X011670Y017760D02*
X011670Y017820D01*
X011670Y018630D01*
X009510Y018630D01*
X009510Y017760D01*
X005280Y017700D01*
X005280Y015090D01*
X005280Y017700D01*
X005340Y017760D01*
X007020Y019440D01*
X009720Y019440D01*
X010440Y018720D01*
X007170Y018720D01*
X007110Y018660D01*
X007110Y018180D01*
X007620Y017670D01*
X007590Y017670D01*
X006300Y016380D01*
X006270Y016350D01*
X006240Y016320D01*
X006240Y010800D01*
X007380Y009660D01*
X007710Y009330D01*
X007710Y009360D01*
X007590Y009480D01*
X007560Y009480D01*
X007470Y009570D01*
X007500Y009570D01*
X007650Y009420D01*
X007560Y009510D01*
X011670Y009510D01*
X011670Y007860D01*
X007350Y007860D01*
X005280Y009930D01*
X005280Y015090D01*
X005280Y016350D01*
X005610Y016680D01*
X005610Y011160D01*
X008130Y008640D01*
X011010Y008640D01*
X009090Y008640D01*
X006090Y011640D01*
X006180Y011640D01*
X006300Y011520D01*
X006300Y015840D01*
X008310Y017850D01*
X007860Y017850D01*
X006720Y016710D01*
X006720Y010650D01*
X006990Y010380D01*
X006990Y010560D01*
X005940Y011610D01*
X005940Y017010D01*
X007260Y018330D01*
X009510Y019437D01*
X009510Y009516D02*
X011675Y009516D01*
X011675Y007863D01*
M02*
